<?xml version="1.0" encoding="UTF-8" standalone="no"?>
<!DOCTYPE svg SYSTEM "http://www.w3.org/Graphics/SVG/1.1/DTD/svg11.dtd" [
<!ENTITY % SVG.External.attrib
"xmlns:vm2d CDATA #FIXED 'http://www.cortona3d.com/vm2d'
vm2d:name CDATA #IMPLIED
vm2d:type CDATA #IMPLIED">
]>
<svg xmlns="http://www.w3.org/2000/svg" xmlns:vm2d="http://www.cortona3d.com/vm2d" xmlns:xlink="http://www.w3.org/1999/xlink" version="1.1" width="210mm" height="297mm" viewBox="0 0 993 1404" fill="none" fill-rule="evenodd" stroke-miterlimit="5">
  <title>Backplate Assy View</title>
  <desc>"Generator:ParallelGraphics Cortona2D","ProfileId:WebCGM""ProfileEd:2.1""ColourClass:colour""Source:Cortona3D RapidCatalog v.9.0.0.332""Date:20160509"</desc>
  <rect width="993" height="1404" fill="#fff"/>
  <defs/>
  <g id="AUTOID_001" vm2d:name="C3DDrawing" vm2d:type="layer">
    <g transform="matrix(4.72727,0,0,4.72727,0.136383,1404)" stroke-width="0.35" stroke-linecap="round" stroke-linejoin="round" stroke-miterlimit="10">
      <path stroke="#000" d="M45.406,-151.95 C46.156,-154.53 46.18,-155.02 47.526,-157.41 52.034,-165.41 56.548,-173.44 61.313,-181.29 M72.895,-187.98 C69.975,-189.97 64.805,-187.01 61.348,-181.35 61.336,-181.33 61.325,-181.31 61.313,-181.29 M45.406,-151.95 L45.127,-149.34 45.406,-147.05 46.224,-145.25 47.526,-144.04 M10.938,-138.71 L10.607,-139.17 10.495,-139.67 M10.938,-138.71 C11.093,-138.56 11.274,-138.43 11.464,-138.32 17.689,-134.7 23.94,-131.09 30.183,-127.51 31.535,-126.73 33.509,-126.74 34.862,-127.51 39.68,-130.26 44.486,-133.06 49.291,-135.84 M10.495,-139.67 L10.495,-142.37 10.608,-142.86 10.938,-143.32 11.464,-143.72 22.526,-150.11 M12.634,-141.69 L12.275,-142 12.149,-142.37 M12.634,-141.69 L13.171,-141.49 13.804,-141.41 14.437,-141.49 14.974,-141.69 15.332,-142 15.458,-142.37 M20.043,-136.06 C22.277,-143.6 27.258,-150.22 29.104,-157.86 M31.352,-130.89 L30.994,-131.19 30.868,-131.56 M31.352,-130.89 L31.889,-130.68 32.522,-130.61 33.155,-130.68 33.692,-130.89 34.051,-131.2 34.177,-131.56 M16.725,-157.72 L16.954,-156.91 17.381,-156.31 17.979,-155.96 M16.725,-157.72 C16.627,-158.44 16.735,-159.06 16.907,-159.76 17,-160.14 17.146,-160.5 17.306,-160.86 17.471,-161.22 17.797,-161.52 17.88,-161.91 18.071,-162.81 18.059,-163.76 18.283,-164.65 18.522,-165.6 18.739,-166.56 19.074,-167.49 19.422,-168.44 20.003,-169.33 20.226,-170.32 20.291,-170.61 20.156,-170.92 20.167,-171.21 20.18,-171.54 20.227,-171.87 20.299,-172.2 20.376,-172.55 20.493,-172.89 20.613,-173.23 21.219,-174.93 22.447,-176.24 24.008,-177.08 M19.632,-152.46 L19.964,-151.76 20.478,-151.29 M19.632,-152.46 L19.503,-153.35 19.586,-154.36 19.263,-154.83 18.97,-155.34 18.938,-155.4 M50.263,-137.52 L49.291,-135.84 M24.333,-171.69 L24.333,-186.72 M42.47,-146.09 L42.544,-145.7 42.755,-145.46 M42.47,-146.09 L42.544,-146.56 42.755,-147.05 43.071,-147.47 43.445,-147.77 43.818,-147.9 44.134,-147.84 M41.377,-142.45 L42.108,-142.37 M45.282,-141.28 L45.357,-140.89 45.568,-140.65 M45.282,-141.28 L45.357,-141.75 45.568,-142.24 45.884,-142.67 46.257,-142.97 46.63,-143.1 46.947,-143.04 M43.876,-137.78 L44.54,-137.56 45.311,-137.62 46.143,-137.95 46.981,-138.52 47.207,-138.5 47.437,-138.48 47.669,-138.47 M33.692,-190.32 L32.115,-191.51 31.123,-192.89 30.785,-194.38 M33.692,-190.32 C37.243,-188.14 43.37,-188.06 47.376,-190.14 49.489,-191.24 50.681,-192.79 50.639,-194.38 M24.333,-177.64 L24.008,-177.08 M58.799,-144.79 L62.55,-143.49 69.96,-147.77 70.485,-148.17 70.816,-148.63 70.929,-149.12 M50.263,-137.52 L50.957,-137.61 51.693,-137.91 52.436,-138.4 53.089,-139 M58.053,-143.99 L58.799,-144.79 M50.852,-141.25 L50.927,-140.86 51.138,-140.62 M45.944,-158.85 L46.018,-158.47 46.23,-158.22 M52.2,-143.06 L51.827,-142.94 51.454,-142.63 51.138,-142.21 50.927,-141.72 50.852,-141.25 M46.23,-159.82 L46.018,-159.33 45.944,-158.85 M46.23,-159.82 L46.546,-160.24 46.919,-160.54 47.292,-160.67 47.608,-160.61 M27.063,-193.7 L27.421,-194.01 27.547,-194.38 M25.893,-193.42 L26.526,-193.49 27.063,-193.7 M52.2,-143.06 L52.517,-143 M42.911,-205.25 L43.167,-205.69 43.837,-206.55 44.584,-207.27 45.368,-207.79 46.144,-208.1 46.872,-208.18 47.51,-208.02 M50.592,-162.72 L57.494,-158.74 M39.183,-202.57 L39.542,-202.26 40.079,-202.05 40.712,-201.98 41.345,-202.05 41.882,-202.26 42.24,-202.57 42.366,-202.93 M39.183,-202.57 L39.057,-202.93 M60.304,-150.19 L60.458,-150.01 M63.498,-149.84 L62.892,-148.95 62.195,-148.17 M57.494,-158.74 L66.318,-174.02 M54.897,-193.49 L55.531,-193.42 56.164,-193.49 56.701,-193.7 57.059,-194.01 57.185,-194.38 M54.897,-193.49 L54.361,-193.7 54.002,-194.01 53.876,-194.38 M63.498,-149.84 L63.98,-150.81 64.313,-151.8 64.48,-152.77 64.472,-153.65 M73.134,-168.65 L64.472,-153.65 M58.638,-179.72 L58.427,-179.96 58.353,-180.35 58.427,-180.82 58.638,-181.31 58.955,-181.73 59.328,-182.04 59.701,-182.17 60.017,-182.1 M66.45,-151.15 L66.091,-151.46 65.965,-151.82 M66.45,-151.15 L66.987,-150.94 67.62,-150.87 68.253,-150.94 68.79,-151.15 69.148,-151.46 69.274,-151.82 M66.318,-174.02 L59.416,-178.01 M70.929,-149.12 L70.929,-151.82 70.816,-152.32 70.485,-152.78 69.96,-153.17 M70.929,-149.91 L71.909,-149.35 74.912,-151.08 M49.41,-207.06 L49.169,-207.06 M50.681,-207.61 L49.904,-207.02 49.41,-207.06 M50.681,-207.61 L51.466,-208 52.215,-208.15 52.886,-208.06 53.444,-207.75 M77.759,-156.01 L77.759,-177.59 M80.073,-185.69 L80.162,-185.94 80.364,-187.03 80.34,-188.03 80.092,-188.85 79.636,-189.45 M73.134,-168.65 L73.918,-169.1 74.682,-169.74 75.384,-170.55 75.986,-171.47 76.455,-172.47 76.766,-173.48 76.902,-174.45 76.855,-175.33 77.991,-178.17 78.185,-178.87 M67.959,-189.11 L67.747,-189.35 67.673,-189.74 67.747,-190.21 67.959,-190.7 68.275,-191.13 68.648,-191.43 69.021,-191.56 69.338,-191.5 M77.736,-190.73 L77.448,-191.15 77.567,-192.11 77.502,-192.98 77.256,-193.7 76.843,-194.24 M72.713,-171.68 L72.867,-171.5 M74.016,-173.93 L74.246,-173.89 M73.529,-190.67 L73.318,-190.18 73.243,-189.71 73.318,-189.32 73.529,-189.08 M76.056,-184.9 L76.13,-184.51 76.342,-184.27 M70.908,-194.51 L71.422,-194.12 71.784,-193.52 M73.529,-190.67 L73.845,-191.1 74.218,-191.4 74.591,-191.53 74.908,-191.47 M77.736,-190.73 L77.999,-190.29 78.238,-189.82 M77.72,-186.66 L77.404,-186.72 77.031,-186.59 76.658,-186.29 76.342,-185.86 76.13,-185.37 76.056,-184.9 M30.458,-148.75 L41.377,-142.45 M20.478,-151.29 L25.231,-148.54 M17.979,-155.96 L26.312,-151.14 M53.444,-207.75 L76.843,-194.24 M79.636,-189.45 L77.907,-190.44 M70.908,-194.51 L47.51,-208.02 M43.876,-137.78 L32.957,-144.08 M60.399,-194.38 C60.462,-192.73 60.462,-191.07 60.399,-189.42 60.376,-188.81 59.932,-188.37 59.43,-188.07 53.989,-184.9 48.518,-181.74 43.052,-178.62 41.698,-177.84 39.726,-177.84 38.372,-178.62 32.905,-181.74 27.434,-184.9 21.993,-188.07 21.546,-188.33 20.979,-188.83 21.024,-189.42 M60.399,-194.38 C60.352,-195 59.95,-195.43 59.43,-195.73 53.989,-198.9 48.518,-202.06 43.052,-205.18 42.362,-205.58 41.502,-205.76 40.712,-205.74 39.9,-205.72 39.087,-205.59 38.372,-205.18 32.905,-202.06 27.434,-198.9 21.993,-195.73 21.546,-195.47 20.979,-194.97 21.024,-194.38 L21.024,-189.42 M62.627,-167.63 L62.62,-167.64 61.196,-169.72 60.103,-172 59.416,-174.31 59.181,-176.5 59.223,-176.84 M61.837,-152.4 L61.607,-152.44 M24.238,-194.38 L24.364,-194.01 24.723,-193.7 25.26,-193.49 25.893,-193.42 M41.345,-184.94 L41.882,-185.15 42.24,-185.46 42.366,-185.82 M39.057,-185.82 L39.183,-185.46 39.542,-185.15 40.079,-184.94 40.712,-184.87 41.345,-184.94 M58.838,-177 L59.538,-176.71 61.319,-175.41 62.978,-173.66 64.402,-171.57 64.63,-171.1 M137.82,-105.54 L137.71,-105.6 137.56,-106.08 137.63,-106.68 137.91,-107.26 M137.31,-108.37 L137.27,-108.62 137,-108.78 136.61,-108.65 M135.98,-106.71 L135.82,-106.68 135.45,-106.91 135.29,-107.38 135.37,-107.99 135.65,-108.57 135.61,-108.5 M135.65,-108.57 L136.05,-108.98 136.44,-109.11 136.71,-108.94 136.75,-108.7 M135.41,-107.04 L135.25,-107.01 134.89,-107.23 134.73,-107.71 134.81,-108.31 135.09,-108.89 135.48,-109.3 135.92,-109.41 136.24,-109.21 136.21,-109.03 M137.91,-107.26 L137.87,-107.2 M137.91,-107.26 L138.31,-107.67 138.7,-107.81 138.97,-107.64 138.98,-107.59 M137.67,-105.73 L137.51,-105.71 137.15,-105.93 136.99,-106.4 137.07,-107.01 137.35,-107.59 137.31,-107.52 M137.35,-107.59 L137.74,-108 138.13,-108.13 138.41,-107.96 138.44,-107.72 M137.11,-106.06 L136.95,-106.03 136.58,-106.26 136.43,-106.73 136.5,-107.33 136.78,-107.92 136.74,-107.85 M136.78,-107.92 L137.18,-108.32 137.57,-108.46 137.84,-108.29 137.88,-108.04 M136.54,-106.38 L136.38,-106.36 136.02,-106.58 135.86,-107.06 135.94,-107.66 136.22,-108.24 136.17,-108.17 M136.22,-108.24 L136.61,-108.65 M136.09,-108.99 L135.91,-109.09 M136.65,-108.66 L136.48,-108.77 M137.22,-108.34 L137.04,-108.44 M137.79,-108.01 L137.61,-108.12 M138.02,-105.29 L137.82,-105.53 137.76,-105.9 137.83,-106.36 138.04,-106.82 138.34,-107.22 138.7,-107.5 139.06,-107.62 139.36,-107.55 M138.35,-107.69 L138.17,-107.79 M141.29,-102.27 L142.4,-101.63 143.85,-101.46 M141.32,-104.24 L141.29,-102.27 M145.32,-103.25 L145.35,-105.22 144.24,-105.86 M145.32,-103.25 L143.85,-101.46 M141.32,-104.24 L142.79,-106.03 M144.24,-105.86 L142.79,-106.03 M139.36,-107.55 L142.54,-105.71 M138.02,-105.29 L141.31,-103.39 M123.6,-113.76 L123.49,-113.83 123.33,-114.3 123.41,-114.9 123.69,-115.49 M123.09,-116.59 L123.05,-116.84 122.78,-117.01 122.39,-116.87 M121.75,-114.93 L121.59,-114.91 121.23,-115.13 121.07,-115.61 121.15,-116.21 121.43,-116.79 121.39,-116.72 M121.43,-116.79 L121.82,-117.2 122.21,-117.33 122.49,-117.16 122.52,-116.92 M121.19,-115.26 L121.03,-115.23 120.66,-115.46 120.5,-115.93 120.58,-116.54 120.86,-117.12 121.26,-117.53 121.7,-117.63 122.01,-117.44 121.98,-117.25 M123.69,-115.49 L123.65,-115.42 M123.69,-115.49 L124.08,-115.89 124.48,-116.03 124.75,-115.86 124.75,-115.82 M123.45,-113.95 L123.29,-113.93 122.92,-114.15 122.77,-114.63 122.84,-115.23 123.12,-115.81 123.08,-115.75 M123.12,-115.81 L123.52,-116.22 123.91,-116.35 124.18,-116.18 124.22,-115.94 M122.88,-114.28 L122.72,-114.25 122.36,-114.48 122.2,-114.95 122.28,-115.56 122.56,-116.14 122.52,-116.07 M122.56,-116.14 L122.95,-116.55 123.35,-116.68 123.62,-116.51 123.65,-116.27 M122.32,-114.61 L122.16,-114.58 121.79,-114.8 121.64,-115.28 121.71,-115.88 121.99,-116.46 121.95,-116.4 M121.99,-116.46 L122.39,-116.87 M121.86,-117.21 L121.69,-117.32 M122.43,-116.89 L122.25,-116.99 M123,-116.56 L122.82,-116.66 M123.56,-116.23 L123.38,-116.34 M123.79,-113.51 L123.6,-113.75 123.53,-114.13 123.61,-114.58 123.81,-115.04 124.12,-115.45 124.48,-115.73 124.83,-115.84 125.13,-115.77 M124.13,-115.91 L123.95,-116.01 M127.07,-110.49 L128.17,-109.86 129.62,-109.68 M127.1,-112.46 L127.07,-110.49 M131.1,-111.48 L131.13,-113.44 130.02,-114.08 M131.1,-111.48 L129.62,-109.68 M127.1,-112.46 L128.57,-114.25 M130.02,-114.08 L128.57,-114.25 M125.13,-115.77 L128.31,-113.94 M123.79,-113.51 L127.08,-111.61 M150.23,-127.03 L150.12,-127.1 149.96,-127.57 150.04,-128.18 150.32,-128.76 M149.72,-129.87 L149.68,-130.11 149.41,-130.28 149.02,-130.15 M148.38,-128.21 L148.23,-128.18 147.86,-128.41 147.7,-128.88 147.78,-129.48 148.06,-130.07 148.02,-130 M148.06,-130.07 L148.46,-130.47 148.85,-130.61 149.12,-130.44 149.16,-130.19 M147.82,-128.53 L147.66,-128.51 147.3,-128.73 147.14,-129.21 147.22,-129.81 147.5,-130.39 147.89,-130.8 148.33,-130.91 148.65,-130.71 148.62,-130.53 M150.32,-128.76 L150.28,-128.69 M150.32,-128.76 L150.72,-129.17 151.11,-129.3 151.38,-129.13 151.39,-129.09 M150.08,-127.23 L149.92,-127.2 149.56,-127.43 149.4,-127.9 149.48,-128.51 149.76,-129.09 149.71,-129.02 M149.76,-129.09 L150.15,-129.49 150.54,-129.63 150.81,-129.46 150.85,-129.21 M149.52,-127.55 L149.36,-127.53 148.99,-127.75 148.83,-128.23 148.91,-128.83 149.19,-129.41 149.15,-129.35 M149.19,-129.41 L149.59,-129.82 149.98,-129.95 150.25,-129.79 150.29,-129.54 M148.95,-127.88 L148.79,-127.85 148.43,-128.08 148.27,-128.55 148.35,-129.16 148.63,-129.74 148.58,-129.67 M148.63,-129.74 L149.02,-130.15 M148.5,-130.49 L148.32,-130.59 M149.06,-130.16 L148.89,-130.26 M149.63,-129.84 L149.45,-129.94 M150.19,-129.51 L150.02,-129.61 M150.43,-126.79 L150.23,-127.03 150.17,-127.4 150.24,-127.86 150.45,-128.32 150.75,-128.72 151.11,-129 151.47,-129.12 151.77,-129.05 M150.76,-129.18 L150.58,-129.29 M153.7,-123.77 L154.81,-123.13 156.26,-122.96 M153.73,-125.73 L153.7,-123.77 M157.73,-124.75 L157.76,-126.71 156.65,-127.35 M157.73,-124.75 L156.26,-122.96 M153.73,-125.73 L155.2,-127.53 M156.65,-127.35 L155.2,-127.53 M151.77,-129.05 L154.95,-127.21 M150.43,-126.79 L153.72,-124.89 M136.01,-135.26 L135.9,-135.32 135.74,-135.8 135.82,-136.4 136.1,-136.98 M135.5,-138.09 L135.46,-138.33 135.19,-138.5 134.8,-138.37 M134.16,-136.43 L134,-136.4 133.64,-136.63 133.48,-137.1 133.56,-137.71 133.84,-138.29 133.79,-138.22 M133.84,-138.29 L134.23,-138.7 134.62,-138.83 134.89,-138.66 134.93,-138.42 M133.6,-136.76 L133.44,-136.73 133.07,-136.95 132.91,-137.43 132.99,-138.03 133.27,-138.61 133.67,-139.02 134.11,-139.13 134.42,-138.93 134.39,-138.75 M136.1,-136.98 L136.06,-136.92 M136.1,-136.98 L136.49,-137.39 136.88,-137.52 137.16,-137.36 137.16,-137.31 M135.86,-135.45 L135.7,-135.42 135.33,-135.65 135.18,-136.12 135.25,-136.73 135.53,-137.31 135.49,-137.24 M135.53,-137.31 L135.93,-137.72 136.32,-137.85 136.59,-137.68 136.63,-137.44 M135.29,-135.78 L135.13,-135.75 134.77,-135.97 134.61,-136.45 134.69,-137.05 134.97,-137.63 134.92,-137.57 M134.97,-137.63 L135.36,-138.04 135.75,-138.18 136.02,-138.01 136.06,-137.76 M134.73,-136.1 L134.57,-136.08 134.2,-136.3 134.04,-136.78 134.12,-137.38 134.4,-137.96 134.36,-137.89 M134.4,-137.96 L134.8,-138.37 M134.27,-138.71 L134.1,-138.81 M134.84,-138.38 L134.66,-138.49 M135.4,-138.06 L135.23,-138.16 M135.97,-137.73 L135.79,-137.83 M136.2,-135.01 L136.01,-135.25 135.94,-135.62 136.02,-136.08 136.22,-136.54 136.53,-136.94 136.89,-137.22 137.24,-137.34 137.54,-137.27 M136.54,-137.41 L136.36,-137.51 M139.48,-131.99 L140.58,-131.35 142.03,-131.18 M139.5,-133.95 L139.48,-131.99 M143.51,-132.97 L143.53,-134.94 142.43,-135.58 M143.51,-132.97 L142.03,-131.18 M139.5,-133.95 L140.98,-135.75 M142.43,-135.58 L140.98,-135.75 M137.54,-137.27 L140.72,-135.43 M136.2,-135.01 L139.49,-133.11 M128.51,-96.161 L128.4,-96.227 128.24,-96.701 128.32,-97.306 128.6,-97.887 M128,-98.993 L127.96,-99.238 127.69,-99.407 127.64,-99.389 M126.66,-97.333 L126.51,-97.308 126.49,-97.318 M128.6,-97.887 L128.56,-97.82 M128.6,-97.887 L129,-98.295 129.39,-98.428 129.66,-98.259 129.67,-98.216 M128.36,-96.354 L128.2,-96.329 127.84,-96.553 127.68,-97.027 127.76,-97.632 128.04,-98.213 127.99,-98.146 M128.04,-98.213 L128.43,-98.621 128.82,-98.755 129.09,-98.585 129.13,-98.341 M127.79,-96.681 L127.64,-96.655 127.27,-96.879 127.11,-97.354 127.19,-97.959 127.44,-98.478 M127.61,-98.684 L127.87,-98.948 128.26,-99.081 128.53,-98.911 128.57,-98.667 M127.23,-97.007 L127.07,-96.981 126.71,-97.205 126.62,-97.474 M127.91,-98.962 L127.73,-99.065 M128.47,-98.635 L128.3,-98.738 M128.71,-95.913 L128.51,-96.153 128.44,-96.528 128.52,-96.982 128.73,-97.446 129.03,-97.848 129.39,-98.127 129.75,-98.242 130.05,-98.174 M129.04,-98.309 L128.86,-98.412 M131.98,-92.896 L133.09,-92.258 134.54,-92.084 M132.01,-94.861 L131.98,-92.896 M136.01,-93.875 L136.04,-95.841 134.93,-96.478 M136.01,-93.875 L134.54,-92.084 M132.01,-94.861 L133.48,-96.652 M134.93,-96.478 L133.48,-96.652 M130.05,-98.174 L133.23,-96.338 M128.71,-95.913 L132,-94.013 M120.13,-100.99 L120.02,-101.06 119.86,-101.53 119.94,-102.13 120.22,-102.72 M119.62,-103.82 L119.58,-104.07 119.31,-104.24 118.92,-104.1 M118.28,-102.16 L118.13,-102.14 117.76,-102.36 117.6,-102.84 117.68,-103.44 117.96,-104.02 117.92,-103.95 M117.96,-104.02 L118.35,-104.43 118.75,-104.56 119.02,-104.4 119.05,-104.15 M117.72,-102.49 L117.56,-102.46 117.2,-102.69 117.04,-103.16 117.11,-103.77 117.39,-104.35 117.79,-104.76 118.23,-104.86 118.55,-104.67 118.52,-104.49 M120.22,-102.72 L120.18,-102.65 M120.22,-102.72 L120.62,-103.12 121.01,-103.26 121.28,-103.09 121.28,-103.05 M119.98,-101.18 L119.82,-101.16 119.46,-101.38 119.3,-101.86 119.37,-102.46 119.65,-103.04 119.61,-102.98 M119.65,-103.04 L120.05,-103.45 120.44,-103.59 120.71,-103.42 120.75,-103.17 M119.41,-101.51 L119.26,-101.49 118.89,-101.71 118.73,-102.18 118.81,-102.79 119.09,-103.37 119.05,-103.3 M119.09,-103.37 L119.48,-103.78 119.88,-103.91 120.15,-103.74 120.19,-103.5 M118.85,-101.84 L118.69,-101.81 118.33,-102.03 118.17,-102.51 118.24,-103.11 118.52,-103.69 118.48,-103.63"/>
      <path stroke="#000" d="M118.52,-103.69 L118.92,-104.1 M118.4,-104.44 L118.22,-104.55 M118.96,-104.12 L118.78,-104.22 M119.53,-103.79 L119.35,-103.9 M120.09,-103.47 L119.91,-103.57 M120.33,-100.74 L120.13,-100.98 120.06,-101.36 120.14,-101.81 120.35,-102.27 120.65,-102.68 121.01,-102.96 121.36,-103.07 121.66,-103 M120.66,-103.14 L120.48,-103.24 M123.6,-97.724 L124.71,-97.086 126.16,-96.916 M123.63,-99.688 L123.6,-97.724 M127.63,-98.709 L127.66,-100.67 126.55,-101.31 M127.63,-98.709 L126.16,-96.916 M123.63,-99.688 L125.1,-101.48 M126.55,-101.31 L125.1,-101.48 M121.66,-103 L124.84,-101.17 M120.33,-100.74 L123.62,-98.844 M153.71,-139.82 L153.6,-139.88 153.45,-140.36 153.52,-140.96 153.8,-141.54 M153.2,-142.65 L153.16,-142.89 152.89,-143.06 152.84,-143.05 M151.87,-140.99 L151.71,-140.96 151.69,-140.97 M153.8,-141.54 L153.76,-141.48 M153.8,-141.54 L154.2,-141.95 154.59,-142.08 154.86,-141.92 154.87,-141.87 M153.56,-140.01 L153.4,-139.98 153.04,-140.21 152.88,-140.68 152.96,-141.29 153.24,-141.87 153.2,-141.8 M153.24,-141.87 L153.63,-142.28 154.02,-142.41 154.3,-142.24 154.33,-142 M153,-140.34 L152.84,-140.31 152.47,-140.53 152.31,-141.01 152.39,-141.61 152.64,-142.13 M152.82,-142.34 L153.07,-142.6 153.46,-142.74 153.73,-142.57 153.77,-142.32 M152.43,-140.66 L152.27,-140.64 151.91,-140.86 151.82,-141.13 M153.11,-142.62 L152.93,-142.72 M153.67,-142.29 L153.5,-142.39 M153.91,-139.57 L153.71,-139.81 153.65,-140.18 153.72,-140.64 153.93,-141.1 154.23,-141.5 154.59,-141.78 154.95,-141.9 155.25,-141.83 M154.24,-141.97 L154.06,-142.07 M157.18,-136.55 L158.29,-135.91 159.74,-135.74 M157.21,-138.52 L157.18,-136.55 M161.21,-137.53 L161.24,-139.5 160.13,-140.14 M161.21,-137.53 L159.74,-135.74 M157.21,-138.52 L158.68,-140.31 M160.13,-140.14 L158.68,-140.31 M155.25,-141.83 L158.43,-139.99 M153.91,-139.57 L157.2,-137.67 M145.33,-144.65 L145.22,-144.71 145.06,-145.19 145.14,-145.79 145.42,-146.37 M144.82,-147.48 L144.78,-147.72 144.51,-147.89 144.12,-147.76 M143.48,-145.82 L143.33,-145.79 142.96,-146.02 142.8,-146.49 142.88,-147.1 143.16,-147.68 143.12,-147.61 M143.16,-147.68 L143.56,-148.09 143.95,-148.22 144.22,-148.05 144.26,-147.81 M142.92,-146.15 L142.76,-146.12 142.4,-146.34 142.24,-146.82 142.31,-147.42 142.59,-148 142.99,-148.41 143.43,-148.52 143.75,-148.32 143.72,-148.14 M145.42,-146.37 L145.38,-146.31 M145.42,-146.37 L145.82,-146.78 146.21,-146.92 146.48,-146.75 146.49,-146.7 M145.18,-144.84 L145.02,-144.82 144.66,-145.04 144.5,-145.51 144.58,-146.12 144.86,-146.7 144.81,-146.63 M144.86,-146.7 L145.25,-147.11 145.64,-147.24 145.91,-147.07 145.95,-146.83 M144.61,-145.17 L144.46,-145.14 144.09,-145.36 143.93,-145.84 144.01,-146.44 144.29,-147.03 144.25,-146.96 M144.29,-147.03 L144.69,-147.43 145.08,-147.57 145.35,-147.4 145.39,-147.15 M144.05,-145.49 L143.89,-145.47 143.53,-145.69 143.37,-146.17 143.45,-146.77 143.73,-147.35 143.68,-147.28 M143.73,-147.35 L144.12,-147.76 M143.6,-148.1 L143.42,-148.2 M144.16,-147.77 L143.98,-147.88 M144.73,-147.45 L144.55,-147.55 M145.29,-147.12 L145.11,-147.23 M145.53,-144.4 L145.33,-144.64 145.26,-145.01 145.34,-145.47 145.55,-145.93 145.85,-146.33 146.21,-146.61 146.56,-146.73 146.86,-146.66 M145.86,-146.8 L145.68,-146.9 M148.8,-141.38 L149.91,-140.74 151.36,-140.57 M148.83,-143.35 L148.8,-141.38 M152.83,-142.36 L152.86,-144.33 151.75,-144.97 M152.83,-142.36 L151.36,-140.57 M148.83,-143.35 L150.3,-145.14 M151.75,-144.97 L150.3,-145.14 M146.86,-146.66 L150.04,-144.82 M145.53,-144.4 L148.82,-142.5 M172.51,-137.71 L172.59,-137.65 M174.14,-137.13 L173.93,-136.81 173.77,-136.9 M172.51,-137.71 L172.47,-137.81 172.68,-138.13 M172.73,-138.11 L172.91,-138.16 173.22,-138.48 173.27,-138.72 M174.1,-137.23 L174.14,-137.13 M172.68,-138.13 L173.37,-137.74 M174.09,-137.38 L174.26,-137.81 174.46,-137.95 M174.12,-137.18 L174.12,-137.19 174.09,-137.38 M174.1,-137.23 L173.37,-137.74 M173.27,-138.72 L173.46,-138.82 173.78,-139.14 M174.46,-137.95 L174.47,-138.16 174.63,-138.59 M173.78,-139.14 L173.83,-139.13 173.92,-139.08 174.04,-139.01 174.19,-138.92 174.33,-138.83 174.46,-138.74 174.56,-138.66 174.62,-138.61 174.63,-138.59 M172.16,-136.95 L172.24,-136.88 172.38,-136.77 172.56,-136.65 172.77,-136.51 172.97,-136.39 173.14,-136.29 173.26,-136.23 173.32,-136.21 M172.15,-136.97 L172.62,-137.69 M172.16,-136.95 L172.15,-136.97 M173.32,-136.21 L173.79,-136.93 M174.15,-138.98 L174.12,-138.97 M174.15,-138.98 L174.16,-138.97 174.18,-138.96 174.21,-138.95 174.24,-138.93 174.27,-138.91 174.29,-138.89 174.31,-138.88 174.32,-138.87 174.33,-138.86 174.33,-138.83 M165.97,-122.13 L165.38,-122.19 164.71,-121.94 164.05,-121.42 163.46,-120.69 163.03,-119.84 162.8,-118.97 162.8,-118.19 163.03,-117.59 163.46,-117.25 M163.28,-126.88 L167.23,-124.6 168.1,-123.9 168.57,-122.7 168.57,-121.13 168.1,-119.39 167.23,-117.68 166.05,-116.22 164.71,-115.17 163.38,-114.67 162.2,-114.78 M158.25,-117.06 L157.37,-117.76 156.91,-118.96 156.91,-120.53 157.37,-122.27 158.25,-123.98 159.42,-125.44 160.76,-126.49 162.1,-126.99 163.28,-126.88 M162.2,-114.78 L158.25,-117.06 M84.848,-186.77 C71.73,-188.85 57.685,-154.39 56.467,-152.25 M56.467,-152.25 C51.72,-143.92 51.72,-135.75 56.467,-132.51 M84.594,-167.85 C87.231,-172.57 87.78,-177.69 85.895,-180.02 M84.594,-167.85 C80.111,-159.84 75.429,-151.9 70.806,-143.97 69.711,-142.09 68.71,-140.89 67.135,-139.4 65.891,-138.23 64.507,-137.47 62.896,-136.96 62.267,-136.75 61.582,-136.74 60.921,-136.76 60.53,-136.77 59.798,-137.11 59.798,-137.11 M85.895,-180.02 L85.034,-180.82 M73.812,-144.95 L73.748,-144.54 73.536,-144.05 73.22,-143.62 72.895,-143.36 M64.492,-135.56 L64.427,-135.14 64.216,-134.66 63.9,-134.23 63.575,-133.97 M56.109,-140.4 L56.044,-139.98 55.833,-139.5 55.517,-139.07 55.192,-138.81 M59.583,-153.16 L59.519,-152.75 59.308,-152.26 58.991,-151.84 58.667,-151.58 M80.72,-182.72 L80.396,-182.46 M71.928,-174.24 L71.716,-173.76 71.4,-173.33 71.076,-173.07 M58.922,-135.59 L58.857,-135.18 58.646,-134.69 58.329,-134.26 58.005,-134 M86.883,-184.02 L86.818,-183.61 86.607,-183.12 86.291,-182.69 85.966,-182.43 M83.912,-181.16 C80.955,-181.63 76.791,-178.59 74.026,-173.95 M74.026,-173.95 C69.327,-166.06 64.799,-158.04 60.239,-150.07 M60.239,-150.07 C57.024,-144.45 57.024,-138.9 60.239,-136.7 M83.912,-181.16 L85.608,-180.64 M85.956,-182.37 L86.031,-181.98 86.242,-181.74 M60.005,-153.33 L59.632,-153.2 59.259,-152.9 58.943,-152.48 58.731,-151.99 58.657,-151.51 58.731,-151.13 58.943,-150.88 M56.158,-140.44 L55.784,-140.13 55.468,-139.71 55.257,-139.22 55.183,-138.75 55.257,-138.36 55.468,-138.12 M62.901,-131.44 L59.985,-131.15 57.481,-131.92 M62.9,-131.44 C67.507,-132.92 71.414,-136.38 74.578,-141.79 M74.578,-141.79 C79.214,-149.72 83.922,-157.64 88.365,-165.67 M88.365,-165.67 C92.987,-174.03 93.099,-182.81 88.615,-185.29 88.533,-185.33 88.45,-185.37 88.365,-185.41 M65.23,-135.66 L64.913,-135.72 64.54,-135.6 64.167,-135.29 63.851,-134.87 63.64,-134.38 63.565,-133.91 63.64,-133.52 63.851,-133.28 M74.55,-145.06 L74.234,-145.12 73.861,-144.99 73.488,-144.69 73.171,-144.26 72.96,-143.77 72.886,-143.3 72.96,-142.91 73.171,-142.67 M88.843,-178.03 L88.769,-177.56 88.843,-177.17 89.055,-176.93 M85.896,-166.18 L85.58,-165.75 85.369,-165.27 85.295,-164.79 85.369,-164.4 85.58,-164.16 M59.66,-135.7 L59.343,-135.76 58.97,-135.63 58.597,-135.33 58.281,-134.9 58.069,-134.41 57.995,-133.94 58.069,-133.55 58.281,-133.31 M87.621,-184.13 L87.304,-184.19 86.931,-184.06 86.558,-183.76 86.242,-183.33 86.031,-182.84 85.956,-182.37 M56.467,-132.51 L57.481,-131.92 M88.365,-185.41 L87.351,-186 84.848,-186.77 M71.992,-174.66 L71.928,-174.24 M81.313,-184.05 L81.248,-183.64 81.037,-183.15 80.72,-182.72 M89.695,-179.21 L89.631,-178.8 89.42,-178.31 89.103,-177.88 88.779,-177.62 M86.221,-166.44 L86.156,-166.03 85.945,-165.54 85.629,-165.12 85.304,-164.85 M90.433,-179.32 L90.117,-179.38 89.744,-179.25 89.371,-178.95 89.055,-178.52 88.843,-178.03 M80.46,-182.87 L80.386,-182.4 80.46,-182.01 80.672,-181.77 M82.051,-184.16 L81.734,-184.22 81.361,-184.09 80.988,-183.79 80.672,-183.36 80.46,-182.87 M86.959,-166.55 L86.643,-166.61 86.27,-166.48 85.896,-166.18 M60.005,-153.33 L60.321,-153.27 M71.14,-173.48 L71.066,-173.01 71.14,-172.62 71.351,-172.38 M72.73,-174.76 L72.414,-174.83 72.041,-174.7 71.668,-174.39 71.351,-173.97 71.14,-173.48 M56.847,-140.5 L56.531,-140.56 56.158,-140.44 M73.462,-124.48 L69.952,-126.51 69.75,-126.74 69.678,-127.11 69.75,-127.57 69.952,-128.03 70.256,-128.44 70.614,-128.73 70.972,-128.86 71.276,-128.8 M74.786,-126.77 L71.276,-128.8 M73.462,-124.48 L73.766,-124.42 74.124,-124.54 74.482,-124.83 74.786,-125.24 74.989,-125.71 75.06,-126.17 74.989,-126.54 74.786,-126.77 M102.8,-173.77 L103,-174.24 103.08,-174.69 103,-175.06 102.8,-175.3 99.292,-177.32 M101.48,-173 L101.78,-172.95 102.14,-173.07 102.5,-173.36 102.8,-173.77 M101.48,-173 L97.969,-175.03 M98.989,-177.38 L98.631,-177.26 98.272,-176.97 97.969,-176.56 97.766,-176.09 97.695,-175.64 97.766,-175.26 97.969,-175.03 M98.989,-177.38 L99.292,-177.32 M121.06,-156.99 L109.53,-163.65 M121.06,-156.99 L129.76,-151.96 M121.06,-156.99 L120.28,-157.44 M121.06,-156.99 L127.42,-153.31 M129.76,-151.96 L127.42,-153.31 M129.76,-151.96 L109.53,-163.65 M129.49,-139.38 C132.37,-144.49 132.56,-150.08 129.92,-151.86 129.87,-151.9 129.82,-151.93 129.76,-151.96 M129.49,-139.38 C125.62,-132.5 121.56,-125.69 117.57,-118.88 M107.28,-112.26 C110.63,-111.38 114.7,-113.99 117.57,-118.88 M109.53,-163.65 L98.771,-145.02 M109.53,-163.65 L120.28,-157.44 M98.771,-145.02 L101.89,-143.22 106.16,-140.75 M125.24,-147.99 L123.89,-147.35 123.83,-147.3 M120.36,-140.92 L120.46,-139.72 121.03,-138.63 M127.42,-147.49 L126.46,-148.04 125.24,-147.99 M103.82,-142.1 C103.82,-142.1 102.59,-127.08 102.03,-119.57 M102.03,-119.57 C101.81,-116.59 102.83,-114.5 104.94,-113.62 M110.91,-167.5 L110.59,-167.56 110.22,-167.43 109.85,-167.13 109.53,-166.7 109.32,-166.21 109.24,-165.74 109.32,-165.35 109.53,-165.11 M119.14,-166.97 L120.35,-164.3 120.76,-160.93 120.38,-157.38 M98.601,-119.01 L98.016,-118.39 94.888,-116.11 91.759,-114.78 88.843,-114.49 86.339,-115.26 M119.29,-162.66 L118.98,-162.72 118.6,-162.59 118.23,-162.29 117.91,-161.86 117.7,-161.37 117.63,-160.9 117.7,-160.51 117.91,-160.27 M87.589,-135.33 L87.515,-134.85 87.589,-134.47 87.801,-134.22 M92.709,-118.21 L92.498,-117.72 92.424,-117.25 92.498,-116.86 92.709,-116.61 M88.201,-119.1 L87.828,-118.97 87.455,-118.66 87.139,-118.24 86.928,-117.75 86.853,-117.28 86.928,-116.89 87.139,-116.65 M93.399,-118.93 L93.025,-118.63 92.709,-118.21 M91.027,-123.38 L102.31,-116.87 M115.1,-166.67 L115.42,-167.09 115.79,-167.4 116.16,-167.53 116.48,-167.46 M115.1,-166.67 L114.89,-166.18 114.81,-165.71 114.89,-165.32 115.1,-165.08 M100.21,-157.31 L100.53,-157.73 100.9,-158.03 101.27,-158.16 101.59,-158.1 M100.21,-157.31 L99.998,-156.82 99.924,-156.35 99.998,-155.96 100.21,-155.71 M117.22,-168.75 C115.28,-169.78 115.1,-170.28 112.77,-170.65 110.94,-170.94 108.18,-169.95 106.73,-169.03 103.08,-166.74 100.39,-163.68 98.177,-160.01 93.44,-152.14 88.936,-144.11 84.389,-136.13 M84.389,-136.13 C79.642,-127.8 79.642,-119.63 84.389,-116.39 M117.22,-168.75 L119.14,-166.97 M84.389,-116.39 L86.339,-115.26 M88.518,-119.03 L88.201,-119.1 M87.801,-135.81 L88.117,-136.24 88.49,-136.54 88.863,-136.67 89.18,-136.61 M84.326,-123.05 L84.643,-123.47 85.016,-123.77 85.389,-123.9 85.705,-123.84 M87.801,-135.81 L87.589,-135.33 M84.326,-121.45 L84.115,-121.7 84.041,-122.09 84.115,-122.56 84.326,-123.05 M93.399,-118.93 L93.772,-119.06 94.088,-119 M104.94,-113.62 L107.28,-112.26 M112.93,-146.8 L112.43,-145.09 112.26,-143.48 112.43,-142.06 112.93,-140.94 113.74,-140.2 M120.91,-152.62 L119.86,-152.94 118.64,-152.82 117.32,-152.26 116.01,-151.3 114.79,-150.01 113.74,-148.48 112.93,-146.8 M112.36,-137.81 C115.11,-136.24 119.56,-138.81 122.3,-143.56 125.04,-148.31 125.04,-153.43 122.29,-155 122.29,-155 122.29,-155 122.29,-155 M114.76,-149.97 L114.57,-149.32 114.07,-148.29 113.42,-147.34 112.96,-146.85 M107.11,-140.93 L112.36,-137.81 M116.88,-158.02 L122.29,-155 M176.35,-117.27 L176.35,-116.83 M175.99,-117.48 L176.35,-117.27 M176.84,-117.97 L176.84,-117.53 177.2,-117.32 178.09,-117.65 179.25,-117.55 M179.13,-117.56 L179.74,-117.08 180.2,-115.89 180.2,-114.35 179.74,-112.64 178.88,-110.96 177.73,-109.53 176.41,-108.5 175.1,-108.01 174.06,-108.1 M174.31,-107.9 L173.45,-108.59 172.99,-109.77 172.99,-111.31 173.45,-113.02 174.31,-114.7 175.46,-116.14 176.35,-116.83 M175.33,-107.31 L176.78,-107.85 178.22,-108.98 179.49,-110.56 180.43,-112.4 180.93,-114.28 180.93,-115.97 180.43,-117.27 179.49,-118.03 M173.7,-107.64 L172.76,-108.39 172.26,-109.69 172.26,-111.38 172.76,-113.26 173.7,-115.1 174.97,-116.68 175.99,-117.48 M175.33,-107.31 L174.06,-107.43 173.7,-107.64 M176.84,-117.97 L177.86,-118.35 179.13,-118.24 M179.49,-118.03 L179.13,-118.24"/>
      <path stroke="#000" stroke-width="0.18" d="M58.841,-161.07 L52.519,-164.72 52.519,-166.06 M52.519,-164.72 L51.358,-164.05 M58.946,-161.25 L57.758,-162.12 56.099,-163.87 54.675,-165.96 53.668,-168.05 M44.134,-147.84 L44.345,-147.6 44.419,-147.21 44.345,-146.74 44.134,-146.25 43.818,-145.82 43.445,-145.52 43.071,-145.39 42.755,-145.46 M27.547,-194.38 L27.421,-194.74 27.063,-195.05 26.526,-195.26 25.893,-195.33 25.26,-195.26 24.723,-195.05 24.364,-194.74 24.238,-194.38 M42.366,-202.93 L42.24,-203.3 41.882,-203.61 41.345,-203.82 40.712,-203.89 40.079,-203.82 39.542,-203.61 39.183,-203.3 39.057,-202.93 M57.185,-194.38 L57.059,-194.74 56.701,-195.05 56.164,-195.26 55.531,-195.33 54.897,-195.26 54.361,-195.05 54.002,-194.74 53.876,-194.38 M42.366,-185.82 L42.24,-186.19 41.882,-186.5 41.345,-186.7 40.712,-186.78 40.078,-186.7 39.542,-186.5 39.183,-186.19 39.057,-185.82 M21.024,-194.38 C21.071,-193.76 21.473,-193.33 21.993,-193.03 27.434,-189.86 32.905,-186.7 38.372,-183.57 39.061,-183.18 39.922,-182.99 40.712,-183.01 41.523,-183.03 42.336,-183.16 43.052,-183.57 48.518,-186.7 53.989,-189.86 59.43,-193.03 59.878,-193.29 60.444,-193.79 60.399,-194.38 M73.529,-189.08 L73.845,-189.02 74.218,-189.15 74.591,-189.45 74.908,-189.87 75.119,-190.36 75.193,-190.83 75.119,-191.22 74.908,-191.47 M72.867,-171.5 L73.183,-171.44 73.557,-171.57 73.93,-171.87 74.246,-172.3 74.457,-172.78 74.531,-173.26 74.457,-173.65 74.246,-173.89 M51.138,-140.62 L51.454,-140.55 51.827,-140.68 52.2,-140.98 52.517,-141.41 52.728,-141.9 52.802,-142.37 52.728,-142.76 52.517,-143 M40.712,-178.06 L40.712,-162.24 M53.738,-184.79 L53.508,-184.46 52.996,-183.45 52.645,-182.41 52.476,-181.41 52.497,-180.5 M47.608,-160.61 L47.82,-160.37 47.894,-159.98 47.82,-159.51 47.608,-159.02 47.292,-158.59 46.919,-158.29 46.546,-158.16 46.23,-158.22 M60.017,-182.1 L60.229,-181.86 60.303,-181.47 60.229,-181 60.017,-180.51 59.701,-180.09 59.328,-179.78 58.955,-179.65 58.638,-179.72 M47.669,-138.47 L46.924,-137.17 M67.959,-189.11 L68.275,-189.05 68.648,-189.18 69.021,-189.48 69.338,-189.91 69.549,-190.39 69.623,-190.87 69.549,-191.25 69.338,-191.5 M46.947,-143.04 L47.158,-142.79 47.232,-142.4 47.158,-141.93 46.947,-141.44 46.63,-141.02 46.257,-140.72 45.884,-140.59 45.568,-140.65 M77.72,-186.66 L77.932,-186.41 78.006,-186.03 77.932,-185.55 77.72,-185.07 77.404,-184.64 77.031,-184.34 76.658,-184.21 76.342,-184.27 M60.458,-150.01 L60.775,-149.95 61.148,-150.08 61.521,-150.38 61.837,-150.8 62.048,-151.29 62.123,-151.77 62.048,-152.15 61.837,-152.4 M68.01,-157.45 L71.909,-155.2 M68.01,-157.45 L71.519,-163.53 M68.01,-157.45 L68.01,-154.3 M71.519,-163.53 L71.519,-165.86 M71.519,-163.53 L75.419,-161.28 M71.909,-155.2 L75.419,-161.28 M71.909,-155.2 L71.909,-149.35 M75.419,-161.28 L75.419,-170.6 M69.96,-153.17 L68.01,-154.3 M70.929,-151.82 L70.816,-151.33 70.485,-150.87 69.96,-150.47 64.528,-147.34 62.195,-148.17 M69.274,-151.82 L69.148,-152.19 68.79,-152.5 68.253,-152.71 67.62,-152.78 66.987,-152.71 66.45,-152.5 66.091,-152.19 65.965,-151.82 M64.383,-152.21 L68.01,-154.3 M71.784,-193.52 L72.302,-193.55 72.808,-193.55 73.303,-193.51 74.08,-194.1 74.864,-194.49 75.613,-194.64 76.285,-194.55 76.843,-194.24 M70.908,-194.51 C70.2,-194.91 69.132,-194.64 67.982,-193.76 M67.982,-193.76 C67.472,-193.37 66.919,-192.71 66.566,-192.18 66.359,-191.88 66.286,-191.47 66.01,-191.22 65.338,-190.62 64.539,-190.16 63.879,-189.54 63.178,-188.88 62.494,-188.2 61.852,-187.49 61.183,-186.75 60.734,-185.8 59.993,-185.13 59.774,-184.93 59.445,-184.9 59.193,-184.75 58.912,-184.57 58.647,-184.36 58.401,-184.14 58.135,-183.9 57.888,-183.63 57.662,-183.35 56.506,-181.92 55.964,-180.29 56.007,-178.47 M43.876,-137.78 L43.362,-138.25 43.03,-138.95 42.902,-139.84 42.984,-140.86 42.661,-141.32 42.368,-141.83 42.108,-142.37 M32.957,-144.08 L32.443,-144.56 32.111,-145.26 31.982,-146.14 32.065,-147.16 31.742,-147.63 31.449,-148.13 31.417,-148.2 M52.497,-180.5 L56.007,-178.47 M52.497,-180.5 L43.897,-165.6 M78.238,-189.82 L79.004,-189.77 79.636,-189.45 M30.458,-148.75 L29.86,-149.1 29.433,-149.7 29.204,-150.52 29.188,-151.49 29.386,-152.56 29.785,-153.65 30.359,-154.71 30.664,-156.96 M41.377,-142.45 C40.267,-142.9 40.01,-144.09 40.107,-145.18 40.221,-146.46 40.91,-147.25 41.279,-148.4 41.56,-149.28 41.487,-150.24 41.681,-151.14 41.888,-152.1 42.172,-153.04 42.472,-153.98 42.784,-154.95 43.294,-155.85 43.624,-156.82 43.72,-157.1 43.554,-157.41 43.566,-157.7 43.579,-158.03 43.626,-158.36 43.697,-158.69 43.775,-159.04 43.894,-159.38 44.011,-159.72 44.603,-161.42 45.856,-162.73 47.406,-163.57 M56.007,-178.47 L47.406,-163.57 M43.897,-165.6 L47.406,-163.57 M43.897,-165.6 L43.174,-165.21 42.463,-164.66 41.795,-163.95 41.202,-163.13 40.712,-162.24 M24.333,-176.89 L24.008,-177.08 M10.495,-142.37 L10.607,-141.87 10.938,-141.41 11.464,-141.02 20.043,-136.06 M46.924,-137.17 C42.907,-134.85 38.89,-132.51 34.862,-130.21 34.645,-130.09 34.414,-129.98 34.177,-129.91 M30.183,-130.21 C31.284,-129.59 32.877,-129.47 34.177,-129.91 M30.183,-130.21 C27.303,-131.82 24.46,-133.51 21.603,-135.16 M46.924,-137.17 L45.809,-137.82 M12.149,-142.37 L12.275,-142.73 12.634,-143.04 13.171,-143.25 13.804,-143.32 14.437,-143.25 14.974,-143.04 15.332,-142.73 15.458,-142.37 M34.177,-131.56 L34.051,-131.93 33.692,-132.24 33.156,-132.44 32.522,-132.52 31.889,-132.44 31.352,-132.24 30.994,-131.93 30.868,-131.56 M35.005,-142.9 L21.603,-135.16 C22.587,-142.96 28.134,-149.52 30.664,-156.96 M50.639,-194.38 C50.555,-197.53 46.043,-200.09 40.56,-200.11 35.077,-200.12 30.699,-197.58 30.783,-194.43 30.783,-194.41 30.784,-194.4 30.785,-194.38 M47.526,-144.04 L49.222,-143.51 51.197,-143.71 53.316,-144.61 53.507,-144.75 M75.268,-182.44 L75.293,-182.68 75.014,-184.96 74.196,-186.77 72.895,-187.98 M142.4,-101.63 L142.42,-103.6 143.9,-105.39 M142.42,-103.6 L141.32,-104.24 M142.79,-106.03 L143.9,-105.39 145.35,-105.22 M135.89,-106.97 L135.77,-107.04 135.64,-107.41 135.69,-107.88 135.89,-108.34 136.19,-108.66 136.48,-108.77 M135.32,-107.3 L135.21,-107.37 135.07,-107.74 135.12,-108.21 135.33,-108.66 135.62,-108.98 135.91,-109.09 M137.72,-106.87 L137.87,-107.2 M137.16,-107.2 L137.31,-107.52 M136.59,-107.52 L136.74,-107.85 M136.03,-107.85 L136.17,-108.17 M135.47,-108.18 L135.61,-108.5 M138.09,-106.88 L138.15,-107.03 138.45,-107.35 138.57,-107.4 M137.58,-105.99 L137.47,-106.06 137.33,-106.43 137.38,-106.91 137.59,-107.36 137.88,-107.68 138.17,-107.79 M137.02,-106.32 L136.9,-106.39 136.77,-106.76 136.82,-107.23 137.02,-107.69 137.32,-108.01 137.61,-108.12 M136.45,-106.64 L136.34,-106.72 136.2,-107.09 136.25,-107.56 136.46,-108.01 136.75,-108.33 137.04,-108.44 M128.17,-109.86 L128.2,-111.82 129.68,-113.61 M128.2,-111.82 L127.1,-112.46 M128.57,-114.25 L129.68,-113.61 131.13,-113.44 M121.66,-115.19 L121.55,-115.26 121.41,-115.64 121.46,-116.11 121.67,-116.56 121.96,-116.88 122.25,-116.99 M121.1,-115.52 L120.98,-115.59 120.85,-115.96 120.9,-116.43 121.1,-116.89 121.4,-117.21 121.69,-117.32 M123.5,-115.09 L123.65,-115.42 M122.93,-115.42 L123.08,-115.75 M122.37,-115.74 L122.52,-116.07 M121.8,-116.07 L121.95,-116.4 M121.24,-116.4 L121.39,-116.72 M123.86,-115.11 L123.93,-115.26 124.22,-115.58 124.34,-115.62 M123.36,-114.21 L123.24,-114.29 123.11,-114.66 123.16,-115.13 123.36,-115.58 123.66,-115.9 123.95,-116.01 M122.79,-114.54 L122.68,-114.61 122.55,-114.98 122.59,-115.45 122.8,-115.91 123.09,-116.23 123.38,-116.34 M122.23,-114.87 L122.11,-114.94 121.98,-115.31 122.03,-115.78 122.23,-116.23 122.53,-116.55 122.82,-116.66 M154.81,-123.13 L154.83,-125.1 156.31,-126.89 M154.83,-125.1 L153.73,-125.73 M155.2,-127.53 L156.31,-126.89 157.76,-126.71 M148.3,-128.47 L148.18,-128.54 148.05,-128.91 148.1,-129.38 148.3,-129.84 148.59,-130.16 148.89,-130.26 M147.73,-128.79 L147.62,-128.87 147.48,-129.24 147.53,-129.71 147.74,-130.16 148.03,-130.48 148.32,-130.59 M150.13,-128.37 L150.28,-128.69 M149.57,-128.69 L149.71,-129.02 M149,-129.02 L149.15,-129.35 M148.44,-129.34 L148.58,-129.67 M147.87,-129.68 L148.02,-130 M150.5,-128.38 L150.56,-128.53 150.86,-128.85 150.98,-128.9 M149.99,-127.49 L149.88,-127.56 149.74,-127.93 149.79,-128.4 150,-128.86 150.29,-129.18 150.58,-129.29 M149.43,-127.82 L149.31,-127.89 149.18,-128.26 149.23,-128.73 149.43,-129.18 149.73,-129.5 150.02,-129.61 M148.86,-128.14 L148.75,-128.21 148.61,-128.58 148.66,-129.06 148.87,-129.51 149.16,-129.83 149.45,-129.94 M140.58,-131.35 L140.61,-133.32 142.08,-135.11 M140.61,-133.32 L139.5,-133.95 M140.98,-135.75 L142.08,-135.11 143.53,-134.94 M134.07,-136.69 L133.96,-136.76 133.82,-137.13 133.87,-137.6 134.08,-138.06 134.37,-138.38 134.66,-138.49 M133.51,-137.02 L133.39,-137.09 133.26,-137.46 133.31,-137.93 133.51,-138.38 133.8,-138.7 134.1,-138.81 M135.91,-136.59 L136.06,-136.92 M135.34,-136.91 L135.49,-137.24 M134.78,-137.24 L134.92,-137.57 M134.21,-137.57 L134.36,-137.89 M133.65,-137.9 L133.79,-138.22 M136.27,-136.6 L136.34,-136.75 136.63,-137.07 136.75,-137.12 M135.77,-135.71 L135.65,-135.78 135.52,-136.15 135.57,-136.63 135.77,-137.08 136.07,-137.4 136.36,-137.51 M135.2,-136.04 L135.09,-136.11 134.95,-136.48 135,-136.95 135.21,-137.4 135.5,-137.73 135.79,-137.83 M134.64,-136.36 L134.52,-136.44 134.39,-136.81 134.44,-137.28 134.64,-137.73 134.94,-138.05 135.23,-138.16 M133.09,-92.258 L133.11,-94.223 134.59,-96.015 M133.11,-94.223 L132.01,-94.861 M133.48,-96.652 L134.59,-96.015 136.04,-95.841 M128.41,-97.492 L128.56,-97.82 M127.85,-97.818 L127.99,-98.146 M127.28,-98.145 L127.42,-98.45 M128.78,-97.509 L128.84,-97.657 129.14,-97.977 129.26,-98.022 M128.27,-96.615 L128.16,-96.687 128.02,-97.058 128.07,-97.53 128.28,-97.983 128.57,-98.303 128.86,-98.412 M127.71,-96.942 L127.59,-97.013 127.46,-97.385 127.51,-97.856 127.71,-98.309 128.01,-98.629 128.3,-98.738 M127.14,-97.268 L127.03,-97.339 126.89,-97.711 126.91,-97.825 M127.64,-99.029 L127.73,-99.065 M124.71,-97.086 L124.73,-99.05 126.21,-100.84 M124.73,-99.05 L123.63,-99.688 M125.1,-101.48 L126.21,-100.84 127.66,-100.67 M118.2,-102.42 L118.08,-102.5 117.95,-102.87 117.99,-103.34 118.2,-103.79 118.49,-104.11 118.78,-104.22 M117.63,-102.75 L117.51,-102.82 117.38,-103.19 117.43,-103.66 117.63,-104.12 117.93,-104.44 118.22,-104.55 M120.03,-102.32 L120.18,-102.65 M119.47,-102.65 L119.61,-102.98 M118.9,-102.98 L119.05,-103.3 M118.33,-103.3 L118.48,-103.63 M117.77,-103.63 L117.92,-103.95 M120.39,-102.34 L120.46,-102.49 120.75,-102.81 120.87,-102.85 M119.89,-101.45 L119.78,-101.52 119.64,-101.89 119.69,-102.36 119.9,-102.81 120.19,-103.13 120.48,-103.24 M119.33,-101.77 L119.21,-101.84 119.08,-102.21 119.13,-102.69 119.33,-103.14 119.62,-103.46 119.91,-103.57 M118.76,-102.1 L118.64,-102.17 118.51,-102.54 118.56,-103.01 118.76,-103.46 119.06,-103.79 119.35,-103.9 M158.29,-135.91 L158.31,-137.88 159.79,-139.67 M158.31,-137.88 L157.21,-138.52 M158.68,-140.31 L159.79,-139.67 161.24,-139.5 M153.61,-141.15 L153.76,-141.48 M153.05,-141.47 L153.2,-141.8 M152.48,-141.8 L152.62,-142.1 M153.98,-141.16 L154.04,-141.31 154.34,-141.63 154.46,-141.68 M153.47,-140.27 L153.36,-140.34 153.22,-140.71 153.27,-141.19 153.48,-141.64 153.77,-141.96 154.06,-142.07 M152.91,-140.6 L152.79,-140.67 152.66,-141.04 152.71,-141.51 152.91,-141.96 153.21,-142.29 153.5,-142.39 M152.34,-140.92 L152.23,-141 152.09,-141.37 152.11,-141.48 M152.84,-142.69 L152.93,-142.72 M149.91,-140.74 L149.93,-142.71 151.41,-144.5 M149.93,-142.71 L148.83,-143.35 M150.3,-145.14 L151.41,-144.5 152.86,-144.33 M143.4,-146.08 L143.28,-146.15 143.15,-146.52 143.2,-146.99 143.4,-147.45 143.69,-147.77 143.98,-147.88 M142.83,-146.41 L142.72,-146.48 142.58,-146.85 142.63,-147.32 142.84,-147.77 143.13,-148.09 143.42,-148.2 M145.23,-145.98 L145.38,-146.31 M144.67,-146.31 L144.81,-146.63 M144.1,-146.63 L144.25,-146.96 M143.54,-146.96 L143.68,-147.28 M142.97,-147.29 L143.12,-147.61 M145.59,-145.99 L145.66,-146.14 145.95,-146.46 146.08,-146.51 M145.09,-145.1 L144.98,-145.17 144.84,-145.54 144.89,-146.02 145.1,-146.47 145.39,-146.79 145.68,-146.9 M144.53,-145.43 L144.41,-145.5 144.28,-145.87 144.33,-146.34 144.53,-146.8 144.82,-147.12 145.11,-147.23 M143.96,-145.75 L143.85,-145.83 143.71,-146.2 143.76,-146.67 143.97,-147.12 144.26,-147.44 144.55,-147.55 M173.32,-136.21 L173.31,-136.23 173.23,-136.3 173.1,-136.41 172.91,-136.53 172.71,-136.67 172.51,-136.79 172.34,-136.89 172.21,-136.95 172.15,-136.97 M174.46,-137.95 L174.45,-137.97 174.37,-138.04 174.22,-138.15 174.04,-138.28 173.83,-138.41 173.63,-138.54 173.45,-138.64 173.33,-138.7 173.27,-138.72 M173.93,-136.81 L173.89,-136.91 174.1,-137.23 M173.89,-136.91 L173.16,-137.42 M173.37,-137.74 L173.16,-137.42 172.47,-137.81 M167.23,-124.6 L166.05,-124.71 164.71,-124.21 163.38,-123.16 162.2,-121.7 161.33,-119.99 160.86,-118.25 160.86,-116.68 161.33,-115.48 162.2,-114.78 M165.97,-122.13 L166.4,-121.79 166.63,-121.19 166.63,-120.41 166.4,-119.54 165.97,-118.69 165.38,-117.96 164.71,-117.44 164.05,-117.19 163.46,-117.25 M74.55,-145.06 L74.761,-144.81 74.836,-144.43 74.761,-143.95 74.55,-143.46 74.234,-143.04 73.861,-142.74 73.488,-142.61 73.171,-142.67 M58.943,-150.88 L59.259,-150.82 59.632,-150.95 60.005,-151.25 60.321,-151.68 60.533,-152.17 60.607,-152.64 60.533,-153.03 60.321,-153.27 M86.242,-181.74 L86.558,-181.68 86.931,-181.81 87.304,-182.11 87.621,-182.53 87.832,-183.02 87.906,-183.49 87.832,-183.88 87.621,-184.13 M71.351,-172.38 L71.668,-172.31 72.041,-172.44 72.414,-172.75 72.73,-173.17 72.942,-173.66 73.016,-174.13 72.942,-174.52 72.73,-174.76 M80.672,-181.77 L80.988,-181.71 81.361,-181.84 81.734,-182.14 82.051,-182.57 82.262,-183.05 82.336,-183.53 82.262,-183.91 82.051,-184.16 M86.959,-166.55 L87.17,-166.31 87.244,-165.92 87.17,-165.44 86.959,-164.96 86.643,-164.53 86.27,-164.23 85.896,-164.1 85.58,-164.16 M90.433,-179.32 L90.645,-179.07 90.719,-178.69 90.645,-178.21 90.433,-177.73 90.117,-177.3 89.744,-177 89.371,-176.87 89.055,-176.93 M58.281,-133.31 L58.597,-133.25 58.97,-133.38 59.343,-133.68 59.66,-134.1 59.871,-134.59 59.945,-135.06 59.871,-135.45 59.66,-135.7 M55.468,-138.12 L55.784,-138.05 56.158,-138.18 56.531,-138.48 56.847,-138.91 57.058,-139.4 57.132,-139.87 57.058,-140.26 56.847,-140.5 M65.23,-135.66 L65.441,-135.42 65.515,-135.03 65.441,-134.56 65.23,-134.07 64.913,-133.64 64.54,-133.34 64.167,-133.21 63.851,-133.28 M85.608,-167.27 C88.823,-172.88 88.823,-178.44 85.608,-180.64 M85.608,-167.27 C81.048,-159.3 76.519,-151.27 71.82,-143.38 M60.239,-136.7 C63.04,-134.78 68.057,-137.51 71.446,-142.78 71.574,-142.98 71.699,-143.18 71.82,-143.38 M88.365,-185.41 C83.182,-187.9 76.11,-183.82 71.269,-175.54 M71.269,-175.54 C66.633,-167.62 61.925,-159.7 57.481,-151.66 M57.481,-151.66 C52.859,-143.31 52.748,-134.52 57.232,-132.05 57.313,-132.01 57.397,-131.96 57.481,-131.92 M73.462,-124.48 L73.259,-124.71 73.188,-125.08 73.259,-125.54 73.462,-126.01 73.766,-126.42 74.124,-126.71 74.482,-126.83 74.786,-126.77 M101.48,-173 L101.28,-173.24 101.2,-173.61 101.28,-174.06 101.48,-174.53 101.78,-174.94 102.14,-175.23 102.5,-175.36 102.8,-175.3 M121.03,-138.63 L121.99,-138.08 123.22,-138.13 124.57,-138.77 125.87,-139.93 126.98,-141.47 127.76,-143.2 128.11,-144.91 127.99,-146.4 127.42,-147.49 M113.74,-140.2 C115.63,-138.9 118.78,-140.63 120.76,-144.06 122.74,-147.49 122.8,-151.32 120.91,-152.62 M118.01,-152.55 L118.1,-151.81 117.93,-150.2 117.43,-148.49 116.62,-146.81 115.57,-145.28 114.35,-143.99 113.03,-143.03 112.35,-142.74"/>
      <path stroke="#000" stroke-width="0.18" d="M116.07,-151.35 L116.15,-150.68 116.05,-149.69 115.74,-148.64 115.24,-147.61 114.59,-146.66 113.84,-145.87 113.03,-145.28 112.42,-145.02 M101.89,-143.22 L112.65,-161.84 M116.88,-158.02 C113.8,-158.94 109.4,-155.71 107.06,-150.78 105.14,-146.75 105.16,-142.71 107.11,-140.93 M122.29,-155 C119.54,-156.58 115.09,-154 112.35,-149.25 109.61,-144.5 109.61,-139.38 112.36,-137.81 M106.16,-140.75 C105.56,-133.25 104.82,-125.74 104.37,-118.22 M104.37,-118.22 C104.19,-115.19 105.37,-112.77 107.28,-112.26 M129.76,-151.96 L112.65,-161.84 M109.53,-163.65 L112.65,-161.84 M94.088,-119 L94.299,-118.76 94.373,-118.37 94.299,-117.9 94.088,-117.41 93.772,-116.98 93.399,-116.68 93.025,-116.55 92.709,-116.61 M84.326,-121.45 L84.643,-121.39 85.016,-121.52 85.389,-121.82 85.705,-122.25 85.916,-122.74 85.991,-123.21 85.916,-123.6 85.705,-123.84 M87.801,-134.22 L88.117,-134.16 88.49,-134.29 88.863,-134.59 89.18,-135.02 89.391,-135.51 89.465,-135.98 89.391,-136.37 89.18,-136.61 M87.139,-116.65 L87.455,-116.58 87.828,-116.71 88.201,-117.02 88.518,-117.44 88.729,-117.93 88.803,-118.4 88.729,-118.79 88.518,-119.03 M86.339,-135 C81.717,-126.64 81.606,-117.86 86.09,-115.39 86.172,-115.34 86.255,-115.3 86.339,-115.26 M86.339,-135 C90.783,-143.04 95.491,-150.96 100.13,-158.88 M117.22,-168.75 C112.04,-171.24 104.97,-167.16 100.13,-158.88 M101.59,-158.1 L101.8,-157.86 101.87,-157.47 101.8,-157 101.59,-156.51 101.27,-156.08 100.9,-155.78 100.53,-155.65 100.21,-155.71 M116.48,-167.46 L116.69,-167.22 116.76,-166.83 116.69,-166.36 116.48,-165.87 116.16,-165.45 115.79,-165.14 115.42,-165.01 115.1,-165.08 M110.91,-167.5 L111.12,-167.25 111.19,-166.86 111.12,-166.39 110.91,-165.9 110.59,-165.48 110.22,-165.18 109.85,-165.05 109.53,-165.11 M117.91,-160.27 L118.23,-160.21 118.6,-160.34 118.98,-160.64 119.29,-161.06 119.5,-161.55 119.58,-162.02 119.5,-162.41 119.29,-162.66 M97.21,-139.82 C92.674,-137.72 89,-132.35 89.004,-127.82 89.006,-125.85 89.725,-124.27 91.027,-123.38 M107.28,-159.75 L106.22,-159 104.63,-157.35 103.26,-155.39 102.19,-153.23 101.49,-151.03 101.28,-149.36 M103.36,-136.27 L97.21,-139.82 99.851,-144.4 M179.25,-117.55 L180.1,-116.87 180.56,-115.68 180.56,-114.14 180.1,-112.43 179.25,-110.75 178.09,-109.32 176.78,-108.29 175.46,-107.8 174.31,-107.9 M179.49,-118.03 L178.22,-118.14 177.2,-117.76 M177.2,-117.32 L177.2,-117.76 176.84,-117.97 M176.35,-117.27 L175.33,-116.47 174.06,-114.89 173.12,-113.05 172.62,-111.17 172.62,-109.48 173.12,-108.18 174.06,-107.43"/>
    </g>
  </g>
  <g id="AUTOID_002" vm2d:name="C3DCallouts" vm2d:type="layer">
    <a id="_13E19D490C4148918DAC4BC3F6F8101E_1" vm2d:name="20" vm2d:type="grobject" xlink:href="#">
      <path d="M950.87,689 L976.78,689 976.78,715 950.87,715 Z" fill="#fff" fill-opacity="0"/>
      <g transform="matrix(4.72727,0,0,4.72727,0.136383,1404)">
        <text font-family="Arial" font-size="4.92" x="201.119" y="-146.793" fill="#000">20</text>
      </g>
    </a>
    <g transform="matrix(4.72727,0,0,4.72727,0.136383,1404)" stroke-width="0.18" stroke-linecap="butt" stroke-linejoin="miter" stroke-miterlimit="10">
      <path stroke="#000" d="M201.12,-145.75 L151.86,-143.8"/>
    </g>
    <a id="_13E19D490C4148918DAC4BC3F6F8101E_2" vm2d:name="20" vm2d:type="grobject" xlink:href="#">
      <path d="M950.87,720.2 L976.78,720.2 976.78,746.2 950.87,746.2 Z" fill="#fff" fill-opacity="0"/>
      <g transform="matrix(4.72727,0,0,4.72727,0.136383,1404)">
        <text font-family="Arial" font-size="4.92" x="201.119" y="-140.193" fill="#000">20</text>
      </g>
    </a>
    <g transform="matrix(4.72727,0,0,4.72727,0.136383,1404)" stroke-width="0.18" stroke-linecap="butt" stroke-linejoin="miter" stroke-miterlimit="10">
      <path stroke="#000" d="M201.12,-139.15 L160.24,-138.97"/>
    </g>
    <a id="_13E19D490C4148918DAC4BC3F6F8101E_3" vm2d:name="20" vm2d:type="grobject" xlink:href="#">
      <path d="M589.88,1032.2 L615.79,1032.2 615.79,1058.2 589.88,1058.2 Z" fill="#fff" fill-opacity="0"/>
      <g transform="matrix(4.72727,0,0,4.72727,0.136383,1404)">
        <text font-family="Arial" font-size="4.92" x="124.756" y="-74.1933" fill="#000">20</text>
      </g>
    </a>
    <g transform="matrix(4.72727,0,0,4.72727,0.136383,1404)" stroke-width="0.18" stroke-linecap="butt" stroke-linejoin="miter" stroke-miterlimit="10">
      <path stroke="#000" d="M124.75,-78.65 L124.67,-98.157"/>
    </g>
    <a id="_13E19D490C4148918DAC4BC3F6F8101E_4" vm2d:name="20" vm2d:type="grobject" xlink:href="#">
      <path d="M635,1032.2 L660.91,1032.2 660.91,1058.2 635,1058.2 Z" fill="#fff" fill-opacity="0"/>
      <g transform="matrix(4.72727,0,0,4.72727,0.136383,1404)">
        <text font-family="Arial" font-size="4.92" x="134.301" y="-74.1933" fill="#000">20</text>
      </g>
    </a>
    <g transform="matrix(4.72727,0,0,4.72727,0.136383,1404)" stroke-width="0.18" stroke-linecap="butt" stroke-linejoin="miter" stroke-miterlimit="10">
      <path stroke="#000" d="M134.3,-78.65 L133.72,-92.829"/>
    </g>
    <a id="_13E19D490C4148918DAC4BC3F6F8101E_5" vm2d:name="20" vm2d:type="grobject" xlink:href="#">
      <path d="M680.13,1032.2 L706.03,1032.2 706.03,1058.2 680.13,1058.2 Z" fill="#fff" fill-opacity="0"/>
      <g transform="matrix(4.72727,0,0,4.72727,0.136383,1404)">
        <text font-family="Arial" font-size="4.92" x="143.847" y="-74.1933" fill="#000">20</text>
      </g>
    </a>
    <g transform="matrix(4.72727,0,0,4.72727,0.136383,1404)" stroke-width="0.18" stroke-linecap="butt" stroke-linejoin="miter" stroke-miterlimit="10">
      <path stroke="#000" d="M143.84,-78.65 L141.21,-131.93"/>
    </g>
    <a id="_13E19D490C4148918DAC4BC3F6F8101E_6" vm2d:name="20" vm2d:type="grobject" xlink:href="#">
      <path d="M950.87,782.6 L976.78,782.6 976.78,808.6 950.87,808.6 Z" fill="#fff" fill-opacity="0"/>
      <g transform="matrix(4.72727,0,0,4.72727,0.136383,1404)">
        <text font-family="Arial" font-size="4.92" x="201.119" y="-126.993" fill="#000">20</text>
      </g>
    </a>
    <g transform="matrix(4.72727,0,0,4.72727,0.136383,1404)" stroke-width="0.18" stroke-linecap="butt" stroke-linejoin="miter" stroke-miterlimit="10">
      <path stroke="#000" d="M201.12,-125.95 L156.76,-125.69"/>
    </g>
    <a id="_13E19D490C4148918DAC4BC3F6F8101E_7" vm2d:name="20" vm2d:type="grobject" xlink:href="#">
      <path d="M551.23,1032.2 L577.14,1032.2 577.14,1058.2 551.23,1058.2 Z" fill="#fff" fill-opacity="0"/>
      <g transform="matrix(4.72727,0,0,4.72727,0.136383,1404)">
        <text font-family="Arial" font-size="4.92" x="116.58" y="-74.1933" fill="#000">20</text>
      </g>
    </a>
    <g transform="matrix(4.72727,0,0,4.72727,0.136383,1404)" stroke-width="0.18" stroke-linecap="butt" stroke-linejoin="miter" stroke-miterlimit="10">
      <path stroke="#000" d="M119.32,-78.65 L126.81,-112.91"/>
    </g>
    <a id="_13E19D490C4148918DAC4BC3F6F8101E_8" vm2d:name="20" vm2d:type="grobject" xlink:href="#">
      <path d="M815.5,1032.2 L841.41,1032.2 841.41,1058.2 815.5,1058.2 Z" fill="#fff" fill-opacity="0"/>
      <g transform="matrix(4.72727,0,0,4.72727,0.136383,1404)">
        <text font-family="Arial" font-size="4.92" x="172.483" y="-74.1933" fill="#000">20</text>
      </g>
    </a>
    <g transform="matrix(4.72727,0,0,4.72727,0.136383,1404)" stroke-width="0.18" stroke-linecap="butt" stroke-linejoin="miter" stroke-miterlimit="10">
      <path stroke="#000" d="M172.48,-75.9 L143.69,-102.7"/>
    </g>
    <a id="_90A1F015D480496BACA31D84875DA5BA" vm2d:name="90" vm2d:type="grobject" xlink:href="#">
      <path d="M370.74,314.6 L396.64,314.6 396.64,340.6 370.74,340.6 Z" fill="#fff" fill-opacity="0"/>
      <g transform="matrix(4.72727,0,0,4.72727,0.136383,1404)">
        <text font-family="Arial" font-size="4.92" x="78.3985" y="-225.993" fill="#000">90</text>
      </g>
    </a>
    <g transform="matrix(4.72727,0,0,4.72727,0.136383,1404)" stroke-width="0.18" stroke-linecap="butt" stroke-linejoin="miter" stroke-miterlimit="10">
      <path stroke="#000" d="M81.136,-224.95 L80.943,-185.03"/>
    </g>
    <a id="_2F2CE32913864241980C0546B9772666" vm2d:name="130" vm2d:type="grobject" xlink:href="#">
      <path d="M3.2693,501.8 L42.127,501.8 42.127,527.8 3.2693,527.8 Z" fill="#fff" fill-opacity="0"/>
      <g transform="matrix(4.72727,0,0,4.72727,0.136383,1404)">
        <text font-family="Arial" font-size="4.92" x="0.665922" y="-186.393" fill="#000">130</text>
      </g>
    </a>
    <g transform="matrix(4.72727,0,0,4.72727,0.136383,1404)" stroke-width="0.18" stroke-linecap="butt" stroke-linejoin="miter" stroke-miterlimit="10">
      <path stroke="#000" d="M8.8827,-185.35 L34.512,-185.33"/>
    </g>
    <a id="_DA59434C4BA3495F97506930599D5E51" vm2d:name="30" vm2d:type="grobject" xlink:href="#">
      <path d="M950.87,845 L976.78,845 976.78,871 950.87,871 Z" fill="#fff" fill-opacity="0"/>
      <g transform="matrix(4.72727,0,0,4.72727,0.136383,1404)">
        <text font-family="Arial" font-size="4.92" x="201.119" y="-113.793" fill="#000">30</text>
      </g>
    </a>
    <g transform="matrix(4.72727,0,0,4.72727,0.136383,1404)" stroke-width="0.18" stroke-linecap="butt" stroke-linejoin="miter" stroke-miterlimit="10">
      <path stroke="#000" d="M201.12,-115.5 L180.66,-115.25"/>
    </g>
    <a id="_E99AEB6E6D40409DB7CD9EAE966C4863" vm2d:name="70" vm2d:type="grobject" xlink:href="#">
      <path d="M506.11,1032.2 L532.01,1032.2 532.01,1058.2 506.11,1058.2 Z" fill="#fff" fill-opacity="0"/>
      <g transform="matrix(4.72727,0,0,4.72727,0.136383,1404)">
        <text font-family="Arial" font-size="4.92" x="107.035" y="-74.1933" fill="#000">70</text>
      </g>
    </a>
    <g transform="matrix(4.72727,0,0,4.72727,0.136383,1404)" stroke-width="0.18" stroke-linecap="butt" stroke-linejoin="miter" stroke-miterlimit="10">
      <path stroke="#000" d="M109.77,-78.65 L107.91,-124.87"/>
    </g>
    <a id="_8F956C80FBAA4400AE24FD6CE2F969C4" vm2d:name="50" vm2d:type="grobject" xlink:href="#">
      <path d="M950.87,813.8 L976.78,813.8 976.78,839.8 950.87,839.8 Z" fill="#fff" fill-opacity="0"/>
      <g transform="matrix(4.72727,0,0,4.72727,0.136383,1404)">
        <text font-family="Arial" font-size="4.92" x="201.119" y="-120.393" fill="#000">50</text>
      </g>
    </a>
    <g transform="matrix(4.72727,0,0,4.72727,0.136383,1404)" stroke-width="0.18" stroke-linecap="butt" stroke-linejoin="miter" stroke-miterlimit="10">
      <path stroke="#000" d="M201.12,-122.1 L166.75,-121.99"/>
    </g>
    <a id="_094725D0E3EE4045BB633BD9693BDB1D_1" vm2d:name="80" vm2d:type="grobject" xlink:href="#">
      <path d="M460.99,314.6 L486.89,314.6 486.89,340.6 460.99,340.6 Z" fill="#fff" fill-opacity="0"/>
      <g transform="matrix(4.72727,0,0,4.72727,0.136383,1404)">
        <text font-family="Arial" font-size="4.92" x="97.4894" y="-225.993" fill="#000">80</text>
      </g>
    </a>
    <g transform="matrix(4.72727,0,0,4.72727,0.136383,1404)" stroke-width="0.18" stroke-linecap="butt" stroke-linejoin="miter" stroke-miterlimit="10">
      <path stroke="#000" d="M100.23,-224.95 L99.208,-176.41"/>
    </g>
    <a id="_094725D0E3EE4045BB633BD9693BDB1D_2" vm2d:name="80" vm2d:type="grobject" xlink:href="#">
      <path d="M364.26,1032.2 L390.17,1032.2 390.17,1058.2 364.26,1058.2 Z" fill="#fff" fill-opacity="0"/>
      <g transform="matrix(4.72727,0,0,4.72727,0.136383,1404)">
        <text font-family="Arial" font-size="4.92" x="77.0285" y="-74.1933" fill="#000">80</text>
      </g>
    </a>
    <g transform="matrix(4.72727,0,0,4.72727,0.136383,1404)" stroke-width="0.18" stroke-linecap="butt" stroke-linejoin="miter" stroke-miterlimit="10">
      <path stroke="#000" d="M77.026,-78.65 L73.546,-125.39"/>
    </g>
    <a id="_08EF4EB41EAA468CAC6D31E49003A196" vm2d:name="60" vm2d:type="grobject" xlink:href="#">
      <path d="M950.87,751.4 L976.78,751.4 976.78,777.4 950.87,777.4 Z" fill="#fff" fill-opacity="0"/>
      <g transform="matrix(4.72727,0,0,4.72727,0.136383,1404)">
        <text font-family="Arial" font-size="4.92" x="201.119" y="-133.593" fill="#000">60</text>
      </g>
    </a>
    <g transform="matrix(4.72727,0,0,4.72727,0.136383,1404)" stroke-width="0.18" stroke-linecap="butt" stroke-linejoin="miter" stroke-miterlimit="10">
      <path stroke="#000" d="M201.12,-135.3 L173.78,-137.58"/>
    </g>
  </g>
</svg>
