<?xml version="1.0" encoding="UTF-8" standalone="no"?>
<!DOCTYPE svg SYSTEM "http://www.w3.org/Graphics/SVG/1.1/DTD/svg11.dtd" [
<!ENTITY % SVG.External.attrib
"xmlns:vm2d CDATA #FIXED 'http://www.cortona3d.com/vm2d'
vm2d:name CDATA #IMPLIED
vm2d:type CDATA #IMPLIED">
]>
<svg xmlns="http://www.w3.org/2000/svg" xmlns:vm2d="http://www.cortona3d.com/vm2d" xmlns:xlink="http://www.w3.org/1999/xlink" version="1.1" width="210mm" height="297mm" viewBox="0 0 993 1404" fill="none" fill-rule="evenodd" stroke-miterlimit="5">
  <title>Casing View</title>
  <desc>"Generator:ParallelGraphics Cortona2D","ProfileId:WebCGM""ProfileEd:2.1""ColourClass:colour""Source:Cortona3D RapidCatalog v.9.0.0.332""Date:20160509"</desc>
  <rect width="993" height="1404" fill="#fff"/>
  <defs/>
  <g id="AUTOID_001" vm2d:name="C3DDrawing" vm2d:type="layer">
    <g transform="matrix(4.72727,0,0,4.72727,0.136383,1404)" stroke-width="0.35" stroke-linecap="round" stroke-linejoin="round" stroke-miterlimit="10">
      <path stroke="#000" d="M151.93,-141.48 C151.93,-141.48 153.99,-140.37 154.99,-139.77 155.21,-139.64 155.4,-139.46 155.53,-139.25 155.88,-138.68 156.01,-138.24 156.04,-137.56 156.05,-137.2 155.87,-136.83 155.97,-136.48 156.18,-135.8 156.89,-135.39 157.27,-134.78 157.68,-134.12 157.9,-133.35 158.16,-132.61 158.45,-131.8 158.38,-130.88 158.61,-130.05 158.69,-129.8 159.08,-129.8 159.26,-129.61 159.46,-129.4 159.62,-129.16 159.71,-128.89 159.82,-128.59 159.9,-128.27 159.94,-127.95 160.01,-127.22 159.89,-126.3 159.66,-125.62 159.11,-123.97 157.9,-122.82 157.39,-121.22 157.28,-120.9 157.17,-120.58 157.06,-120.27 156.94,-119.95 156.76,-119.65 156.69,-119.32 156.62,-118.98 156.79,-118.63 156.78,-118.28 156.78,-117.89 156.73,-117.5 156.64,-117.12 M154.94,-113.58 C155.71,-114.51 156.3,-115.73 156.64,-117.12 M154.94,-113.58 C154.44,-112.99 153.81,-112.32 153.13,-111.93 152.83,-111.76 152.48,-111.67 152.19,-111.49 151.91,-111.31 151.62,-110.78 151.41,-110.53 M151.34,-141.85 L151.34,-158.76 M136.03,-141.05 C132.03,-143.15 126,-139.42 122.56,-132.71 121.17,-129.99 120.36,-127.07 120.26,-124.41 M120.26,-124.41 C120.18,-122.07 121,-119.78 122.97,-118.43 127.9,-115.05 133.23,-112.25 138.51,-109.46 M151.57,-132.07 L143.54,-136.71 142.1,-137.54 M151.57,-132.07 L144.06,-136.41 M151.57,-132.07 L137.07,-140.44 136.03,-141.05 M127.65,-139.06 L127.58,-138.39 126.66,-135.28 125.19,-132.23 123.28,-129.43 121.05,-127.08 120.51,-126.68 M131.89,-141.42 L153.96,-128.67 M131.87,-141.41 C131.87,-141.41 138.17,-138.45 140.79,-136.23 144.64,-132.96 149.6,-131.23 153.96,-128.67 M166.81,-119.97 L166.44,-120.49 165.85,-120.94 159.31,-124.71 M166.94,-116.37 L166.94,-119.41 166.81,-119.97 M166.94,-116.37 C166.89,-115.67 166.44,-115.19 165.85,-114.85 160.45,-111.69 155,-108.58 149.58,-105.45 M165.08,-119.41 L164.93,-119 164.53,-118.65 163.92,-118.42 163.21,-118.34 162.5,-118.42 161.89,-118.65 161.49,-119 161.35,-119.41 M152.25,-110.04 L151.41,-110.53 M155.16,-125.15 L155.07,-124.62 155.16,-124.18 155.4,-123.91 M149.58,-105.45 L148.48,-106.09 M153.78,-117.52 L153.42,-117.59 153,-117.44 152.58,-117.1 152.22,-116.62 151.99,-116.07 151.9,-115.54 151.99,-115.1 152.22,-114.82 M156.59,-126.67 L156.17,-126.52 155.75,-126.18 155.4,-125.7 155.16,-125.15 M156.59,-126.67 L156.95,-126.6 M148.48,-106.09 L147.7,-105.28 146.87,-104.66 146.03,-104.24 145.23,-104.06 144.5,-104.12 143.88,-104.41 142.15,-103.72 140.47,-103.3 138.86,-103.17 M147.5,-110.23 L147.14,-110.3 146.72,-110.15 146.3,-109.81 145.94,-109.33 145.71,-108.78 145.62,-108.25 145.71,-107.81 145.94,-107.54 M153.03,-136.47 L152.68,-136.54 152.25,-136.4 151.83,-136.06 151.48,-135.57 151.24,-135.03 151.16,-134.49 151.24,-134.05 151.48,-133.78 M142.01,-144.78 L151.71,-139.18 M121.68,-167.39 C121.77,-163.84 126.86,-160.95 133.04,-160.93 139.23,-160.92 144.16,-163.78 144.07,-167.33 144.07,-167.35 144.07,-167.37 144.06,-167.39 M138.86,-103.17 C137.45,-101.06 136.54,-98.494 134.63,-96.822 132.21,-94.706 129.07,-93.581 126.28,-91.998 125.79,-91.723 125.16,-91.511 124.6,-91.441 124.28,-91.4 123.96,-91.359 123.64,-91.367 123.49,-91.371 123.2,-91.401 123.2,-91.401 M135.03,-102.56 L134.25,-102.53 133.56,-102.75 M135.11,-106.7 L135.2,-106.27 135.43,-105.99 M147.72,-167.39 L147.86,-166.98 148.26,-166.63 148.87,-166.4 149.58,-166.32 150.29,-166.4 150.9,-166.63 151.3,-166.98 151.45,-167.39 M142.01,-144.78 L142.03,-145.83 141.84,-146.74 141.45,-147.46 140.87,-147.93 M139.04,-144.55 L138.68,-144.62 138.26,-144.47 137.84,-144.13 137.49,-143.65 137.25,-143.1 137.16,-142.57 137.25,-142.13 137.49,-141.86 M125.5,-96.568 L125.36,-96.156 124.96,-95.806 124.35,-95.573 123.64,-95.491 123.2,-95.541 M123.2,-97.329 L123.2,-90.729 M116.6,-86.921 L123.2,-90.729 M123.2,-97.329 L119.24,-99.614 M91.102,-101.64 L93.584,-100.21 M100.04,-96.487 L116.6,-86.921 M114.95,-90.29 C115.56,-90.58 115.72,-91.414 115.72,-91.998 115.78,-99.099 115.74,-106.22 115.72,-113.32 115.72,-113.95 115.58,-114.46 115.37,-115.05 114.97,-116.18 114.13,-117.28 113.09,-117.89 106.96,-121.49 100.78,-125.02 94.619,-128.55 M118.03,-167.39 L117.89,-166.98 117.48,-166.63 116.88,-166.4 116.16,-166.32 115.45,-166.4 114.84,-166.63 114.44,-166.98 114.3,-167.39 M122.7,-111.41 L121.81,-110.89 120.95,-110.62 120.16,-110.62 119.48,-110.88 M110.67,-162.38 L109.04,-162.57 106.75,-162.24 104.35,-161.36 M119.24,-111.02 L119.24,-99.614 M130.73,-146.13 L130.1,-146.49 M128.53,-143.01 L128.18,-143.08 127.76,-142.93 127.33,-142.59 126.98,-142.11 126.74,-141.56 126.66,-141.03 126.74,-140.59 126.98,-140.31 M122.22,-116.69 L121.8,-116.35 121.44,-115.87 121.21,-115.32 121.12,-114.78 121.21,-114.34 121.44,-114.07 M123,-116.76 L122.64,-116.83 122.22,-116.69 M122.25,-135.72 L121.9,-135.79 121.48,-135.64 121.05,-135.3 120.7,-134.82 120.46,-134.27 120.38,-133.74 120.46,-133.3 120.7,-133.03 M97.255,-155.8 L97.839,-156.44 98.246,-157.58 98.826,-158.69 99.545,-159.7 100.37,-160.56 101.24,-161.23 102.12,-161.65 102.97,-161.82 103.72,-161.72 M119.08,-126.64 L118.72,-126.7 118.3,-126.56 117.88,-126.22 117.53,-125.74 117.29,-125.19 117.2,-124.65 117.29,-124.22 117.53,-123.94 M91.102,-101.64 L91.102,-104.65 M91.102,-112.47 C91.102,-112.47 92.2,-125.01 91.102,-131.13 M89.967,-133.23 C89.752,-134.07 89.932,-135.04 89.533,-135.81 89.41,-136.05 89.032,-136.04 88.859,-136.25 M88.192,-139.1 C88.009,-137.97 88.241,-136.98 88.859,-136.25 M89.698,-142.81 C88.941,-141.8 88.417,-140.51 88.192,-139.1 M89.698,-142.81 C90.48,-143.86 90.683,-144.36 91.128,-145.54 91.518,-146.59 91.248,-147.28 91.391,-148.38 M92.764,-151.74 C91.993,-150.54 91.522,-149.39 91.391,-148.38 M92.764,-151.74 C93.371,-152.69 94.25,-153.57 95.25,-154.11 96.228,-154.62 96.507,-154.96 97.255,-155.8 M91.102,-130.69 L90.84,-131.04 89.967,-133.23 M103.72,-161.72 L130.1,-146.49 M140.87,-147.93 L136.91,-150.21 M128.73,-105.54 L133.56,-102.75 M154.3,-140.03 L150.79,-142.19 M119.24,-111.02 L119.48,-110.88 M111.17,-168.47 L110.8,-167.95 110.67,-167.39 C110.74,-165.54 110.75,-163.67 110.67,-161.81 110.65,-161.13 111.24,-160.59 111.77,-160.29 117.9,-156.71 124.07,-153.15 130.23,-149.62 M130.23,-149.62 C131.71,-148.78 134.04,-148.78 135.51,-149.62 M135.51,-149.62 C141.67,-153.15 147.84,-156.71 153.98,-160.29 154.56,-160.63 155.02,-161.11 155.07,-161.81 M111.17,-168.47 L111.77,-168.92 122.32,-175.01 M128.11,-178.35 L130.23,-179.58 131.01,-179.92 131.91,-180.14 132.87,-180.21 133.84,-180.14 134.74,-179.92 135.51,-179.58 137.63,-178.35 M143.42,-175.01 L153.98,-168.92 154.57,-168.47 154.94,-167.95 155.07,-167.39 155.07,-161.81 M113.87,-94.012 L113.97,-94.537 113.87,-95.178 113.58,-95.837 113.15,-96.414 112.65,-96.822 112.14,-96.997 111.71,-96.914 M109.78,-100.26 C112.94,-101.78 113.05,-107.26 110.02,-112.51 106.99,-117.76 101.97,-120.78 98.809,-119.26 98.809,-119.26 98.809,-119.26 98.808,-119.26 M113.58,-112.98 L113.87,-113.31 113.97,-113.83 113.87,-114.47 113.58,-115.13 113.15,-115.71 112.65,-116.11 112.14,-116.29 111.71,-116.21 M96.871,-122.62 L97.157,-122.95 97.257,-123.48 97.157,-124.12 96.871,-124.78 96.443,-125.35 95.938,-125.76 95.434,-125.94 95.006,-125.85 M136.63,-108.75 L136.21,-108.61 135.79,-108.27 135.43,-107.79 135.2,-107.24 135.11,-106.7 M131.01,-157.75 L131.15,-157.33 131.55,-156.99 132.16,-156.75 132.87,-156.67 133.59,-156.75 134.19,-156.99 134.6,-157.33 134.74,-157.75 M113.87,-94.012 L113.58,-93.683 M103.94,-118.86 L103.89,-118.48 104.15,-116.01 104.93,-113.4 106.16,-110.84 107.77,-108.49 M111.65,-105.05 L112,-104.9 M111.65,-105.05 L107.77,-108.49 M136.99,-108.69 L136.63,-108.75 M93.3,-128.91 L94.619,-128.55 M93.3,-128.91 L92.754,-128.74 M96.519,-84.464 L96.014,-84.871 95.586,-85.449 95.3,-86.108 95.2,-86.749 M94.267,-86.841 L94.695,-86.924 95.2,-86.749 95.704,-86.341 96.132,-85.764 96.418,-85.105 96.519,-84.464 96.418,-83.939 96.132,-83.61 M79.71,-114.04 L79.81,-113.4 79.71,-112.88 79.424,-112.55 M79.71,-114.04 L79.424,-114.7 78.996,-115.28 78.491,-115.69 77.987,-115.86 77.559,-115.78 M78.491,-115.69 L78.592,-115.05 78.878,-114.39 79.306,-113.81 79.81,-113.4 M96.132,-102.9 L96.418,-103.23 96.519,-103.76 96.418,-104.4 96.132,-105.06 95.704,-105.63 95.2,-106.04 94.695,-106.22 94.267,-106.13 M96.519,-103.76 L96.014,-104.16 95.586,-104.74 95.3,-105.4 95.2,-106.04 M85.526,-93.621 L86.157,-92.955 88.164,-91.491 90.172,-90.638 92.042,-90.452 92.902,-90.718 M80.931,-101.59 L80.673,-102.45 80.409,-104.92 80.673,-107.09 81.448,-108.8 82.108,-109.41 M92.329,-90.187 C95.494,-91.707 95.604,-97.191 92.576,-102.44 89.547,-107.68 84.526,-110.7 81.362,-109.18 81.362,-109.18 81.362,-109.18 81.362,-109.18 M76.929,-91.816 L77.612,-91.318 78.318,-90.91 M85.526,-86.749 L96.079,-80.656 96.762,-80.366 97.398,-80.303 97.944,-80.471 C98.374,-80.741 98.815,-80.996 99.263,-81.233 99.863,-81.549 100.03,-82.333 100.04,-82.941 100.09,-90.041 100.05,-97.164 100.04,-104.26 100.03,-104.89 99.893,-105.4 99.683,-105.99 99.279,-107.12 98.439,-108.22 97.398,-108.83 91.276,-112.43 85.088,-115.96 78.931,-119.5 78.343,-119.83 77.699,-119.98 77.066,-119.68 L75.746,-118.92 75.327,-118.53 75.064,-117.95 74.974,-117.21 74.974,-105.03 M74.974,-96.697 L74.974,-95.887 75.064,-95.047 75.327,-94.16 75.746,-93.287 76.293,-92.488 76.929,-91.816 M114.3,-184.15 L114.44,-183.74 114.84,-183.39 115.45,-183.15 116.16,-183.07 116.88,-183.15 117.48,-183.39 117.89,-183.74 118.03,-184.15 M117.48,-183.39 L116.88,-183.62 116.16,-183.7 115.45,-183.62 114.85,-183.39 M124.96,-179.58 L123.18,-180.92 122.06,-182.48 121.68,-184.15 M121.85,-183.39 L122.06,-184.3 123.18,-185.86 124.96,-187.19 127.28,-188.22 128.11,-188.42 M137.63,-188.42 L138.47,-188.22 140.79,-187.19 142.57,-185.86 143.68,-184.3 143.89,-183.39 M124.96,-179.58 C129.07,-176.98 136.04,-176.96 140.52,-179.52 142.66,-180.74 143.93,-182.41 144.06,-184.15 M131.01,-174.5 L131.15,-174.09 131.55,-173.74 132.16,-173.51 132.87,-173.42 133.59,-173.51 134.19,-173.74 134.6,-174.09 134.74,-174.5 M134.19,-173.74 L133.59,-173.97 132.87,-174.06 132.16,-173.97 131.55,-173.74 M148.87,-183.62 L148.26,-183.39 M148.87,-183.62 L149.58,-183.7 150.29,-183.62 150.9,-183.39 M151.45,-184.15 L151.3,-183.74 150.9,-183.39 150.29,-183.15 149.58,-183.07 148.87,-183.15 148.26,-183.39 147.86,-183.74 147.72,-184.15 M111.77,-185.67 L111.17,-185.23 110.8,-184.71 110.67,-184.15 C110.69,-183.64 110.69,-183.13 110.67,-182.62 110.65,-181.95 111.24,-181.41 111.77,-181.1 117.89,-177.5 124.08,-173.98 130.23,-170.44 130.78,-170.13 131.29,-169.99 131.91,-169.88 133.09,-169.67 134.46,-169.84 135.51,-170.44 141.69,-173.94 147.84,-177.54 153.98,-181.1 154.56,-181.44 155.02,-181.92 155.07,-182.62 L155.07,-184.15 154.94,-184.71 154.57,-185.23 153.98,-185.67 143.42,-191.76 M136.39,-195.82 L135.51,-196.33 134.74,-196.68 133.84,-196.89 132.87,-196.96 131.91,-196.89 131.01,-196.68 130.23,-196.33 129.35,-195.82 M122.32,-191.76 L111.77,-185.67 M65.299,-90.522 L64.525,-93.128 64.261,-95.597 64.525,-97.762 65.299,-99.473 66.297,-100.4 M77.189,-81.533 L75.889,-81.131 74.019,-81.316 72.013,-82.17 70.006,-83.633 68.137,-85.607 67.416,-86.662 M65.86,-89.355 L65.299,-90.522 M66.162,-91.02 L65.388,-93.626 65.124,-96.095 65.388,-98.259 66.162,-99.971 66.787,-100.55 M77.565,-81.881 L76.751,-81.63 74.882,-81.815 72.875,-82.669 70.869,-84.132 69,-86.105 67.394,-88.455 66.162,-91.02 M76.94,-81.302 C80.105,-82.821 80.215,-88.306 77.186,-93.552 74.158,-98.798 69.137,-101.82 65.972,-100.3 M64.36,-84.907 L64.321,-84.7 64.035,-84.371 M62.169,-87.602 L62.597,-87.686 62.794,-87.617 M78.878,-77.956 L79.305,-78.039 79.81,-77.864 80.315,-77.456 80.743,-76.879 81.029,-76.22 81.129,-75.579 81.029,-75.054 80.743,-74.725 M64.321,-105.16 L64.421,-104.52 64.321,-103.99 64.035,-103.66 M64.321,-105.16 L64.035,-105.82 63.607,-106.4 63.102,-106.8 62.597,-106.98 62.169,-106.9 M80.743,-94.018 L81.029,-94.347 81.129,-94.872 81.029,-95.513 80.743,-96.172 80.315,-96.749 79.81,-97.157 79.305,-97.332 78.878,-97.249 M66.938,-91.469 L68.171,-88.903 69.777,-86.553 71.647,-84.578 73.655,-83.114 75.662,-82.26 77.532,-82.075 77.895,-82.187 M66.938,-91.469 L66.163,-94.077 65.899,-96.547 66.163,-98.712 66.938,-100.42 67.216,-100.68 M61.54,-82.931 C61.756,-82.751 61.979,-82.574 62.223,-82.433 68.365,-78.87 74.512,-75.273 80.69,-71.771 81.198,-71.483 82.002,-71.208 82.555,-71.586 83.271,-72.036 84.006,-72.461 84.754,-72.856 85.353,-73.172 85.521,-73.955 85.526,-74.563 85.582,-81.664 85.541,-88.786 85.526,-95.887 85.525,-96.516 85.384,-97.025 85.173,-97.615 84.769,-98.745 83.929,-99.845 82.888,-100.46 76.767,-104.06 70.578,-107.58 64.421,-111.12 63.833,-111.46 63.189,-111.61 62.556,-111.3 61.808,-110.91 61.073,-110.48 60.357,-110.03 M60.357,-110.03 C59.844,-109.71 59.586,-109.14 59.585,-108.33 M59.584,-108.33 C59.57,-101.23 59.529,-94.103 59.584,-87.002 59.587,-86.721 59.61,-86.436 59.674,-86.162 59.686,-86.114 59.717,-86.019 59.717,-86.019 M61.438,-83.039 L61.54,-82.931 M121.75,-201.63 L122.06,-203.01 123.18,-204.56 124.96,-205.9 127.28,-206.93 129.98,-207.58 131.48,-207.69 M134.44,-207.68 L135.77,-207.58 138.47,-206.93 140.79,-205.9 142.57,-204.56 143.68,-203.01 144,-201.63 M121.87,-201.09 L122.06,-201.94 123.18,-203.5 124.96,-204.84 127.28,-205.87 129.98,-206.51 132.31,-206.69 M133.57,-206.68 L135.77,-206.51 138.47,-205.87 140.79,-204.84 142.57,-203.5 143.68,-201.94 143.88,-201.09 M124.96,-197.35 L123.18,-198.69 122.06,-200.25 121.68,-201.92 M124.96,-197.35 C129.07,-194.75 136.04,-194.73 140.52,-197.29 142.66,-198.51 143.93,-200.18 144.06,-201.92 M114.3,-201.92 L114.44,-201.51 114.84,-201.16 115.45,-200.92 116.16,-200.84 116.88,-200.92 117.48,-201.16 117.89,-201.51 118.03,-201.92 M121.97,-200.65 C121.97,-200.65 122.01,-200.92 122.06,-201.05 122.29,-201.65 122.75,-202.14 123.18,-202.61 123.68,-203.16 124.33,-203.55 124.96,-203.95 125.67,-204.4 126.48,-204.68 127.28,-204.98 129.01,-205.61 131.05,-205.8 132.87,-205.84 134.79,-205.89 136.65,-205.52 138.47,-204.98 139.28,-204.73 140.04,-204.34 140.79,-203.95 141.44,-203.6 142.02,-203.11 142.57,-202.61 143.04,-202.18 143.38,-201.61 143.68,-201.05 143.75,-200.93 143.78,-200.65 143.78,-200.65 M131.01,-192.27 L131.15,-191.86 131.55,-191.51 132.16,-191.28 132.87,-191.19 133.59,-191.28 134.19,-191.51 134.6,-191.86 134.74,-192.27 M151.45,-201.92 L151.3,-201.51 150.9,-201.16 150.29,-200.92 149.58,-200.84 148.87,-200.92 148.26,-201.16 147.86,-201.51 147.72,-201.92 M134.74,-211.56 L134.6,-211.15 134.47,-211.04 M131.42,-210.92 L131.15,-211.15 131.01,-211.56 M111.77,-203.44 L111.17,-202.99 110.8,-202.48 110.67,-201.92 C110.71,-201.07 110.71,-200.22 110.67,-199.38 110.65,-198.7 111.24,-198.16 111.77,-197.86 117.89,-194.26 124.08,-190.73 130.23,-187.19 130.78,-186.88 131.29,-186.75 131.91,-186.64 133.09,-186.42 134.46,-186.6 135.51,-187.19 141.69,-190.7 147.84,-194.29 153.98,-197.86 154.56,-198.2 155.02,-198.68 155.07,-199.38 155.1,-200.22 155.1,-201.07 155.07,-201.92 M155.07,-201.92 C155.05,-202.52 154.68,-203.03 153.98,-203.44 M153.98,-203.44 C147.84,-207 141.69,-210.6 135.51,-214.1 135.27,-214.24 135.01,-214.36 134.74,-214.45 134.71,-214.45 134.65,-214.47 134.65,-214.47 M131.21,-214.49 C131.21,-214.49 131.07,-214.47 131.01,-214.45 130.74,-214.35 130.48,-214.24 130.23,-214.1 124.08,-210.57 117.89,-207.04 111.77,-203.44 M45.277,-77.506 L45.423,-77.582 46.068,-77.446 46.703,-76.958 47.174,-76.257"/>
      <path stroke="#000" d="M48.814,-76.219 L49.104,-76.103 49.479,-76.294 49.59,-76.823 M47.804,-78.828 L47.882,-79.028 48.379,-79.29 49.024,-79.153 49.659,-78.665 50.13,-77.964 50.08,-78.059 M50.13,-77.964 L50.329,-77.25 50.218,-76.721 49.843,-76.53 49.553,-76.646 M48.543,-79.255 L48.621,-79.454 49.118,-79.716 49.763,-79.58 50.398,-79.091 50.869,-78.391 51.068,-77.676 50.895,-77.112 50.459,-76.886 50.283,-77.031 M47.174,-76.257 L47.124,-76.351 M47.174,-76.257 L47.373,-75.542 47.262,-75.014 46.887,-74.823 46.844,-74.84 M45.587,-77.548 L45.665,-77.747 46.162,-78.009 46.807,-77.873 47.442,-77.384 47.913,-76.684 47.863,-76.778 M47.913,-76.684 L48.112,-75.969 48.001,-75.441 47.626,-75.25 47.336,-75.365 M46.326,-77.975 L46.404,-78.174 46.901,-78.436 47.546,-78.3 48.181,-77.811 48.652,-77.111 48.602,-77.205 M48.652,-77.111 L48.851,-76.396 48.74,-75.867 48.365,-75.677 48.075,-75.792 M47.065,-78.402 L47.143,-78.601 47.64,-78.863 48.285,-78.727 48.92,-78.238 49.391,-77.538 49.341,-77.632 M49.391,-77.538 L49.59,-76.823 M50.319,-77.201 L50.545,-77.332 M49.58,-76.774 L49.806,-76.905 M48.841,-76.347 L49.067,-76.478 M48.102,-75.921 L48.328,-76.051 M44.866,-77.446 L45.271,-77.508 45.742,-77.332 46.207,-76.945 46.595,-76.405 46.848,-75.794 46.927,-75.207 46.819,-74.73 46.542,-74.439 M47.363,-75.494 L47.589,-75.625 M41.286,-76.846 L39.842,-76.012 38.674,-74.497 M43.502,-75.512 L41.286,-76.846 M39.723,-71.647 L41.939,-70.313 43.383,-71.147 M39.723,-71.647 L38.674,-74.497 M43.502,-75.512 L44.551,-72.662 M43.383,-71.147 L44.551,-72.662 M46.542,-74.439 L44.36,-73.18 M44.866,-77.446 L42.53,-76.096 M61.983,-67.859 L62.126,-67.936 62.77,-67.804 63.406,-67.318 63.88,-66.619 M65.522,-66.573 L65.818,-66.457 66.191,-66.652 66.299,-67.183 M64.512,-69.182 L64.587,-69.377 65.082,-69.643 65.726,-69.511 66.362,-69.025 66.836,-68.326 66.786,-68.419 M66.836,-68.326 L67.038,-67.61 66.93,-67.079 66.557,-66.884 66.261,-67 M65.251,-69.608 L65.326,-69.804 65.821,-70.07 66.465,-69.938 67.101,-69.452 67.575,-68.753 67.777,-68.037 67.607,-67.47 67.173,-67.24 66.992,-67.388 M63.88,-66.619 L63.83,-66.712 M63.88,-66.619 L64.082,-65.903 63.974,-65.372 63.601,-65.177 63.553,-65.196 M62.295,-67.901 L62.37,-68.097 62.865,-68.363 63.509,-68.231 64.145,-67.745 64.619,-67.046 64.569,-67.138 M64.619,-67.046 L64.821,-66.33 64.713,-65.799 64.34,-65.604 64.044,-65.719 M63.034,-68.328 L63.109,-68.523 63.604,-68.789 64.248,-68.657 64.884,-68.172 65.358,-67.473 65.308,-67.565 M65.358,-67.473 L65.56,-66.757 65.452,-66.226 65.079,-66.03 64.783,-66.146 M63.773,-68.755 L63.848,-68.95 64.343,-69.216 64.987,-69.084 65.623,-68.599 66.097,-67.899 66.047,-67.992 M66.097,-67.899 L66.299,-67.183 M67.027,-67.556 L67.256,-67.689 M66.288,-67.129 L66.517,-67.262 M65.549,-66.703 L65.778,-66.835 M64.81,-66.276 L65.039,-66.409 M61.57,-67.796 L61.973,-67.862 62.443,-67.69 62.909,-67.305 63.299,-66.767 63.554,-66.157 63.635,-65.568 63.53,-65.09 63.255,-64.795 M64.071,-65.849 L64.3,-65.982 M57.983,-67.199 L56.539,-66.365 55.382,-64.836 M60.2,-65.879 L57.983,-67.199 M56.442,-61.988 L58.659,-60.668 60.102,-61.501 M56.442,-61.988 L55.382,-64.836 M60.2,-65.879 L61.259,-63.03 M60.102,-61.501 L61.259,-63.03 M63.255,-64.795 L61.072,-63.534 M61.57,-67.796 L59.239,-66.451 M45.278,-96.799 L45.423,-96.876 46.068,-96.739 46.703,-96.251 47.174,-95.55 M48.814,-95.512 L49.104,-95.397 49.479,-95.587 49.59,-96.116 M47.804,-98.121 L47.882,-98.321 48.379,-98.583 49.024,-98.446 49.659,-97.958 50.13,-97.257 50.08,-97.352 M50.13,-97.257 L50.329,-96.543 50.218,-96.014 49.843,-95.823 49.553,-95.939 M48.543,-98.548 L48.621,-98.748 49.118,-99.009 49.763,-98.873 50.398,-98.384 50.869,-97.684 51.068,-96.969 50.895,-96.405 50.459,-96.179 50.283,-96.324 M47.174,-95.55 L47.124,-95.645 M47.174,-95.55 L47.373,-94.835 47.262,-94.307 46.887,-94.116 46.844,-94.133 M45.587,-96.841 L45.665,-97.041 46.162,-97.302 46.807,-97.166 47.442,-96.677 47.913,-95.977 47.863,-96.071 M47.913,-95.977 L48.112,-95.262 48.001,-94.734 47.626,-94.543 47.336,-94.659 M46.326,-97.268 L46.404,-97.467 46.901,-97.729 47.546,-97.593 48.181,-97.104 48.652,-96.404 48.602,-96.498 M48.652,-96.404 L48.851,-95.689 48.74,-95.161 48.365,-94.97 48.075,-95.085 M47.065,-97.695 L47.143,-97.894 47.64,-98.156 48.285,-98.02 48.92,-97.531 49.391,-96.831 49.341,-96.925 M49.391,-96.831 L49.59,-96.116 M50.319,-96.494 L50.545,-96.625 M49.58,-96.067 L49.806,-96.198 M48.841,-95.641 L49.067,-95.771 M48.102,-95.214 L48.328,-95.344 M44.867,-96.739 L45.271,-96.801 45.742,-96.625 46.207,-96.238 46.595,-95.698 46.848,-95.087 46.927,-94.5 46.819,-94.024 46.542,-93.732 M47.363,-94.787 L47.589,-94.918 M41.286,-96.139 L39.842,-95.305 38.674,-93.79 M43.502,-94.804 L41.286,-96.139 M39.723,-90.941 L41.939,-89.606 43.383,-90.44 M39.723,-90.941 L38.674,-93.79 M43.502,-94.804 L44.551,-91.955 M43.383,-90.44 L44.551,-91.955 M46.542,-93.732 L44.36,-92.473 M44.867,-96.739 L42.53,-95.39 M61.983,-87.152 L62.126,-87.229 62.77,-87.097 63.406,-86.611 63.88,-85.912 M65.522,-85.866 L65.818,-85.75 66.19,-85.945 66.298,-86.476 M64.512,-88.475 L64.587,-88.67 65.082,-88.936 65.726,-88.804 66.362,-88.318 66.836,-87.619 66.786,-87.712 M66.836,-87.619 L67.038,-86.903 66.93,-86.372 66.557,-86.177 66.261,-86.293 M65.251,-88.901 L65.326,-89.097 65.821,-89.363 66.465,-89.231 67.101,-88.745 67.575,-88.046 67.777,-87.33 67.607,-86.763 67.173,-86.533 66.992,-86.681 M63.88,-85.912 L63.83,-86.005 M63.88,-85.912 L64.081,-85.196 63.973,-84.665 63.601,-84.47 63.553,-84.489 M62.294,-87.194 L62.369,-87.39 62.865,-87.656 63.509,-87.524 64.145,-87.038 64.619,-86.339 64.569,-86.431 M64.619,-86.339 L64.82,-85.623 64.712,-85.092 64.34,-84.897 64.044,-85.012 M63.034,-87.621 L63.108,-87.817 63.604,-88.082 64.248,-87.95 64.884,-87.465 65.358,-86.766 65.308,-86.858 M65.358,-86.766 L65.559,-86.05 65.451,-85.519 65.079,-85.323 64.783,-85.439 M63.773,-88.048 L63.848,-88.243 64.343,-88.509 64.987,-88.377 65.623,-87.892 66.097,-87.192 66.047,-87.285 M66.097,-87.192 L66.298,-86.476 M67.027,-86.849 L67.256,-86.982 M66.288,-86.422 L66.517,-86.555 M65.548,-85.996 L65.778,-86.128 M64.809,-85.569 L65.039,-85.701 M61.57,-87.089 L61.973,-87.155 62.443,-86.983 62.909,-86.598 63.299,-86.06 63.554,-85.45 63.635,-84.861 63.53,-84.383 63.255,-84.088 M64.07,-85.142 L64.3,-85.275 M57.983,-86.492 L56.539,-85.658 55.382,-84.13 M60.2,-85.172 L57.983,-86.492 M56.442,-81.281 L58.658,-79.961 60.102,-80.794 M56.442,-81.281 L55.382,-84.13 M60.2,-85.172 L61.259,-82.323 M60.102,-80.794 L61.259,-82.323 M63.255,-84.088 L61.071,-82.827 M61.57,-87.089 L59.239,-85.744 M117.77,-221.62 L117.76,-221.23 117.32,-220.74 116.57,-220.45 115.73,-220.39 M115.71,-217.82 L115.81,-217.81 M115.71,-217.82 L116.55,-217.87 117.29,-218.17 117.74,-218.66 117.76,-219.21 117.62,-219.38 M115.71,-217.82 L114.99,-218.01 114.59,-218.37 114.61,-218.78 114.87,-218.98 M117.62,-218.53 L117.75,-218.36 117.73,-217.8 117.29,-217.31 116.55,-217.02 115.7,-216.96 115.81,-216.96 M115.7,-216.96 L114.98,-217.15 114.58,-217.51 114.6,-217.92 114.86,-218.12 M117.61,-217.67 L117.74,-217.5 117.72,-216.94 117.28,-216.46 116.54,-216.23 115.7,-216.25 115.25,-216.65 M115.73,-220.39 L115.84,-220.38 M115.73,-220.39 L115.01,-220.58 114.61,-220.94 114.63,-221.35 114.81,-221.49 M117.64,-221.1 L117.77,-220.93 117.75,-220.37 117.31,-219.89 116.57,-219.59 115.72,-219.53 115.83,-219.53 M115.72,-219.53 L115,-219.72 114.6,-220.08 114.63,-220.5 114.88,-220.69 M117.63,-220.24 L117.77,-220.07 117.74,-219.51 117.3,-219.03 116.56,-218.73 115.72,-218.68 115.82,-218.67 M115.72,-218.68 L115,-218.86 114.6,-219.22 114.62,-219.64 114.88,-219.84 M113.2,-225.54 L113.21,-227.21 M115.34,-224.22 L113.2,-225.54 M113.21,-227.21 L114.1,-228.93 M115.34,-224.22 L118.38,-224.62 M117.14,-229.34 L114.1,-228.93 M119.27,-226.34 L118.38,-224.62 M119.28,-228.02 L119.27,-226.34 M117.14,-229.34 L119.28,-228.02 M115.5,-221.12 L114.95,-221.35 114.59,-221.68 114.48,-222.06 M115.5,-221.12 L116.15,-221.03 116.82,-221.1 117.38,-221.3 117.77,-221.61 117.92,-221.99 M114.98,-221.2 L114.98,-221.34 M114.97,-220.34 L114.97,-220.61 M114.96,-219.49 L114.97,-219.76 M114.96,-218.63 L114.96,-218.9 M114.95,-217.77 L114.95,-218.04 M115.25,-216.65 L114.94,-216.98 114.94,-217.18 M114.48,-222.06 L114.5,-224.73 M117.92,-221.99 L117.94,-224.56 M134.48,-211.97 L134.47,-211.59 134.03,-211.1 133.29,-210.8 132.45,-210.74 M132.43,-208.17 L132.53,-208.16 M132.43,-208.17 L131.71,-208.36 M132.43,-208.17 L133.27,-208.23 134.01,-208.53 134.45,-209.01 134.46,-209.57 134.33,-209.74 M131.71,-208.36 L131.3,-208.71 131.32,-209.13 131.58,-209.33 M134.32,-208.88 L134.46,-208.72 134.44,-208.16 134,-207.67 133.26,-207.37 132.42,-207.31 132.52,-207.31 M132.42,-207.31 L131.7,-207.5 131.29,-207.86 131.31,-208.27 131.57,-208.48 M134.32,-208.02 L134.45,-207.86 134.43,-207.3 133.99,-206.81 133.26,-206.58 132.41,-206.6 131.96,-207 M132.45,-210.74 L131.73,-210.93 M132.45,-210.74 L132.55,-210.74 M131.73,-210.93 L131.32,-211.29 131.34,-211.7 131.51,-211.84 M134.35,-211.45 L134.48,-211.29 134.46,-210.73 134.02,-210.24 133.28,-209.94 132.44,-209.89 131.72,-210.07 M132.44,-209.89 L132.54,-209.88 M131.72,-210.07 L131.31,-210.43 131.33,-210.84 131.59,-211.05 M134.34,-210.59 L134.47,-210.43 134.45,-209.87 134.02,-209.39 133.28,-209.09 132.43,-209.03 131.71,-209.21 M132.43,-209.03 L132.54,-209.02 M131.71,-209.21 L131.31,-209.57 131.32,-209.99 131.58,-210.19 M133.83,-219.69 L135.99,-218.38 M133.83,-219.69 L130.8,-219.28 M135.97,-216.7 L135.1,-214.98 M135.99,-218.38 L135.97,-216.7 M129.92,-217.55 L130.8,-219.28 M129.91,-215.88 L129.92,-217.55 M132.07,-214.57 L129.91,-215.88 M132.07,-214.57 L135.1,-214.98 M134.63,-212.35 L134.48,-211.97 134.1,-211.66 133.53,-211.45 132.87,-211.39 132.22,-211.48 131.67,-211.7 131.31,-212.03 131.19,-212.41 M131.69,-211.69 L131.69,-211.55 M131.68,-210.97 L131.68,-210.69 M131.68,-210.11 L131.67,-209.83 M131.67,-209.25 L131.67,-208.98 M131.66,-208.4 L131.66,-208.12 M131.65,-207.33 L131.96,-207 M131.65,-207.54 L131.65,-207.33 M131.19,-212.41 L131.21,-215.09 M134.63,-212.35 L134.65,-214.92 M134.48,-231.26 L134.47,-230.88 134.02,-230.39 133.28,-230.09 132.44,-230.04 M132.42,-227.47 L132.52,-227.46 M132.42,-227.47 L131.7,-227.65 M132.42,-227.47 L133.26,-227.52 134,-227.82 134.44,-228.3 134.47,-228.86 134.33,-229.03 M131.7,-227.65 L131.3,-228.01 131.32,-228.43 131.58,-228.63 M134.32,-228.17 L134.46,-228 134.44,-227.45 134,-226.96 133.25,-226.66 132.41,-226.61 132.52,-226.6 M132.41,-226.61 L131.69,-226.8 131.29,-227.15 131.31,-227.57 131.57,-227.77 M134.32,-227.31 L134.45,-227.15 134.43,-226.59 133.99,-226.1 133.25,-225.88 132.41,-225.89 131.96,-226.3 M132.44,-230.04 L131.72,-230.23 M132.44,-230.04 L132.54,-230.03 M131.72,-230.23 L131.32,-230.58 131.34,-231 131.51,-231.13 M134.35,-230.74 L134.48,-230.58 134.46,-230.02 134.02,-229.53 133.28,-229.23 132.43,-229.18 131.71,-229.37 M132.43,-229.18 L132.54,-229.17 M131.71,-229.37 L131.31,-229.73 131.33,-230.14 131.59,-230.34 M134.34,-229.89 L134.47,-229.72 134.45,-229.16 134.01,-228.68 133.27,-228.38 132.43,-228.32 131.71,-228.51 M132.43,-228.32 L132.53,-228.32 M131.71,-228.51 L131.3,-228.87 131.33,-229.28 131.58,-229.48 M133.84,-238.98 L135.99,-237.66 M133.84,-238.98 L130.81,-238.58 M135.98,-235.99 L135.09,-234.26 M135.99,-237.66 L135.98,-235.99 M129.92,-236.86 L130.81,-238.58 M129.91,-235.18 L129.92,-236.86 M132.05,-233.86 L129.91,-235.18 M132.05,-233.86 L135.09,-234.26 M134.63,-231.64 L134.48,-231.26 134.09,-230.95 133.52,-230.74 132.86,-230.68 132.21,-230.77 131.66,-231 131.3,-231.33 131.19,-231.71 M131.69,-230.99 L131.69,-230.85 M131.68,-230.26 L131.68,-229.99 M131.67,-229.4 L131.67,-229.13 M131.67,-228.55 L131.66,-228.27 M131.66,-227.69 L131.66,-227.42 M131.65,-226.63 L131.96,-226.3 M131.65,-226.83 L131.65,-226.63 M131.19,-231.71 L131.21,-234.38 M134.63,-231.64 L134.65,-234.21 M151.19,-221.62 L151.18,-221.23 150.74,-220.75 150,-220.45 149.16,-220.39 M149.14,-217.82 L149.24,-217.81 M149.14,-217.82 L149.98,-217.87 150.72,-218.18 151.15,-218.66 151.17,-219.22 151.04,-219.38 M149.14,-217.82 L148.41,-218 148.01,-218.36 148.02,-218.77 148.29,-218.98 M151.03,-218.53 L151.17,-218.36 151.15,-217.8 150.71,-217.32 149.97,-217.02 149.13,-216.96 149.23,-216.95 M149.13,-216.96 L148.41,-217.15 148,-217.5 148.02,-217.92 148.28,-218.12 M151.03,-217.67 L151.16,-217.5 151.14,-216.95 150.7,-216.46 149.96,-216.23 149.12,-216.25 148.67,-216.65 M149.16,-220.39 L149.26,-220.38 M149.16,-220.39 L148.44,-220.58 148.03,-220.93 148.05,-221.35 148.22,-221.49 M151.05,-221.1 L151.19,-220.93 151.17,-220.38 150.73,-219.89 149.99,-219.59 149.15,-219.53 149.25,-219.53 M149.15,-219.53 L148.43,-219.72 148.02,-220.07 148.04,-220.49 148.3,-220.69 M151.05,-220.24 L151.18,-220.08 151.16,-219.52 150.72,-219.03 149.99,-218.73 149.14,-218.68 149.25,-218.67 M149.14,-218.68 L148.42,-218.86 148.01,-219.22 148.03,-219.63 148.29,-219.84 M146.62,-225.53 L146.63,-227.2 M148.78,-224.21 L146.62,-225.53 M146.63,-227.2 L147.5,-228.93 M148.78,-224.21 L151.81,-224.63 M150.53,-229.34 L147.5,-228.93 M152.68,-226.35 L151.81,-224.63 M152.69,-228.03 L152.68,-226.35 M150.53,-229.34 L152.69,-228.03 M148.92,-221.12 L148.37,-221.35 148.01,-221.68 147.9,-222.06 M148.92,-221.12 L149.58,-221.03 150.24,-221.1 150.81,-221.3 151.19,-221.62 151.34,-222 M148.4,-221.2 L148.4,-221.34 M148.39,-220.34 L148.39,-220.61 M148.38,-219.48 L148.38,-219.76 M148.37,-218.62 L148.38,-218.9 M148.37,-217.77 L148.37,-218.04 M148.67,-216.65 L148.36,-216.98 148.36,-217.18 M147.9,-222.06 L147.92,-224.74 M151.34,-222 L151.36,-224.56"/>
      <path stroke="#000" stroke-width="0.18" d="M137.49,-141.86 L137.84,-141.79 138.26,-141.93 138.68,-142.27 139.04,-142.75 139.28,-143.3 139.36,-143.84 139.28,-144.28 139.04,-144.55 M151.48,-133.78 L151.83,-133.71 152.25,-133.86 152.68,-134.2 153.03,-134.68 153.27,-135.23 153.35,-135.76 153.27,-136.2 153.03,-136.47 M120.7,-133.03 L121.05,-132.96 121.48,-133.1 121.9,-133.44 122.25,-133.92 122.49,-134.47 122.57,-135.01 122.49,-135.44 122.25,-135.72 M126.98,-140.31 L127.33,-140.24 127.76,-140.39 128.18,-140.73 128.53,-141.21 128.77,-141.76 128.85,-142.29 128.77,-142.73 128.53,-143.01 M119.08,-126.64 L119.32,-126.36 119.4,-125.92 119.32,-125.39 119.08,-124.84 118.72,-124.36 118.3,-124.02 117.88,-123.87 117.53,-123.94 M106.16,-110.85 L106.77,-111.2 M111.65,-105.05 L109.64,-106.51 107.77,-108.49 M114.95,-90.29 L114.41,-90.122 113.77,-90.185 113.09,-90.475 100.04,-98.01 M91.981,-111.96 L91.981,-127.03 92.071,-127.77 92.335,-128.35 92.754,-128.74 M109.78,-100.26 L108.17,-99.764 106.3,-99.949 104.29,-100.8 102.29,-102.27 100.41,-104.24 99.969,-104.89 M97.911,-108.46 L97.576,-109.16 96.801,-111.77 96.537,-114.24 96.801,-116.4 97.576,-118.11 98.808,-119.26 M147.72,-167.39 L147.86,-167.81 148.26,-168.15 148.87,-168.39 149.58,-168.47 150.29,-168.39 150.9,-168.15 151.3,-167.81 151.45,-167.39 M131.01,-157.75 L131.15,-158.16 131.55,-158.51 132.16,-158.74 132.87,-158.82 133.59,-158.74 134.19,-158.51 134.6,-158.16 134.74,-157.75 M114.3,-167.39 L114.44,-167.81 114.84,-168.16 115.45,-168.39 116.16,-168.47 116.88,-168.39 117.48,-168.16 117.89,-167.81 118.03,-167.39 M131.54,-177.79 L131.55,-177.8 132.16,-178.03 132.87,-178.12 133.59,-178.03 134.19,-177.8 134.21,-177.79 M121.44,-114.07 L121.8,-114 122.22,-114.15 122.64,-114.49 123,-114.97 123.24,-115.52 123.32,-116.05 123.24,-116.49 123,-116.76 M155.07,-167.39 C155.12,-166.73 154.48,-166.16 153.98,-165.87 147.84,-162.29 141.67,-158.73 135.51,-155.21 134.7,-154.75 133.79,-154.6 132.87,-154.58 131.98,-154.55 131.01,-154.76 130.23,-155.21 124.07,-158.73 117.9,-162.29 111.77,-165.87 111.18,-166.21 110.73,-166.69 110.67,-167.39 M136.99,-108.69 L137.23,-108.41 137.31,-107.97 137.23,-107.44 136.99,-106.89 136.63,-106.41 136.21,-106.07 135.79,-105.92 135.43,-105.99 M96.444,-104.23 L96.313,-104.34 95.885,-104.91 95.599,-105.57 95.573,-105.74 M113.58,-112.98 L113.15,-112.89 112.65,-113.07 112.14,-113.48 111.71,-114.05 111.43,-114.71 111.33,-115.35 111.43,-115.88 111.71,-116.21 M113.89,-113.45 L113.53,-113.58 113.02,-113.98 112.59,-114.56 112.31,-115.22 112.21,-115.86 112.28,-116.24 M113.58,-93.683 L113.15,-93.6 112.65,-93.775 112.14,-94.183 111.71,-94.76 111.43,-95.419 111.33,-96.06 111.43,-96.585 111.71,-96.914 M113.89,-94.156 L113.53,-94.283 113.02,-94.69 112.59,-95.268 112.31,-95.927 112.21,-96.568 112.28,-96.949 M96.871,-122.62 L96.443,-122.54 95.938,-122.71 95.434,-123.12 95.006,-123.7 94.72,-124.36 94.619,-125 94.72,-125.52 95.006,-125.85 M97.184,-123.1 L96.818,-123.22 96.313,-123.63 95.885,-124.21 95.599,-124.87 95.498,-125.51 95.572,-125.89 M115.14,-90.467 L114.84,-90.376 114.21,-90.439 113.53,-90.729 100.04,-98.517 M92.421,-111.71 L92.421,-127.28 92.511,-128.02 92.774,-128.6 93.003,-128.82 M136.65,-150.28 L136.91,-150.21 M145.94,-107.54 L146.3,-107.47 146.72,-107.61 147.14,-107.95 147.5,-108.43 147.74,-108.98 147.82,-109.52 147.74,-109.95 147.5,-110.23 M152.22,-114.82 L152.58,-114.76 153,-114.9 153.42,-115.24 153.78,-115.72 154.02,-116.27 154.1,-116.81 154.02,-117.24 153.78,-117.52 M155.4,-123.91 L155.75,-123.84 156.17,-123.98 156.59,-124.32 156.95,-124.8 157.19,-125.35 157.27,-125.89 157.19,-126.33 156.95,-126.6 M111.59,-108.41 L106.77,-111.2 108.69,-114.52 M123.2,-94.447 L123.64,-94.414 124.6,-94.487 125.5,-94.702 126.28,-95.045 132.4,-98.581 135.03,-102.56 M127.63,-108.56 L127.62,-107.56 127.81,-106.69 128.18,-106 128.73,-105.54 M127.63,-108.56 L122.7,-111.41 M127.63,-108.56 L132.46,-105.77 M133.56,-102.75 L133.02,-103.21 132.64,-103.9 132.45,-104.76 132.46,-105.77 M118.45,-113.04 C118.46,-112.11 118.85,-111.31 119.48,-110.88 M118.45,-113.04 C118.44,-113.39 118.67,-113.78 118.5,-114.09 118.16,-114.71 117.57,-115.19 117.22,-115.81 116.84,-116.5 116.54,-117.24 116.35,-118 116.13,-118.84 116.15,-119.74 115.91,-120.58 115.84,-120.84 115.44,-120.84 115.24,-121.02 115.02,-121.21 114.9,-121.49 114.77,-121.75 114.63,-122.05 114.59,-122.39 114.55,-122.72 114.44,-123.48 114.65,-124.4 114.85,-125.12 115.1,-125.99 115.58,-126.83 116.08,-127.58 116.33,-127.96 116.69,-128.25 116.94,-128.62 117.11,-128.87 117.12,-129.19 117.21,-129.47 117.31,-129.75 117.41,-130.03 117.51,-130.31 117.61,-130.59 117.78,-130.86 117.83,-131.15 117.89,-131.46 117.71,-131.77 117.7,-132.09 117.69,-132.44 117.71,-132.8 117.77,-133.15 117.92,-133.95 118.14,-134.71 118.52,-135.43 119.53,-137.37 120.73,-138.16 122.51,-139.22 122.97,-139.49 123.92,-140.74 124.22,-141.21 124.44,-141.55 124.47,-141.98 124.63,-142.35 124.79,-142.73 124.98,-143.11 125.21,-143.46 M130.1,-146.49 C128.64,-146.98 126.7,-145.78 125.21,-143.46 M119.24,-111.02 L118.62,-111.5 118.2,-112.25 118.01,-113.22 118.06,-114.34 116.6,-116.41 M122.7,-111.41 L132.46,-105.77 M140.87,-147.93 L140.14,-148.13 139.31,-148.05 138.42,-147.7 137.51,-147.1 135.42,-147.34 133.13,-147.01 130.73,-146.13 M154.99,-139.77 L154.3,-140.03 153.49,-140.02 152.61,-139.73 151.71,-139.18 M150.79,-142.19 L150.12,-142.34 149.36,-142.27 148.56,-141.97 147.75,-141.46 M166.94,-119.41 L166.81,-118.86 166.44,-118.34 165.85,-117.89 152.25,-110.04 M121.88,-98.091 L127.56,-101.37 129.88,-104.87 M122.85,-97.533 L122.93,-97.563 123.64,-97.645 124.35,-97.563 124.96,-97.329 125.36,-96.98 125.5,-96.568 M116.6,-86.921 C116.6,-96.74 118.79,-106.83 116.6,-116.41 M165.08,-119.41 L164.93,-119.83 164.53,-120.18 163.92,-120.41 163.21,-120.49 162.5,-120.41 161.89,-120.18 161.49,-119.83 161.35,-119.41 M144.06,-167.39 L143.68,-169.07 142.57,-170.62 140.79,-171.96 139.29,-172.62 M134.14,-173.76 L132.87,-173.86 131.6,-173.76 M126.45,-172.62 L124.96,-171.96 123.18,-170.62 122.06,-169.07 121.68,-167.39 M136.03,-141.05 C141.32,-138.27 146.48,-135.21 151.57,-132.07 153.16,-131.1 153.24,-130.33 153.96,-128.67 M138.51,-109.46 C142.8,-107.19 148.89,-111.12 152.12,-118.24 153.69,-121.7 154.35,-125.46 153.96,-128.67 M143.87,-136.3 L144.06,-136.41 M94.267,-86.841 L93.981,-86.512 93.881,-85.987 93.981,-85.346 94.267,-84.687 94.695,-84.11 95.2,-83.702 95.704,-83.527 96.132,-83.61 M92.329,-90.187 L90.723,-89.691 88.853,-89.876 86.845,-90.73 85.526,-91.692 M79.262,-102.55 L79.09,-104.16 79.354,-106.33 80.129,-108.04 81.362,-109.18 M79.424,-112.55 L78.996,-112.47 78.491,-112.64 77.987,-113.05 77.559,-113.63 77.273,-114.29 77.172,-114.93 77.273,-115.45 77.559,-115.78 M75.746,-118.92 C76.299,-119.3 77.103,-119.02 77.612,-118.73 83.789,-115.23 89.937,-111.64 96.079,-108.07 96.882,-107.61 97.467,-106.88 97.944,-106.1 98.411,-105.34 98.71,-104.4 98.717,-103.5 98.773,-96.402 98.732,-89.28 98.717,-82.179 98.716,-81.501 98.524,-80.867 97.944,-80.471 M96.132,-102.9 L95.704,-102.82 95.2,-103 94.695,-103.4 94.267,-103.98 93.981,-104.64 93.881,-105.28 93.981,-105.81 94.267,-106.13 M118.03,-184.15 L117.89,-184.56 117.48,-184.91 116.88,-185.14 116.16,-185.23 115.45,-185.14 114.84,-184.91 114.44,-184.56 114.3,-184.15 M121.68,-184.15 L122.06,-185.82 123.18,-187.38 124.96,-188.72 126.45,-189.38 M139.29,-189.38 L140.79,-188.72 142.57,-187.38 143.68,-185.82 144.06,-184.15 M134.74,-174.5 L134.6,-174.91 134.19,-175.26 133.59,-175.5 132.87,-175.58 132.16,-175.5 131.55,-175.26 131.15,-174.91 131.01,-174.5 M147.72,-184.15 L147.86,-184.56 148.26,-184.91 148.87,-185.14 149.58,-185.23 150.29,-185.14 150.9,-184.91 151.3,-184.56 151.45,-184.15 M110.67,-184.15 C110.73,-183.45 111.18,-182.97 111.77,-182.62 117.91,-179.06 124.06,-175.47 130.23,-171.96 131.01,-171.52 131.98,-171.31 132.87,-171.33 133.79,-171.36 134.71,-171.5 135.51,-171.96 141.67,-175.5 147.86,-179.03 153.98,-182.62 154.48,-182.92 155.12,-183.48 155.07,-184.15 M62.169,-87.602 L61.883,-87.273 61.857,-87.136 M63.482,-84.332 L63.607,-84.288 64.035,-84.371 M78.878,-77.956 L78.592,-77.627 78.491,-77.102 78.592,-76.461 78.878,-75.802 79.305,-75.225 79.81,-74.817 80.315,-74.642 80.743,-74.725 M76.94,-81.302 L75.334,-80.806 73.464,-80.991 71.456,-81.845 69.449,-83.309 67.578,-85.283 66.859,-86.335 M65.301,-89.032 L64.74,-90.2 63.965,-92.807 63.701,-95.278 63.965,-97.443 64.74,-99.155 65.972,-100.3 M64.035,-103.66 L63.607,-103.58 63.102,-103.76 62.597,-104.16 62.169,-104.74 61.883,-105.4 61.783,-106.04 61.883,-106.57 62.169,-106.9 M60.357,-110.03 C60.91,-110.41 61.714,-110.14 62.223,-109.85 68.4,-106.35 74.548,-102.75 80.69,-99.187 81.493,-98.722 82.078,-97.998 82.555,-97.218 83.021,-96.456 83.321,-95.515 83.328,-94.618 83.383,-87.517 83.343,-80.395 83.328,-73.294 83.326,-72.616 83.135,-71.982 82.555,-71.586 M80.743,-94.018 L80.315,-93.935 79.81,-94.11 79.305,-94.518 78.878,-95.095 78.592,-95.754 78.491,-96.395 78.592,-96.92 78.878,-97.249 M77.66,-81.969 C77.66,-81.969 77.213,-81.763 76.974,-81.758 76.349,-81.743 75.7,-81.751 75.104,-81.943 73.579,-82.434 72.27,-83.15 71.091,-84.26 69.735,-85.537 68.512,-86.935 67.616,-88.583 66.764,-90.15 65.917,-91.973 65.61,-93.754 65.371,-95.139 65.156,-96.989 65.61,-98.388 65.803,-98.983 65.99,-99.614 66.384,-100.1 66.535,-100.29 66.911,-100.59 66.911,-100.59 M77.287,-81.624 L76.111,-81.261 74.242,-81.446 72.235,-82.299 70.229,-83.762 68.36,-85.736 67.622,-86.815 M66.176,-89.29 L65.522,-90.65 64.748,-93.256 64.484,-95.725 64.748,-97.89 65.522,-99.601 66.425,-100.44 M70.081,-83.579 L68.222,-85.541 67.446,-86.678 M65.901,-89.346 L65.285,-90.629 64.515,-93.22 M70.934,-84.084 L69.084,-86.038 67.421,-88.471 66.146,-91.127 65.379,-93.706 M118.03,-201.92 L117.89,-202.33 117.48,-202.68 116.88,-202.91 116.16,-202.99 115.45,-202.91 114.84,-202.68 114.44,-202.33 114.3,-201.92 M121.68,-201.92 L122.06,-203.59 123.18,-205.15 124.96,-206.49 127.28,-207.51 129.98,-208.16 131.31,-208.26 M134.44,-208.26 L135.77,-208.16 138.47,-207.51 140.79,-206.49 142.57,-205.15 143.68,-203.59 144.06,-201.92 M131.01,-211.56 L131.15,-211.98 131.29,-212.09 M134.51,-212.05 L134.6,-211.98 134.74,-211.56 M134.74,-192.27 L134.6,-192.68 134.19,-193.03 133.59,-193.27 132.87,-193.35 132.16,-193.27 131.55,-193.03 131.15,-192.68 131.01,-192.27 M147.72,-201.92 L147.86,-202.33 148.26,-202.68 148.87,-202.91 149.58,-202.99 150.29,-202.91 150.9,-202.68 151.3,-202.33 151.45,-201.92 M110.67,-201.92 C110.73,-201.22 111.18,-200.73 111.77,-200.39 117.91,-196.83 124.06,-193.24 130.23,-189.73 131.01,-189.29 131.98,-189.08 132.87,-189.1 133.79,-189.13 134.71,-189.27 135.51,-189.73 141.67,-193.27 147.86,-196.8 153.98,-200.39 154.48,-200.69 155.12,-201.25 155.07,-201.92 M143.84,-200.94 C143.84,-200.94 143.77,-201.41 143.68,-201.64 143.45,-202.23 142.99,-202.72 142.57,-203.19 141.56,-204.31 139.82,-205.06 138.47,-205.56 136.74,-206.2 134.69,-206.38 132.87,-206.43 130.96,-206.47 129.1,-206.11 127.28,-205.56 125.69,-205.08 124.39,-204.29 123.18,-203.19 122.71,-202.77 122.37,-202.2 122.06,-201.64 121.95,-201.43 121.9,-200.94 121.9,-200.94 M143.96,-201.47 L143.68,-202.7 142.57,-204.26 140.79,-205.6 138.47,-206.62 135.77,-207.27 134.43,-207.37 M131.65,-207.4 L129.98,-207.27 127.28,-206.62 124.96,-205.6 123.18,-204.26 122.06,-202.7 121.78,-201.47 M138.53,-206.9 L135.89,-207.53 134.44,-207.64 M131.51,-207.66 L129.85,-207.53 127.21,-206.9 M138.53,-205.84 L135.89,-206.47 133.48,-206.65 M132.35,-206.66 L129.85,-206.47 127.21,-205.84 M39.842,-76.012 L42.058,-74.678 43.107,-71.828 M42.058,-74.678 L43.502,-75.512 M44.551,-72.662 L43.107,-71.828 41.939,-70.313 M48.157,-78.754 L48.321,-78.84 48.831,-78.743 49.333,-78.376 49.71,-77.845 49.877,-77.303 49.806,-76.905 M48.896,-79.18 L49.06,-79.267 49.57,-79.17 50.072,-78.803 50.449,-78.272 50.616,-77.73 50.545,-77.332 M46.873,-76.704 L47.124,-76.351 M47.612,-77.132 L47.863,-76.778 M48.351,-77.559 L48.602,-77.205 M49.09,-77.985 L49.341,-77.632 M49.829,-78.412 L50.08,-78.059 M46.637,-76.303 L46.754,-76.138 46.921,-75.596 46.895,-75.446 M45.94,-77.473 L46.104,-77.56 46.614,-77.463 47.116,-77.096 47.493,-76.565 47.66,-76.023 47.589,-75.625 M46.679,-77.9 L46.843,-77.987 47.353,-77.89 47.855,-77.522 48.232,-76.992 48.399,-76.45 48.328,-76.051 M47.418,-78.327 L47.582,-78.413 48.092,-78.317 48.594,-77.949 48.971,-77.418 49.138,-76.877 49.067,-76.478 M56.539,-66.365 L58.756,-65.045 59.815,-62.196 M58.756,-65.045 L60.2,-65.879 M61.259,-63.03 L59.815,-62.196 58.659,-60.668 M64.868,-69.109 L65.025,-69.193 65.534,-69.1 66.038,-68.735 66.417,-68.205 66.586,-67.662 66.517,-67.262 M65.607,-69.535 L65.764,-69.62 66.273,-69.527 66.777,-69.161 67.156,-68.632 67.325,-68.089 67.256,-67.689 M63.584,-67.055 L63.83,-66.712 M64.323,-67.483 L64.569,-67.138 M65.061,-67.91 L65.308,-67.565 M65.8,-68.336 L66.047,-67.992 M66.539,-68.763 L66.786,-68.419 M63.342,-66.664 L63.46,-66.498 63.63,-65.955 63.603,-65.799 M62.65,-67.828 L62.808,-67.913 63.317,-67.82 63.821,-67.454 64.199,-66.925 64.369,-66.382 64.3,-65.982 M63.389,-68.255 L63.547,-68.34 64.056,-68.246 64.56,-67.881 64.938,-67.352 65.108,-66.809 65.039,-66.409 M64.128,-68.682 L64.286,-68.767 64.795,-68.673 65.299,-68.308 65.678,-67.778 65.847,-67.236 65.778,-66.835 M39.842,-95.305 L42.058,-93.971 43.107,-91.121 M42.058,-93.971 L43.502,-94.804 M44.551,-91.955 L43.107,-91.121 41.939,-89.606 M48.157,-98.047 L48.321,-98.133 48.831,-98.036 49.333,-97.669 49.711,-97.138 49.877,-96.597 49.806,-96.198 M48.896,-98.473 L49.06,-98.56 49.57,-98.463 50.073,-98.096 50.45,-97.565 50.617,-97.023 50.545,-96.625 M46.874,-95.997 L47.124,-95.645 M47.612,-96.425 L47.863,-96.071 M48.351,-96.852 L48.602,-96.498 M49.09,-97.278 L49.341,-96.925 M49.829,-97.705 L50.08,-97.352 M46.637,-95.596 L46.754,-95.431 46.921,-94.889 46.895,-94.739 M45.94,-96.766 L46.104,-96.853 46.614,-96.756 47.116,-96.389 47.494,-95.858 47.66,-95.316 47.589,-94.918 M46.679,-97.193 L46.843,-97.28 47.353,-97.183 47.855,-96.815 48.232,-96.285 48.399,-95.743 48.328,-95.344 M47.418,-97.62 L47.582,-97.707 48.092,-97.61 48.594,-97.242 48.972,-96.711 49.138,-96.17 49.067,-95.771 M56.539,-85.658 L58.756,-84.338 59.815,-81.489 M58.756,-84.338 L60.2,-85.172 M61.259,-82.323 L59.815,-81.489 58.658,-79.961 M64.867,-88.402 L65.025,-88.486 65.534,-88.393 66.038,-88.028 66.416,-87.498 66.586,-86.955 66.517,-86.555 M65.606,-88.828 L65.764,-88.913 66.273,-88.82 66.777,-88.454 67.155,-87.925 67.325,-87.382 67.256,-86.982 M63.584,-86.348 L63.83,-86.005 M64.322,-86.776 L64.569,-86.431 M65.061,-87.203 L65.308,-86.858 M65.8,-87.629 L66.047,-87.285 M66.54,-88.056 L66.786,-87.712 M63.342,-85.957 L63.46,-85.791 63.63,-85.248 63.603,-85.092 M62.65,-87.121 L62.808,-87.206 63.317,-87.113 63.82,-86.747 64.199,-86.218 64.369,-85.675 64.3,-85.275 M63.389,-87.548 L63.547,-87.633 64.056,-87.539 64.56,-87.174 64.938,-86.645 65.108,-86.102 65.039,-85.701 M64.128,-87.975 L64.286,-88.06 64.795,-87.966 65.299,-87.601 65.677,-87.071 65.847,-86.529 65.778,-86.128 M119.28,-228.02 L118.39,-226.29 M113.21,-227.21 L115.36,-225.89 M118.38,-224.62 L118.39,-226.29 115.36,-225.89 115.34,-224.22 M114.96,-218.63 L115.27,-218.37 115.82,-218.24 116.47,-218.3 117.04,-218.55 117.38,-218.93 117.38,-219.12"/>
      <path stroke="#000" stroke-width="0.18" d="M117.38,-218.26 L117.37,-218.08 117.03,-217.69 116.46,-217.44 115.81,-217.38 115.26,-217.51 114.95,-217.77 M117.37,-217.41 L117.36,-217.22 117.02,-216.83 116.45,-216.58 115.8,-216.53 115.25,-216.65 M116.38,-220.43 L115.84,-220.38 M116.37,-219.58 L115.83,-219.53 M116.36,-218.72 L115.82,-218.67 M116.35,-217.86 L115.81,-217.81 M116.35,-217 L115.81,-216.96 M117.14,-221.21 L117.06,-221.12 116.49,-220.87 115.84,-220.81 115.29,-220.94 114.98,-221.2 M117.4,-220.84 L117.39,-220.65 117.05,-220.26 116.48,-220.01 115.83,-219.96 115.28,-220.08 114.97,-220.34 M117.39,-219.98 L117.38,-219.79 117.04,-219.4 116.47,-219.16 115.83,-219.1 115.27,-219.23 114.96,-219.49 M135.99,-218.38 L135.11,-216.65 M129.92,-217.55 L132.08,-216.24 M135.1,-214.98 L135.11,-216.65 132.08,-216.24 132.07,-214.57 M131.67,-208.98 L131.98,-208.72 132.53,-208.59 133.18,-208.65 133.75,-208.9 134.09,-209.29 134.09,-209.47 M134.09,-208.62 L134.08,-208.43 133.74,-208.04 133.18,-207.8 132.53,-207.74 131.97,-207.86 131.66,-208.12 M134.08,-207.76 L134.07,-207.58 133.74,-207.19 133.17,-206.94 132.52,-206.88 131.96,-207 M133.09,-210.79 L132.55,-210.74 M133.08,-209.93 L132.54,-209.88 M133.07,-209.07 L132.54,-209.02 M133.06,-208.21 L132.53,-208.16 M133.06,-207.36 L132.52,-207.31 M133.85,-211.57 L133.77,-211.47 133.2,-211.23 132.55,-211.17 132,-211.29 131.69,-211.55 M134.11,-211.19 L134.1,-211.01 133.77,-210.62 133.2,-210.37 132.55,-210.31 131.99,-210.43 131.68,-210.69 M134.1,-210.33 L134.09,-210.15 133.76,-209.76 133.19,-209.51 132.54,-209.45 131.99,-209.58 131.67,-209.83 M135.99,-237.66 L135.1,-235.94 M129.92,-236.86 L132.07,-235.54 M135.09,-234.26 L135.1,-235.94 132.07,-235.54 132.05,-233.86 M131.66,-228.27 L131.97,-228.02 132.53,-227.89 133.18,-227.95 133.75,-228.19 134.09,-228.58 134.09,-228.77 M134.09,-227.91 L134.08,-227.72 133.74,-227.33 133.17,-227.09 132.52,-227.03 131.97,-227.16 131.66,-227.42 M134.08,-227.05 L134.07,-226.87 133.73,-226.48 133.16,-226.23 132.51,-226.17 131.96,-226.3 M133.09,-230.08 L132.54,-230.03 M133.08,-229.22 L132.54,-229.17 M133.07,-228.36 L132.53,-228.32 M133.06,-227.51 L132.52,-227.46 M133.06,-226.65 L132.52,-226.6 M133.85,-230.86 L133.77,-230.76 133.2,-230.52 132.55,-230.46 132,-230.59 131.69,-230.85 M134.11,-230.48 L134.1,-230.3 133.76,-229.91 133.19,-229.66 132.54,-229.6 131.99,-229.73 131.68,-229.99 M134.1,-229.63 L134.09,-229.44 133.75,-229.05 133.18,-228.8 132.53,-228.75 131.98,-228.87 131.67,-229.13 M152.69,-228.03 L151.82,-226.3 M146.63,-227.2 L148.79,-225.89 M151.81,-224.63 L151.82,-226.3 148.79,-225.89 148.78,-224.21 M148.37,-218.62 L148.69,-218.37 149.24,-218.24 149.89,-218.3 150.46,-218.55 150.8,-218.94 150.8,-219.12 M150.79,-218.26 L150.79,-218.08 150.45,-217.69 149.88,-217.44 149.23,-217.38 148.68,-217.51 148.37,-217.77 M150.79,-217.4 L150.78,-217.22 150.44,-216.83 149.88,-216.59 149.23,-216.53 148.67,-216.65 M149.79,-220.43 L149.26,-220.38 M149.79,-219.58 L149.25,-219.53 M149.78,-218.72 L149.25,-218.67 M149.77,-217.86 L149.24,-217.81 M149.77,-217 L149.23,-216.95 M150.56,-221.21 L150.48,-221.12 149.91,-220.87 149.26,-220.81 148.71,-220.94 148.4,-221.2 M150.82,-220.83 L150.81,-220.65 150.47,-220.26 149.9,-220.01 149.26,-219.95 148.7,-220.08 148.39,-220.34 M150.81,-219.98 L150.8,-219.8 150.47,-219.41 149.9,-219.16 149.25,-219.1 148.69,-219.22 148.38,-219.48"/>
    </g>
  </g>
  <g id="AUTOID_002" vm2d:name="C3DCallouts" vm2d:type="layer">
    <a id="_47D08E7D5EC74F8E9A5AC41EC669941E_1" vm2d:name="110" vm2d:type="grobject" xlink:href="#">
      <path d="M860.62,439.4 L899.48,439.4 899.48,465.4 860.62,465.4 Z" fill="#fff" fill-opacity="0"/>
      <g transform="matrix(4.72727,0,0,4.72727,0.136383,1404)">
        <text font-family="Arial" font-size="4.92" x="182.03" y="-199.593" fill="#000">110</text>
      </g>
    </a>
    <g transform="matrix(4.72727,0,0,4.72727,0.136383,1404)" stroke-width="0.18" stroke-linecap="butt" stroke-linejoin="miter" stroke-miterlimit="10">
      <path stroke="#000" d="M182.03,-201.3 L150.91,-201.53"/>
    </g>
    <a id="_47D08E7D5EC74F8E9A5AC41EC669941E_2" vm2d:name="110" vm2d:type="grobject" xlink:href="#">
      <path d="M364.26,1188.2 L403.12,1188.2 403.12,1214.2 364.26,1214.2 Z" fill="#fff" fill-opacity="0"/>
      <g transform="matrix(4.72727,0,0,4.72727,0.136383,1404)">
        <text font-family="Arial" font-size="4.92" x="77.0296" y="-41.1933" fill="#000">110</text>
      </g>
    </a>
    <g transform="matrix(4.72727,0,0,4.72727,0.136383,1404)" stroke-width="0.18" stroke-linecap="butt" stroke-linejoin="miter" stroke-miterlimit="10">
      <path stroke="#000" d="M81.136,-45.65 L81.473,-75.173"/>
    </g>
    <a id="_2F2CE32913864241980C0546B9772666" vm2d:name="130" vm2d:type="grobject" xlink:href="#">
      <path d="M860.62,813.8 L899.48,813.8 899.48,839.8 860.62,839.8 Z" fill="#fff" fill-opacity="0"/>
      <g transform="matrix(4.72727,0,0,4.72727,0.136383,1404)">
        <text font-family="Arial" font-size="4.92" x="182.03" y="-120.393" fill="#000">130</text>
      </g>
    </a>
    <g transform="matrix(4.72727,0,0,4.72727,0.136383,1404)" stroke-width="0.18" stroke-linecap="butt" stroke-linejoin="miter" stroke-miterlimit="10">
      <path stroke="#000" d="M182.03,-119.35 L149.71,-118.99"/>
    </g>
    <a id="_B693F2BEB8464D5E9822EADA2D210440_1" vm2d:name="120" vm2d:type="grobject" xlink:href="#">
      <path d="M860.62,533 L899.48,533 899.48,559 860.62,559 Z" fill="#fff" fill-opacity="0"/>
      <g transform="matrix(4.72727,0,0,4.72727,0.136383,1404)">
        <text font-family="Arial" font-size="4.92" x="182.03" y="-179.793" fill="#000">120</text>
      </g>
    </a>
    <g transform="matrix(4.72727,0,0,4.72727,0.136383,1404)" stroke-width="0.18" stroke-linecap="butt" stroke-linejoin="miter" stroke-miterlimit="10">
      <path stroke="#000" d="M182.03,-181.5 L148.13,-182.54"/>
    </g>
    <a id="_B693F2BEB8464D5E9822EADA2D210440_2" vm2d:name="120" vm2d:type="grobject" xlink:href="#">
      <path d="M409.38,1188.2 L448.24,1188.2 448.24,1214.2 409.38,1214.2 Z" fill="#fff" fill-opacity="0"/>
      <g transform="matrix(4.72727,0,0,4.72727,0.136383,1404)">
        <text font-family="Arial" font-size="4.92" x="86.575" y="-41.1933" fill="#000">120</text>
      </g>
    </a>
    <g transform="matrix(4.72727,0,0,4.72727,0.136383,1404)" stroke-width="0.18" stroke-linecap="butt" stroke-linejoin="miter" stroke-miterlimit="10">
      <path stroke="#000" d="M94.792,-45.65 L96.12,-84.01"/>
    </g>
    <a id="_718828F138AC45E583ADD6C28B5B41A7_1" vm2d:name="100" vm2d:type="grobject" xlink:href="#">
      <path d="M680.13,189.8 L718.99,189.8 718.99,215.8 680.13,215.8 Z" fill="#fff" fill-opacity="0"/>
      <g transform="matrix(4.72727,0,0,4.72727,0.136383,1404)">
        <text font-family="Arial" font-size="4.92" x="143.848" y="-252.393" fill="#000">100</text>
      </g>
    </a>
    <g transform="matrix(4.72727,0,0,4.72727,0.136383,1404)" stroke-width="0.18" stroke-linecap="butt" stroke-linejoin="miter" stroke-miterlimit="10">
      <path stroke="#000" d="M147.95,-251.35 L148.33,-227.29"/>
    </g>
    <a id="_718828F138AC45E583ADD6C28B5B41A7_2" vm2d:name="100" vm2d:type="grobject" xlink:href="#">
      <path d="M589.88,189.8 L628.74,189.8 628.74,215.8 589.88,215.8 Z" fill="#fff" fill-opacity="0"/>
      <g transform="matrix(4.72727,0,0,4.72727,0.136383,1404)">
        <text font-family="Arial" font-size="4.92" x="124.757" y="-252.393" fill="#000">100</text>
      </g>
    </a>
    <g transform="matrix(4.72727,0,0,4.72727,0.136383,1404)" stroke-width="0.18" stroke-linecap="butt" stroke-linejoin="miter" stroke-miterlimit="10">
      <path stroke="#000" d="M132.97,-251.35 L133.14,-236.93"/>
    </g>
    <a id="_718828F138AC45E583ADD6C28B5B41A7_3" vm2d:name="100" vm2d:type="grobject" xlink:href="#">
      <path d="M635,189.8 L673.86,189.8 673.86,215.8 635,215.8 Z" fill="#fff" fill-opacity="0"/>
      <g transform="matrix(4.72727,0,0,4.72727,0.136383,1404)">
        <text font-family="Arial" font-size="4.92" x="134.302" y="-252.393" fill="#000">100</text>
      </g>
    </a>
    <g transform="matrix(4.72727,0,0,4.72727,0.136383,1404)" stroke-width="0.18" stroke-linecap="butt" stroke-linejoin="miter" stroke-miterlimit="10">
      <path stroke="#000" d="M138.41,-251.35 L133.52,-217.64"/>
    </g>
    <a id="_718828F138AC45E583ADD6C28B5B41A7_4" vm2d:name="100" vm2d:type="grobject" xlink:href="#">
      <path d="M544.76,189.8 L583.61,189.8 583.61,215.8 544.76,215.8 Z" fill="#fff" fill-opacity="0"/>
      <g transform="matrix(4.72727,0,0,4.72727,0.136383,1404)">
        <text font-family="Arial" font-size="4.92" x="115.211" y="-252.393" fill="#000">100</text>
      </g>
    </a>
    <g transform="matrix(4.72727,0,0,4.72727,0.136383,1404)" stroke-width="0.18" stroke-linecap="butt" stroke-linejoin="miter" stroke-miterlimit="10">
      <path stroke="#000" d="M115.21,-251.35 L114.91,-227.29"/>
    </g>
    <a id="_718828F138AC45E583ADD6C28B5B41A7_5" vm2d:name="100" vm2d:type="grobject" xlink:href="#">
      <path d="M93.517,1001 L132.38,1001 132.38,1027 93.517,1027 Z" fill="#fff" fill-opacity="0"/>
      <g transform="matrix(4.72727,0,0,4.72727,0.136383,1404)">
        <text font-family="Arial" font-size="4.92" x="19.7568" y="-80.7933" fill="#000">100</text>
      </g>
    </a>
    <g transform="matrix(4.72727,0,0,4.72727,0.136383,1404)" stroke-width="0.18" stroke-linecap="butt" stroke-linejoin="miter" stroke-miterlimit="10">
      <path stroke="#000" d="M27.974,-82.5 L56.544,-83.78"/>
    </g>
    <a id="_718828F138AC45E583ADD6C28B5B41A7_6" vm2d:name="100" vm2d:type="grobject" xlink:href="#">
      <path d="M93.517,938.6 L132.38,938.6 132.38,964.6 93.517,964.6 Z" fill="#fff" fill-opacity="0"/>
      <g transform="matrix(4.72727,0,0,4.72727,0.136383,1404)">
        <text font-family="Arial" font-size="4.92" x="19.7568" y="-93.9933" fill="#000">100</text>
      </g>
    </a>
    <g transform="matrix(4.72727,0,0,4.72727,0.136383,1404)" stroke-width="0.18" stroke-linecap="butt" stroke-linejoin="miter" stroke-miterlimit="10">
      <path stroke="#000" d="M27.974,-95.7 L39.836,-93.426"/>
    </g>
    <a id="_718828F138AC45E583ADD6C28B5B41A7_7" vm2d:name="100" vm2d:type="grobject" xlink:href="#">
      <path d="M138.64,1188.2 L177.5,1188.2 177.5,1214.2 138.64,1214.2 Z" fill="#fff" fill-opacity="0"/>
      <g transform="matrix(4.72727,0,0,4.72727,0.136383,1404)">
        <text font-family="Arial" font-size="4.92" x="29.3023" y="-41.1933" fill="#000">100</text>
      </g>
    </a>
    <g transform="matrix(4.72727,0,0,4.72727,0.136383,1404)" stroke-width="0.18" stroke-linecap="butt" stroke-linejoin="miter" stroke-miterlimit="10">
      <path stroke="#000" d="M37.519,-42.9 L58.094,-62.137"/>
    </g>
    <a id="_718828F138AC45E583ADD6C28B5B41A7_8" vm2d:name="100" vm2d:type="grobject" xlink:href="#">
      <path d="M93.517,1032.2 L132.38,1032.2 132.38,1058.2 93.517,1058.2 Z" fill="#fff" fill-opacity="0"/>
      <g transform="matrix(4.72727,0,0,4.72727,0.136383,1404)">
        <text font-family="Arial" font-size="4.92" x="19.7568" y="-74.1933" fill="#000">100</text>
      </g>
    </a>
    <g transform="matrix(4.72727,0,0,4.72727,0.136383,1404)" stroke-width="0.18" stroke-linecap="butt" stroke-linejoin="miter" stroke-miterlimit="10">
      <path stroke="#000" d="M27.974,-75.9 L39.836,-74.133"/>
    </g>
  </g>
</svg>
