<?xml version="1.0" encoding="UTF-8" standalone="no"?>
<!DOCTYPE svg SYSTEM "http://www.w3.org/Graphics/SVG/1.1/DTD/svg11.dtd" [
<!ENTITY % SVG.External.attrib
"xmlns:vm2d CDATA #FIXED 'http://www.cortona3d.com/vm2d'
vm2d:name CDATA #IMPLIED
vm2d:type CDATA #IMPLIED">
]>
<svg xmlns="http://www.w3.org/2000/svg" xmlns:vm2d="http://www.cortona3d.com/vm2d" xmlns:xlink="http://www.w3.org/1999/xlink" version="1.1" width="210mm" height="297mm" viewBox="0 0 993 1404" fill="none" fill-rule="evenodd" stroke-miterlimit="5">
  <title>Drive Shafts View</title>
  <desc>"Generator:ParallelGraphics Cortona2D","ProfileId:WebCGM""ProfileEd:2.1""ColourClass:colour""Source:Cortona2D Editor Pro 2.1.0.45""Date:20160525"</desc>
  <rect width="993" height="1404" fill="#fff"/>
  <defs/>
  <g id="AUTOID_001" vm2d:name="C3DDrawing" vm2d:type="layer">
    <g transform="matrix(4.72727,0,0,4.72727,0.136383,1404)" stroke-width="0.35" stroke-linecap="round" stroke-linejoin="round" stroke-miterlimit="10">
      <path stroke="#000" d="M56.185,-90.961 L55.013,-91.664 M56.969,-91.414 L56.185,-90.961 M57.57,-92.227 L57,-93.743 M54.443,-93.18 L55.044,-93.993 55.829,-94.446 57,-93.743 M57.57,-92.227 L56.969,-91.414 M54.443,-93.18 L55.013,-91.664 M42.449,-121.82 L43.05,-122.63 M41.692,-121.38 L42.449,-121.82 M40.521,-122.09 L41.692,-121.38 M39.95,-123.6 L40.521,-122.09 M40.551,-124.42 L39.95,-123.6 M42.479,-124.15 L43.05,-122.63 M41.308,-124.85 L42.479,-124.15 M40.551,-124.42 L41.308,-124.85 M33.913,-103.27 L33.788,-103.28 33.563,-103.21 M37.026,-97.213 L37.199,-97.374 37.215,-97.41 M35.703,-97.338 L35.44,-97.615 35.215,-97.945 35.211,-97.951 M33.395,-101.1 L33.291,-101.28 33.118,-101.64 33.009,-102 32.972,-102.35 33.009,-102.65 33.118,-102.89 33.291,-103.05 M36.266,-97.013 L35.984,-97.132 35.703,-97.338 M36.754,-97.056 L36.528,-96.987 36.266,-97.013 M36.754,-97.056 L37.026,-97.213 M33.563,-103.21 L33.291,-103.05 M33.369,-101.78 L33.568,-102.04 33.651,-102.09 M33.369,-101.78 L33.443,-101.58 M45.694,-96.963 L46.026,-97.423 M46.572,-97.738 L47.228,-97.353 M46.026,-97.423 L46.572,-97.738 M45.694,-96.963 L46.017,-96.118 M47.219,-96.048 L46.673,-95.733 M47.551,-96.508 L47.219,-96.048 M47.551,-96.508 L47.228,-97.353 M46.673,-95.733 L46.017,-96.118 M37.094,-111.97 L37.426,-112.43 M37.972,-112.75 L38.627,-112.37 M37.426,-112.43 L37.972,-112.75 M37.094,-111.97 L37.418,-111.13 M38.62,-111.06 L38.073,-110.74 M38.951,-111.52 L38.62,-111.06 M38.951,-111.52 L38.627,-112.37 M38.073,-110.74 L37.418,-111.13 M36.076,-105.46 L33.905,-103.9 M37.375,-106.2 L36.076,-105.46 M40.554,-103.58 L41.562,-99.412 M40.554,-103.58 L37.375,-106.2 M34.913,-99.725 L33.905,-103.9 M34.913,-99.725 L38.091,-97.112 M39.391,-97.853 L41.562,-99.412 M38.091,-97.112 L39.391,-97.853 M35.189,-104.82 L35.094,-105.21 M39.075,-107.84 L37.61,-106.99 35.094,-105.21 M39.376,-97.844 L39.949,-97.374 41.414,-98.22 M50.368,-96.008 L50.153,-95.688 49.853,-95.488 M48.221,-94.545 L49.853,-95.488 M50.368,-96.008 C51.1,-97.904 48.942,-99.698 48.541,-101.45 48.018,-103.72 47.363,-105.72 46.039,-107.68 44.939,-109.31 43.346,-110.33 42.193,-111.86 41.672,-112.55 41.479,-113.41 40.953,-114.1 40.519,-114.67 39.326,-115.77 38.55,-115.07 M48.221,-94.545 L47.853,-94.477 47.438,-94.545 46.999,-94.744 46.531,-94.963 46.084,-95.055 45.678,-95.016 45.332,-94.849 44.137,-94.296 42.723,-94.228 41.169,-94.649 39.561,-95.536 37.99,-96.839 37.532,-97.224 37.062,-97.5 36.602,-97.654 36.174,-97.678 35.77,-97.707 35.335,-97.87 34.895,-98.157 34.475,-98.552 34.104,-99.025 M33.776,-99.594 L33.554,-100.14 33.419,-100.7 33.387,-101.23 33.46,-101.69 33.634,-102.06 33.824,-102.44 33.918,-102.92 33.91,-103.47 33.802,-104.06 33.448,-106.09 33.476,-107.94 33.885,-109.51 34.653,-110.71 35.736,-111.47 36.054,-111.69 36.29,-112.02 36.434,-112.45 36.479,-112.97 36.526,-113.45 36.675,-113.84 36.918,-114.13 38.55,-115.07 M34.685,-98.875 L35.348,-98.934 35.658,-99.113 M34.924,-99.461 L34.961,-99.599 34.939,-99.703 M34.883,-99.85 L34.823,-99.954 34.685,-100.08 34.547,-100.11 M34.685,-98.875 L34.419,-99.206 M34.022,-100.58 L34.022,-99.765 M34.596,-100.91 L34.022,-100.58 M39.513,-125.92 L39.252,-126.01 39.032,-125.97 M39.513,-125.92 L39.773,-125.71 39.994,-125.41 40.141,-125.07 40.193,-124.74 40.141,-124.47 39.994,-124.3 M38.308,-126.74 L37.053,-125.45 36.281,-123.57 36.043,-121.24 36.355,-118.6 36.723,-117.38 M50.953,-92.739 L51.828,-91.806 53.964,-90.215 56.108,-89.258 58.121,-88.995 59.87,-89.445 M42.918,-125.99 L43.139,-126.03 43.399,-125.94 43.659,-125.73 43.88,-125.44 44.027,-125.1 44.079,-124.76 44.027,-124.49 43.88,-124.32 M37.55,-122.57 L37.29,-122.66 37.07,-122.61 M37.55,-122.57 L37.811,-122.36 38.031,-122.06 38.179,-121.72 38.231,-121.39 38.179,-121.12 38.031,-120.95 M51.801,-120.77 C48.379,-126.56 43.392,-129.44 39.873,-127.65 M51.801,-120.77 C55.057,-115.25 58.25,-109.67 61.42,-104.11 M61.42,-90.333 C64.728,-92.496 64.728,-98.296 61.42,-104.11 M51.912,-117.43 L53.628,-116.15 55.224,-114.44 56.597,-112.43 57.657,-110.23 58.335,-108 58.588,-105.87 M32.902,-105.08 L32.681,-103.42 32.671,-102.99 32.748,-102.52 32.908,-102.03 33.143,-101.55 33.236,-101.39 M35.286,-97.84 L35.451,-97.554 35.747,-97.113 36.089,-96.731 36.459,-96.428 36.836,-96.221 38.386,-95.583 M32.902,-105.08 L31.945,-106.33 31.164,-107.73 30.604,-109.19 30.3,-110.62 30.27,-111.94 30.516,-113.08 31.022,-113.95 31.759,-114.52 M38.386,-95.583 L38.99,-94.129 39.808,-92.754 40.792,-91.54 41.882,-90.56 43.013,-89.872 44.118,-89.517 45.13,-89.518 45.989,-89.873 M60.502,-95.534 L60.723,-95.577 60.983,-95.487 61.243,-95.276 61.464,-94.979 61.611,-94.639 61.663,-94.308 61.611,-94.038 61.464,-93.868 M59.021,-92.132 L58.76,-92.223 58.54,-92.18 M54.654,-92.158 L54.816,-92.189 M55.771,-91.209 L55.815,-90.932 55.763,-90.661 55.615,-90.491 M59.021,-92.132 L59.281,-91.922 59.502,-91.624 59.649,-91.285 59.701,-90.954 59.649,-90.683 59.502,-90.514 M59.87,-89.445 L61.42,-90.333 M48.4,-120.8 L38.621,-115.16 M50.011,-120.69 L50.448,-120.34 50.853,-119.9 51.204,-119.38 51.482,-118.82 51.672,-118.25 51.762,-117.69 M38.545,-115.07 L38.621,-115.16 M50.074,-95.626 L59.732,-101.22 M50.047,-95.617 L50.074,-95.626 M60.421,-102.67 L60.337,-103.22 60.154,-103.79 59.882,-104.35 59.535,-104.87 59.134,-105.32 58.7,-105.68 M55.783,-95.528 L45.989,-89.873 M41.554,-120.17 L31.759,-114.52 M39.873,-127.65 L38.308,-126.74 M34.796,-99.515 L34.766,-99.401 34.692,-99.366 M34.523,-99.911 L34.444,-99.934 34.284,-99.961 34.156,-99.896 34.093,-99.763 M34.451,-99.966 L34.406,-99.941 M34.633,-99.422 L34.47,-99.33 M34.126,-99.782 L34.081,-99.756 M34.308,-99.237 L34.145,-99.145 M33.801,-99.597 L33.755,-99.571 M33.694,-98.985 L33.796,-98.952 33.874,-98.991 M33.982,-99.052 L33.874,-98.991 M34.47,-99.33 L34.441,-99.216 34.367,-99.181 M34.198,-99.726 L34.119,-99.749 33.958,-99.776 33.83,-99.711 33.768,-99.578 M34.145,-99.145 L34.115,-99.031 34.042,-98.996 M33.873,-99.541 L33.794,-99.565 33.633,-99.591 33.505,-99.526 33.437,-99.382 33.467,-99.209 33.56,-99.038 33.694,-98.985 M34.958,-99.607 L34.796,-99.515 M34.953,-99.57 L34.914,-99.582 M34.692,-99.366 L34.589,-99.397 M34.367,-99.181 L34.264,-99.212 M34.042,-98.996 L33.938,-99.027 M50.579,-132.54 L50.791,-132.58 51.04,-132.49 51.29,-132.29 51.502,-132 51.644,-131.68 51.693,-131.36 51.644,-131.1 51.502,-130.94 M50.579,-132.54 L48.13,-131.12 M51.502,-130.94 L49.053,-129.52 M47.988,-130.38 L47.939,-130.7 47.988,-130.96 48.13,-131.12 M47.988,-130.38 L48.13,-130.06 48.342,-129.77 48.592,-129.57 48.842,-129.48 49.053,-129.52 M67.616,-96.262 L67.828,-95.977 68.078,-95.775 68.328,-95.688 68.54,-95.729 M70.988,-97.143 L68.54,-95.729 M70.065,-98.743 L67.616,-97.329 67.475,-97.166 67.425,-96.906 67.475,-96.589 67.616,-96.262 M71.13,-97.306 L71.18,-97.566 71.13,-97.883 70.988,-98.209 70.776,-98.495 70.527,-98.697 70.277,-98.784 70.065,-98.743 M71.13,-97.306 L70.988,-97.143 M52.106,-132.76 L52.949,-134.62 54.289,-135.86 M63.908,-105.43 C66.815,-100.6 71.041,-97.517 74.089,-98.001 M63.908,-105.43 C60.603,-110.91 57.461,-116.52 54.289,-122.09 M52.106,-132.76 C51.325,-129.84 52.14,-125.86 54.289,-122.09 M53.808,-129.94 L53.955,-130.11 54.007,-130.38 53.955,-130.71 53.808,-131.05 53.587,-131.35 53.327,-131.56 53.067,-131.65 52.846,-131.61 M56.232,-121.03 L56.379,-121.2 56.431,-121.47 56.379,-121.8 56.232,-122.14 56.011,-122.44 55.751,-122.65 55.491,-122.74 55.27,-122.7 M74.82,-102.71 C76.135,-104.34 75.752,-107.91 73.912,-111.2 M73.912,-111.2 C70.785,-116.79 67.518,-122.33 64.293,-127.86 M64.293,-127.86 C62.019,-131.77 58.662,-133.7 56.213,-132.53 M74.82,-102.71 L73.912,-101.87 M74.797,-101.12 L74.537,-101.22 74.316,-101.17 M66.306,-126.93 L66.358,-127.2 66.306,-127.53 66.159,-127.87 65.938,-128.17 65.678,-128.38 65.418,-128.47 65.197,-128.43 M59.856,-133.76 L59.804,-134.09 59.656,-134.43 59.436,-134.73 59.175,-134.94 58.915,-135.03 58.695,-134.98 M65.037,-106.81 L64.889,-107.15 64.669,-107.45 64.408,-107.66 64.148,-107.75 63.927,-107.7 M71.171,-100.89 L70.911,-101.1 70.651,-101.19 70.43,-101.15 M58.777,-136.61 L56.743,-136.81 54.996,-136.27 M77.884,-100.19 C79.827,-102.59 79.27,-107.79 76.543,-112.72 M76.543,-112.72 C73.443,-118.33 70.159,-123.85 66.924,-129.38 M66.924,-129.38 C64.717,-133.16 61.991,-135.57 58.777,-136.61 M59.849,-133.8 L59.623,-133.98 59.402,-134.28 59.254,-134.62 59.209,-134.91 M66.352,-127.25 L66.125,-127.43 65.904,-127.73 65.757,-128.07 65.712,-128.35 M66.539,-106.95 C68.468,-103.71 71.373,-101.59 73.436,-101.92 M66.539,-106.95 C63.261,-112.45 60.101,-118.05 56.92,-123.61 56.166,-124.92 55.788,-125.95 55.441,-127.42 55.167,-128.58 55.192,-129.68 55.441,-130.83 55.538,-131.28 55.772,-131.7 56.012,-132.09 56.154,-132.33 56.613,-132.65 56.613,-132.65 M73.436,-101.92 L74.219,-102.16 M56.424,-121.52 L56.198,-121.7 55.977,-122 55.83,-122.34 55.785,-122.62 M54,-130.42 L53.774,-130.61 53.553,-130.9 53.406,-131.24 53.361,-131.53 M74.782,-112.43 L74.562,-112.73 74.414,-113.07 74.369,-113.36 M76.838,-104.16 L76.793,-104.45 M76.543,-98.948 L77.884,-100.19 M76.543,-98.948 L75.836,-98.54 74.089,-98.001 M54.289,-135.86 L54.996,-136.27 M66.306,-126.93 L66.159,-126.76 M74.596,-113.18 L74.335,-113.39 74.075,-113.48 73.854,-113.43 M74.816,-111.77 L74.964,-111.94 75.016,-112.21 74.964,-112.54 74.816,-112.88 74.596,-113.18 M59.656,-133.32 L59.804,-133.49 59.856,-133.76 M55.55,-134.7 L55.289,-134.91 55.029,-135 54.808,-134.96 M55.77,-133.29 L55.918,-133.46 55.969,-133.74 55.918,-134.07 55.77,-134.41 55.55,-134.7 M71.392,-99.484 L71.539,-99.654 71.591,-99.924 71.539,-100.25 71.392,-100.59 71.171,-100.89 M75.278,-99.506 L75.425,-99.676 75.477,-99.947 75.425,-100.28 75.278,-100.62 75.057,-100.91 74.797,-101.12 M77.02,-104.27 L76.759,-104.48 76.499,-104.57 76.278,-104.53 M77.24,-102.86 L77.388,-103.03 77.44,-103.3 77.388,-103.63 77.24,-103.97 77.02,-104.27 M64.889,-106.04 L65.037,-106.21 65.088,-106.48 65.037,-106.81 M55.963,-133.78 L55.736,-133.96 55.516,-134.26 55.368,-134.6 55.323,-134.89 M65.082,-106.52 L64.855,-106.7 64.635,-107 64.487,-107.34 64.442,-107.63 M75.009,-112.25 L74.782,-112.43 M77.433,-103.34 L77.206,-103.53 76.986,-103.82 76.838,-104.16 M75.47,-99.99 L75.244,-100.17 75.023,-100.47 74.876,-100.81 74.831,-101.1 M71.584,-99.968 L71.358,-100.15 71.137,-100.45 70.99,-100.79 70.945,-101.08 M28.16,-85.652 L28.212,-85.537 28.174,-85.64 M28.212,-85.537 L28.23,-85.199 28.188,-85.143 M29.622,-86.841 L29.617,-86.849 M29.622,-86.841 L29.8,-86.45 M29.622,-86.841 L29.323,-87.175 28.975,-87.358 28.66,-87.336 28.467,-87.122 M29.8,-86.45 L29.761,-86.553 M29.8,-86.45 L29.817,-86.113 29.679,-85.924 29.431,-85.941 29.417,-85.952 M30.019,-87.069 L30.014,-87.078 M30.019,-87.069 L30.197,-86.678 M30.019,-87.069 L29.72,-87.403 29.372,-87.587 29.057,-87.565 28.864,-87.351 M30.197,-86.678 L30.158,-86.782 M30.197,-86.678 L30.214,-86.341 30.076,-86.153 29.828,-86.169 29.814,-86.18 M27.357,-86.527 L27.469,-86.651 27.784,-86.673 28.133,-86.49 28.432,-86.156 28.426,-86.164 M28.432,-86.156 L28.609,-85.765 28.571,-85.868 M28.609,-85.765 L28.627,-85.428 28.488,-85.239 28.24,-85.255 28.226,-85.266 M27.673,-86.665 L27.866,-86.88 28.181,-86.902 28.53,-86.718 28.829,-86.384 28.823,-86.392 M28.829,-86.384 L29.006,-85.993 28.967,-86.096 M29.006,-85.993 L29.024,-85.656 28.885,-85.468 28.637,-85.484 28.623,-85.495 M29.226,-86.612 L29.22,-86.621 M29.226,-86.612 L29.403,-86.222 M29.226,-86.612 L28.927,-86.947 28.578,-87.13 28.263,-87.108 28.07,-86.894 M29.403,-86.222 L29.364,-86.325 M29.403,-86.222 L29.42,-85.884 29.282,-85.696 29.034,-85.712 29.02,-85.723 M24.458,-85.53 L25.573,-84.465 M23.59,-85.127 L22.815,-84.68 23.062,-83.212 M24.458,-85.53 L23.59,-85.127 M25.82,-82.996 L25.573,-84.465 M24.177,-82.147 L25.044,-82.55 25.82,-82.996 M24.177,-82.147 L23.062,-83.212 M27.518,-86.486 L27.769,-86.307 27.989,-86.036 28.146,-85.717 28.215,-85.396 28.186,-85.123 28.064,-84.94 M27.518,-86.486 L27.276,-86.547 27.079,-86.481 M27.849,-86.639 L27.862,-86.646 M28.295,-85.358 L28.224,-85.318 M28.246,-86.867 L28.259,-86.875 M28.691,-85.587 L28.621,-85.546 M28.643,-87.096 L28.656,-87.103 M29.088,-85.815 L29.018,-85.774 M29.04,-87.324 L29.053,-87.332 M29.485,-86.043 L29.414,-86.003 M29.437,-87.552 L29.45,-87.56 M29.975,-87.445 L30.179,-87.173 30.291,-86.858 30.279,-86.584 30.206,-86.496 M29.975,-87.445 L29.702,-87.777 29.421,-87.774 29.26,-87.579 M29.882,-86.272 L29.811,-86.231 M27.079,-86.481 L24.821,-85.183 M28.064,-84.94 L25.72,-83.591 M19.544,-100.58 L19.507,-100.67 M19.544,-100.58 L19.581,-100.23 19.537,-100.15 M19.544,-100.58 L19.483,-100.7 M21.131,-101.49 L21.095,-101.59 M21.131,-101.49 L21.168,-101.14 21.046,-100.94 20.808,-100.93 20.767,-100.95 M21.131,-101.49 L20.937,-101.88 20.628,-102.2 20.278,-102.37 19.973,-102.32 19.83,-102.13 M20.227,-102.36 L20.37,-102.55 20.675,-102.59 21.025,-102.43 21.333,-102.11 21.528,-101.72 21.492,-101.81 M21.528,-101.72 L21.565,-101.37 21.443,-101.16 21.205,-101.15 21.164,-101.18 M20.618,-102.58 L20.734,-102.76 21.006,-102.78 21.287,-102.47 M18.698,-101.52 L18.783,-101.63 19.088,-101.68 19.437,-101.52 19.746,-101.2 19.941,-100.81 19.904,-100.9 M19.941,-100.81 L19.978,-100.46 19.856,-100.25 19.617,-100.24 19.577,-100.27 M19.036,-101.67 L19.18,-101.86 19.485,-101.91 19.834,-101.75 20.143,-101.43 20.337,-101.04 20.301,-101.13 M20.337,-101.04 L20.374,-100.69 20.253,-100.48 20.014,-100.47 19.973,-100.5 M19.433,-101.9 L19.577,-102.09 19.882,-102.14 20.231,-101.98 20.54,-101.65 20.734,-101.27 20.698,-101.36 M20.734,-101.27 L20.771,-100.92 20.65,-100.71 20.411,-100.7 20.37,-100.73 M14.135,-99.607 L14.953,-100.1 M15.729,-100.55 L16.864,-99.548 M14.953,-100.1 L15.729,-100.55 M14.135,-99.607 L14.452,-98.118 M17.181,-98.06 L16.864,-99.548 M16.363,-97.568 L15.587,-97.121 M17.181,-98.06 L16.363,-97.568 M15.587,-97.121 L14.452,-98.118 M18.819,-101.5 L19.071,-101.34 19.298,-101.08 19.467,-100.76 19.551,-100.44 19.538,-100.16 19.429,-99.957 M18.819,-101.5 L18.582,-101.54 18.394,-101.46 M19.656,-100.37 L19.571,-100.32 M20.053,-100.59 L19.968,-100.55 M20.449,-100.82 L20.365,-100.77 M20.846,-101.05 L20.762,-101 M21.287,-102.47 L21.5,-102.2 21.624,-101.89 21.627,-101.61 21.552,-101.5 M21.243,-101.28 L21.159,-101.23 M18.394,-101.46 L16.158,-100.17 M19.429,-99.957 L17.066,-98.597 M40.497,-82.596 L40.473,-82.645 M40.497,-82.596 L40.608,-82.215 M40.497,-82.596 L40.41,-82.723 M40.608,-82.215 L40.556,-81.933 40.518,-81.912 M42.084,-83.512 L42.06,-83.561 M42.084,-83.512 L42.195,-83.131 M42.084,-83.512 L41.83,-83.883 41.492,-84.141 41.152,-84.211 40.893,-84.069 40.853,-83.962 M42.195,-83.131 L42.142,-82.849 41.949,-82.745 41.781,-82.811 M41.25,-84.191 L41.29,-84.298 41.549,-84.44 41.889,-84.37 42.226,-84.112 42.48,-83.741 42.457,-83.79 M42.48,-83.741 L42.592,-83.36 42.539,-83.078 42.346,-82.974 42.178,-83.04 M41.629,-84.423 L41.653,-84.508 41.88,-84.631 42.185,-84.38 M39.696,-83.364 L39.703,-83.382 39.962,-83.524 40.302,-83.454 40.64,-83.196 40.894,-82.825 40.87,-82.874 M40.894,-82.825 L41.005,-82.444 40.952,-82.162 40.759,-82.058 40.591,-82.124 M40.06,-83.504 L40.099,-83.611 40.359,-83.753 40.699,-83.683 41.036,-83.425 41.291,-83.054 41.267,-83.103 M41.291,-83.054 L41.402,-82.673 41.349,-82.391 41.156,-82.287 40.988,-82.353 M40.457,-83.733 L40.496,-83.84 40.756,-83.982 41.095,-83.912 41.433,-83.654 41.687,-83.283 41.663,-83.332 M41.687,-83.283 L41.798,-82.902 41.746,-82.62 41.552,-82.516 41.385,-82.582 M35.109,-81.137 L35.708,-81.95"/>
      <path stroke="#000" d="M36.483,-82.398 L37.654,-81.697 M35.708,-81.95 L36.483,-82.398 M35.109,-81.137 L35.683,-79.622 M38.228,-80.182 L37.654,-81.697 M37.629,-79.368 L36.854,-78.921 M38.228,-80.182 L37.629,-79.368 M36.854,-78.921 L35.683,-79.622 M39.68,-83.37 L39.928,-83.278 40.175,-83.074 40.383,-82.788 40.52,-82.463 40.566,-82.15 40.514,-81.896 40.371,-81.739 M39.68,-83.37 L39.469,-83.334 M40.732,-82.258 L40.602,-82.184 M41.129,-82.487 L40.999,-82.413 M41.525,-82.716 L41.396,-82.642 M41.922,-82.945 L41.792,-82.871 M42.185,-84.38 L42.419,-84.167 42.589,-83.867 42.649,-83.559 42.59,-83.351 M42.318,-83.174 L42.189,-83.1 M39.469,-83.334 L37.153,-81.997 M40.371,-81.739 L38.129,-80.444 M34.656,-79.213 L34.632,-79.264 M34.656,-79.213 L34.766,-78.833 M34.656,-79.213 L34.569,-79.341 M34.766,-78.833 L34.712,-78.552 34.675,-78.532 M35.239,-80.793 L35.052,-80.692 35.011,-80.583 M36.108,-79.367 L36.104,-79.365 35.939,-79.432 M33.854,-79.985 L33.862,-80.005 34.122,-80.145 34.462,-80.073 34.8,-79.814 35.053,-79.442 35.029,-79.493 M35.053,-79.442 L35.163,-79.062 35.109,-78.781 34.914,-78.679 34.749,-78.745 M34.218,-80.125 L34.259,-80.234 34.519,-80.374 34.859,-80.302 35.196,-80.043 35.45,-79.671 35.425,-79.722 M35.45,-79.671 L35.559,-79.291 35.506,-79.01 35.311,-78.907 35.146,-78.974 M34.614,-80.354 L34.655,-80.463 34.916,-80.603 35.256,-80.531 35.372,-80.442 M35.945,-79.464 L35.902,-79.239 35.708,-79.136 35.542,-79.203 M29.267,-77.763 L29.87,-78.572 M30.645,-79.019 L31.816,-78.312 M29.87,-78.572 L30.645,-79.019 M29.267,-77.763 L29.836,-76.248 M32.385,-76.797 L31.816,-78.312 M31.783,-75.989 L31.008,-75.541 M32.385,-76.797 L31.783,-75.989 M31.008,-75.541 L29.836,-76.248 M33.84,-79.99 L34.089,-79.897 34.335,-79.692 34.542,-79.405 34.679,-79.081 34.724,-78.768 34.671,-78.514 34.527,-78.359 M33.84,-79.99 L33.628,-79.956 M34.889,-78.878 L34.76,-78.804 M35.285,-79.107 L35.157,-79.033 M35.682,-79.336 L35.554,-79.262 M33.628,-79.956 L31.31,-78.618 M34.527,-78.359 L32.285,-77.064 M22.911,-113.05 L22.887,-113.1 M22.911,-113.05 L22.824,-113.18 M22.911,-113.05 L23.022,-112.67 22.969,-112.39 22.931,-112.37 M24.498,-113.97 L24.474,-114.02 M24.498,-113.97 L24.244,-114.34 23.906,-114.6 23.567,-114.67 23.307,-114.52 23.267,-114.42 M24.498,-113.97 L24.609,-113.59 24.556,-113.3 24.362,-113.2 24.195,-113.27 M23.663,-114.65 L23.703,-114.75 23.963,-114.9 24.303,-114.83 24.641,-114.57 24.894,-114.2 24.871,-114.24 M24.894,-114.2 L25.005,-113.81 24.952,-113.53 24.759,-113.43 24.592,-113.5 M24.043,-114.88 L24.067,-114.96 24.294,-115.09 24.599,-114.83 M22.11,-113.82 L22.117,-113.84 22.377,-113.98 22.717,-113.91 23.054,-113.65 23.308,-113.28 23.419,-112.9 M23.308,-113.28 L23.284,-113.33 M23.419,-112.9 L23.366,-112.62 23.172,-112.51 23.005,-112.58 M22.474,-113.96 L22.514,-114.07 22.773,-114.21 23.113,-114.14 23.451,-113.88 23.705,-113.51 23.815,-113.13 M23.705,-113.51 L23.68,-113.56 M23.815,-113.13 L23.762,-112.85 23.568,-112.74 23.402,-112.81 M22.87,-114.19 L22.91,-114.3 23.17,-114.44 23.51,-114.37 23.847,-114.11 24.101,-113.74 24.212,-113.36 M24.101,-113.74 L24.077,-113.79 M24.212,-113.36 L24.159,-113.07 23.965,-112.97 23.798,-113.04 M19.267,-109.38 L18.095,-110.08 M20.042,-109.82 L19.267,-109.38 M17.523,-111.59 L18.095,-110.08 M20.641,-110.64 L20.042,-109.82 M17.523,-111.59 L18.123,-112.41 M20.641,-110.64 L20.069,-112.15 M18.898,-112.85 L20.069,-112.15 M18.123,-112.41 L18.898,-112.85 M22.785,-112.19 L22.927,-112.35 22.98,-112.6 22.934,-112.92 22.797,-113.24 22.589,-113.53 22.343,-113.73 22.095,-113.82 21.883,-113.79 M23.016,-112.64 L23.145,-112.71 M23.413,-112.87 L23.542,-112.94 M23.81,-113.1 L23.939,-113.17 M24.206,-113.33 L24.335,-113.4 M24.603,-113.55 L24.732,-113.63 M25.005,-113.81 L25.062,-114.01 25.003,-114.32 24.833,-114.62 24.599,-114.83 M21.883,-113.79 L19.566,-112.45 M22.785,-112.19 L20.542,-110.9 M17.069,-109.67 L17.045,-109.72 M17.069,-109.67 L17.18,-109.29 M17.069,-109.67 L16.982,-109.8 M17.18,-109.29 L17.126,-109.01 17.088,-108.99 M17.653,-111.25 L17.465,-111.15 17.425,-111.04 M18.522,-109.82 L18.519,-109.82 18.353,-109.89 M16.268,-110.44 L16.275,-110.46 16.535,-110.6 16.875,-110.53 17.213,-110.27 17.466,-109.9 17.442,-109.95 M17.466,-109.9 L17.576,-109.52 17.523,-109.24 17.329,-109.13 17.163,-109.2 M16.631,-110.58 L16.672,-110.69 16.932,-110.83 17.272,-110.76 17.609,-110.5 17.863,-110.13 17.839,-110.18 M17.863,-110.13 L17.973,-109.75 17.919,-109.47 17.725,-109.36 17.559,-109.43 M17.028,-110.81 L17.068,-110.92 17.329,-111.06 17.669,-110.99 17.786,-110.9 M18.359,-109.92 L18.316,-109.69 18.122,-109.59 17.956,-109.66 M11.681,-108.22 L12.282,-109.03 M13.057,-109.47 L14.229,-108.77 M12.282,-109.03 L13.057,-109.47 M11.681,-108.22 L12.251,-106.7 M14.799,-107.25 L14.229,-108.77 M14.197,-106.44 L13.422,-106 M14.799,-107.25 L14.197,-106.44 M13.422,-106 L12.251,-106.7 M16.253,-110.45 L16.501,-110.35 16.748,-110.15 16.955,-109.86 17.092,-109.54 17.138,-109.22 17.085,-108.97 16.941,-108.81 M16.253,-110.45 L16.042,-110.41 M17.303,-109.33 L17.174,-109.26 M17.699,-109.56 L17.571,-109.49 M18.096,-109.79 L17.967,-109.72 M16.042,-110.41 L13.724,-109.07 M16.941,-108.81 L14.699,-107.52 M88.157,-120.06 L87.813,-120.56 87.55,-121.11 87.384,-121.67 87.328,-122.19 87.384,-122.66 87.55,-123.02 87.813,-123.27 M96.418,-122.82 L96.681,-123.07 96.847,-123.43 96.903,-123.9 96.847,-124.42 96.681,-124.98 96.418,-125.53 96.075,-126.03 95.675,-126.45 95.246,-126.77 94.817,-126.95 94.417,-126.99 94.074,-126.88 M89.593,-122.1 L89.3,-122.41 88.985,-122.64 88.671,-122.77 88.378,-122.8 88.126,-122.73 M89.845,-119.75 L90.038,-119.93 90.159,-120.2 90.2,-120.54 90.159,-120.92 90.038,-121.33 89.845,-121.73 89.593,-122.1 M90.157,-119.21 L89.814,-119.1 89.414,-119.14 88.985,-119.32 88.556,-119.64 88.157,-120.06 M91.541,-121.14 L95.776,-123.59 M91.078,-119.74 L91.321,-119.96 91.484,-120.27 91.559,-120.68 91.541,-121.14 M91.471,-120.25 L95.191,-122.4 M95.313,-122.18 L95.004,-122.08 94.675,-122.1 M89.786,-123.75 L89.4,-123.88 89.043,-123.9 88.734,-123.8 M89.371,-123.89 L93.091,-126.03 M92.576,-125.74 L92.726,-126.03 92.969,-126.24 M91.078,-119.74 L90.157,-119.21 M95.313,-122.18 L96.418,-122.82 M88.734,-123.8 L87.813,-123.27 M94.414,-125.94 L90.178,-123.5 89.786,-123.75 M92.969,-126.24 L94.074,-126.88 M138.4,-166.12 L137.85,-166.44 M141.21,-167.74 L138.4,-166.12 M140.65,-168.71 L137.85,-167.09 M141.21,-168.39 L140.65,-168.71 M141.21,-168.39 L141.21,-167.74 M137.85,-166.44 L137.85,-167.09 M81.855,-117.12 L81.638,-117.57 81.502,-118.03 81.455,-118.47 81.502,-118.85 81.538,-118.93 M80.956,-115.74 L80.532,-116.36 80.207,-117.03 80.002,-117.72 79.932,-118.38 80.002,-118.95 80.207,-119.4 80.532,-119.7 M84.268,-115.17 L84.593,-115.47 84.798,-115.92 84.868,-116.5 84.798,-117.15 84.593,-117.84 84.268,-118.51 83.844,-119.13 83.35,-119.66 82.82,-120.04 82.29,-120.27 81.796,-120.32 81.372,-120.19 M83.262,-115.94 L83.173,-115.95 82.82,-116.1 82.467,-116.36 82.138,-116.71 81.855,-117.12 M82.662,-118.16 L82.333,-118.51 81.98,-118.77 81.626,-118.92 81.297,-118.95 81.015,-118.86 M82.945,-115.52 L83.162,-115.72 83.298,-116.02 83.345,-116.41 83.298,-116.84 83.162,-117.3 82.945,-117.75 82.662,-118.16 M83.428,-114.69 L83.004,-114.55 82.51,-114.6 81.98,-114.83 81.45,-115.22 80.956,-115.74 M80.532,-119.7 L81.372,-120.19 M83.428,-114.69 L84.268,-115.17 M188.73,-178.83 L188.55,-179.22 188.43,-179.61 188.39,-179.98 188.43,-180.31 188.46,-180.38 M187.96,-177.63 L187.59,-178.17 187.31,-178.75 187.14,-179.34 187.08,-179.91 187.14,-180.4 187.31,-180.79 187.59,-181.05 M190.81,-177.15 L191.09,-177.41 191.27,-177.8 191.33,-178.29 191.27,-178.85 191.09,-179.44 190.81,-180.03 190.44,-180.56 190.02,-181.01 189.56,-181.34 189.11,-181.54 188.68,-181.58 188.32,-181.47 M189.94,-177.81 L189.87,-177.82 189.56,-177.95 189.26,-178.17 188.98,-178.47 188.73,-178.83 M189.43,-179.72 L189.14,-180.02 188.84,-180.25 188.54,-180.38 188.25,-180.4 188.01,-180.33 M189.67,-177.45 L189.86,-177.62 189.97,-177.88 190.01,-178.21 189.97,-178.58 189.86,-178.98 189.67,-179.37 189.43,-179.72 M190.09,-176.73 L189.72,-176.62 189.3,-176.66 188.84,-176.85 188.38,-177.19 187.96,-177.63 M187.59,-181.05 L188.32,-181.47 M190.09,-176.73 L190.81,-177.15 M173.97,-169.6 L173.62,-170.1 173.36,-170.65 173.19,-171.21 173.14,-171.74 173.19,-172.2 173.36,-172.57 173.62,-172.81 M182.23,-172.37 L182.49,-172.61 182.66,-172.98 182.71,-173.44 182.66,-173.97 182.49,-174.52 182.23,-175.07 181.89,-175.57 181.49,-176 181.06,-176.31 180.63,-176.49 180.23,-176.53 179.88,-176.42 M175.4,-171.64 L175.11,-171.95 174.8,-172.18 174.48,-172.32 174.19,-172.35 173.94,-172.27 M175.66,-169.29 L175.85,-169.47 175.97,-169.74 176.01,-170.08 175.97,-170.47 175.85,-170.87 175.66,-171.28 175.4,-171.64 M175.97,-168.75 L175.62,-168.64 175.22,-168.68 174.8,-168.87 174.37,-169.18 173.97,-169.6 M177.35,-170.68 L181.59,-173.13 M176.89,-169.28 L177.13,-169.5 177.29,-169.82 177.37,-170.22 177.35,-170.68 M177.28,-169.79 L181,-171.94 M181.12,-171.73 L180.81,-171.63 180.49,-171.64 M175.6,-173.29 L175.21,-173.43 174.85,-173.44 174.54,-173.34 M175.18,-173.43 L178.9,-175.58 M178.39,-175.28 L178.54,-175.57 178.78,-175.79 M176.89,-169.28 L175.97,-168.75 M181.12,-171.73 L182.23,-172.37 M174.54,-173.34 L173.62,-172.81 M180.22,-175.49 L175.99,-173.04 175.6,-173.29 M178.78,-175.79 L179.88,-176.42 M159.17,-160.23 L159.09,-160.8 158.86,-161.39 158.51,-161.93 158.08,-162.36 157.62,-162.63 157.18,-162.7 156.83,-162.56 M159.17,-160.23 L159.09,-159.75 158.86,-159.42 M122.16,-140.05 L122.2,-140.1 122.21,-140.18 122.2,-140.27 122.16,-140.36 122.11,-140.45 122.04,-140.52 121.97,-140.56 121.9,-140.57 121.84,-140.55 M123.02,-138.73 C134.95,-145.62 147.1,-152.24 158.86,-159.42 M156.83,-162.56 C145.07,-155.38 132.92,-148.76 120.99,-141.87 L120.76,-141.54 120.68,-141.06 120.76,-140.49 120.99,-139.9 121.34,-139.35 121.77,-138.92 122.23,-138.66 122.67,-138.59 123.02,-138.73 M136.7,-150.55 L137.16,-150.29 142.61,-153.44 M119.02,-132.93 L118.97,-132.74 M119.02,-132.93 L119.09,-133.38 M118.97,-132.74 L118.78,-132.16 M118.97,-132.74 L103.79,-126.14 M118.97,-132.74 L103.79,-126.14 M99.012,-129.29 L98.084,-128.73 M95.721,-127.75 L95.229,-126.77 M103.79,-126.14 L103.35,-126.18 M103.79,-126.14 L103.35,-126.18 100.99,-126.84 M103.35,-126.18 L100.99,-126.84 100.79,-127.49 100.31,-128.3 99.704,-128.93 99.062,-129.28 98.622,-129.31 98.159,-129.05 M100.99,-126.84 L101.01,-126.06 100.75,-125.51 100.29,-125.25 M99.095,-123.03 L100.26,-120.31 M99.095,-123.03 L98.302,-123.61 97.556,-124.27 M96.86,-124.3 L97.556,-124.27 M95.757,-127.61 L95.563,-128.38 95.459,-129.13 M93.84,-131.55 L95.459,-129.13 M97.465,-134.58 L97.288,-132.24 M111.54,-143.41 L113.18,-141.58 M118.84,-132.33 L119.63,-129.72 M120.74,-134.11 L120.63,-134.95 120.36,-135.71 118.5,-136.93 117.94,-137.87 117.29,-138.79 M117.12,-141.33 L117.29,-138.79 M117.12,-141.33 L116.54,-141.91 115.94,-142.36 M102.83,-122.78 L105.11,-121.62 M103.12,-122.63 L102.56,-122.38 101.88,-122.22 M101.64,-119.81 L101.03,-119.92 100.4,-120.2 M100.26,-120.31 L100.4,-120.2 M93.84,-131.55 L93.858,-132.03 93.994,-132.76 94.29,-133.22 M97.465,-134.58 L97.761,-135.03 M119.25,-128.96 L119.67,-129.37 M105.11,-121.62 L119.25,-128.96 M101.64,-119.81 L104.38,-121.99 M94.29,-133.22 C99.588,-136.77 105.12,-140 110.51,-143.41 L111.02,-143.54 111.54,-143.41 M97.761,-135.03 C103.65,-137.65 109.59,-140.21 115.58,-142.6 M103.6,-126.94 L120.72,-134.05 M119.67,-129.37 L119.63,-129.72 M115.58,-142.6 L115.94,-142.36 M120.72,-134.05 L120.74,-134.11 M110.99,-153.17 L111.03,-153.22 111.04,-153.29 111.03,-153.38 110.99,-153.48 110.93,-153.57 110.86,-153.63 110.79,-153.68 110.72,-153.69 110.67,-153.66 M111.49,-151.71 L111.31,-151.74 M109.57,-153.71 L109.5,-154.18 109.58,-154.66 109.81,-154.98 M111.49,-151.71 L111.84,-151.85 M162,-184.2 L162,-184.73 M156.53,-181.04 L162.46,-184.47 M156.07,-181.31 L156.53,-181.04 M149.11,-173.43 L149.44,-173.55 C152.06,-175.07 157.31,-178.1 157.31,-178.1 157.31,-178.1 161.3,-180.34 163.25,-181.53 163.68,-181.79 163.56,-182.53 163.48,-182.9 163.33,-183.55 162.92,-184.02 162.46,-184.47 M161.22,-184.66 L155.28,-181.24 147.41,-176.69 M162,-184.73 L161.57,-184.8 161.22,-184.66 M147.34,-176.59 L147.41,-176.69 M161.47,-183.93 L161.5,-183.91 M147.03,-173.4 L146.8,-174 146.45,-174.54 146.01,-174.97 145.55,-175.24 145.12,-175.31 144.77,-175.17 M145.17,-175.4 L145.1,-175.29 M146.87,-172.13 L147.2,-172.26 M149.04,-173.32 L149.27,-173.65 149.35,-174.13 149.27,-174.7 149.04,-175.29 148.69,-175.83 148.26,-176.27 147.8,-176.53 147.36,-176.6 147.01,-176.46 M147.07,-172.45 L147.04,-172.44 M149.31,-173.75 L149.28,-173.73 M128.96,-161.73 L128.65,-161.61 M126.86,-164.77 L126.93,-164.87 M128.96,-161.73 L137.85,-166.86 M140.86,-168.6 L146.8,-172.03 147.03,-172.36 147.11,-172.83 147.03,-173.4 M147.01,-176.46 L145.17,-175.4 M126.93,-164.87 C126.93,-164.87 138.92,-171.59 144.77,-175.17 M149.04,-173.32 L147.2,-172.26 M114.16,-157.11 L114.62,-156.84 120.07,-159.99 M128.58,-161.51 L128.81,-161.84 128.89,-162.31 128.81,-162.88 128.58,-163.47 128.22,-164.02 127.79,-164.45 127.33,-164.72 126.9,-164.78 126.55,-164.65 M128.83,-161.93 L128.82,-161.92 M111.84,-151.85 C117.41,-155.06 123.09,-158.15 128.58,-161.51 M126.55,-164.65 C121.06,-161.29 115.39,-158.2 109.81,-154.98 M115.75,-162.63 L115.19,-162.95 M118.56,-164.25 L115.75,-162.63 M118,-165.22 L115.19,-163.6 M118.56,-164.89 L118,-165.22 M118.56,-164.89 L118.56,-164.25 M115.19,-162.95 L115.19,-163.6 M157.7,-186.84 L157.14,-187.16 M161.16,-188.84 L157.7,-186.84 M161.16,-189.48 L160.6,-189.8 157.14,-187.81 M161.16,-189.48 L161.16,-188.84 M157.14,-187.16 L157.14,-187.81 M70.241,-129.96 L70.044,-130.37 69.92,-130.79 69.878,-131.19 69.92,-131.53 69.953,-131.61 M69.424,-128.71 L69.039,-129.27 68.743,-129.89 68.557,-130.51 68.494,-131.1 68.557,-131.62 68.743,-132.03 69.039,-132.31 M72.433,-128.19 L72.729,-128.47 72.915,-128.88 72.978,-129.4 72.915,-129.99 72.729,-130.61 72.433,-131.23 72.048,-131.79 71.599,-132.27 71.118,-132.62 70.636,-132.82 70.188,-132.87 69.802,-132.75 M71.519,-128.89 L71.439,-128.9 71.118,-129.04 70.797,-129.27 70.498,-129.59 70.241,-129.96 M70.974,-130.91 L70.675,-131.23 70.354,-131.46 70.033,-131.6 69.734,-131.63 69.477,-131.55 M71.231,-128.51 L71.428,-128.69 71.552,-128.97 71.594,-129.31 71.552,-129.71 71.428,-130.13 71.231,-130.54 70.974,-130.91 M71.67,-127.75 L71.284,-127.63 70.836,-127.68 70.354,-127.88 69.873,-128.23 69.424,-128.71 M69.039,-132.31 L69.802,-132.75 M71.67,-127.75 L72.433,-128.19 M77.592,-133.53 L77.249,-134.03 76.986,-134.58 76.82,-135.13 76.764,-135.66 76.82,-136.13 76.986,-136.49 77.249,-136.74 M85.853,-136.29 L86.117,-136.53 86.282,-136.9 86.339,-137.36 86.282,-137.89 86.117,-138.45 85.853,-139 85.51,-139.5 85.111,-139.92 84.682,-140.23 84.253,-140.42 83.853,-140.46 83.51,-140.35 M79.018,-135.55 L78.73,-135.86 78.421,-136.08 78.112,-136.21 77.824,-136.24 77.577,-136.17 M79.265,-133.24 L79.454,-133.42 79.574,-133.68 79.614,-134.02 79.574,-134.4 79.454,-134.8 79.265,-135.19 79.018,-135.55 M79.593,-132.68 L79.25,-132.57 78.85,-132.61 78.421,-132.79 77.992,-133.1 77.592,-133.53 M80.976,-134.61 L85.211,-137.05 M80.513,-133.21 L80.756,-133.42 80.92,-133.74 80.994,-134.14 80.976,-134.61 M80.907,-133.72 L84.627,-135.86 M84.749,-135.65 L84.44,-135.55 84.111,-135.57 M79.222,-137.21 L78.836,-137.35 78.479,-137.37 78.17,-137.27 M78.807,-137.35 L82.527,-139.5 M82.012,-139.2 L82.162,-139.5 82.405,-139.71"/>
      <path stroke="#000" d="M80.513,-133.21 L79.593,-132.68 M84.749,-135.65 L85.853,-136.29 M78.17,-137.27 L77.249,-136.74 M83.849,-139.41 L79.614,-136.97 79.222,-137.21 M82.405,-139.71 L83.51,-140.35 M171.65,-187.81 L171.31,-188.32 171.05,-188.87 170.88,-189.42 170.82,-189.95 170.88,-190.41 171.05,-190.78 171.31,-191.02 M177.47,-189.16 L177.73,-189.41 177.89,-189.77 177.95,-190.24 177.89,-190.77 177.73,-191.32 177.47,-191.87 177.12,-192.37 176.72,-192.8 176.29,-193.11 175.86,-193.29 175.47,-193.33 175.12,-193.22 M173.09,-189.86 L172.8,-190.17 172.48,-190.4 172.17,-190.53 171.87,-190.56 171.62,-190.48 M173.34,-187.51 L173.53,-187.68 173.66,-187.95 173.7,-188.29 173.66,-188.68 173.53,-189.09 173.34,-189.49 173.09,-189.86 M173.65,-186.96 L173.31,-186.86 172.91,-186.9 172.48,-187.08 172.05,-187.39 171.65,-187.81 M174.82,-188.77 L177.04,-190.05 M173.07,-191.38 L172.68,-191.51 172.32,-191.53 172.01,-191.43 M172.65,-191.52 L174.36,-192.5 M173.84,-192.2 L173.99,-192.5 174.23,-192.71 M174.36,-187.37 L174.6,-187.59 174.76,-187.9 174.84,-188.31 174.82,-188.77 M174.75,-187.88 L176.46,-188.86 M176.58,-188.65 L176.27,-188.55 175.94,-188.57 M177.47,-189.16 L176.58,-188.65 M175.12,-193.22 L174.23,-192.71 M174.36,-187.37 L173.65,-186.96 M175.68,-192.41 L173.46,-191.13 173.07,-191.38 M172.01,-191.43 L171.31,-191.02 M90.408,-143.94 L89.606,-143.52 89.442,-143.36 M112,-145.26 L111.68,-144.83 103.45,-139.85 M112,-145.26 L95.391,-134.75 M112,-145.26 L112.17,-145.96 M111.34,-151.78 L111.29,-152.07 M111.34,-151.78 L110.36,-150.13 M111.34,-151.78 C106.51,-147.84 101.85,-143.66 97.089,-139.63 M90.408,-143.94 L89.606,-143.52 89.442,-143.36 M94.871,-134.66 L95.391,-134.75 M94.871,-134.66 L94.347,-134.79 M97.089,-139.63 L96.611,-139.41 M87.119,-145.52 L87.16,-145.71 M87.119,-145.52 L89.442,-143.36 M87.119,-145.52 L89.442,-143.36 M87.119,-145.52 L86.988,-144.91 M89.775,-143.83 L90.311,-143.97 90.946,-143.78 91.424,-143.43 91.982,-142.74 92.376,-141.91 92.543,-141.07 92.48,-140.53 92.146,-140.06 91.61,-139.92 M86.624,-148.69 L87.339,-146.04 M94.934,-138.98 L96.611,-139.41 M94.347,-134.79 L92.692,-136.74 91.939,-136.99 91.141,-137.37 M88.727,-137.19 L89.29,-136.59 89.891,-136.11 M88.648,-139.69 L88.727,-137.19 M88.648,-139.69 L88.028,-140.63 87.49,-141.58 85.639,-142.89 M85.393,-143.66 L85.639,-142.89 M85.31,-144.48 L85.393,-143.66 M106.08,-157.85 L107.17,-155.12 107.96,-154.49 108.69,-153.81 110.42,-153.62 M112.2,-146.45 L110.64,-148.92 110.57,-149.66 110.44,-150.26 M101.5,-156.64 L102.1,-156.31 M111.29,-152.07 L110.9,-152.93 110.42,-153.62 M87.317,-146.12 L87.16,-145.71 M86.624,-148.69 L86.571,-149.05 M87.02,-149.42 L86.571,-149.05 M92.162,-148.31 L90.906,-146.93 M89.891,-136.11 L90.249,-135.86 M85.31,-144.48 L85.323,-144.54 M87.02,-149.42 L92.861,-152.4 M87.54,-149.52 L101.09,-156.87 M92.162,-148.31 L104.71,-158.41 105.32,-158.26 105.96,-157.94 M90.249,-135.86 L92.503,-136.8 M85.323,-144.54 L87.03,-145.11 M101.09,-156.87 L101.5,-156.64 M105.96,-157.94 L106.08,-157.85 M112.17,-145.96 L112.2,-146.45 M110.99,-153.17 L111.03,-153.22 111.04,-153.29 111.03,-153.38 110.99,-153.48 110.93,-153.57 110.86,-153.63 110.79,-153.68 110.72,-153.69 110.67,-153.66 M111.49,-151.71 L111.31,-151.74 M109.57,-153.71 L109.5,-154.18 109.58,-154.66 109.81,-154.98 M111.49,-151.71 L111.84,-151.85 M162,-184.2 L162,-184.73 M156.53,-181.04 L162.46,-184.47 M156.07,-181.31 L156.53,-181.04 M149.11,-173.43 L149.44,-173.55 C152.06,-175.07 157.31,-178.1 157.31,-178.1 157.31,-178.1 161.3,-180.34 163.25,-181.53 163.68,-181.79 163.56,-182.53 163.48,-182.9 163.33,-183.55 162.92,-184.02 162.46,-184.47 M161.22,-184.66 L155.28,-181.24 147.41,-176.69 M162,-184.73 L161.57,-184.8 161.22,-184.66 M147.34,-176.59 L147.41,-176.69 M161.47,-183.93 L161.5,-183.91 M147.03,-173.4 L146.8,-174 146.45,-174.54 146.01,-174.97 145.55,-175.24 145.12,-175.31 144.77,-175.17 M145.17,-175.4 L145.1,-175.29 M146.87,-172.13 L147.2,-172.26 M149.04,-173.32 L149.27,-173.65 149.35,-174.13 149.27,-174.7 149.04,-175.29 148.69,-175.83 148.26,-176.27 147.8,-176.53 147.36,-176.6 147.01,-176.46 M147.07,-172.45 L147.04,-172.44 M149.31,-173.75 L149.28,-173.73 M128.96,-161.73 L128.65,-161.61 M126.86,-164.77 L126.93,-164.87 M128.96,-161.73 L137.85,-166.86 M140.86,-168.6 L146.8,-172.03 147.03,-172.36 147.11,-172.83 147.03,-173.4 M147.01,-176.46 L145.17,-175.4 M126.93,-164.87 C126.93,-164.87 138.92,-171.59 144.77,-175.17 M149.04,-173.32 L147.2,-172.26 M114.16,-157.11 L114.62,-156.84 120.07,-159.99 M128.58,-161.51 L128.81,-161.84 128.89,-162.31 128.81,-162.88 128.58,-163.47 128.22,-164.02 127.79,-164.45 127.33,-164.72 126.9,-164.78 126.55,-164.65 M128.83,-161.93 L128.82,-161.92 M111.84,-151.85 C117.41,-155.06 123.09,-158.15 128.58,-161.51 M126.55,-164.65 C121.06,-161.29 115.39,-158.2 109.81,-154.98"/>
      <path stroke="#000" stroke-width="0.18" d="M56.185,-90.961 L56.786,-91.774 56.215,-93.29 M56.786,-91.774 L57.57,-92.227 M56.215,-93.29 L55.044,-93.993 M56.215,-93.29 L57,-93.743 M40.551,-124.42 L41.723,-123.71 M42.479,-124.15 L41.723,-123.71 42.293,-122.2 41.692,-121.38 M42.293,-122.2 L43.05,-122.63 M33.291,-103.05 L33.516,-103.12 33.779,-103.1 33.916,-103.04 M37.042,-97.507 L37.036,-97.457 36.927,-97.216 36.754,-97.056 M33.614,-102.01 L33.568,-102.04 M46.673,-95.733 L47.005,-96.193 M47.228,-97.353 L46.682,-97.038 47.005,-96.193 M46.682,-97.038 L46.026,-97.423 M47.005,-96.193 L47.551,-96.508 M38.073,-110.74 L38.405,-111.21 M38.627,-112.37 L38.081,-112.05 38.405,-111.21 M38.081,-112.05 L37.426,-112.43 M38.405,-111.21 L38.951,-111.52 M36.076,-105.46 L39.254,-102.84 40.262,-98.671 M39.254,-102.84 L40.554,-103.58 M41.562,-99.412 L40.262,-98.671 38.091,-97.112 M41.433,-99.944 L41.453,-99.989 41.484,-101.07 41.19,-102.28 40.604,-103.48 40.568,-103.52 M40.468,-103.65 L39.799,-104.52 38.87,-105.28 38.096,-105.6 M38.634,-105.16 L38.648,-105.16 39.577,-104.39 39.591,-104.37 M40.835,-102.42 L40.967,-102.15 41.262,-100.94 41.255,-100.68 M43.929,-100 L42.464,-99.158 41.295,-103.97 M42.464,-99.158 L39.949,-97.374 M37.61,-106.99 L41.295,-103.97 42.76,-104.81 M36.918,-114.13 C37.785,-114.71 38.815,-113.82 39.321,-113.16 39.844,-112.47 40.071,-111.63 40.56,-110.92 41.196,-110 42.284,-109.36 42.996,-108.54 43.495,-107.96 43.981,-107.37 44.407,-106.74 45.73,-104.78 46.385,-102.78 46.908,-100.5 47.058,-99.853 47.238,-99.298 47.577,-98.715 47.687,-98.525 47.83,-98.355 47.955,-98.174 48.073,-98.005 48.206,-97.844 48.307,-97.664 48.697,-96.97 49.453,-94.946 48.221,-94.545 M34.924,-99.461 L34.823,-99.402 34.77,-99.417 M34.418,-99.947 L34.447,-100.05 34.547,-100.11 M34.694,-100.63 L34.685,-100.64 M35.348,-99.367 L35.348,-98.934 M34.685,-100.64 L34.691,-100.65 M34.685,-100.64 L34.022,-100.58 M34.796,-99.515 L34.8,-99.598 34.75,-99.716 34.651,-99.832 34.523,-99.911 M34.766,-99.401 L34.78,-99.514 34.722,-99.671 34.602,-99.827 34.444,-99.934 M34.451,-99.966 L34.556,-100.02 34.686,-100 34.814,-99.924 34.885,-99.84 M34.958,-99.61 L34.958,-99.607 M34.633,-99.422 L34.637,-99.506 34.587,-99.623 34.488,-99.739 34.361,-99.818 34.231,-99.835 34.126,-99.782 M34.47,-99.33 L34.475,-99.413 34.424,-99.531 34.326,-99.647 34.198,-99.726 M34.308,-99.237 L34.312,-99.321 34.262,-99.438 34.163,-99.554 34.035,-99.634 33.905,-99.651 33.801,-99.597 M34.145,-99.145 L34.149,-99.228 34.099,-99.346 34,-99.462 33.873,-99.541 M33.982,-99.052 L33.987,-99.136 33.936,-99.254 33.838,-99.37 33.71,-99.449 M33.874,-98.991 L33.905,-99.09 33.882,-99.223 33.811,-99.354 33.71,-99.449 33.607,-99.481 33.53,-99.443 M34.441,-99.216 L34.454,-99.329 34.397,-99.486 34.277,-99.642 34.119,-99.749 M34.115,-99.031 L34.129,-99.144 34.072,-99.302 33.952,-99.457 33.794,-99.565 M60.502,-95.534 L60.355,-95.364 60.303,-95.094 60.355,-94.763 60.502,-94.423 60.723,-94.126 60.983,-93.916 61.243,-93.825 61.464,-93.868 M38.031,-120.95 L37.811,-120.9 37.55,-121 37.29,-121.21 37.069,-121.5 36.922,-121.84 36.87,-122.17 36.922,-122.44 37.07,-122.61 M42.918,-125.99 L42.771,-125.82 42.719,-125.55 42.771,-125.22 42.918,-124.88 43.139,-124.58 43.399,-124.37 43.659,-124.28 43.88,-124.32 M39.032,-125.97 L38.884,-125.8 38.833,-125.53 38.884,-125.2 39.032,-124.86 39.252,-124.56 39.513,-124.35 39.773,-124.26 39.994,-124.3 M58.54,-92.18 L58.392,-92.01 58.341,-91.739 58.392,-91.409 58.54,-91.069 58.76,-90.771 59.021,-90.561 59.281,-90.471 59.502,-90.514 M54.654,-92.158 L54.506,-91.988 54.454,-91.717 54.506,-91.387 54.654,-91.047 54.874,-90.749 55.134,-90.539 55.395,-90.449 55.615,-90.491 M55.783,-95.528 L56.437,-96.217 56.848,-97.198 56.989,-98.412 56.876,-99.564 M45.989,-89.873 L46.643,-90.562 47.053,-91.543 47.195,-92.758 47.06,-94.133 46.874,-94.803 M38.308,-126.74 L39.966,-127.37 41.918,-127.3 44.036,-126.52 46.183,-125.09 48.219,-123.11 50.011,-120.69 M36.466,-112.83 L35.984,-113.32 34.86,-114.12 33.737,-114.61 32.683,-114.74 31.759,-114.52 M58.589,-105.75 L58.626,-105.72 58.663,-105.7 58.7,-105.68 M58.589,-105.75 L48.937,-100.17 M58.589,-105.75 L58.589,-105.79 58.588,-105.87 M49.104,-99.857 L49.276,-99.726 49.723,-99.24 50.104,-98.668 50.394,-98.048 50.574,-97.42 50.631,-96.827 50.563,-96.308 50.373,-95.899 50.169,-95.713 M50.114,-95.662 L50.074,-95.626 M48.727,-100.71 L48.557,-102.26 47.873,-104.55 46.789,-106.8 45.377,-108.86 43.735,-110.58 42.523,-111.46 M41.93,-112.28 L41.914,-112.42 41.745,-113.02 41.477,-113.61 41.126,-114.16 40.713,-114.63 40.262,-115.01 39.8,-115.26 39.356,-115.37 38.955,-115.34 38.621,-115.16 M42.135,-111.95 L51.769,-117.52 M41.554,-120.17 L42.477,-120.4 43.532,-120.26 44.655,-119.78 45.533,-119.15 M51.769,-117.52 L51.768,-117.57 51.765,-117.63 51.762,-117.69 M51.769,-117.52 L51.864,-117.46 51.912,-117.43 M59.732,-101.22 L60.045,-101.41 60.272,-101.73 60.4,-102.16 60.421,-102.67 M48.4,-120.8 L48.725,-120.98 49.118,-121.03 49.555,-120.93 50.011,-120.69 M59.87,-89.445 L61.241,-90.577 62.144,-92.319 62.521,-94.556 62.345,-97.141 61.63,-99.905 60.421,-102.67 M51.762,-117.69 L51.912,-117.43 M58.7,-105.68 L58.588,-105.87 M48.13,-131.12 L48.342,-131.16 48.592,-131.08 48.842,-130.88 49.053,-130.59 49.195,-130.26 49.245,-129.95 49.195,-129.69 49.053,-129.52 M67.616,-97.329 L67.828,-97.37 68.078,-97.283 68.328,-97.081 68.54,-96.796 68.681,-96.469 68.731,-96.152 68.681,-95.892 68.54,-95.729 M63.927,-107.7 L63.78,-107.53 63.728,-107.26 63.78,-106.93 63.927,-106.59 64.148,-106.3 64.408,-106.09 64.669,-105.99 64.889,-106.04 M74.816,-111.77 L74.596,-111.73 74.335,-111.82 74.075,-112.03 73.854,-112.32 73.707,-112.66 73.655,-112.99 73.707,-113.27 73.854,-113.43 M55.77,-133.29 L55.55,-133.25 55.289,-133.34 55.029,-133.55 54.808,-133.85 54.661,-134.19 54.609,-134.52 54.661,-134.79 54.808,-134.96 M66.159,-126.76 L65.938,-126.72 65.678,-126.81 65.418,-127.02 65.197,-127.32 65.05,-127.66 64.998,-127.99 65.05,-128.26 65.197,-128.43 M59.656,-133.32 L59.436,-133.27 59.175,-133.36 58.915,-133.57 58.695,-133.87 58.547,-134.21 58.495,-134.54 58.547,-134.81 58.695,-134.98 M55.27,-122.7 L55.123,-122.53 55.071,-122.26 55.123,-121.93 55.27,-121.59 55.491,-121.29 55.751,-121.08 56.011,-120.99 56.232,-121.03 M52.846,-131.61 L52.699,-131.44 52.647,-131.17 52.699,-130.84 52.846,-130.5 53.067,-130.2 53.327,-129.99 53.587,-129.9 53.808,-129.94 M75.278,-99.506 L75.057,-99.463 74.797,-99.554 74.537,-99.764 74.316,-100.06 74.169,-100.4 74.117,-100.73 74.169,-101 74.316,-101.17 M77.24,-102.86 L77.02,-102.82 76.759,-102.91 76.499,-103.12 76.278,-103.42 76.131,-103.76 76.079,-104.09 76.131,-104.36 76.278,-104.53 M70.43,-101.15 L70.282,-100.98 70.231,-100.71 70.282,-100.38 70.43,-100.04 70.651,-99.742 70.911,-99.532 71.171,-99.441 71.392,-99.484 M56.213,-132.53 C54.079,-131.5 53.974,-127.52 55.977,-123.64 56.053,-123.49 56.132,-123.34 56.213,-123.2 M56.213,-123.2 C59.34,-117.61 62.607,-112.07 65.832,-106.54 M65.832,-106.54 C68.106,-102.63 71.463,-100.7 73.912,-101.87 M66.217,-128.97 C62.779,-134.68 57.512,-137.81 54.453,-135.97 54.398,-135.93 54.343,-135.9 54.289,-135.86 M66.217,-128.97 C69.522,-123.49 72.664,-117.88 75.836,-112.31 M75.836,-98.54 C79.148,-100.8 79.148,-106.5 75.836,-112.31 M25.573,-84.465 L24.797,-84.018 25.044,-82.55 M24.797,-84.018 L23.682,-85.083 M22.815,-84.68 L23.682,-85.083 24.458,-85.53 M29.485,-86.043 L29.584,-86.184 29.563,-86.439 29.419,-86.735 29.181,-86.988 28.905,-87.124 28.656,-87.103 M29.053,-87.332 L29.302,-87.353 29.578,-87.216 29.816,-86.963 29.96,-86.667 29.981,-86.412 29.882,-86.272 M29.45,-87.56 L29.699,-87.581 29.975,-87.445 M28.153,-85.682 L28.174,-85.64 M28.375,-86.219 L28.426,-86.164 M28.446,-86.125 L28.571,-85.868 M28.776,-86.443 L28.823,-86.392 M28.845,-86.347 L28.967,-86.096 M29.174,-86.67 L29.22,-86.621 M29.242,-86.576 L29.364,-86.325 M29.566,-86.904 L29.617,-86.849 M29.636,-86.81 L29.761,-86.553 M29.963,-87.132 L30.014,-87.078 M30.033,-87.039 L30.158,-86.782 M27.598,-86.429 L27.714,-86.439 27.99,-86.303 28.228,-86.05 28.372,-85.754 28.393,-85.499 28.295,-85.358 M27.862,-86.646 L28.111,-86.668 28.387,-86.531 28.625,-86.278 28.769,-85.982 28.79,-85.727 28.691,-85.587 M28.259,-86.875 L28.508,-86.896 28.784,-86.759 29.022,-86.507 29.166,-86.211 29.187,-85.956 29.088,-85.815 M15.587,-97.121 L16.405,-97.613 M16.864,-99.548 L16.088,-99.102 16.405,-97.613 M16.088,-99.102 L14.953,-100.1 M16.405,-97.613 L17.181,-98.06 M20.846,-101.05 L20.932,-101.21 20.896,-101.47 20.739,-101.77 20.494,-102.01 20.217,-102.13 19.984,-102.09 M20.38,-102.32 L20.614,-102.36 20.891,-102.24 21.136,-102 21.293,-101.7 21.329,-101.44 21.243,-101.28 M20.777,-102.55 L21.011,-102.59 21.287,-102.47 M19.475,-100.73 L19.507,-100.67 M19.75,-101.19 L19.904,-100.9 M20.15,-101.41 L20.301,-101.13 M20.547,-101.64 L20.698,-101.36 M20.941,-101.87 L21.095,-101.59 M21.338,-102.1 L21.492,-101.81 M18.931,-101.43 L19.027,-101.44 19.303,-101.32 19.548,-101.08 19.706,-100.79 19.742,-100.52 19.656,-100.37 M19.19,-101.63 L19.424,-101.67 19.7,-101.55 19.945,-101.31 20.102,-101.01 20.139,-100.75 20.053,-100.59 M19.587,-101.86 L19.82,-101.9 20.097,-101.78 20.342,-101.54 20.499,-101.24 20.535,-100.98 20.449,-100.82 M36.854,-78.921 L37.453,-79.735 M37.654,-81.697 L36.879,-81.25 37.453,-79.735 M36.879,-81.25 L35.708,-81.95 M37.453,-79.735 L38.228,-80.182 M41.922,-82.945 L41.955,-83.158 41.862,-83.447 41.659,-83.728 41.391,-83.922 41.122,-83.971 41.036,-83.924 M41.433,-84.153 L41.519,-84.2 41.788,-84.151 42.055,-83.957 42.258,-83.676 42.351,-83.387 42.318,-83.174 M41.83,-84.382 L41.916,-84.429 42.185,-84.38 M40.4,-82.747 L40.473,-82.645 M40.68,-83.138 L40.87,-82.874 M41.076,-83.367 L41.267,-83.103 M41.477,-83.59 L41.663,-83.332 M41.873,-83.82 L42.06,-83.561 M42.266,-84.054 L42.457,-83.79 M39.924,-83.28 L39.932,-83.284 40.201,-83.235 40.469,-83.041 40.672,-82.76 40.765,-82.471 40.732,-82.258 M40.243,-83.466 L40.329,-83.513 40.598,-83.464 40.865,-83.27 41.068,-82.989 41.161,-82.7 41.129,-82.487 M40.64,-83.695 L40.726,-83.742 40.994,-83.693 41.262,-83.499 41.465,-83.218 41.558,-82.929 41.525,-82.716 M31.008,-75.541 L31.61,-76.35 M31.816,-78.312 L31.041,-77.865 31.61,-76.35 M31.041,-77.865 L29.87,-78.572 M31.61,-76.35 L32.385,-76.797 M35.318,-80.585 L35.282,-80.592 35.193,-80.545 M34.559,-79.365 L34.632,-79.264 M34.837,-79.759 L35.029,-79.493 M35.234,-79.988 L35.425,-79.722 M34.082,-79.9 L34.092,-79.905 34.361,-79.855 34.628,-79.66 34.83,-79.378 34.922,-79.09 34.889,-78.878 M34.4,-80.087 L34.488,-80.134 34.758,-80.084 35.025,-79.889 35.227,-79.607 35.319,-79.319 35.285,-79.107 M34.797,-80.316 L34.885,-80.363 35.154,-80.313 35.421,-80.118 35.577,-79.902 M35.695,-79.614 L35.716,-79.548 35.682,-79.336 M19.267,-109.38 L19.866,-110.19 M20.069,-112.15 L19.294,-111.7 18.123,-112.41 M19.294,-111.7 L19.866,-110.19 20.641,-110.64 M24.335,-113.4 L24.368,-113.61 24.276,-113.9 24.073,-114.18 23.805,-114.38 23.536,-114.43 23.45,-114.38 M23.846,-114.61 L23.933,-114.66 24.202,-114.61 24.469,-114.41 24.672,-114.13 24.765,-113.84 24.732,-113.63 M24.243,-114.84 L24.33,-114.88 24.599,-114.83 M22.814,-113.2 L22.887,-113.1 M23.094,-113.59 L23.284,-113.33 M23.494,-113.82 L23.68,-113.56 M23.89,-114.05 L24.077,-113.79 M24.283,-114.28 L24.474,-114.02 M24.68,-114.51 L24.871,-114.24 M22.338,-113.73 L22.346,-113.74 22.615,-113.69 22.883,-113.5 23.086,-113.21 23.178,-112.93 23.145,-112.71 M22.657,-113.92 L22.743,-113.97 23.012,-113.92 23.279,-113.72 23.482,-113.44 23.575,-113.16 23.542,-112.94 M23.053,-114.15 L23.14,-114.2 23.409,-114.15 23.676,-113.95 23.879,-113.67 23.972,-113.38 23.939,-113.17 M13.422,-106 L14.024,-106.81 M14.229,-108.77 L13.454,-108.32 14.024,-106.81 M13.454,-108.32 L12.282,-109.03 M14.024,-106.81 L14.799,-107.25 M17.732,-111.04 L17.695,-111.05 17.607,-111 M16.972,-109.82 L17.045,-109.72 M17.251,-110.21 L17.442,-109.95 M17.652,-110.44 L17.839,-110.18 M16.495,-110.36 L16.505,-110.36 16.774,-110.31 17.041,-110.12 17.244,-109.83 17.336,-109.55 17.303,-109.33 M16.814,-110.54 L16.901,-110.59 17.171,-110.54 17.438,-110.34 17.64,-110.06 17.733,-109.78 17.699,-109.56 M17.211,-110.77 L17.298,-110.82 17.567,-110.77 17.834,-110.57 17.989,-110.36 M18.108,-110.07 L18.129,-110 18.096,-109.79 M94.249,-125.85 L94.034,-125.99 93.688,-126.11 93.368,-126.12 93.091,-126.03 M94.414,-125.94 L94.021,-126.19 93.635,-126.33 93.278,-126.35 92.969,-126.24 M95.776,-123.59 L95.794,-123.12 95.719,-122.72 95.556,-122.4 95.313,-122.18 M95.612,-123.49 L95.622,-123.24 95.555,-122.88 95.408,-122.59 95.191,-122.4 M87.813,-123.27 L88.157,-123.37 88.556,-123.33 88.985,-123.15 89.414,-122.84 89.814,-122.42 90.157,-121.91 90.42,-121.37 90.586,-120.81 90.642,-120.28 90.586,-119.82 90.42,-119.45 90.157,-119.21 M88.126,-122.73 L87.933,-122.55 87.811,-122.28 87.77,-121.94 87.811,-121.55 87.933,-121.14 88.126,-120.74 88.377,-120.37 88.671,-120.06 88.985,-119.83 89.3,-119.7 89.593,-119.67 89.845,-119.75 M138.4,-166.12 L138.4,-166.77 141.21,-168.39 M138.4,-166.77 L137.85,-167.09 M81.015,-118.86 L80.798,-118.66 80.661,-118.36 80.615,-117.98 80.661,-117.55 80.798,-117.09 81.015,-116.64 81.297,-116.22 81.626,-115.87 81.98,-115.62 82.333,-115.47 82.662,-115.43 82.945,-115.52 M83.428,-114.69 L83.753,-114.99 83.958,-115.44 84.027,-116.01 83.958,-116.66 83.753,-117.35 83.428,-118.03 83.004,-118.65 82.51,-119.17 81.98,-119.56 81.45,-119.78 80.956,-119.83 80.532,-119.7 M188.01,-180.33 L187.82,-180.15 187.7,-179.9 187.66,-179.57 187.7,-179.19 187.82,-178.8 188.01,-178.41 188.25,-178.05 188.54,-177.75 188.84,-177.53 189.14,-177.4 189.43,-177.37 189.67,-177.45 M190.09,-176.73 L190.37,-176.99 190.54,-177.38 190.6,-177.87 190.54,-178.43 190.37,-179.02 190.09,-179.61 189.72,-180.14 189.3,-180.59 188.84,-180.92 188.38,-181.12 187.96,-181.16 187.59,-181.05 M180.06,-175.39 L179.84,-175.53 179.5,-175.65 179.18,-175.67 178.9,-175.58 M180.22,-175.49 L179.83,-175.74 179.45,-175.87 179.09,-175.89 178.78,-175.79 M181.59,-173.13 L181.6,-172.66 181.53,-172.26 181.37,-171.94 181.12,-171.73 M181.42,-173.03 L181.43,-172.78 181.37,-172.42 181.22,-172.13 181,-171.94 M173.62,-172.81 L173.97,-172.92 174.37,-172.88 174.8,-172.69 175.22,-172.38 175.62,-171.96 175.97,-171.46 176.23,-170.91 176.4,-170.35 176.45,-169.82 176.4,-169.36 176.23,-168.99 175.97,-168.75 M173.94,-172.27 L173.74,-172.09 173.62,-171.82 173.58,-171.48 173.62,-171.09 173.74,-170.69 173.94,-170.28 174.19,-169.92 174.48,-169.61 174.8,-169.38 175.11,-169.24 175.4,-169.21 175.66,-169.29 M142.15,-153.7 L136.7,-150.55 M142.15,-153.7 L142.15,-153.21 M142.15,-153.7 L142.61,-153.44 M142.18,-153.19 L142.15,-153.21 M137.13,-150.31 L142.15,-153.21 M120.99,-141.87 L121.34,-142 121.77,-141.94 122.23,-141.67 122.67,-141.24 123.02,-140.69 123.25,-140.1 123.33,-139.53 123.25,-139.06 123.02,-138.73 M121.84,-140.55 L121.8,-140.49 121.79,-140.42 121.8,-140.33 121.84,-140.23 121.9,-140.15 121.97,-140.08 122.04,-140.04 122.11,-140.03 122.16,-140.05 M120.36,-135.71 L120.29,-135.74 120.59,-134.93 120.72,-134.05 M117.29,-138.79 L117.06,-138.87 M117.12,-141.33 L116.82,-141.56 M113.12,-141.55 L112.81,-141.62 111.44,-140.84 M97.331,-132.81 L96.236,-132.19 M119.06,-133.36 L118.97,-132.74 M117.06,-138.87 L117.74,-137.92 118.35,-136.96 M117.06,-138.87 C111.42,-136.56 105.83,-134.08 100.18,-131.79 100.04,-131.74 99.942,-131.61 99.814,-131.53"/>
      <path stroke="#000" stroke-width="0.18" d="M116.82,-141.56 L116.22,-142.15 115.58,-142.6 M116.82,-141.56 C110.99,-139.01 104.96,-136.89 99.001,-134.64 M119.67,-129.37 L105.54,-122.81 M118.78,-132.16 L103.88,-125.37 M100.92,-125.88 L100.07,-125.34 M100.99,-126.77 L99.399,-125.73 M100.69,-127.66 L98.769,-126.4 M100.16,-128.46 L98.285,-127.25 M99.684,-128.94 L98.082,-127.93 M103.6,-126.94 L103.79,-126.14 M104.49,-128.7 L120.72,-134.05 M104.49,-128.7 L103.96,-128.69 M104.49,-128.7 L104.07,-129.6 103.56,-130.31 103.05,-130.22 M99.001,-134.64 L98.645,-134.25 M99.001,-134.64 L98.365,-134.92 97.761,-135.03 M97.313,-132.57 L96.837,-132.46 96.236,-132.19 M94.29,-133.22 L94.224,-132.71 M101.64,-119.81 L101.44,-119.97 M101.88,-122.22 L101.62,-122.31 M105.54,-122.81 L105.4,-122.08 105.11,-121.62 104.69,-121.85 M105.54,-122.81 L105.07,-123.01 M103.88,-125.37 L103.45,-125.43 M103.88,-125.37 L103.79,-126.14 M103.96,-128.69 L103.15,-126.95 103.35,-126.18 M103.96,-128.69 L103.54,-129.54 103.05,-130.22 101.35,-130.29 C101.49,-130.34 101.63,-130.4 101.78,-130.46 107.3,-132.61 112.71,-135.12 118.35,-136.96 M101.35,-130.29 L100.61,-130.94 99.814,-131.53 98.645,-134.25 98.039,-134.5 97.465,-134.58 M97.288,-132.24 L96.645,-132.06 96.083,-131.78 94.224,-132.71 93.953,-132.25 93.84,-131.55 M95.757,-127.61 L95.337,-126.7 M100.26,-120.31 L100.87,-120.06 101.44,-119.97 101.62,-122.31 102.26,-122.49 102.83,-122.78 104.69,-121.85 104.96,-122.31 105.07,-123.01 103.45,-125.43 103.35,-126.18 M100.29,-125.25 L99.848,-125.28 99.206,-125.63 98.596,-126.26 98.122,-127.06 97.916,-127.71 97.901,-128.49 98.159,-129.05 M119.61,-160.26 L120.07,-159.99 M119.61,-160.26 L114.16,-157.11 M119.61,-160.26 L119.61,-159.76 M162,-184.73 L156.07,-181.31 M145.17,-175.4 L145.52,-175.53 145.95,-175.47 146.41,-175.2 146.84,-174.77 147.2,-174.22 147.43,-173.63 147.51,-173.06 147.43,-172.59 147.2,-172.26 M110.82,-153.66 L110.82,-153.65 110.83,-153.56 110.87,-153.47 110.92,-153.38 110.99,-153.31 111.04,-153.29 M147.41,-176.69 L147.76,-176.83 148.19,-176.76 148.65,-176.5 149.09,-176.06 149.44,-175.52 149.67,-174.93 149.75,-174.36 149.67,-173.88 149.44,-173.55 M147.07,-172.45 L147.27,-172.74 147.34,-173.16 147.27,-173.66 147.07,-174.18 146.76,-174.65 146.38,-175.03 145.98,-175.26 145.6,-175.32 145.43,-175.26 M111.84,-151.85 L112.07,-152.17 112.15,-152.65 112.07,-153.22 111.84,-153.81 111.49,-154.36 111.06,-154.79 110.6,-155.05 110.16,-155.12 109.81,-154.98 M127.22,-164.73 L127.37,-164.79 127.75,-164.73 128.15,-164.5 128.53,-164.12 128.83,-163.65 129.03,-163.13 129.1,-162.63 129.03,-162.21 128.83,-161.93 M126.93,-164.87 L127.28,-165.01 127.72,-164.94 128.18,-164.67 128.61,-164.24 128.96,-163.7 129.19,-163.1 129.27,-162.53 129.19,-162.06 128.96,-161.73 M119.64,-159.74 L119.61,-159.76 M114.58,-156.86 L119.61,-159.76 M156.49,-181.06 L161.47,-183.93 M147.67,-176.55 L147.84,-176.62 148.22,-176.56 148.63,-176.33 149,-175.95 149.31,-175.47 149.51,-174.95 149.58,-174.45 149.51,-174.03 149.31,-173.75 M110.67,-153.66 L110.63,-153.61 110.62,-153.54 110.63,-153.45 110.67,-153.35 110.72,-153.27 110.79,-153.2 110.86,-153.15 110.93,-153.14 110.99,-153.17 M115.75,-162.63 L115.75,-163.27 118.56,-164.89 M115.75,-163.27 L115.19,-163.6 M157.7,-186.84 L157.7,-187.48 157.14,-187.81 M157.7,-187.48 L161.16,-189.48 M69.477,-131.55 L69.28,-131.37 69.156,-131.09 69.114,-130.75 69.156,-130.35 69.28,-129.93 69.477,-129.52 69.734,-129.15 70.033,-128.83 70.354,-128.6 70.675,-128.46 70.974,-128.43 71.231,-128.51 M71.67,-127.75 L71.965,-128.03 72.151,-128.44 72.215,-128.96 72.151,-129.55 71.965,-130.17 71.67,-130.79 71.284,-131.35 70.836,-131.83 70.354,-132.18 69.873,-132.38 69.424,-132.43 69.039,-132.31 M83.685,-139.32 L83.469,-139.45 83.124,-139.58 82.804,-139.59 82.527,-139.5 M83.849,-139.41 L83.457,-139.66 83.071,-139.8 82.714,-139.81 82.405,-139.71 M85.211,-137.05 L85.23,-136.59 85.155,-136.19 84.992,-135.87 84.749,-135.65 M85.047,-136.96 L85.057,-136.7 84.991,-136.34 84.844,-136.06 84.627,-135.86 M77.249,-136.74 L77.592,-136.84 77.992,-136.8 78.421,-136.62 78.85,-136.31 79.25,-135.88 79.593,-135.38 79.856,-134.83 80.022,-134.28 80.078,-133.75 80.022,-133.29 79.856,-132.92 79.593,-132.68 M77.577,-136.17 L77.388,-135.99 77.268,-135.73 77.228,-135.39 77.268,-135.01 77.388,-134.61 77.577,-134.22 77.824,-133.86 78.112,-133.55 78.421,-133.33 78.73,-133.2 79.018,-133.17 79.265,-133.24 M177.04,-190.05 L177.06,-189.59 176.98,-189.19 176.82,-188.87 176.58,-188.65 M176.88,-189.96 L176.89,-189.7 176.82,-189.34 176.67,-189.06 176.46,-188.86 M175.68,-192.41 L175.29,-192.66 174.9,-192.8 174.54,-192.81 174.23,-192.71 M175.51,-192.32 L175.3,-192.45 174.95,-192.58 174.63,-192.59 174.36,-192.5 M171.31,-191.02 L171.65,-191.13 172.05,-191.09 172.48,-190.91 172.91,-190.59 173.31,-190.17 173.65,-189.67 173.92,-189.12 174.08,-188.56 174.14,-188.04 174.08,-187.57 173.92,-187.21 173.65,-186.96 M171.62,-190.48 L171.43,-190.3 171.31,-190.03 171.27,-189.7 171.31,-189.31 171.43,-188.9 171.62,-188.5 171.87,-188.13 172.17,-187.82 172.48,-187.59 172.8,-187.46 173.09,-187.43 173.34,-187.51 M110.42,-153.62 L110.45,-153.42 M112.17,-145.96 C106.68,-142.43 101.28,-138.72 95.84,-135.12 95.678,-135.01 95.508,-134.9 95.391,-134.75 M111.34,-151.78 L110.94,-152.69 110.45,-153.42 C105.83,-149.44 101.35,-145.26 96.711,-141.31 96.496,-141.12 96.838,-140.75 96.983,-140.5 97.133,-140.25 96.96,-139.9 97.089,-139.63 M105.96,-157.94 L93.388,-147.21 M93.532,-144.57 L93.274,-144.2 M93.388,-147.21 L92.794,-147.83 92.162,-148.31 M93.388,-147.21 L93.195,-146.7 M87.02,-149.42 L87.54,-149.52 M86.988,-144.91 L85.31,-144.48 M89.891,-136.11 L91.141,-137.37 M94.347,-134.79 L94.853,-134.86 95.297,-135.2 94.582,-137.85 94.802,-138.37 94.934,-138.98 M96.611,-139.41 L96.528,-140.23 M96.283,-141 L94.431,-142.31 93.894,-143.26 93.274,-144.2 93.195,-146.7 92.632,-147.3 92.03,-147.78 92.162,-148.31 M92.03,-147.78 L90.78,-146.52 89.983,-146.9 89.229,-147.15 87.574,-149.1 87.54,-149.52 M87.574,-149.1 L87.068,-149.03 86.624,-148.69 M87.339,-146.04 L87.119,-145.52 M89.775,-143.83 L89.442,-143.36 M91.61,-139.92 L90.975,-140.11 90.497,-140.46 89.94,-141.15 89.546,-141.98 89.379,-142.82 89.442,-143.36 M119.61,-160.26 L120.07,-159.99 M119.61,-160.26 L114.16,-157.11 M119.61,-160.26 L119.61,-159.76 M162,-184.73 L156.07,-181.31 M145.17,-175.4 L145.52,-175.53 145.95,-175.47 146.41,-175.2 146.84,-174.77 147.2,-174.22 147.43,-173.63 147.51,-173.06 147.43,-172.59 147.2,-172.26 M110.82,-153.66 L110.82,-153.65 110.83,-153.56 110.87,-153.47 110.92,-153.38 110.99,-153.31 111.04,-153.29 M147.41,-176.69 L147.76,-176.83 148.19,-176.76 148.65,-176.5 149.09,-176.06 149.44,-175.52 149.67,-174.93 149.75,-174.36 149.67,-173.88 149.44,-173.55 M147.07,-172.45 L147.27,-172.74 147.34,-173.16 147.27,-173.66 147.07,-174.18 146.76,-174.65 146.38,-175.03 145.98,-175.26 145.6,-175.32 145.43,-175.26 M111.84,-151.85 L112.07,-152.17 112.15,-152.65 112.07,-153.22 111.84,-153.81 111.49,-154.36 111.06,-154.79 110.6,-155.05 110.16,-155.12 109.81,-154.98 M127.22,-164.73 L127.37,-164.79 127.75,-164.73 128.15,-164.5 128.53,-164.12 128.83,-163.65 129.03,-163.13 129.1,-162.63 129.03,-162.21 128.83,-161.93 M126.93,-164.87 L127.28,-165.01 127.72,-164.94 128.18,-164.67 128.61,-164.24 128.96,-163.7 129.19,-163.1 129.27,-162.53 129.19,-162.06 128.96,-161.73 M119.64,-159.74 L119.61,-159.76 M114.58,-156.86 L119.61,-159.76 M156.49,-181.06 L161.47,-183.93 M147.67,-176.55 L147.84,-176.62 148.22,-176.56 148.63,-176.33 149,-175.95 149.31,-175.47 149.51,-174.95 149.58,-174.45 149.51,-174.03 149.31,-173.75 M110.67,-153.66 L110.63,-153.61 110.62,-153.54 110.63,-153.45 110.67,-153.35 110.72,-153.27 110.79,-153.2 110.86,-153.15 110.93,-153.14 110.99,-153.17"/>
    </g>
  </g>
  <g id="AUTOID_002" vm2d:name="C3DCallouts" vm2d:type="layer">
    <a id="_E9ACE3C185404BA6A70BB21662BEBFF2_1" vm2d:name="300" vm2d:type="grobject" xlink:href="#">
      <path d="M274.01,1125.8 L312.87,1125.8 312.87,1151.8 274.01,1151.8 Z" fill="#fff" fill-opacity="0"/>
      <g transform="matrix(4.72727,0,0,4.72727,0.136383,1404)">
        <text font-family="Arial" font-size="4.92" x="57.9387" y="-54.3933" fill="#000">300</text>
      </g>
    </a>
    <g transform="matrix(4.72727,0,0,4.72727,0.136383,1404)" stroke-width="0.18" stroke-linecap="butt" stroke-linejoin="miter" stroke-miterlimit="10">
      <path stroke="#000" d="M66.155,-58.85 L68.481,-96.365"/>
    </g>
    <a id="_E9ACE3C185404BA6A70BB21662BEBFF2_2" vm2d:name="300" vm2d:type="grobject" xlink:href="#">
      <path d="M3.2693,782.6 L42.127,782.6 42.127,808.6 3.2693,808.6 Z" fill="#fff" fill-opacity="0"/>
      <g transform="matrix(4.72727,0,0,4.72727,0.136383,1404)">
        <text font-family="Arial" font-size="4.92" x="0.665922" y="-126.993" fill="#000">300</text>
      </g>
    </a>
    <g transform="matrix(4.72727,0,0,4.72727,0.136383,1404)" stroke-width="0.18" stroke-linecap="butt" stroke-linejoin="miter" stroke-miterlimit="10">
      <path stroke="#000" d="M8.8827,-128.7 L48.76,-130.35"/>
    </g>
    <a id="_2BBA8604D7DA495B98139C7D231EA168_1" vm2d:name="180" vm2d:type="grobject" xlink:href="#">
      <path d="M950.87,564.2 L989.73,564.2 989.73,590.2 950.87,590.2 Z" fill="#fff" fill-opacity="0"/>
      <g transform="matrix(4.72727,0,0,4.72727,0.136383,1404)">
        <text font-family="Arial" font-size="4.92" x="201.12" y="-173.193" fill="#000">180</text>
      </g>
    </a>
    <g transform="matrix(4.72727,0,0,4.72727,0.136383,1404)" stroke-width="0.18" stroke-linecap="butt" stroke-linejoin="miter" stroke-miterlimit="10">
      <path stroke="#000" d="M201.12,-174.9 L180.62,-174.31"/>
    </g>
    <a id="_2BBA8604D7DA495B98139C7D231EA168_2" vm2d:name="180" vm2d:type="grobject" xlink:href="#">
      <path d="M409.38,1125.8 L448.24,1125.8 448.24,1151.8 409.38,1151.8 Z" fill="#fff" fill-opacity="0"/>
      <g transform="matrix(4.72727,0,0,4.72727,0.136383,1404)">
        <text font-family="Arial" font-size="4.92" x="86.575" y="-54.3933" fill="#000">180</text>
      </g>
    </a>
    <g transform="matrix(4.72727,0,0,4.72727,0.136383,1404)" stroke-width="0.18" stroke-linecap="butt" stroke-linejoin="miter" stroke-miterlimit="10">
      <path stroke="#000" d="M90.682,-58.85 L90.021,-121.32"/>
    </g>
    <a id="_A56A6E3022214F5F8DE491B3967E7939_1" vm2d:name="190" vm2d:type="grobject" xlink:href="#">
      <path d="M364.26,1125.8 L403.12,1125.8 403.12,1151.8 364.26,1151.8 Z" fill="#fff" fill-opacity="0"/>
      <g transform="matrix(4.72727,0,0,4.72727,0.136383,1404)">
        <text font-family="Arial" font-size="4.92" x="77.0296" y="-54.3933" fill="#000">190</text>
      </g>
    </a>
    <g transform="matrix(4.72727,0,0,4.72727,0.136383,1404)" stroke-width="0.18" stroke-linecap="butt" stroke-linejoin="miter" stroke-miterlimit="10">
      <path stroke="#000" d="M81.136,-58.85 L82.554,-115.09"/>
    </g>
    <a id="_A56A6E3022214F5F8DE491B3967E7939_2" vm2d:name="190" vm2d:type="grobject" xlink:href="#">
      <path d="M950.87,533 L989.73,533 989.73,559 950.87,559 Z" fill="#fff" fill-opacity="0"/>
      <g transform="matrix(4.72727,0,0,4.72727,0.136383,1404)">
        <text font-family="Arial" font-size="4.92" x="201.12" y="-179.793" fill="#000">190</text>
      </g>
    </a>
    <g transform="matrix(4.72727,0,0,4.72727,0.136383,1404)" stroke-width="0.18" stroke-linecap="butt" stroke-linejoin="miter" stroke-miterlimit="10">
      <path stroke="#000" d="M201.12,-178.75 L190.93,-178.63"/>
    </g>
    <a id="_9FA01D8690C847E186717565A078AAB2" vm2d:name="240" vm2d:type="grobject" xlink:href="#">
      <path d="M454.51,408.2 L493.37,408.2 493.37,434.2 454.51,434.2 Z" fill="#fff" fill-opacity="0"/>
      <g transform="matrix(4.72727,0,0,4.72727,0.136383,1404)">
        <text font-family="Arial" font-size="4.92" x="96.1205" y="-206.193" fill="#000">240</text>
      </g>
    </a>
    <g transform="matrix(4.72727,0,0,4.72727,0.136383,1404)" stroke-width="0.18" stroke-linecap="butt" stroke-linejoin="miter" stroke-miterlimit="10">
      <path stroke="#000" d="M100.23,-205.15 L101.28,-151.73"/>
    </g>
    <a id="_62CAC2FEAA9C490E8D3954A446FE749E" vm2d:name="230" vm2d:type="grobject" xlink:href="#">
      <path d="M544.76,408.2 L583.61,408.2 583.61,434.2 544.76,434.2 Z" fill="#fff" fill-opacity="0"/>
      <g transform="matrix(4.72727,0,0,4.72727,0.136383,1404)">
        <text font-family="Arial" font-size="4.92" x="115.211" y="-206.193" fill="#000">230</text>
      </g>
    </a>
    <g transform="matrix(4.72727,0,0,4.72727,0.136383,1404)" stroke-width="0.18" stroke-linecap="butt" stroke-linejoin="miter" stroke-miterlimit="10">
      <path stroke="#000" d="M119.32,-205.15 L118.03,-164.81"/>
    </g>
    <a id="_B698FE7D2D4A4C10B19DB54009FE32B5" vm2d:name="250" vm2d:type="grobject" xlink:href="#">
      <path d="M364.26,408.2 L403.12,408.2 403.12,434.2 364.26,434.2 Z" fill="#fff" fill-opacity="0"/>
      <g transform="matrix(4.72727,0,0,4.72727,0.136383,1404)">
        <text font-family="Arial" font-size="4.92" x="77.0296" y="-206.193" fill="#000">250</text>
      </g>
    </a>
    <g transform="matrix(4.72727,0,0,4.72727,0.136383,1404)" stroke-width="0.18" stroke-linecap="butt" stroke-linejoin="miter" stroke-miterlimit="10">
      <path stroke="#000" d="M81.136,-205.15 L83.646,-138.73"/>
    </g>
    <a id="_02C5533C19054EAFB4AFFE72BE3D54F2" vm2d:name="260" vm2d:type="grobject" xlink:href="#">
      <path d="M815.5,408.2 L854.36,408.2 854.36,434.2 815.5,434.2 Z" fill="#fff" fill-opacity="0"/>
      <g transform="matrix(4.72727,0,0,4.72727,0.136383,1404)">
        <text font-family="Arial" font-size="4.92" x="172.484" y="-206.193" fill="#000">260</text>
      </g>
    </a>
    <g transform="matrix(4.72727,0,0,4.72727,0.136383,1404)" stroke-width="0.18" stroke-linecap="butt" stroke-linejoin="miter" stroke-miterlimit="10">
      <path stroke="#000" d="M176.59,-205.15 L175.5,-191.91"/>
    </g>
    <a id="_8E8CF073C282423E852246A235195381" vm2d:name="320" vm2d:type="grobject" xlink:href="#">
      <path d="M3.2693,907.4 L42.127,907.4 42.127,933.4 3.2693,933.4 Z" fill="#fff" fill-opacity="0"/>
      <g transform="matrix(4.72727,0,0,4.72727,0.136383,1404)">
        <text font-family="Arial" font-size="4.92" x="0.665922" y="-100.593" fill="#000">320</text>
      </g>
    </a>
    <g transform="matrix(4.72727,0,0,4.72727,0.136383,1404)" stroke-width="0.18" stroke-linecap="butt" stroke-linejoin="miter" stroke-miterlimit="10">
      <path stroke="#000" d="M8.8827,-102.3 L33.109,-102.3"/>
    </g>
    <a id="_D76A4AEBF9CE4F5AB3AC7CE95C653277_1" vm2d:name="290" vm2d:type="grobject" xlink:href="#">
      <path d="M3.2693,876.2 L42.127,876.2 42.127,902.2 3.2693,902.2 Z" fill="#fff" fill-opacity="0"/>
      <g transform="matrix(4.72727,0,0,4.72727,0.136383,1404)">
        <text font-family="Arial" font-size="4.92" x="0.665922" y="-107.193" fill="#000">290</text>
      </g>
    </a>
    <g transform="matrix(4.72727,0,0,4.72727,0.136383,1404)" stroke-width="0.18" stroke-linecap="butt" stroke-linejoin="miter" stroke-miterlimit="10">
      <path stroke="#000" d="M8.8827,-108.9 L12.387,-107.96"/>
    </g>
    <a id="_D76A4AEBF9CE4F5AB3AC7CE95C653277_2" vm2d:name="290" vm2d:type="grobject" xlink:href="#">
      <path d="M3.2693,845 L42.127,845 42.127,871 3.2693,871 Z" fill="#fff" fill-opacity="0"/>
      <g transform="matrix(4.72727,0,0,4.72727,0.136383,1404)">
        <text font-family="Arial" font-size="4.92" x="0.665922" y="-113.793" fill="#000">290</text>
      </g>
    </a>
    <g transform="matrix(4.72727,0,0,4.72727,0.136383,1404)" stroke-width="0.18" stroke-linecap="butt" stroke-linejoin="miter" stroke-miterlimit="10">
      <path stroke="#000" d="M8.8827,-115.5 L18.23,-111.34"/>
    </g>
    <a id="_D76A4AEBF9CE4F5AB3AC7CE95C653277_3" vm2d:name="290" vm2d:type="grobject" xlink:href="#">
      <path d="M138.64,1125.8 L177.5,1125.8 177.5,1151.8 138.64,1151.8 Z" fill="#fff" fill-opacity="0"/>
      <g transform="matrix(4.72727,0,0,4.72727,0.136383,1404)">
        <text font-family="Arial" font-size="4.92" x="29.3023" y="-54.3933" fill="#000">290</text>
      </g>
    </a>
    <g transform="matrix(4.72727,0,0,4.72727,0.136383,1404)" stroke-width="0.18" stroke-linecap="butt" stroke-linejoin="miter" stroke-miterlimit="10">
      <path stroke="#000" d="M33.409,-58.85 L30.916,-76.434"/>
    </g>
    <a id="_D76A4AEBF9CE4F5AB3AC7CE95C653277_4" vm2d:name="290" vm2d:type="grobject" xlink:href="#">
      <path d="M183.77,1125.8 L222.62,1125.8 222.62,1151.8 183.77,1151.8 Z" fill="#fff" fill-opacity="0"/>
      <g transform="matrix(4.72727,0,0,4.72727,0.136383,1404)">
        <text font-family="Arial" font-size="4.92" x="38.8477" y="-54.3933" fill="#000">290</text>
      </g>
    </a>
    <g transform="matrix(4.72727,0,0,4.72727,0.136383,1404)" stroke-width="0.18" stroke-linecap="butt" stroke-linejoin="miter" stroke-miterlimit="10">
      <path stroke="#000" d="M38.845,-58.85 L36.759,-79.813"/>
    </g>
    <a id="_D76A4AEBF9CE4F5AB3AC7CE95C653277_5" vm2d:name="290" vm2d:type="grobject" xlink:href="#">
      <path d="M3.2693,938.6 L42.127,938.6 42.127,964.6 3.2693,964.6 Z" fill="#fff" fill-opacity="0"/>
      <g transform="matrix(4.72727,0,0,4.72727,0.136383,1404)">
        <text font-family="Arial" font-size="4.92" x="0.665922" y="-93.9933" fill="#000">290</text>
      </g>
    </a>
    <g transform="matrix(4.72727,0,0,4.72727,0.136383,1404)" stroke-width="0.18" stroke-linecap="butt" stroke-linejoin="miter" stroke-miterlimit="10">
      <path stroke="#000" d="M8.8827,-98.45 L14.838,-99.068"/>
    </g>
    <a id="_D76A4AEBF9CE4F5AB3AC7CE95C653277_6" vm2d:name="290" vm2d:type="grobject" xlink:href="#">
      <path d="M3.2693,1001 L42.127,1001 42.127,1027 3.2693,1027 Z" fill="#fff" fill-opacity="0"/>
      <g transform="matrix(4.72727,0,0,4.72727,0.136383,1404)">
        <text font-family="Arial" font-size="4.92" x="0.665922" y="-80.7933" fill="#000">290</text>
      </g>
    </a>
    <g transform="matrix(4.72727,0,0,4.72727,0.136383,1404)" stroke-width="0.18" stroke-linecap="butt" stroke-linejoin="miter" stroke-miterlimit="10">
      <path stroke="#000" d="M8.8827,-82.5 L23.516,-83.731"/>
    </g>
    <a id="_38FF3693E4014B6C8908177C63A9049B" vm2d:name="210" vm2d:type="grobject" xlink:href="#">
      <path d="M725.25,408.2 L764.11,408.2 764.11,434.2 725.25,434.2 Z" fill="#fff" fill-opacity="0"/>
      <g transform="matrix(4.72727,0,0,4.72727,0.136383,1404)">
        <text font-family="Arial" font-size="4.92" x="153.393" y="-206.193" fill="#000">210</text>
      </g>
    </a>
    <g transform="matrix(4.72727,0,0,4.72727,0.136383,1404)" stroke-width="0.18" stroke-linecap="butt" stroke-linejoin="miter" stroke-miterlimit="10">
      <path stroke="#000" d="M157.5,-205.15 L158.49,-181.7"/>
    </g>
    <a id="_DAEC2895B94F4964997AC156B89C8757" vm2d:name="220" vm2d:type="grobject" xlink:href="#">
      <path d="M770.38,408.2 L809.23,408.2 809.23,434.2 770.38,434.2 Z" fill="#fff" fill-opacity="0"/>
      <g transform="matrix(4.72727,0,0,4.72727,0.136383,1404)">
        <text font-family="Arial" font-size="4.92" x="162.939" y="-206.193" fill="#000">220</text>
      </g>
    </a>
    <g transform="matrix(4.72727,0,0,4.72727,0.136383,1404)" stroke-width="0.18" stroke-linecap="butt" stroke-linejoin="miter" stroke-miterlimit="10">
      <path stroke="#000" d="M162.94,-205.15 L160.79,-189.34"/>
    </g>
    <a id="_4850CD8656DE4375A145ABFEE11C628B" vm2d:name="170" vm2d:type="grobject" xlink:href="#">
      <path d="M499.63,408.2 L538.49,408.2 538.49,434.2 499.63,434.2 Z" fill="#fff" fill-opacity="0"/>
      <g transform="matrix(4.72727,0,0,4.72727,0.136383,1404)">
        <text font-family="Arial" font-size="4.92" x="105.666" y="-206.193" fill="#000">170</text>
      </g>
    </a>
    <g transform="matrix(4.72727,0,0,4.72727,0.136383,1404)" stroke-width="0.18" stroke-linecap="butt" stroke-linejoin="miter" stroke-miterlimit="10">
      <path stroke="#000" d="M109.77,-205.15 L111.49,-138.35"/>
    </g>
    <a id="_66FFC1E620174B0EB086BA7136382D20" vm2d:name="310" vm2d:type="grobject" xlink:href="#">
      <path d="M319.14,1125.8 L358,1125.8 358,1151.8 319.14,1151.8 Z" fill="#fff" fill-opacity="0"/>
      <g transform="matrix(4.72727,0,0,4.72727,0.136383,1404)">
        <text font-family="Arial" font-size="4.92" x="67.4841" y="-54.3933" fill="#000">310</text>
      </g>
    </a>
    <g transform="matrix(4.72727,0,0,4.72727,0.136383,1404)" stroke-width="0.18" stroke-linecap="butt" stroke-linejoin="miter" stroke-miterlimit="10">
      <path stroke="#000" d="M71.591,-58.85 L71.365,-99.214"/>
    </g>
    <a id="_CF3EB8DC8C1A4994A1060127C09B2A0A" vm2d:name="150" vm2d:type="grobject" xlink:href="#">
      <path d="M950.87,626.6 L989.73,626.6 989.73,652.6 950.87,652.6 Z" fill="#fff" fill-opacity="0"/>
      <g transform="matrix(4.72727,0,0,4.72727,0.136383,1404)">
        <text font-family="Arial" font-size="4.92" x="201.12" y="-159.993" fill="#000">150</text>
      </g>
    </a>
    <g transform="matrix(4.72727,0,0,4.72727,0.136383,1404)" stroke-width="0.18" stroke-linecap="butt" stroke-linejoin="miter" stroke-miterlimit="10">
      <path stroke="#000" d="M201.12,-158.95 L157.97,-158.93"/>
    </g>
    <a id="_00F5D77B9B274BA3B4751BF3B6BDDA45" vm2d:name="160" vm2d:type="grobject" xlink:href="#">
      <path d="M635,408.2 L673.86,408.2 673.86,434.2 635,434.2 Z" fill="#fff" fill-opacity="0"/>
      <g transform="matrix(4.72727,0,0,4.72727,0.136383,1404)">
        <text font-family="Arial" font-size="4.92" x="134.302" y="-206.193" fill="#000">160</text>
      </g>
    </a>
    <g transform="matrix(4.72727,0,0,4.72727,0.136383,1404)" stroke-width="0.18" stroke-linecap="butt" stroke-linejoin="miter" stroke-miterlimit="10">
      <path stroke="#000" d="M138.41,-205.15 L140.48,-168.31"/>
    </g>
    <a id="_16CD8FB209304DE799A7663F425ECA47" vm2d:name="270" vm2d:type="grobject" xlink:href="#">
      <path d="M3.2693,751.4 L42.127,751.4 42.127,777.4 3.2693,777.4 Z" fill="#fff" fill-opacity="0"/>
      <g transform="matrix(4.72727,0,0,4.72727,0.136383,1404)">
        <text font-family="Arial" font-size="4.92" x="0.665922" y="-133.593" fill="#000">270</text>
      </g>
    </a>
    <g transform="matrix(4.72727,0,0,4.72727,0.136383,1404)" stroke-width="0.18" stroke-linecap="butt" stroke-linejoin="miter" stroke-miterlimit="10">
      <path stroke="#000" d="M8.8827,-132.55 L68.914,-131.4"/>
    </g>
  </g>
</svg>
