<?xml version="1.0" encoding="UTF-8" standalone="no"?>
<!DOCTYPE svg SYSTEM "http://www.w3.org/Graphics/SVG/1.1/DTD/svg11.dtd" [
<!ENTITY % SVG.External.attrib
"xmlns:vm2d CDATA #FIXED 'http://www.cortona3d.com/vm2d'
vm2d:name CDATA #IMPLIED
vm2d:type CDATA #IMPLIED">
]>
<svg xmlns="http://www.w3.org/2000/svg" xmlns:vm2d="http://www.cortona3d.com/vm2d" xmlns:xlink="http://www.w3.org/1999/xlink" version="1.1" width="210mm" height="297mm" viewBox="0 0 993 1404" fill="none" fill-rule="evenodd" stroke-miterlimit="5">
  <title>Relief Valve Assy View</title>
  <desc>"Generator:ParallelGraphics Cortona2D","ProfileId:WebCGM""ProfileEd:2.1""ColourClass:colour""Source:Cortona3D RapidCatalog v.9.0.0.332""Date:20160509"</desc>
  <rect width="993" height="1404" fill="#fff"/>
  <defs/>
  <g id="AUTOID_001" vm2d:name="C3DDrawing" vm2d:type="layer">
    <g transform="matrix(4.72727,0,0,4.72727,0.136383,1404)" stroke-width="0.35" stroke-linecap="round" stroke-linejoin="round" stroke-miterlimit="10">
      <path stroke="#000" d="M144.42,-142.08 L143.1,-142.87 M145.31,-142.59 L144.42,-142.08 M145.99,-143.5 L145.34,-145.21 M142.46,-144.58 L143.14,-145.49 144.02,-146 M146.25,-145.82 L146.52,-145.58 M145.91,-146.1 L145.65,-145.96 145.65,-145.95 M146.49,-144.27 L146.5,-144.27 146.73,-144.39 146.81,-144.72 146.7,-145.16 146.43,-145.59 146.07,-145.89 145.7,-145.98 145.43,-145.83 145.42,-145.82 M146.24,-144.13 L146.25,-144.13 146.49,-144.25 146.56,-144.58 146.46,-145.02 146.19,-145.45 145.82,-145.75 145.46,-145.84 145.18,-145.69 145.18,-145.68 M146,-143.99 L146,-143.98 146.24,-144.11 146.32,-144.44 146.21,-144.88 145.94,-145.31 145.58,-145.61 145.21,-145.69 144.93,-145.54 144.93,-145.53 M145.84,-143.89 L145.99,-143.97 146.07,-144.29 145.96,-144.73 145.69,-145.16 145.33,-145.46 144.96,-145.55 144.87,-145.5 M145.79,-144.02 L145.82,-144.15 145.71,-144.59 145.45,-145.02 145.4,-145.06 M145.91,-146.1 L146.25,-145.82 M146.52,-145.58 L146.71,-145.24 146.78,-144.89 146.77,-144.88 M144.02,-146 L145.34,-145.21 M145.99,-143.5 L145.31,-142.59 M142.46,-144.58 L143.1,-142.87 M128.94,-176.87 L129.61,-177.79 M128.08,-176.38 L128.94,-176.87 M126.76,-177.17 L128.08,-176.38 M126.12,-178.88 L126.76,-177.17 M126.8,-179.79 L126.12,-178.88 M128.97,-179.49 L129.61,-177.79 M127.65,-180.29 L128.97,-179.49 M130.13,-178.57 L130.16,-178.57 130.39,-178.69 130.46,-179.02 130.36,-179.46 130.09,-179.89 129.72,-180.19 129.35,-180.27 129.08,-180.12 129.07,-180.11 M129.87,-178.42 L129.89,-178.42 130.13,-178.54 130.2,-178.87 130.09,-179.31 129.82,-179.74 129.46,-180.04 129.09,-180.12 128.81,-179.97 128.81,-179.96 M129.61,-178.27 L129.63,-178.26 129.86,-178.39 129.94,-178.72 129.83,-179.16 129.56,-179.58 129.2,-179.88 128.83,-179.97 128.55,-179.82 128.55,-179.81 M129.47,-178.17 L129.6,-178.24 129.68,-178.57 129.57,-179 129.3,-179.43 128.93,-179.73 128.57,-179.82 128.49,-179.78 M129.4,-178.35 L129.42,-178.41 129.31,-178.85 129.07,-179.22 M129.92,-180.12 L130.18,-179.88 130.37,-179.54 M129.32,-180.26 L129.31,-180.25 M130.43,-179.16 L130.44,-179.19 130.37,-179.54 M129.92,-180.12 L129.57,-180.4 129.32,-180.26 M126.8,-179.79 L127.65,-180.29 M138.7,-159.29 L138.57,-159.7 138.38,-160.11 136.21,-163.87 135.95,-164.24 135.66,-164.55 135.34,-164.78 135.02,-164.92 134.73,-164.95 134.47,-164.87 M138.7,-158.56 L138.74,-158.9 138.7,-159.29 M138.38,-158.11 L138.57,-158.29 138.7,-158.56 M136.89,-158.25 L136.59,-158.56 136.34,-158.93 134.17,-162.69 133.97,-163.09 133.85,-163.51 133.81,-163.9 133.85,-164.24 133.97,-164.51 134.17,-164.69 M137.52,-157.88 L137.2,-158.01 136.89,-158.25 M138.07,-157.93 L137.82,-157.85 137.52,-157.88 M138.07,-157.93 L138.38,-158.11 M134.47,-164.87 L134.17,-164.69 M137.29,-159.48 L137.21,-159.69 137.21,-159.77 M135.33,-163.03 L135.26,-163.07 135.12,-163.24 135.04,-163.44 135.04,-163.52 M137.29,-159.48 L137.43,-159.31 137.5,-159.27 M135.11,-163.48 L134.96,-163.58 134.82,-163.56 M135.25,-162.81 L135.33,-162.93 135.33,-163.11 135.25,-163.31 135.11,-163.48 M137.28,-159.73 L137.12,-159.82 136.99,-159.81 M137.5,-159.17 L137.5,-159.35 137.42,-159.56 137.28,-159.73 M137.5,-159.17 L137.42,-159.06 M129.88,-155.71 L130.1,-156.01 M130.38,-156.17 L130.82,-155.91 M130.1,-156.01 L130.38,-156.17 M129.88,-155.71 L130.08,-155.15 M131.02,-155.35 L130.82,-155.91 M130.8,-155.06 L130.51,-154.89 M131.02,-155.35 L130.8,-155.06 M130.51,-154.89 L130.08,-155.15 M131.52,-156.5 L131.61,-156.47 131.7,-156.39 131.77,-156.29 131.82,-156.17 131.84,-156.05 131.82,-155.96 131.77,-155.9 M131.52,-156.5 L131.44,-156.49 M131.74,-156.53 L131.61,-156.55 131.51,-156.5 M131.74,-156.53 L131.78,-156.5 M131.89,-156.09 L131.84,-156.06 M131.92,-156.63 L131.79,-156.66 131.69,-156.61 131.67,-156.54 M131.92,-156.63 L131.96,-156.6 M132,-156.16 L131.99,-156.06 131.92,-156.02 131.84,-156.06 M132,-156.16 L132,-156.22 M132.08,-156.2 L132,-156.15 M132.1,-156.74 L131.97,-156.77 131.88,-156.71 131.85,-156.65 M132.1,-156.74 L132.15,-156.71 M132.19,-156.27 L132.17,-156.17 132.1,-156.13 132.02,-156.16 M132.19,-156.27 L132.18,-156.32 M132.26,-156.3 L132.18,-156.26 M132.29,-156.85 L132.16,-156.87 132.06,-156.82 132.03,-156.75 M132.37,-156.37 L132.35,-156.27 132.28,-156.24 132.21,-156.27 M132.37,-156.37 L132.36,-156.43 M132.44,-156.41 L132.37,-156.36 M132.47,-156.95 L132.34,-156.98 132.24,-156.92 132.22,-156.86 M132.55,-156.48 L132.53,-156.38 132.47,-156.34 132.39,-156.38 M132.61,-156.97 L132.69,-156.89 132.75,-156.78 132.78,-156.67 132.75,-156.58 M132.61,-156.97 L132.49,-157.06 132.41,-157.02 132.39,-156.97 M132.63,-156.51 L132.55,-156.47 M132.74,-156.58 L132.72,-156.48 132.65,-156.45 132.57,-156.48 M132.75,-156.58 L132.73,-156.57 M132.74,-156.58 L132.73,-156.64 M132.47,-156.95 L132.51,-156.92 M132.55,-156.48 L132.55,-156.54 M132.29,-156.85 L132.33,-156.81 M131.44,-156.49 L130.63,-156.02 M131.77,-155.9 L130.99,-155.45 M127.7,-159.47 L127.93,-159.77 M128.21,-159.93 L128.64,-159.67 M127.93,-159.77 L128.21,-159.93 M127.7,-159.47 L127.91,-158.92 M128.85,-159.11 L128.64,-159.67 M128.63,-158.82 L128.34,-158.65 M128.85,-159.11 L128.63,-158.82 M128.34,-158.65 L127.91,-158.92 M129.34,-160.26 L129.43,-160.23 129.53,-160.15 129.6,-160.05 129.65,-159.93 129.67,-159.81 129.65,-159.72 129.59,-159.66 M129.34,-160.26 L129.27,-160.25 M129.56,-160.29 L129.44,-160.32 129.34,-160.26 M129.56,-160.29 L129.61,-160.26 M129.72,-159.85 L129.67,-159.82 M129.75,-160.4 L129.62,-160.42 129.52,-160.37 129.49,-160.3 M129.75,-160.4 L129.79,-160.36 M129.83,-159.92 L129.81,-159.82 129.74,-159.79 129.67,-159.82 M129.83,-159.92 L129.82,-159.98 M129.9,-159.96 L129.83,-159.91 M129.93,-160.5 L129.8,-160.53 129.7,-160.47 129.68,-160.41 M129.93,-160.5 L129.97,-160.47 M130.01,-160.03 L130,-159.93 129.93,-159.89 129.85,-159.93 M130.01,-160.03 L130.01,-160.09 M130.09,-160.06 L130.01,-160.02 M130.11,-160.61 L129.99,-160.63 129.89,-160.58 129.86,-160.52 M130.2,-160.13 L130.18,-160.03 130.11,-160 130.03,-160.03 M130.2,-160.13 L130.19,-160.19 M130.27,-160.17 L130.19,-160.12 M130.3,-160.71 L130.17,-160.74 130.07,-160.69 130.04,-160.62 M130.38,-160.24 L130.36,-160.14 130.29,-160.1 130.22,-160.14 M130.43,-160.73 L130.52,-160.65 130.58,-160.54 130.6,-160.43 130.58,-160.35 M130.43,-160.73 L130.32,-160.83 130.24,-160.78 130.22,-160.73 M130.45,-160.27 L130.38,-160.23 M130.56,-160.35 L130.54,-160.24 130.48,-160.21 130.4,-160.24 M130.58,-160.35 L130.56,-160.34 M130.56,-160.35 L130.56,-160.4 M130.3,-160.71 L130.34,-160.68 M130.38,-160.24 L130.37,-160.3 M130.11,-160.61 L130.16,-160.57 M129.27,-160.25 L128.45,-159.78 M129.59,-159.66 L128.81,-159.21 M51.272,-101.89 L51.646,-102.41 M52.262,-102.76 L53.001,-102.33 M51.646,-102.41 L52.262,-102.76 M51.272,-101.89 L51.636,-100.94 M52.991,-100.86 L52.375,-100.5 M53.365,-101.38 L52.991,-100.86 M53.365,-101.38 L53.001,-102.33 M52.375,-100.5 L51.636,-100.94 M57.837,-105.3 L57.958,-105.25 58.079,-105.15 58.181,-105.01 58.249,-104.86 58.272,-104.7 58.247,-104.58 58.178,-104.5 M57.837,-105.3 L57.734,-105.28 M58.303,-105.43 L58.123,-105.46 57.982,-105.38 57.932,-105.26 M58.303,-105.43 L58.394,-105.41 M58.315,-104.62 L58.249,-104.59 M58.273,-105.44 L58.315,-105.46 M58.53,-104.86 L58.347,-104.75 M58.315,-104.62 L58.347,-104.75 M58.669,-105.64 L58.488,-105.67 58.347,-105.59 58.284,-105.44 M58.669,-105.64 L58.759,-105.62 M58.681,-104.83 L58.713,-104.96 M58.601,-104.79 L58.681,-104.83 M58.639,-105.65 L58.681,-105.67 M58.895,-105.07 L58.713,-104.96 M59.034,-105.85 L58.854,-105.88 58.713,-105.8 58.65,-105.65 M59.034,-105.85 L59.125,-105.83 M59.046,-105.04 L59.078,-105.17 M58.966,-105 L59.046,-105.04 M59.004,-105.86 L59.046,-105.88 M59.261,-105.28 L59.078,-105.17 M59.4,-106.07 L59.219,-106.09 59.078,-106.01 59.015,-105.86 M59.412,-105.26 L59.444,-105.38 M59.332,-105.21 L59.412,-105.26 M59.37,-106.07 L59.412,-106.09 M59.627,-105.49 L59.444,-105.38 M59.765,-106.28 L59.585,-106.3 59.444,-106.22 59.381,-106.08 M59.777,-105.47 L59.698,-105.42 59.574,-105.46 M59.736,-106.28 L59.778,-106.3 M59.992,-105.7 L59.809,-105.59 M60.039,-106.36 L60.154,-106.25 60.238,-106.11 60.268,-105.95 60.236,-105.84 M60.039,-106.36 L59.89,-106.48 59.779,-106.41 59.743,-106.28 M60.143,-105.68 L60.063,-105.63 59.939,-105.67 M60.236,-105.84 L60.175,-105.81 M59.208,-105.25 L59.332,-105.21 M58.843,-105.04 L58.966,-105 M58.477,-104.83 L58.601,-104.79 M60.143,-105.68 L60.175,-105.81 M59.765,-106.28 L59.856,-106.25 M59.777,-105.47 L59.809,-105.59 M59.4,-106.07 L59.491,-106.04 M57.734,-105.28 L52.816,-102.44 M58.178,-104.5 L53.257,-101.66 M41.575,-118.81 L41.949,-119.33 M42.565,-119.69 L43.304,-119.26 M41.949,-119.33 L42.565,-119.69 M41.575,-118.81 L41.941,-117.86 M43.295,-117.78 L42.679,-117.43 M43.669,-118.3 L43.295,-117.78 M43.669,-118.3 L43.304,-119.26 M42.679,-117.43 L41.941,-117.86 M48.14,-122.22 L48.262,-122.18 48.383,-122.08 48.485,-121.94 48.553,-121.78 48.576,-121.63 48.551,-121.5 48.482,-121.42 M48.14,-122.22 L48.037,-122.2 M48.606,-122.36 L48.426,-122.38 48.285,-122.3 48.236,-122.19 M48.606,-122.36 L48.697,-122.33 M48.619,-121.55 L48.553,-121.51 M48.577,-122.36 L48.619,-122.39 M48.834,-121.78 L48.651,-121.68 M48.619,-121.55 L48.651,-121.68 M48.972,-122.57 L48.792,-122.59 48.651,-122.51 48.588,-122.37 M48.972,-122.57 L49.063,-122.54 M48.985,-121.76 L49.016,-121.89 M48.905,-121.71 L48.985,-121.76 M48.943,-122.57 L48.985,-122.6 M49.199,-121.99 L49.016,-121.89 M49.338,-122.78 L49.157,-122.8 49.016,-122.72 48.954,-122.58 M49.338,-122.78 L49.429,-122.75 M49.35,-121.97 L49.382,-122.1 M49.27,-121.93 L49.35,-121.97 M49.308,-122.78 L49.35,-122.81 M49.565,-122.2 L49.382,-122.1 M49.703,-122.99 L49.523,-123.01 49.382,-122.94 49.319,-122.79 M49.716,-122.18 L49.748,-122.31 M49.636,-122.14 L49.716,-122.18 M49.674,-122.99 L49.716,-123.02 M49.93,-122.41 L49.748,-122.31 M50.069,-123.2 L49.888,-123.23 49.747,-123.15 49.685,-123 M50.081,-122.39 L50.002,-122.35 49.877,-122.38 M50.04,-123.21 L50.081,-123.23 M50.296,-122.63 L50.113,-122.52 M50.343,-123.28 L50.457,-123.18 50.541,-123.03 50.571,-122.88 50.54,-122.77 M50.343,-123.28 L50.193,-123.4 50.083,-123.34 50.047,-123.21 M50.447,-122.6 L50.367,-122.56 50.243,-122.59 M50.54,-122.77 L50.479,-122.73 M49.512,-122.17 L49.636,-122.14 M49.146,-121.96 L49.27,-121.93 M48.781,-121.75 L48.905,-121.71 M50.447,-122.6 L50.479,-122.73 M50.069,-123.2 L50.16,-123.17 M50.081,-122.39 L50.113,-122.52 M49.703,-122.99 L49.794,-122.96 M48.037,-122.2 L43.12,-119.36 M48.482,-121.42 L43.561,-118.58 M97.265,-141.35 L96.557,-141.9 95.832,-142.3 95.137,-142.53 94.483,-142.58 93.9,-142.44 93.412,-142.12 93.071,-141.86 92.886,-141.61 M92.431,-140.3 L92.39,-139.98 92.397,-139.86 M92.598,-138.38 L92.623,-138.26 92.915,-137.35 93.325,-136.47 93.83,-135.65 94.409,-134.93 94.982,-134.32 95.147,-134.19 M96.257,-133.53 L96.687,-133.44 97.147,-133.42 97.643,-133.48 98.044,-133.73 98.355,-134.1 98.633,-134.51 98.782,-135.07 98.794,-135.74 98.662,-136.51 98.389,-137.34 97.981,-138.18 97.453,-139.01 96.821,-139.77 96.111,-140.44 95.348,-140.99 94.561,-141.38 93.781,-141.6 93.037,-141.65 92.359,-141.5 91.391,-140.96 90.914,-140.46 90.767,-140.18 M90.358,-139.02 L90.358,-139.02 90.3,-138.23 M90.512,-136.62 L90.592,-136.26 90.612,-136.2 90.92,-135.35 91.322,-134.54 91.376,-134.45 91.902,-133.67 92.482,-133 92.667,-132.84 M93.843,-132.1 L94.258,-131.98 94.766,-132 95.234,-132.13 95.662,-132.34 95.98,-132.73 96.133,-133.16 96.305,-133.67 96.347,-134.31 96.25,-135.04 96.016,-135.83 95.649,-136.65 95.163,-137.45 94.573,-138.21 93.902,-138.88 93.174,-139.43 92.417,-139.85 91.661,-140.1 90.933,-140.18 90.543,-140.18 89.841,-140.08 89.224,-139.79 88.717,-139.32 88.41,-138.81 M87.828,-136.46 L87.856,-135.93 88.034,-135.01 88.336,-134.1 88.743,-133.23 89.233,-132.45 89.783,-131.78 90.364,-131.25 90.526,-131.14 M91.569,-130.66 L91.942,-130.6 92.479,-130.58 92.932,-130.75 93.28,-131.1 93.613,-131.44 93.824,-131.94 93.902,-132.58 93.836,-133.31 93.628,-134.12 93.28,-134.97 92.806,-135.81 92.22,-136.6 91.545,-137.32 90.805,-137.93 90.029,-138.39 89.247,-138.7 88.487,-138.82 87.78,-138.76 87.152,-138.51 86.761,-138.32 86.231,-137.9 86.221,-137.88 M85.432,-135.13 L85.438,-134.83 85.447,-134.65 85.587,-133.77 M87.353,-130.44 C87.353,-130.44 87.636,-130.23 87.722,-130.08 87.773,-129.99 87.851,-129.91 87.943,-129.87 88.166,-129.76 88.317,-129.51 88.553,-129.44 88.757,-129.38 88.933,-129.23 89.143,-129.19 89.34,-129.16 89.541,-129.17 89.74,-129.16 89.926,-129.15 90.088,-129.31 90.274,-129.32 90.438,-129.33 90.613,-129.39 90.736,-129.5 90.876,-129.62 91.049,-129.71 91.176,-129.85 91.309,-129.99 91.363,-130.19 91.479,-130.35 91.614,-130.54 91.563,-130.81 91.673,-131.02 91.737,-131.13 91.788,-131.27 91.773,-131.4 91.745,-131.64 91.855,-131.89 91.809,-132.12 91.635,-133.02 91.542,-133.79 91.099,-134.61 90.191,-136.31 89.062,-137.23 87.306,-137.89 87.102,-137.96 86.862,-137.84 86.651,-137.9 86.519,-137.93 86.369,-137.94 86.242,-137.89 86.039,-137.81 85.805,-137.81 85.615,-137.7 85.433,-137.6 85.272,-137.47 85.106,-137.34 84.931,-137.21 84.858,-136.98 84.72,-136.81 84.64,-136.71 84.556,-136.59 84.547,-136.47 84.515,-136.06 84.265,-135.27 84.265,-135.27 M97.265,-141.35 L97.924,-140.66 98.514,-139.88 99.018,-139.03 99.405,-138.16 99.658,-137.31 99.758,-136.49 M97.265,-141.35 L97.377,-141.23 97.391,-141.21 M99.758,-136.49 L99.47,-136.17 98.941,-136.06 98.722,-136.17 M85.399,-134.99 L85.038,-134.77 84.688,-134.82 M98.373,-137.37 L98.28,-137.7 97.959,-138.45 97.543,-139.17 97.06,-139.83 96.524,-140.41 95.954,-140.88 95.374,-141.21 94.827,-141.41 94.317,-141.46 M94.484,-141.44 L94.412,-141.42 M93.63,-140.43 L93.583,-140.02 93.633,-139.31 93.695,-139.04 M96.28,-134.81 L96.624,-134.64 97.069,-134.54 97.306,-134.57 M97.012,-134.38 L97.324,-134.58 97.547,-134.91 97.591,-135.07 M97.589,-134.95 L97.6,-135.54 97.486,-136.2 97.253,-136.91 96.905,-137.62 96.457,-138.32 95.924,-138.97 95.327,-139.53 94.687,-139.99 94.029,-140.32 93.379,-140.5 92.761,-140.54 M93.113,-140.52 L92.627,-140.41 92.165,-140.15 92.006,-139.99 M91.537,-138.9 L91.484,-138.19 91.551,-137.41 91.58,-137.28 M93.797,-133.47 L93.819,-133.45 94.325,-133.16 94.461,-133.12 M94.366,-133.11 L94.759,-133.13 94.935,-133.22 M94.72,-132.96 L94.968,-133.26 95.113,-133.68 95.148,-134.21 95.066,-134.81 94.873,-135.46 M94.604,-136.05 L94.957,-135.27 M94.621,-136.03 L94.176,-136.77 93.635,-137.46 93.107,-137.99 92.503,-138.45 91.875,-138.79 91.247,-139 90.643,-139.07 90.087,-138.98 89.597,-138.75 M89.898,-138.9 L89.573,-138.59 89.561,-138.57 M89.077,-137.5 L89.03,-137.1 M89.183,-135.35 L89.443,-134.58 89.817,-133.79 90.268,-133.07 M90.486,-132.81 L90.159,-133.2 M91.793,-131.81 L92.027,-131.73 92.36,-131.72 M91.981,-131.55 L92.322,-131.68 92.582,-131.94 92.663,-132.13 M92.635,-131.92 L92.702,-132.45 92.647,-133.07 92.47,-133.76 92.174,-134.47 91.772,-135.18 91.275,-135.85 90.703,-136.46 90.077,-136.97 89.421,-137.36 88.76,-137.62 88.119,-137.73 M88.377,-137.68 L88.089,-137.66 M86.856,-136.78 L86.703,-136.37 86.595,-135.68 86.609,-134.93 86.736,-134.14 86.972,-133.36 87.301,-132.6 87.708,-131.91 88.171,-131.31 88.668,-130.82 89.173,-130.46 89.564,-130.3 M89.23,-130.31 L89.704,-130.29 90.133,-130.43 90.265,-130.53 M90.153,-130.35 L90.405,-130.76 90.574,-131.29 90.615,-131.91 90.541,-132.59 90.353,-133.31 90.049,-134.02 89.664,-134.71 89.194,-135.34 88.669,-135.88 88.099,-136.31 87.532,-136.62 86.967,-136.78 86.439,-136.79 85.959,-136.65 M86.053,-136.67 L85.943,-136.6 85.679,-136.21 85.399,-134.99 M22.357,-101.03 L19.91,-99.275"/>
      <path stroke="#000" d="M23.823,-101.87 L22.357,-101.03 M27.406,-98.922 L28.543,-94.218 M27.406,-98.922 L23.823,-101.87 M21.046,-94.572 L19.91,-99.275 M21.046,-94.572 L24.63,-91.626 M26.096,-92.461 L28.543,-94.218 M24.63,-91.626 L26.096,-92.461 M27.319,-101.24 L28.107,-100.78 28.832,-99.998 29.383,-99.025 29.676,-98.005 29.667,-97.094 29.356,-96.431 M27.319,-101.24 L26.588,-101.32 26.024,-101.01 M28.365,-100.82 L27.323,-101.3 27.137,-101.26 M28.365,-100.82 L29.301,-99.826 29.895,-98.583 30.002,-97.436 29.609,-96.7 29.473,-96.679 M26.962,-101.28 L27.094,-101.49 27.977,-101.67 29.019,-101.2 29.955,-100.2 30.549,-98.956 30.656,-97.808 30.263,-97.073 29.768,-96.997 M27.576,-101.59 L27.748,-101.86 28.631,-102.04 29.673,-101.57 30.609,-100.57 31.203,-99.328 31.31,-98.181 30.917,-97.445 30.422,-97.369 M28.23,-101.96 L28.402,-102.24 29.285,-102.42 30.327,-101.94 31.263,-100.94 31.857,-99.7 31.964,-98.553 31.571,-97.817 31.075,-97.741 M28.884,-102.34 L29.056,-102.61 29.939,-102.79 30.981,-102.31 31.917,-101.32 32.511,-100.07 32.618,-98.925 32.225,-98.19 31.729,-98.114 M29.538,-102.71 L29.71,-102.98 30.593,-103.16 31.635,-102.69 32.571,-101.69 33.165,-100.45 33.272,-99.298 32.879,-98.562 32.383,-98.486 M30.192,-103.08 L30.364,-103.35 31.247,-103.53 32.289,-103.06 33.224,-102.06 33.819,-100.82 33.926,-99.67 33.533,-98.934 33.037,-98.858 M30.846,-103.45 L31.018,-103.73 31.901,-103.91 32.943,-103.43 33.878,-102.43 34.472,-101.19 34.58,-100.04 34.187,-99.307 33.691,-99.231 M31.473,-103.82 L31.617,-104.07 32.446,-104.22 33.342,-103.26 34.02,-102.47 34.435,-101.49 34.446,-101.25 M29.356,-96.431 L28.171,-95.756 M26.024,-101.01 L25.341,-100.62 M35.06,-102.54 L33.741,-107.97 M38.252,-110.94 L36.578,-109.98 33.741,-107.97 M35.06,-102.54 L39.215,-99.133 40.89,-100.1 M42.407,-107.53 L38.252,-110.94 M40.89,-100.1 L43.726,-102.11 M42.407,-107.53 L43.726,-102.11 M36.652,-105.85 L36.874,-104.94 37.313,-104.04 37.918,-103.25 38.616,-102.68 39.322,-102.39 39.495,-102.4 M36.835,-107.02 L36.676,-106.66 36.652,-105.85 M37.959,-102.3 L38.665,-102.01 39.219,-102.03 M37.959,-102.3 L37.262,-102.87 36.657,-103.66 36.217,-104.56 35.996,-105.47 36.019,-106.28 36.285,-106.89 36.455,-107.01 M39.273,-103.06 L39.658,-102.9 M39.273,-103.06 L38.575,-103.63 37.97,-104.42 37.53,-105.32 37.309,-106.23 37.328,-106.9 M35.996,-108.45 L35.745,-108.31 35.031,-107.8 34.632,-106.88 34.596,-105.67 34.928,-104.3 35.588,-102.95 36.496,-101.77 37.543,-100.91 38.602,-100.48 39.546,-100.51 39.797,-100.66 M38.912,-101.81 L39.388,-102.15 39.654,-102.76 39.678,-103.57 39.457,-104.48 39.017,-105.38 38.412,-106.17 37.714,-106.74 37.008,-107.03 36.38,-107.01 M37.794,-106.67 L37.789,-106.51 38.011,-105.6 38.45,-104.69 39.056,-103.91 39.673,-103.4 M74.065,-110.93 L73.823,-110.57 73.485,-110.34 M71.644,-109.28 L73.485,-110.34 M74.065,-110.93 C74.891,-113.07 72.458,-115.09 72.005,-117.06 71.416,-119.63 70.677,-121.88 69.185,-124.09 67.945,-125.93 66.148,-127.08 64.848,-128.81 64.26,-129.59 64.043,-130.56 63.451,-131.33 62.961,-131.97 61.616,-133.21 60.741,-132.42 M71.644,-109.28 C70.452,-108.89 69.643,-110.21 68.388,-109.62 66.669,-108.81 65.53,-108.73 63.693,-109.4 62.038,-110.01 60.954,-111.27 59.592,-112.3 59.271,-112.55 58.932,-112.69 58.544,-112.79 58.388,-112.83 58.222,-112.8 58.061,-112.81 57.91,-112.82 57.752,-112.81 57.606,-112.85 57.438,-112.89 57.268,-112.95 57.116,-113.03 M55.368,-114.95 C55.739,-114.15 56.38,-113.44 57.116,-113.03 M55.368,-114.95 C55.021,-115.7 54.797,-116.51 55.002,-117.34 55.039,-117.48 55.132,-117.61 55.198,-117.75 55.268,-117.9 55.355,-118.03 55.413,-118.19 55.544,-118.53 55.536,-118.98 55.51,-119.34 55.381,-121.1 54.86,-122.57 55.019,-124.38 55.127,-125.6 55.583,-126.58 56.347,-127.51 56.898,-128.17 57.774,-128.24 58.193,-128.99 58.59,-129.69 58.133,-130.84 58.901,-131.36 M70.569,-111.92 L70.489,-112.11 70.363,-112.28 70.215,-112.38 70.074,-112.41 M70.536,-111.61 L70.585,-111.74 70.569,-111.92 M60.676,-128.44 L60.785,-128.5 60.836,-128.64 60.819,-128.83 60.737,-129.02 60.606,-129.19 60.453,-129.3 60.307,-129.33 60.198,-129.26 M57.358,-115.36 L57.332,-115.21 57.247,-115.13 M57.358,-115.36 L57.32,-115.55 57.225,-115.73 57.092,-115.87 56.948,-115.95 56.82,-115.94 M58.901,-131.36 L60.741,-132.42 M61.121,-121.19 L60.987,-121.07 60.783,-120.62 60.714,-120.05 60.783,-119.4 60.987,-118.71 61.312,-118.03 61.735,-117.42 62.227,-116.9 62.755,-116.51 63.284,-116.29 63.776,-116.24 63.951,-116.29 M61.578,-121.22 L61.492,-121.03 61.422,-120.46 61.492,-119.81 61.696,-119.12 62.02,-118.44 62.443,-117.82 62.935,-117.3 63.464,-116.92 63.992,-116.69 64.202,-116.67 M62.152,-121.04 L62.131,-120.86 62.2,-120.21 62.404,-119.53 62.729,-118.85 63.151,-118.23 63.644,-117.71 64.172,-117.33 64.336,-117.26 M61.788,-121.2 L62.316,-120.97 62.845,-120.59 63.337,-120.07 63.76,-119.45 64.085,-118.77 64.288,-118.09 64.358,-117.44 64.288,-116.87 64.085,-116.41 63.76,-116.11 M61.788,-121.2 L61.296,-121.25 60.873,-121.11 M62.777,-120.64 L62.786,-120.55 62.99,-119.87 63.315,-119.19 63.737,-118.57 64.23,-118.05 64.297,-118 M64.552,-114.74 L63.897,-114.54 63.135,-114.62 62.316,-114.96 61.498,-115.56 60.736,-116.37 60.081,-117.32 59.578,-118.37 59.263,-119.43 59.155,-120.44 59.263,-121.32 59.578,-122.02 60.081,-122.49 M64.853,-114.92 L64.552,-114.74 M60.381,-122.66 L60.081,-122.49 M51.474,-111.33 L52.221,-111.4 M52.875,-111.77 L52.875,-112.77 M52.221,-111.4 L52.875,-111.77 M51.743,-111.99 L51.784,-112.14 51.743,-112.35 51.629,-112.55 51.474,-112.68 51.318,-112.72 M51.474,-111.33 L50.726,-112.26 M50.726,-113.26 L50.726,-112.26 M52.128,-113.7 L52.875,-112.77 M51.38,-113.63 L50.726,-113.26 M52.128,-113.7 L51.38,-113.63 M77.23,-119.83 L75.87,-120.41 74.509,-121.4 73.241,-122.74 72.152,-124.33 71.317,-126.07 70.792,-127.84 70.613,-129.51 70.792,-130.98 71.317,-132.14 72.152,-132.92 M77.789,-120.69 L76.526,-121.22 75.263,-122.14 74.086,-123.39 73.075,-124.87 72.299,-126.48 71.812,-128.12 71.645,-129.68 71.812,-131.04 72.299,-132.12 72.79,-132.57 M77.23,-119.83 L78.498,-119.7 79.587,-120.04 M77.789,-120.69 L78.966,-120.57 79.605,-120.77 M79.321,-120.5 L80.096,-121.22 80.584,-122.3 80.75,-123.66 80.584,-125.22 80.096,-126.86 79.321,-128.47 78.31,-129.95 77.133,-131.19 75.87,-132.11 74.607,-132.65 73.43,-132.77 72.419,-132.46 M80.243,-120.42 C82.388,-121.45 82.463,-125.17 80.41,-128.72 78.357,-132.28 74.954,-134.33 72.808,-133.3 72.808,-133.3 72.808,-133.3 72.808,-133.3 M80.243,-120.42 L79.587,-120.04 M72.808,-133.3 L72.152,-132.92 M114.89,-142.7 L114.51,-142.28 113.8,-142.24 113.66,-142.34 M97.918,-143.72 L97.403,-143.55 96.711,-143.76 96.361,-144.2 M114.89,-142.7 L114.72,-144.61 114.07,-146.71 112.93,-148.73 111.47,-150.49 109.82,-151.78 108.16,-152.49 106.65,-152.52 105.47,-151.87 105.05,-151.59 104.86,-151.27 M104.14,-149.28 L104.1,-148.98 M104.25,-147.06 L104.31,-146.58 104.73,-145.41 M106.91,-141.59 L107.62,-140.75 108.74,-139.8 M110.25,-139 C110.25,-139 110.39,-138.93 110.46,-138.91 110.84,-138.77 111.28,-139.06 111.67,-138.98 111.87,-138.93 112.12,-138.96 112.28,-139.09 112.59,-139.32 112.9,-139.56 113.16,-139.85 113.48,-140.19 113.34,-140.79 113.58,-141.19 113.68,-141.35 113.74,-141.54 113.71,-141.72 113.61,-142.27 113.76,-142.87 113.59,-143.4 113.39,-144.04 113.26,-144.71 112.96,-145.31 112.63,-145.97 112.31,-146.64 111.87,-147.23 110.45,-149.16 109.03,-150.05 106.94,-151.07 106.29,-151.39 105.45,-151.52 104.76,-151.28 104.26,-151.1 103.71,-151.03 103.26,-150.76 102.79,-150.48 102.54,-149.95 102.14,-149.58 102.08,-149.52 102.04,-149.34 102.04,-149.34 M101.28,-146.17 L101.25,-145.52 101.66,-143.36 102.5,-141.27 103.68,-139.43 105.05,-138.04 105.61,-137.71 M107.12,-137.06 C107.12,-137.06 107.93,-136.8 108.32,-136.92 108.69,-137.03 109,-137.28 109.34,-137.45 109.53,-137.54 109.67,-137.74 109.72,-137.93 109.83,-138.34 110.23,-138.65 110.28,-139.07 110.53,-141.09 109.92,-142.83 108.92,-144.58 M108.92,-144.58 C107.83,-146.5 105.74,-148.4 104.07,-149 M104.07,-149 C103.5,-149.2 102.89,-149.29 102.29,-149.39 101.76,-149.47 101.25,-149.1 100.71,-149.1 100.55,-149.1 100.36,-149.06 100.23,-148.95 99.907,-148.67 99.205,-148.17 99.205,-148.17 M97.956,-143.96 C97.956,-143.96 97.992,-142.72 98.16,-142.13 98.357,-141.43 98.575,-140.73 98.838,-140.06 99.097,-139.39 99.553,-138.81 99.875,-138.17 100.17,-137.59 100.8,-137.22 101.14,-136.66 101.21,-136.55 101.32,-136.45 101.43,-136.39 101.96,-136.1 102.32,-135.48 102.9,-135.32 103.37,-135.2 103.81,-134.95 104.29,-134.92 104.73,-134.89 105.12,-135.25 105.56,-135.29 105.76,-135.31 105.98,-135.41 106.1,-135.57 106.38,-135.94 106.79,-136.21 107,-136.62 107.26,-137.09 107.25,-137.68 107.41,-138.19 107.6,-138.82 107.26,-139.5 107.29,-140.15 107.3,-140.28 107.3,-140.41 107.25,-140.53 107,-141.16 106.96,-141.89 106.63,-142.49 106.28,-143.13 105.98,-143.8 105.56,-144.4 105.15,-144.98 104.66,-145.52 104.19,-146.06 103.75,-146.55 103.14,-146.87 102.64,-147.3 102.21,-147.68 101.53,-147.66 101.06,-147.98 100.93,-148.06 100.79,-148.16 100.64,-148.15 100.11,-148.13 99.557,-148.31 99.048,-148.17 98.583,-148.04 98.188,-147.73 97.762,-147.5 97.611,-147.42 97.524,-147.24 97.469,-147.08 97.305,-146.61 96.724,-146.32 96.639,-145.83 96.546,-145.29 96.449,-144.74 96.361,-144.2 M112.73,-145.71 L112.64,-146.02 111.71,-147.72 110.52,-149.2 109.18,-150.29 107.84,-150.89 M107.85,-150.89 L107.31,-150.9 M105.75,-149.57 L105.69,-149.46 M105.79,-149.57 L105.66,-148.46 105.72,-148.07 M106.48,-145.21 L106.57,-144.98 107.55,-143.29 108.07,-142.68 M110.64,-140.55 L110.35,-140.68 M110.63,-140.55 L111.56,-140.61 111.79,-140.81 M111.78,-140.77 L112.09,-141.81 111.99,-143.19 111.47,-144.76 110.57,-146.34 109.36,-147.76 107.95,-148.85 106.48,-149.51 105.08,-149.64 103.88,-149.23 M104.19,-149.33 L103.91,-149.03 M103.08,-147.56 L102.94,-147.18 102.93,-147.07 M102.96,-145 L103.19,-143.75 103.88,-142.02 104.85,-140.51 105.76,-139.57 M107.38,-138.67 L107.96,-138.59 M107.54,-138.38 L108.31,-138.77 108.73,-139.61 M108.76,-140.44 L108.7,-139.07 M108.77,-140.43 L108.38,-142.05 107.56,-143.76 106.38,-145.35 104.95,-146.66 103.4,-147.54 M103.53,-147.47 L102.34,-147.73 101.86,-147.64 M100.04,-146.51 L99.72,-145.89 99.495,-144.28 99.7,-142.48 100.3,-140.66 101.21,-139.02 102.33,-137.7 103.52,-136.83 104.23,-136.62 M104.03,-136.56 L105.03,-136.86 105.53,-137.43 M105.46,-137.17 L105.81,-138.44 105.74,-140.03 105.22,-141.74 104.32,-143.39 103.16,-144.83 101.86,-145.91 100.54,-146.5 99.295,-146.53 M99.473,-146.53 L98.794,-146.17 98.152,-145.18 97.918,-143.72 M82.835,-128.51 L82.816,-128.51 82.373,-128.84 81.96,-129.27 81.606,-129.79 81.334,-130.36 81.163,-130.93 81.105,-131.48 81.108,-131.5 M82.337,-127.42 L82.609,-127.67 82.78,-128.05 82.838,-128.53 82.78,-129.07 82.609,-129.65 82.337,-130.21 81.983,-130.73 81.57,-131.17 81.128,-131.49 80.685,-131.68 80.272,-131.72 79.918,-131.61 M84.256,-124.14 L84.954,-124.79 85.393,-125.76 85.543,-126.99 85.393,-128.39 84.954,-129.87 84.256,-131.32 83.346,-132.65 82.286,-133.77 81.149,-134.6 80.011,-135.08 78.952,-135.19 78.042,-134.91 M82.473,-123.06 L81.728,-123.37 M80.721,-123.93 L79.824,-124.58 78.59,-125.89 77.531,-127.44 76.717,-129.13 76.206,-130.85 76.088,-131.95 M76.108,-133.11 L76.206,-133.91 76.717,-135.04 77.531,-135.79 M82.473,-123.06 L83.707,-122.93 84.767,-123.26 M86.412,-124.21 C88.5,-125.21 88.573,-128.83 86.575,-132.29 84.577,-135.75 81.264,-137.75 79.176,-136.74 M86.412,-124.21 L84.767,-123.26 M79.176,-136.74 L77.531,-135.79 M112.54,-156.24 C113.07,-156.57 114.09,-157.23 114.78,-157.24 115.74,-157.26 116.59,-157.05 117.41,-156.54 M121.13,-152.61 C120.28,-154.19 118.98,-155.55 117.41,-156.54 M121.13,-144.02 C123.19,-145.01 123.19,-148.83 121.13,-152.61 M112.54,-156.24 L111.71,-155.47 111.18,-154.3 111,-152.84 111.18,-151.16 111.35,-150.58 M114.58,-145.06 L114.9,-144.72 116.26,-143.73 117.62,-143.15 118.89,-143.02 119.98,-143.36 M121.13,-144.02 L119.98,-143.36 M114.68,-145.64 L115.4,-145.33 116.08,-145.26 116.66,-145.44 M117.41,-145.87 L116.66,-145.44 M113.44,-152.76 L112.69,-152.33 112.24,-151.91 111.96,-151.29 111.86,-150.51 111.92,-149.94 M114.32,-145.9 L114.68,-145.64 M116.44,-144.34 L115.43,-144.77 114.45,-145.48 M111.64,-150.29 L111.62,-150.34 111.49,-151.59 111.62,-152.69 112.02,-153.56 112.64,-154.14 M116.44,-144.34 L117.39,-144.24 118.21,-144.49 M119.05,-144.98 L118.21,-144.49 M113.48,-154.62 L112.64,-154.14 M141.43,-164.53 L141.34,-164.55 M141.43,-164.53 L141.57,-164.44 141.68,-164.31 M141.43,-164.53 L141.44,-164.58 M141.27,-164.68 L142.96,-165.65 M141.27,-164.68 L141.21,-164.6 141.2,-164.58 M141.48,-163.94 L141.5,-163.92 141.62,-163.88 141.72,-163.9 143.41,-164.88 M147.02,-178.42 L147,-178.27 146.91,-178.18 M145.95,-193.23 L145.66,-193.33 145.41,-193.28 M145.95,-193.23 L146.25,-192.99 146.5,-192.66 146.66,-192.27 146.72,-191.9 146.66,-191.59 146.5,-191.4 M148.21,-191.32 L148.46,-191.37 148.75,-191.27 149.04,-191.03 149.29,-190.7 149.46,-190.32 149.52,-189.94 149.46,-189.64 149.29,-189.45 M144.59,-194.15 L143.18,-192.69 142.31,-190.58 142.04,-187.95 142.39,-184.97 142.81,-183.6 M158.85,-155.82 L159.84,-154.76 162.25,-152.97 164.66,-151.89 166.93,-151.59 168.91,-152.1 M149.79,-193.31 L150.04,-193.35 150.33,-193.25 150.63,-193.02 150.88,-192.68 151.04,-192.3 151.1,-191.92 151.04,-191.62 150.88,-191.43 M143.74,-189.45 L143.45,-189.55 143.2,-189.5 M143.74,-189.45 L144.03,-189.21 144.28,-188.87 144.45,-188.49 144.51,-188.12 144.45,-187.81 144.28,-187.62 M159.81,-187.42 C155.95,-193.95 150.33,-197.2 146.36,-195.18 M159.81,-187.42 C163.48,-181.2 167.08,-174.91 170.65,-168.63 M170.65,-153.1 C174.38,-155.54 174.38,-162.08 170.65,-168.63 M159.93,-183.66 L161.87,-182.21 163.67,-180.29 165.21,-178.02 166.41,-175.54 167.17,-173.02 167.46,-170.62 M138.5,-169.73 L138.25,-167.86 138.24,-167.37 138.33,-166.84 138.51,-166.29 138.77,-165.75 139.88,-163.82 M140.25,-163.19 L141.37,-161.24 141.71,-160.75 142.09,-160.32 142.51,-159.97 142.94,-159.74 144.68,-159.02 M151.44,-172.33 L145.35,-168.81 146.18,-167.07 147.27,-165.48 153.36,-169 M138.5,-169.73 L137.42,-171.14 136.54,-172.71 135.91,-174.36 135.57,-175.98 135.53,-177.47 135.81,-178.75 136.38,-179.73 137.21,-180.37 M144.68,-159.02 L145.36,-157.38 146.29,-155.83 147.39,-154.46 148.62,-153.36 149.9,-152.58 151.14,-152.18 152.29,-152.18 153.25,-152.58 M142.65,-162.14 L142.65,-162.33 142.57,-162.53 142.44,-162.7 142.28,-162.79 142.14,-162.78 M169.62,-158.97 L169.87,-159.02 170.16,-158.91 170.45,-158.68 170.7,-158.34 170.87,-157.96 170.93,-157.58 170.87,-157.28 170.7,-157.09 M167.95,-155.13 L167.65,-155.23 167.41,-155.18 M165.64,-156.41 L165.39,-156.74 165.1,-156.98 164.8,-157.08 164.56,-157.03 M163.02,-155.16 L163.27,-155.21 163.57,-155.11 163.86,-154.87 164.11,-154.53 164.27,-154.15 164.33,-153.78 164.27,-153.47 164.11,-153.28 M167.95,-155.13 L168.24,-154.89 168.49,-154.56 168.66,-154.18 168.71,-153.8 168.66,-153.5 168.49,-153.31 M165.64,-156.41 L165.81,-156.02 165.87,-155.65 165.81,-155.35 165.64,-155.15 M168.91,-152.1 L170.65,-153.1 M155.97,-187.46 L144.95,-181.1 M157.79,-187.33 L158.28,-186.94 158.74,-186.44 159.13,-185.86 159.45,-185.22 159.66,-184.58 159.76,-183.95 M144.77,-178.38 L144.56,-179.05 144.47,-179.69 144.51,-180.27 144.67,-180.75 144.95,-181.1 M157.86,-159.07 L168.75,-165.37"/>
      <path stroke="#000" d="M155.82,-159.61 L156.37,-159.22 156.92,-158.99 157.42,-158.94 157.86,-159.07 M155.82,-159.61 L155.31,-160.14 M169.53,-167.01 L169.43,-167.63 169.23,-168.28 168.92,-168.91 168.53,-169.5 168.08,-170 167.59,-170.4 M164.3,-158.96 L153.25,-152.58 M148.25,-186.75 L137.21,-180.37 M146.91,-178.79 L147,-178.6 147.02,-178.42 M156.67,-161.28 L156.75,-161.37 156.78,-161.51 156.75,-161.68 156.67,-161.86 156.55,-162.02 156.42,-162.13 156.28,-162.18 156.16,-162.16 M146.39,-179.09 L146.51,-179.12 146.65,-179.07 146.79,-178.95 146.91,-178.79 M152.53,-162.16 C154.49,-163.5 154.42,-167.47 152.37,-171.02 150.32,-174.57 147.06,-176.36 145.1,-175.02 145.1,-175.02 145.1,-175.02 145.1,-175.02 M142.65,-162.14 L142.57,-162.03 M140.27,-166.46 L140.11,-166.55 139.97,-166.54 M140.48,-165.9 L140.48,-166.08 140.4,-166.29 140.27,-166.46 M140.48,-165.9 L140.4,-165.79 M146.36,-195.18 L144.59,-194.15 M140.97,-164.35 L141.06,-164.32 M140.97,-164.35 L140.79,-164.38 140.65,-164.3 140.58,-164.15 M141,-163.66 L140.97,-163.53 140.88,-163.5 M141.37,-163.87 L141.33,-163.74 141.25,-163.7 M140.69,-164.11 L140.6,-164.14 140.42,-164.17 140.28,-164.09 140.21,-163.94 M140.63,-163.45 L140.6,-163.33 140.52,-163.29 M140.33,-163.9 L140.24,-163.93 140.06,-163.96 139.91,-163.88 139.84,-163.73 M140.25,-163.96 L140.19,-163.94 M140.45,-163.35 L140.27,-163.25 M139.88,-163.76 L139.83,-163.73 M140.08,-163.14 L139.9,-163.04 M139.51,-163.55 L139.46,-163.52 M139.39,-162.86 L139.51,-162.82 139.6,-162.86 M139.72,-162.93 L139.6,-162.86 M140.27,-163.25 L140.23,-163.12 140.15,-163.08 M139.96,-163.69 L139.87,-163.72 139.69,-163.75 139.55,-163.68 139.48,-163.53 M141.55,-163.98 L141.37,-163.87 M139.9,-163.04 L139.87,-162.91 139.78,-162.87 M139.59,-163.48 L139.5,-163.51 139.32,-163.54 139.18,-163.47 139.1,-163.31 139.14,-163.11 139.24,-162.92 139.39,-162.86 M141.72,-164.01 L141.7,-163.95 141.62,-163.91 M141.7,-164.26 L141.68,-164.31 M140.98,-164.38 L140.93,-164.35 M141.18,-163.77 L141,-163.66 M140.61,-164.17 L140.56,-164.14 M140.82,-163.56 L140.63,-163.45 M141.62,-163.91 L141.5,-163.95 M141.34,-164.55 L141.16,-164.58 141.01,-164.51 140.94,-164.36 M141.25,-163.7 L141.13,-163.74 M140.88,-163.5 L140.77,-163.53 M140.52,-163.29 L140.4,-163.32 M140.15,-163.08 L140.03,-163.11 M139.78,-162.87 L139.67,-162.91"/>
      <path stroke="#000" stroke-width="0.18" d="M144.42,-142.08 L145.1,-142.99 144.46,-144.7 M145.1,-142.99 L145.99,-143.5 M144.46,-144.7 L143.14,-145.49 M144.46,-144.7 L145.34,-145.21 M145.78,-144.32 L145.85,-144.35 M145.81,-144.19 L145.85,-144.35 145.76,-144.69 145.55,-145.02 M145.47,-144.97 L145.55,-145.02 M146.03,-144.46 L146.1,-144.5 M145.55,-145.02 L145.36,-145.17 M146.06,-144.33 L146.1,-144.5 146.01,-144.83 145.8,-145.16 M145.72,-145.12 L145.8,-145.16 M146.28,-144.6 L146.34,-144.64 M145.8,-145.16 L145.51,-145.39 145.39,-145.42 M146.31,-144.48 L146.34,-144.64 146.26,-144.97 146.04,-145.3 M145.97,-145.26 L146.04,-145.3 145.76,-145.53 145.63,-145.56 M146.55,-144.62 L146.59,-144.78 M146.52,-144.74 L146.59,-144.78 146.5,-145.12 146.29,-145.44 M146.22,-145.4 L146.29,-145.44 146.01,-145.67 145.88,-145.7 M146.78,-144.89 L146.77,-144.89 M146.46,-145.54 L146.52,-145.58 M146.13,-145.84 L146.25,-145.82 M126.8,-179.79 L128.12,-179 M128.97,-179.49 L128.12,-179 128.76,-177.29 128.08,-176.38 M128.76,-177.29 L129.61,-177.79 M129.07,-179.24 L129.15,-179.28 M129.01,-179.4 L129.15,-179.28 129.36,-178.96 M129.27,-178.91 L129.36,-178.96 129.45,-178.62 129.41,-178.43 M129.33,-179.39 L129.41,-179.44 M128.98,-179.7 L129.13,-179.66 129.41,-179.44 129.63,-179.11 M129.54,-179.06 L129.63,-179.11 129.72,-178.77 129.67,-178.58 M129.59,-179.54 L129.68,-179.59 M129.24,-179.85 L129.39,-179.81 129.68,-179.59 129.89,-179.26 M129.8,-179.21 L129.89,-179.26 129.98,-178.93 129.94,-178.73 M129.5,-180 L129.65,-179.97 129.94,-179.74 M129.85,-179.69 L129.94,-179.74 130.15,-179.41 M130.06,-179.36 L130.15,-179.41 130.24,-179.08 130.2,-178.88 M129.76,-180.15 L129.92,-180.12 M130.11,-179.84 L130.18,-179.88 M130.32,-179.51 L130.37,-179.54 M134.82,-163.56 L134.74,-163.45 134.74,-163.27 134.82,-163.06 134.96,-162.89 135.11,-162.8 135.25,-162.81 M136.99,-159.81 L136.91,-159.69 136.91,-159.51 136.99,-159.31 137.12,-159.14 137.28,-159.04 137.42,-159.06 M134.17,-164.69 L134.42,-164.77 134.72,-164.74 135.03,-164.61 135.35,-164.37 135.65,-164.06 135.9,-163.69 138.07,-159.93 138.27,-159.53 138.39,-159.11 138.43,-158.72 138.39,-158.38 138.27,-158.11 138.07,-157.93 M130.51,-154.89 L130.74,-155.19 M130.82,-155.91 L130.53,-155.74 130.74,-155.19 M130.53,-155.74 L130.1,-156.01 M130.74,-155.19 L131.02,-155.35 M132.44,-156.41 L132.45,-156.48 132.42,-156.59 132.34,-156.69 132.24,-156.76 132.14,-156.78 132.08,-156.75 M132.26,-156.85 L132.32,-156.88 132.42,-156.87 132.52,-156.8 132.6,-156.69 132.64,-156.59 132.63,-156.51 M132.44,-156.96 L132.5,-156.99 132.61,-156.97 M131.78,-156.5 L131.88,-156.43 131.96,-156.32 132,-156.22 M131.96,-156.6 L132.07,-156.53 132.14,-156.43 132.18,-156.32 M132.15,-156.71 L132.25,-156.64 132.33,-156.53 132.36,-156.43 M132.29,-156.85 L132.41,-156.75 132.51,-156.62 132.55,-156.48 M132.33,-156.81 L132.43,-156.74 132.51,-156.64 132.55,-156.54 M132.47,-156.95 L132.6,-156.86 132.69,-156.72 132.74,-156.58 M132.51,-156.92 L132.62,-156.85 132.69,-156.75 132.73,-156.64 M131.63,-156.45 L131.69,-156.44 131.79,-156.37 131.87,-156.27 131.9,-156.17 131.89,-156.09 M131.74,-156.53 L131.86,-156.43 131.96,-156.3 132,-156.16 M131.71,-156.53 L131.77,-156.57 131.87,-156.55 131.97,-156.48 132.05,-156.38 132.09,-156.27 132.08,-156.2 M131.92,-156.63 L132.05,-156.54 132.14,-156.4 132.19,-156.27 M131.89,-156.64 L131.95,-156.67 132.06,-156.65 132.16,-156.58 132.23,-156.48 132.27,-156.38 132.26,-156.3 M132.1,-156.74 L132.23,-156.65 132.33,-156.51 132.37,-156.37 M128.34,-158.65 L128.56,-158.95 M128.64,-159.67 L128.36,-159.5 128.56,-158.95 M128.36,-159.5 L127.93,-159.77 M128.56,-158.95 L128.85,-159.11 M130.27,-160.17 L130.28,-160.24 130.24,-160.35 130.17,-160.45 130.07,-160.52 129.96,-160.54 129.9,-160.51 M130.09,-160.61 L130.15,-160.64 130.25,-160.63 130.35,-160.56 130.43,-160.45 130.46,-160.35 130.45,-160.27 M130.27,-160.72 L130.33,-160.75 130.43,-160.73 M129.61,-160.26 L129.71,-160.19 129.79,-160.08 129.82,-159.98 M129.79,-160.36 L129.89,-160.29 129.97,-160.19 130.01,-160.09 M129.97,-160.47 L130.08,-160.4 130.15,-160.3 130.19,-160.19 M130.11,-160.61 L130.24,-160.51 130.34,-160.38 130.38,-160.24 M130.16,-160.57 L130.26,-160.5 130.34,-160.4 130.37,-160.3 M130.3,-160.71 L130.42,-160.62 130.52,-160.48 130.56,-160.35 M130.34,-160.68 L130.44,-160.61 130.52,-160.51 130.56,-160.4 M129.45,-160.22 L129.52,-160.2 129.62,-160.13 129.7,-160.03 129.73,-159.93 129.72,-159.85 M129.56,-160.29 L129.69,-160.2 129.79,-160.06 129.83,-159.92 M129.54,-160.29 L129.6,-160.33 129.7,-160.31 129.8,-160.24 129.88,-160.14 129.91,-160.03 129.9,-159.96 M129.75,-160.4 L129.87,-160.3 129.97,-160.17 130.01,-160.03 M129.72,-160.4 L129.78,-160.43 129.88,-160.42 129.98,-160.35 130.06,-160.24 130.1,-160.14 130.09,-160.06 M129.93,-160.5 L130.06,-160.41 130.15,-160.27 130.2,-160.13 M52.375,-100.5 L52.749,-101.02 M53.001,-102.33 L52.385,-101.97 52.749,-101.02 M52.385,-101.97 L51.646,-102.41 M52.749,-101.02 L53.365,-101.38 M59.627,-105.49 L59.628,-105.59 59.567,-105.72 59.453,-105.85 59.308,-105.93 59.162,-105.95 59.046,-105.88 M59.412,-106.09 L59.528,-106.16 59.673,-106.14 59.819,-106.06 59.933,-105.93 59.993,-105.8 59.992,-105.7 M59.778,-106.3 L59.893,-106.37 60.039,-106.36 M58.113,-105.11 L58.117,-105.1 58.257,-104.93 58.326,-104.75 58.315,-104.62 M58.033,-105.19 L58.174,-105.11 58.288,-104.98 58.348,-104.85 58.347,-104.75 M58.394,-105.41 L58.539,-105.32 58.653,-105.19 58.714,-105.06 58.713,-104.96 M58.759,-105.62 L58.905,-105.53 59.019,-105.4 59.079,-105.27 59.078,-105.17 M59.125,-105.83 L59.27,-105.74 59.384,-105.61 59.445,-105.48 59.444,-105.38 M59.4,-106.07 L59.58,-105.95 59.719,-105.78 59.788,-105.6 59.777,-105.47 M59.491,-106.04 L59.636,-105.95 59.75,-105.82 59.811,-105.69 59.809,-105.59 M59.765,-106.28 L59.945,-106.16 60.085,-105.99 60.154,-105.81 60.143,-105.68 M59.856,-106.25 L60.002,-106.16 60.116,-106.04 60.176,-105.9 60.175,-105.81 M57.957,-105.25 L58.065,-105.31 58.211,-105.3 58.357,-105.21 58.471,-105.09 58.531,-104.95 58.53,-104.86 M58.303,-105.43 L58.483,-105.32 58.622,-105.14 58.692,-104.96 58.681,-104.83 M58.315,-105.46 L58.431,-105.53 58.577,-105.51 58.722,-105.43 58.836,-105.3 58.897,-105.16 58.895,-105.07 M58.669,-105.64 L58.849,-105.53 58.988,-105.35 59.057,-105.18 59.046,-105.04 M58.681,-105.67 L58.796,-105.74 58.942,-105.72 59.088,-105.64 59.202,-105.51 59.262,-105.37 59.261,-105.28 M59.034,-105.85 L59.214,-105.74 59.353,-105.56 59.423,-105.39 59.412,-105.26 M42.679,-117.43 L43.053,-117.95 M43.304,-119.26 L42.688,-118.9 43.053,-117.95 M42.688,-118.9 L41.949,-119.33 M43.053,-117.95 L43.669,-118.3 M49.93,-122.41 L49.932,-122.51 49.871,-122.64 49.757,-122.77 49.611,-122.86 49.465,-122.87 49.35,-122.81 M49.716,-123.02 L49.831,-123.08 49.977,-123.07 50.122,-122.98 50.236,-122.86 50.297,-122.72 50.296,-122.63 M50.081,-123.23 L50.197,-123.29 50.343,-123.28 M48.417,-122.03 L48.421,-122.03 48.56,-121.86 48.63,-121.68 48.619,-121.55 M48.336,-122.12 L48.477,-122.03 48.592,-121.91 48.652,-121.77 48.651,-121.68 M48.697,-122.33 L48.843,-122.25 48.957,-122.12 49.018,-121.98 49.016,-121.89 M49.063,-122.54 L49.208,-122.46 49.323,-122.33 49.383,-122.19 49.382,-122.1 M49.429,-122.75 L49.574,-122.67 49.688,-122.54 49.749,-122.41 49.748,-122.31 M49.703,-122.99 L49.883,-122.87 50.022,-122.7 50.092,-122.52 50.081,-122.39 M49.794,-122.96 L49.939,-122.88 50.054,-122.75 50.114,-122.62 50.113,-122.52 M50.069,-123.2 L50.249,-123.09 50.388,-122.91 50.458,-122.73 50.447,-122.6 M50.16,-123.17 L50.305,-123.09 50.419,-122.96 50.48,-122.83 50.479,-122.73 M48.261,-122.18 L48.369,-122.24 48.515,-122.23 48.66,-122.14 48.774,-122.01 48.835,-121.88 48.834,-121.78 M48.606,-122.36 L48.786,-122.24 48.926,-122.07 48.995,-121.89 48.985,-121.76 M48.619,-122.39 L48.734,-122.45 48.88,-122.44 49.026,-122.35 49.14,-122.22 49.2,-122.09 49.199,-121.99 M48.972,-122.57 L49.152,-122.45 49.291,-122.28 49.361,-122.1 49.35,-121.97 M48.985,-122.6 L49.1,-122.66 49.246,-122.65 49.391,-122.56 49.505,-122.43 49.566,-122.3 49.565,-122.2 M49.338,-122.78 L49.518,-122.66 49.657,-122.49 49.727,-122.31 49.716,-122.18 M22.357,-101.03 L25.94,-98.087 27.077,-93.384 M25.94,-98.087 L27.406,-98.922 M28.543,-94.218 L27.077,-93.384 24.63,-91.626 M30.566,-102.5 L30.566,-102.5 31.38,-102.14 32.113,-101.38 32.582,-100.43 32.677,-99.559 32.577,-99.365 M31.22,-102.88 L31.22,-102.88 32.034,-102.52 32.767,-101.76 33.236,-100.81 33.331,-99.931 33.231,-99.738 M31.874,-103.25 L31.874,-103.25 32.688,-102.89 33.42,-102.13 33.89,-101.18 33.985,-100.3 33.885,-100.11 M32.528,-103.62 L32.528,-103.62 33.342,-103.26 M27.95,-101.01 L27.95,-101.01 28.764,-100.65 29.497,-99.894 29.966,-98.945 30.062,-98.07 29.961,-97.876 M28.604,-101.39 L28.604,-101.39 29.418,-101.03 30.151,-100.27 30.62,-99.317 30.716,-98.442 30.615,-98.248 M29.258,-101.76 L29.258,-101.76 30.072,-101.4 30.805,-100.64 31.274,-99.69 31.37,-98.814 31.269,-98.621 M29.912,-102.13 L29.912,-102.13 30.726,-101.77 31.459,-101.01 31.928,-100.06 32.023,-99.187 31.923,-98.993 M39.797,-100.66 L40.511,-101.16 40.91,-102.08 40.946,-103.29 40.614,-104.66 39.954,-106.01 39.046,-107.19 37.999,-108.05 36.94,-108.49 35.996,-108.45 M36.91,-107.03 L36.774,-106.72 36.751,-105.91 36.972,-105 37.412,-104.09 38.017,-103.31 38.715,-102.74 39.42,-102.45 39.518,-102.45 M35.745,-108.31 L36.689,-108.34 37.748,-107.91 38.795,-107.05 39.704,-105.87 40.364,-104.52 40.696,-103.15 40.66,-101.94 40.261,-101.02 39.546,-100.51 M36.38,-107.01 L35.903,-106.67 35.637,-106.06 35.614,-105.25 35.835,-104.34 36.275,-103.44 36.88,-102.65 37.577,-102.08 38.283,-101.79 38.912,-101.81 M37.424,-106.86 L37.407,-106.29 37.629,-105.38 38.068,-104.47 38.674,-103.69 39.371,-103.12 39.661,-103 M36.474,-107.01 L36.384,-106.95 36.118,-106.34 36.094,-105.53 36.316,-104.62 36.755,-103.72 37.36,-102.93 38.058,-102.36 38.764,-102.07 39.298,-102.09 M37.339,-106.89 L37.322,-106.32 37.553,-105.37 38.011,-104.43 38.642,-103.62 39.366,-103.02 M36.031,-106.31 L36.009,-105.56 36.24,-104.61 36.698,-103.67 37.329,-102.86 38.053,-102.26 M36.688,-106.69 L36.666,-105.94 36.897,-104.99 37.355,-104.05 37.985,-103.24 38.71,-102.64 M43.726,-102.11 L42.051,-101.14 40.732,-106.57 M42.051,-101.14 L39.215,-99.133 M36.578,-109.98 L40.732,-106.57 42.407,-107.53 M60.381,-122.66 L61.036,-122.86 61.799,-122.79 62.617,-122.44 63.435,-121.84 64.198,-121.04 64.853,-120.08 65.355,-119.03 65.671,-117.97 65.779,-116.96 65.671,-116.08 65.355,-115.38 64.853,-114.92 M60.676,-128.44 L60.53,-128.46 60.377,-128.57 60.246,-128.74 60.164,-128.94 60.147,-129.13 60.198,-129.26 M70.536,-111.61 L70.431,-111.54 70.29,-111.57 70.142,-111.67 70.016,-111.84 69.936,-112.03 69.92,-112.21 69.969,-112.34 70.074,-112.41 M56.82,-115.94 L56.735,-115.85 56.709,-115.71 56.748,-115.52 56.843,-115.34 56.975,-115.2 57.12,-115.12 57.247,-115.13 M61.61,-130.27 C60.727,-131.43 59.643,-131.86 58.901,-131.36 M61.61,-130.27 C62.2,-129.5 62.455,-128.55 63.007,-127.75 63.725,-126.7 64.95,-125.98 65.754,-125.06 66.316,-124.41 66.864,-123.74 67.344,-123.03 68.836,-120.82 69.575,-118.57 70.165,-116 70.333,-115.27 70.536,-114.64 70.918,-113.98 71.043,-113.77 71.203,-113.58 71.345,-113.37 71.478,-113.18 71.628,-113 71.742,-112.8 72.181,-112.02 73.034,-109.73 71.644,-109.28 M60.081,-122.49 L60.736,-122.69 61.498,-122.61 62.316,-122.27 63.135,-121.67 63.897,-120.86 64.552,-119.91 65.055,-118.86 65.37,-117.8 65.478,-116.79 65.37,-115.91 65.055,-115.21 64.552,-114.74 M60.873,-121.11 L60.548,-120.81 60.344,-120.36 60.275,-119.79 60.344,-119.14 60.548,-118.46 60.873,-117.78 61.296,-117.16 61.788,-116.64 62.316,-116.26 62.845,-116.03 63.337,-115.98 63.76,-116.11 M64.354,-117.4 L64.319,-117.41 63.791,-117.8 63.299,-118.32 62.876,-118.94 62.551,-119.61 62.347,-120.3 62.278,-120.95 62.282,-120.99 M64.015,-116.35 L63.923,-116.32 63.431,-116.37 62.903,-116.6 62.374,-116.98 61.882,-117.5 61.459,-118.12 61.134,-118.79 60.931,-119.48 60.861,-120.13 60.931,-120.7 61.134,-121.15 61.204,-121.22 M64.245,-116.77 L64.139,-116.78 63.611,-117 63.083,-117.39 62.59,-117.91 62.167,-118.53 61.843,-119.2 61.639,-119.89 61.569,-120.54 61.639,-121.11 61.683,-121.21 M64.341,-117.3 L64.319,-117.31 63.767,-117.71 63.252,-118.25 62.81,-118.9 62.471,-119.61 62.258,-120.32 62.185,-121 62.188,-121.03 M64.116,-116.68 L63.611,-116.9 63.059,-117.3 62.544,-117.84 62.102,-118.49 61.763,-119.2 61.549,-119.91 61.477,-120.59 61.543,-121.14 M63.408,-116.27 L62.903,-116.49 62.35,-116.89 61.835,-117.43 61.393,-118.08 61.054,-118.79 60.841,-119.51 60.768,-120.19 60.835,-120.73 M51.743,-111.99 L51.629,-111.92 51.474,-111.97 51.318,-112.1 51.204,-112.3 51.163,-112.5 51.204,-112.66 51.318,-112.72 M52.875,-112.77 L52.221,-112.39 51.474,-113.32 M52.221,-112.39 L52.221,-111.4 M51.474,-113.32 L52.128,-113.7 M51.474,-113.32 L50.726,-113.26 M72.419,-132.46 L71.643,-131.74 71.156,-130.66 70.989,-129.3 71.156,-127.74 71.643,-126.1 72.419,-124.49 73.43,-123.01 74.607,-121.76 75.87,-120.84 77.133,-120.31 78.31,-120.19 79.321,-120.5 M79.587,-120.04 C81.552,-121.38 81.48,-125.35 79.427,-128.91 77.374,-132.47 74.117,-134.26 72.152,-132.92 72.152,-132.92 72.152,-132.92 72.152,-132.92 M84.767,-123.26 C86.679,-124.57 86.61,-128.43 84.611,-131.89 82.613,-135.35 79.443,-137.1 77.531,-135.79 M79.918,-131.61 L79.646,-131.36 79.475,-130.98 79.417,-130.5 79.454,-130.16 M80.849,-127.74 L81.128,-127.54 81.57,-127.35 81.983,-127.31 82.337,-127.42 M78.042,-134.91 L77.343,-134.26 76.904,-133.29 76.833,-132.7 M76.824,-131.42 L76.904,-130.66 77.343,-129.19 78.042,-127.73 78.952,-126.4 80.011,-125.28 80.624,-124.84 M81.742,-124.2 L82.286,-123.97 83.346,-123.86 84.256,-124.14 M78.36,-135.01 L77.906,-134.59 77.467,-133.62 77.317,-132.39 77.322,-132.35 M77.532,-130.77 L77.906,-129.51 78.604,-128.06 79.514,-126.73 80.418,-125.77 M81.678,-124.8 L81.712,-124.78 82.849,-124.29 83.909,-124.19 84.5,-124.37 M112.69,-152.33 L113.27,-152.51 113.95,-152.44 114.68,-152.13 115.4,-151.6 116.08,-150.88 116.66,-150.03 117.11,-149.1 117.39,-148.16 117.49,-147.26 117.39,-146.48 117.11,-145.85 116.66,-145.44 M119.98,-143.36 C121.95,-144.7 121.87,-148.67 119.82,-152.23 117.77,-155.79 114.51,-157.58 112.54,-156.24 112.54,-156.24 112.54,-156.24 112.54,-156.24 M113.48,-154.62 L114.29,-154.87 115.24,-154.78 116.26,-154.35 117.28,-153.6 118.23,-152.6 119.05,-151.41 119.67,-150.1 120.06,-148.78 120.2,-147.53 120.06,-146.43 119.67,-145.56 119.05,-144.98 M112.64,-154.14 L113.46,-154.39 114.41,-154.3 115.43,-153.86 116.44,-153.12 117.39,-152.12 118.21,-150.92 118.83,-149.62 119.23,-148.3 119.36,-147.04 119.23,-145.94 118.83,-145.08 118.21,-144.49 M113.44,-152.76 L114.02,-152.94 114.7,-152.87 115.43,-152.56 116.15,-152.03 116.83,-151.32 117.41,-150.46 117.86,-149.53 118.14,-148.59 118.24,-147.69 118.14,-146.91 117.86,-146.29 117.41,-145.87 M140.97,-164.35 L141.15,-164.22 141.29,-164.05 141.35,-163.87 141.33,-163.74 M141.06,-164.32 L141.2,-164.23 141.32,-164.1 141.37,-163.97 141.37,-163.87 M141,-163.66 L141.01,-163.76 140.95,-163.89 140.84,-164.02 140.69,-164.11 M140.97,-163.53 L140.98,-163.66 140.92,-163.84 140.78,-164.02 140.6,-164.14 M140.63,-163.45 L140.64,-163.55 140.58,-163.68 140.47,-163.81 140.33,-163.9 M140.6,-163.33 L140.62,-163.45 140.55,-163.63 140.42,-163.81 140.24,-163.93 M140.25,-163.96 L140.36,-164.03 140.51,-164.01 140.65,-163.92 140.77,-163.79 140.82,-163.65 140.82,-163.56"/>
      <path stroke="#000" stroke-width="0.18" d="M140.45,-163.35 L140.46,-163.44 140.4,-163.58 140.29,-163.71 140.14,-163.8 140,-163.82 139.88,-163.76 M140.27,-163.25 L140.27,-163.34 140.22,-163.47 140.1,-163.6 139.96,-163.69 M140.08,-163.14 L140.09,-163.24 140.03,-163.37 139.92,-163.5 139.78,-163.59 139.63,-163.61 139.51,-163.55 M139.9,-163.04 L139.91,-163.13 139.85,-163.26 139.74,-163.4 139.59,-163.48 M139.72,-162.93 L139.72,-163.03 139.67,-163.16 139.55,-163.29 139.41,-163.38 M139.6,-162.86 L139.63,-162.98 139.6,-163.13 139.52,-163.27 139.41,-163.38 139.29,-163.42 139.21,-163.37 M140.23,-163.12 L140.25,-163.25 140.18,-163.42 140.05,-163.6 139.87,-163.72 M141.55,-163.98 L141.56,-164.07 141.5,-164.2 141.39,-164.33 141.24,-164.42 141.1,-164.44 140.98,-164.38 M139.87,-162.91 L139.88,-163.04 139.82,-163.21 139.68,-163.39 139.5,-163.51 M141.7,-163.95 L141.72,-164.08 141.65,-164.26 141.52,-164.43 141.34,-164.55 M141.18,-163.77 L141.19,-163.86 141.13,-163.99 141.02,-164.13 140.88,-164.21 140.73,-164.23 140.61,-164.17 M148.21,-191.32 L148.04,-191.13 147.98,-190.83 148.04,-190.46 148.21,-190.07 148.46,-189.74 148.75,-189.5 149.04,-189.4 149.29,-189.45 M165.64,-155.15 L165.39,-155.11 165.1,-155.21 164.8,-155.45 164.56,-155.78 164.39,-156.16 164.33,-156.54 164.39,-156.84 164.56,-157.03 M169.62,-158.97 L169.45,-158.78 169.39,-158.47 169.45,-158.1 169.62,-157.71 169.87,-157.38 170.16,-157.14 170.45,-157.04 170.7,-157.09 M156.16,-162.16 L156.08,-162.07 156.06,-161.93 156.08,-161.75 156.16,-161.57 156.28,-161.41 156.42,-161.3 156.55,-161.25 156.67,-161.28 M144.28,-187.62 L144.03,-187.57 143.74,-187.67 143.45,-187.91 143.2,-188.25 143.03,-188.63 142.97,-189 143.03,-189.31 143.2,-189.5 M149.79,-193.31 L149.63,-193.12 149.57,-192.81 149.63,-192.44 149.79,-192.05 150.04,-191.72 150.33,-191.48 150.63,-191.38 150.88,-191.43 M145.41,-193.28 L145.24,-193.09 145.19,-192.78 145.24,-192.41 145.41,-192.03 145.66,-191.69 145.95,-191.46 146.25,-191.35 146.5,-191.4 M146.39,-179.09 L146.31,-179 146.28,-178.85 146.31,-178.67 146.39,-178.48 146.51,-178.32 146.65,-178.21 146.79,-178.16 146.91,-178.18 M167.41,-155.18 L167.24,-154.99 167.18,-154.69 167.24,-154.32 167.41,-153.93 167.65,-153.6 167.95,-153.36 168.24,-153.26 168.49,-153.31 M163.02,-155.16 L162.86,-154.97 162.8,-154.66 162.86,-154.29 163.02,-153.91 163.27,-153.57 163.57,-153.34 163.86,-153.23 164.11,-153.28 M164.3,-158.96 L165.04,-159.74 165.5,-160.84 165.66,-162.21 165.53,-163.51 M153.25,-152.58 L153.99,-153.36 154.45,-154.47 154.61,-155.84 154.46,-157.39 154.01,-159.03 M144.59,-194.15 L146.46,-194.86 148.66,-194.78 151.05,-193.9 153.47,-192.29 155.77,-190.05 157.79,-187.33 M142.14,-162.78 L142.06,-162.67 142.06,-162.49 142.14,-162.28 142.28,-162.11 142.44,-162.02 142.57,-162.03 M139.97,-166.54 L139.89,-166.43 139.89,-166.24 139.97,-166.04 140.11,-165.87 140.27,-165.78 140.4,-165.79 M155.54,-159.91 L154.01,-159.03 M143.17,-177.8 L141.97,-179.02 140.71,-179.92 139.44,-180.47 138.25,-180.62 137.21,-180.37 M143.17,-177.8 L143.66,-178.07 144.2,-178.26 144.77,-178.38 M143.17,-177.8 L144.68,-178.68 M167.46,-170.48 L167.5,-170.46 167.54,-170.43 167.59,-170.4 M167.46,-170.48 L156.42,-164.11 M167.46,-170.48 L167.46,-170.53 167.46,-170.62 M155.31,-160.14 L154.93,-159.7 154.49,-159.32 154.01,-159.03 M156.42,-164.11 L156.96,-163.69 157.46,-163.15 157.89,-162.5 158.22,-161.8 158.42,-161.09 158.49,-160.42 158.41,-159.84 158.2,-159.38 157.86,-159.07 M156.42,-164.11 L156.15,-166.55 155.38,-169.13 154.16,-171.67 152.56,-173.99 150.71,-175.93 148.73,-177.38 148.66,-178.01 148.47,-178.68 148.17,-179.34 147.77,-179.96 147.31,-180.5 146.8,-180.92 146.28,-181.2 145.78,-181.33 145.32,-181.29 144.95,-181.1 M148.73,-177.38 L159.77,-183.75 M145.1,-175.02 C143.14,-173.68 143.21,-169.72 145.26,-166.16 147.31,-162.61 150.56,-160.82 152.53,-162.16 M148.25,-186.75 L149.3,-187 150.48,-186.85 151.75,-186.3 152.74,-185.59 M159.77,-183.75 L159.77,-183.82 159.77,-183.88 159.76,-183.95 M159.77,-183.75 L159.88,-183.69 159.93,-183.66 M168.75,-165.37 L169.1,-165.59 169.36,-165.96 169.5,-166.44 169.53,-167.01 M155.97,-187.46 L156.34,-187.66 156.78,-187.71 157.28,-187.6 157.79,-187.33 M168.91,-152.1 L170.45,-153.38 171.47,-155.34 171.89,-157.86 171.7,-160.78 170.89,-163.89 169.53,-167.01 M141.72,-163.9 L141.79,-163.98 141.82,-164.11 141.79,-164.26 141.72,-164.42 141.62,-164.56 141.5,-164.66 141.38,-164.7 141.27,-164.68 M159.76,-183.95 L159.93,-183.66 M167.59,-170.4 L167.46,-170.62"/>
    </g>
  </g>
  <g id="AUTOID_002" vm2d:name="C3DCallouts" vm2d:type="layer">
    <a id="_B6AC367DAF8245B2BC4C96256DA5A1B7" vm2d:name="390" vm2d:type="grobject" xlink:href="#">
      <path d="M364.26,1032.2 L403.12,1032.2 403.12,1058.2 364.26,1058.2 Z" fill="#fff" fill-opacity="0"/>
      <g transform="matrix(4.72727,0,0,4.72727,0.136383,1404)">
        <text font-family="Arial" font-size="4.92" x="77.0296" y="-74.1933" fill="#000">390</text>
      </g>
    </a>
    <g transform="matrix(4.72727,0,0,4.72727,0.136383,1404)" stroke-width="0.18" stroke-linecap="butt" stroke-linejoin="miter" stroke-miterlimit="10">
      <path stroke="#000" d="M77.026,-78.65 L76.547,-120.14"/>
    </g>
    <a id="_C5EC1A2E43DC4354B7E0784E8318F83B" vm2d:name="370" vm2d:type="grobject" xlink:href="#">
      <path d="M544.76,1032.2 L583.61,1032.2 583.61,1058.2 544.76,1058.2 Z" fill="#fff" fill-opacity="0"/>
      <g transform="matrix(4.72727,0,0,4.72727,0.136383,1404)">
        <text font-family="Arial" font-size="4.92" x="115.211" y="-74.1933" fill="#000">370</text>
      </g>
    </a>
    <g transform="matrix(4.72727,0,0,4.72727,0.136383,1404)" stroke-width="0.18" stroke-linecap="butt" stroke-linejoin="miter" stroke-miterlimit="10">
      <path stroke="#000" d="M119.32,-78.65 L118.66,-145.24"/>
    </g>
    <a id="_C6C2EC661AB646A0A933026D7A68A745" vm2d:name="430" vm2d:type="grobject" xlink:href="#">
      <path d="M3.2693,938.6 L42.127,938.6 42.127,964.6 3.2693,964.6 Z" fill="#fff" fill-opacity="0"/>
      <g transform="matrix(4.72727,0,0,4.72727,0.136383,1404)">
        <text font-family="Arial" font-size="4.92" x="0.665922" y="-93.9933" fill="#000">430</text>
      </g>
    </a>
    <g transform="matrix(4.72727,0,0,4.72727,0.136383,1404)" stroke-width="0.18" stroke-linecap="butt" stroke-linejoin="miter" stroke-miterlimit="10">
      <path stroke="#000" d="M8.8827,-95.7 L23.119,-95.954"/>
    </g>
    <a id="_4D376951C5FA4D259D70A8CD725AEDCD_1" vm2d:name="340" vm2d:type="grobject" xlink:href="#">
      <path d="M589.88,377 L628.74,377 628.74,403 589.88,403 Z" fill="#fff" fill-opacity="0"/>
      <g transform="matrix(4.72727,0,0,4.72727,0.136383,1404)">
        <text font-family="Arial" font-size="4.92" x="124.757" y="-212.793" fill="#000">340</text>
      </g>
    </a>
    <g transform="matrix(4.72727,0,0,4.72727,0.136383,1404)" stroke-width="0.18" stroke-linecap="butt" stroke-linejoin="miter" stroke-miterlimit="10">
      <path stroke="#000" d="M128.86,-211.75 L130.15,-160.49"/>
    </g>
    <a id="_4D376951C5FA4D259D70A8CD725AEDCD_2" vm2d:name="340" vm2d:type="grobject" xlink:href="#">
      <path d="M635,377 L673.86,377 673.86,403 635,403 Z" fill="#fff" fill-opacity="0"/>
      <g transform="matrix(4.72727,0,0,4.72727,0.136383,1404)">
        <text font-family="Arial" font-size="4.92" x="134.302" y="-212.793" fill="#000">340</text>
      </g>
    </a>
    <g transform="matrix(4.72727,0,0,4.72727,0.136383,1404)" stroke-width="0.18" stroke-linecap="butt" stroke-linejoin="miter" stroke-miterlimit="10">
      <path stroke="#000" d="M134.3,-211.75 L132.5,-156.73"/>
    </g>
    <a id="_5C56C49E2FB94BC789DB2FFDEDA38450" vm2d:name="410" vm2d:type="grobject" xlink:href="#">
      <path d="M274.01,1032.2 L312.87,1032.2 312.87,1058.2 274.01,1058.2 Z" fill="#fff" fill-opacity="0"/>
      <g transform="matrix(4.72727,0,0,4.72727,0.136383,1404)">
        <text font-family="Arial" font-size="4.92" x="57.9387" y="-74.1933" fill="#000">410</text>
      </g>
    </a>
    <g transform="matrix(4.72727,0,0,4.72727,0.136383,1404)" stroke-width="0.18" stroke-linecap="butt" stroke-linejoin="miter" stroke-miterlimit="10">
      <path stroke="#000" d="M57.935,-78.65 L52.002,-112"/>
    </g>
    <a id="_7C68CAEBB81C4FF8865FFE4601B179FD" vm2d:name="350" vm2d:type="grobject" xlink:href="#">
      <path d="M680.13,377 L718.99,377 718.99,403 680.13,403 Z" fill="#fff" fill-opacity="0"/>
      <g transform="matrix(4.72727,0,0,4.72727,0.136383,1404)">
        <text font-family="Arial" font-size="4.92" x="143.848" y="-212.793" fill="#000">350</text>
      </g>
    </a>
    <g transform="matrix(4.72727,0,0,4.72727,0.136383,1404)" stroke-width="0.18" stroke-linecap="butt" stroke-linejoin="miter" stroke-miterlimit="10">
      <path stroke="#000" d="M143.84,-211.75 L134.89,-164.28"/>
    </g>
    <a id="_EB0BAB6E2ACC4005A25EACBF7156D6DE" vm2d:name="380" vm2d:type="grobject" xlink:href="#">
      <path d="M499.63,377 L538.49,377 538.49,403 499.63,403 Z" fill="#fff" fill-opacity="0"/>
      <g transform="matrix(4.72727,0,0,4.72727,0.136383,1404)">
        <text font-family="Arial" font-size="4.92" x="105.666" y="-212.793" fill="#000">380</text>
      </g>
    </a>
    <g transform="matrix(4.72727,0,0,4.72727,0.136383,1404)" stroke-width="0.18" stroke-linecap="butt" stroke-linejoin="miter" stroke-miterlimit="10">
      <path stroke="#000" d="M109.77,-211.75 L107.36,-150.87"/>
    </g>
    <a id="_79EFD617998F493F9FC1D76D57AA4EA1" vm2d:name="330" vm2d:type="grobject" xlink:href="#">
      <path d="M725.25,377 L764.11,377 764.11,403 725.25,403 Z" fill="#fff" fill-opacity="0"/>
      <g transform="matrix(4.72727,0,0,4.72727,0.136383,1404)">
        <text font-family="Arial" font-size="4.92" x="153.393" y="-212.793" fill="#000">330</text>
      </g>
    </a>
    <g transform="matrix(4.72727,0,0,4.72727,0.136383,1404)" stroke-width="0.18" stroke-linecap="butt" stroke-linejoin="miter" stroke-miterlimit="10">
      <path stroke="#000" d="M153.39,-211.75 L150.93,-186.12"/>
    </g>
    <a id="_171E8BEE0AEE4C1D8EAB23819DDFAC53" vm2d:name="420" vm2d:type="grobject" xlink:href="#">
      <path d="M138.64,1032.2 L177.5,1032.2 177.5,1058.2 138.64,1058.2 Z" fill="#fff" fill-opacity="0"/>
      <g transform="matrix(4.72727,0,0,4.72727,0.136383,1404)">
        <text font-family="Arial" font-size="4.92" x="29.3023" y="-74.1933" fill="#000">420</text>
      </g>
    </a>
    <g transform="matrix(4.72727,0,0,4.72727,0.136383,1404)" stroke-width="0.18" stroke-linecap="butt" stroke-linejoin="miter" stroke-miterlimit="10">
      <path stroke="#000" d="M37.519,-78.65 L39.046,-100.98"/>
    </g>
    <a id="_562846DED50542409CDC27B3133CC981_1" vm2d:name="450" vm2d:type="grobject" xlink:href="#">
      <path d="M3.2693,845 L42.127,845 42.127,871 3.2693,871 Z" fill="#fff" fill-opacity="0"/>
      <g transform="matrix(4.72727,0,0,4.72727,0.136383,1404)">
        <text font-family="Arial" font-size="4.92" x="0.665922" y="-113.793" fill="#000">450</text>
      </g>
    </a>
    <g transform="matrix(4.72727,0,0,4.72727,0.136383,1404)" stroke-width="0.18" stroke-linecap="butt" stroke-linejoin="miter" stroke-miterlimit="10">
      <path stroke="#000" d="M8.8827,-118.25 L42.419,-118.73"/>
    </g>
    <a id="_562846DED50542409CDC27B3133CC981_2" vm2d:name="450" vm2d:type="grobject" xlink:href="#">
      <path d="M183.77,1032.2 L222.62,1032.2 222.62,1058.2 183.77,1058.2 Z" fill="#fff" fill-opacity="0"/>
      <g transform="matrix(4.72727,0,0,4.72727,0.136383,1404)">
        <text font-family="Arial" font-size="4.92" x="38.8477" y="-74.1933" fill="#000">450</text>
      </g>
    </a>
    <g transform="matrix(4.72727,0,0,4.72727,0.136383,1404)" stroke-width="0.18" stroke-linecap="butt" stroke-linejoin="miter" stroke-miterlimit="10">
      <path stroke="#000" d="M47.065,-78.65 L52.115,-101.81"/>
    </g>
    <a id="_98730EFCA13044738B357B9DE1D4C60E_1" vm2d:name="360" vm2d:type="grobject" xlink:href="#">
      <path d="M544.76,377 L583.61,377 583.61,403 544.76,403 Z" fill="#fff" fill-opacity="0"/>
      <g transform="matrix(4.72727,0,0,4.72727,0.136383,1404)">
        <text font-family="Arial" font-size="4.92" x="115.211" y="-212.793" fill="#000">360</text>
      </g>
    </a>
    <g transform="matrix(4.72727,0,0,4.72727,0.136383,1404)" stroke-width="0.18" stroke-linecap="butt" stroke-linejoin="miter" stroke-miterlimit="10">
      <path stroke="#000" d="M123.43,-211.75 L127.34,-179.27"/>
    </g>
    <a id="_98730EFCA13044738B357B9DE1D4C60E_2" vm2d:name="360" vm2d:type="grobject" xlink:href="#">
      <path d="M905.75,720.2 L944.61,720.2 944.61,746.2 905.75,746.2 Z" fill="#fff" fill-opacity="0"/>
      <g transform="matrix(4.72727,0,0,4.72727,0.136383,1404)">
        <text font-family="Arial" font-size="4.92" x="191.575" y="-140.193" fill="#000">360</text>
      </g>
    </a>
    <g transform="matrix(4.72727,0,0,4.72727,0.136383,1404)" stroke-width="0.18" stroke-linecap="butt" stroke-linejoin="miter" stroke-miterlimit="10">
      <path stroke="#000" d="M191.57,-144.65 L145.86,-144.72"/>
    </g>
    <a id="_FD4A63A72A604ADC9040BA3BA3493CCB" vm2d:name="400" vm2d:type="grobject" xlink:href="#">
      <path d="M319.14,1032.2 L358,1032.2 358,1058.2 319.14,1058.2 Z" fill="#fff" fill-opacity="0"/>
      <g transform="matrix(4.72727,0,0,4.72727,0.136383,1404)">
        <text font-family="Arial" font-size="4.92" x="67.4841" y="-74.1933" fill="#000">400</text>
      </g>
    </a>
    <g transform="matrix(4.72727,0,0,4.72727,0.136383,1404)" stroke-width="0.18" stroke-linecap="butt" stroke-linejoin="miter" stroke-miterlimit="10">
      <path stroke="#000" d="M67.481,-78.65 L66.375,-114.11"/>
    </g>
    <a id="_5E46FFB1C42F4858A519681799915E66" vm2d:name="440" vm2d:type="grobject" xlink:href="#">
      <path d="M409.38,1032.2 L448.24,1032.2 448.24,1058.2 409.38,1058.2 Z" fill="#fff" fill-opacity="0"/>
      <g transform="matrix(4.72727,0,0,4.72727,0.136383,1404)">
        <text font-family="Arial" font-size="4.92" x="86.575" y="-74.1933" fill="#000">440</text>
      </g>
    </a>
    <g transform="matrix(4.72727,0,0,4.72727,0.136383,1404)" stroke-width="0.18" stroke-linecap="butt" stroke-linejoin="miter" stroke-miterlimit="10">
      <path stroke="#000" d="M90.682,-78.65 L92.482,-139.64"/>
    </g>
  </g>
</svg>
