<?xml version="1.0" encoding="UTF-8" standalone="no"?>
<!DOCTYPE svg SYSTEM "http://www.w3.org/Graphics/SVG/1.1/DTD/svg11.dtd" [
<!ENTITY % SVG.External.attrib
"xmlns:vm2d CDATA #FIXED 'http://www.cortona3d.com/vm2d'
vm2d:name CDATA #IMPLIED
vm2d:type CDATA #IMPLIED">
]>
<svg xmlns="http://www.w3.org/2000/svg" xmlns:vm2d="http://www.cortona3d.com/vm2d" xmlns:xlink="http://www.w3.org/1999/xlink" version="1.1" width="210mm" height="297mm" viewBox="0 0 993 1404" fill="none" fill-rule="evenodd" stroke-miterlimit="5">
  <title>Sectioned View</title>
  <desc>"Generator:ParallelGraphics Cortona2D","ProfileId:WebCGM""ProfileEd:2.1""ColourClass:colour""Source:Cortona2D Editor Pro 2.1.0.45""Date:20160525"</desc>
  <rect width="993" height="1404" fill="#fff"/>
  <defs/>
  <g id="AUTOID_001" vm2d:name="C3DDrawing" vm2d:type="layer">
    <g transform="matrix(4.72727,0,0,4.72727,0.136383,1404)" stroke-width="0.35" stroke-linecap="round" stroke-linejoin="round" stroke-miterlimit="10">
      <path stroke="#000" d="M170.99,-138.3 L172.18,-137.62 M169.39,-137.59 L170.99,-138.3 M172.18,-137.62 L172.97,-136.37 M172.16,-134.41 L172.97,-136.37 M169.39,-137.59 L168.57,-135.63 M172.16,-134.41 L170.55,-133.7 M169.36,-134.38 L168.57,-135.63 M170.55,-133.7 L169.36,-134.38 M140.7,-149.62 L140.72,-149.81 M139.79,-153.02 L139.56,-153.32 139.16,-153.8 M134.63,-154.66 L134.53,-154.64 133.23,-154.05 131.94,-153.1 130.7,-151.84 129.6,-150.32 128.66,-148.59 127.96,-146.73 127.52,-144.81 127.44,-143.78 M139.86,-148.83 L138.88,-148.06 137.61,-146.71 137.05,-145.88 M136.25,-144.57 L135.61,-143.35 135.11,-142.06 M134.88,-141.4 L134.86,-141.3 M132.08,-155.54 L131.64,-155.43 M131.3,-155.35 L131,-155.28 130.44,-154.99 M129.94,-154.73 L129.88,-154.7 129.44,-154.35 M126.45,-150.58 L126.09,-149.86 125.54,-148.26 125.22,-146.64 125.16,-145.1 M136.14,-144.4 L136.19,-144.46 M137.16,-146.04 L137.18,-146.1 M137.86,-151.84 L137.35,-152.47 137.22,-152.54 M137.48,-152.51 L137.22,-152.54 M141.07,-149.96 L140.95,-149.94 M134.67,-140.81 L134.64,-140.58 M162.97,-140.71 L165.54,-139.22 165.78,-139.08 M168.1,-132.15 L165.78,-139.08 M162.97,-140.71 C159.32,-134.86 155.68,-129.01 152.04,-123.16 M168.1,-132.15 L162.8,-122.88 M152.04,-123.16 L152.15,-122.82 154.96,-121.21 162.8,-122.88 M155.35,-139.93 L152.68,-135.66 152.41,-135.23 152.35,-135.12 152.31,-135.06 152.28,-135.01 152.24,-134.95 152.17,-134.84 151.88,-134.36 149.25,-130.14 M154.79,-138.43 L154.94,-138.56 155.78,-139.32 M154.52,-140.05 L155,-139.39 M149.48,-130.8 L148.18,-130.99 148.1,-131.09 M153.53,-139.15 L153.68,-139.28 154.52,-140.05 M153.26,-140.77 L154.08,-139.65 M148.22,-131.52 L146.93,-131.71 146.84,-131.82 M149.37,-130.34 L149.36,-130.36 M152.28,-139.88 L152.42,-140 153.26,-140.77 M149.71,-131.62 L149.7,-131.58 149.36,-130.36 M152,-141.5 L152.83,-140.38 M146.96,-132.24 L145.67,-132.43 145.58,-132.54 M149.25,-130.14 L149.75,-129.78 M151.02,-140.6 L151.16,-140.72 152,-141.5 M148.46,-132.35 L148.44,-132.3 148.1,-131.09 M150.75,-142.22 L150.55,-142.04 M150.35,-141.86 L149.89,-141.45 149.76,-141.33 M150.75,-142.22 L151.46,-141.25 M147.2,-133.07 L147.18,-133.02 146.84,-131.82 M148.64,-142.17 L148.63,-142.17 148.5,-142.05 148.42,-142.1 M145.94,-133.8 L145.92,-133.74 145.58,-132.54 M144.68,-134.52 L144.67,-134.46 144.55,-134.04 M144.67,-134.49 L144.25,-134.73 M149.76,-141.33 L149.24,-141.63 149.13,-141.69 M145.93,-133.76 L145.37,-134.09 M151.02,-140.6 L150.5,-140.91 150.39,-140.97 M147.19,-133.04 L146.63,-133.37 M152.28,-139.88 L151.76,-140.18 151.65,-140.24 M148.45,-132.32 L147.88,-132.64 M153.53,-139.15 L153.02,-139.45 152.9,-139.52 M149.71,-131.59 L149.13,-131.92 M154.79,-138.43 L154.28,-138.73 154.16,-138.79 M154.47,-127.07 L149.75,-129.78 M155.35,-139.93 L157.76,-138.54 160.76,-136.82 154.66,-127.03 M155.78,-139.32 L150.34,-131.26 M153.04,-127.49 L153.17,-127.7 M153.04,-127.49 L153.06,-127.47 153.23,-127.38 M153.04,-127.49 L153.15,-127.67 153.17,-127.7 M150.5,-128.95 L150.64,-129.16 M150.5,-128.95 L150.53,-128.93 150.69,-128.84 M150.5,-128.95 L150.62,-129.13 150.64,-129.16 M153.17,-127.7 L152.23,-128.24 152.09,-128.32 M153.17,-127.7 L153.3,-127.57 M150.64,-129.16 L149.99,-129.53 149.9,-129.58 M150.64,-129.16 L150.76,-129.03 M154.1,-127.16 L152.53,-124.65 M154.1,-127.16 L153.95,-126.93 152.53,-124.65 M154.1,-127.16 L153.46,-127.53 153.36,-127.59 M154.1,-127.16 L154.22,-127.04 M147.37,-123.63 L150.56,-121.79 153.03,-122.32 M147.17,-124.14 L147.37,-124.48 148.82,-126.79 M163.85,-140.2 L163.06,-142.6 162.85,-142.72 159.83,-144.46 159.59,-144.07 158.2,-141.85 M151.9,-128.43 L152.03,-128.3 M152.09,-128.32 L151.98,-128.14 151.96,-128.11 M152.39,-128.14 L152.76,-128.05 M158.67,-138.02 L158.35,-138.35 158.45,-138.52 158.48,-138.56 M158.16,-138.46 L158.18,-138.5 158.29,-138.67 M159.94,-137.29 L159.61,-137.62 M154.03,-127.32 L153.66,-127.42 M153.36,-127.59 L153.25,-127.41 153.23,-127.38 M159.61,-137.62 L159.72,-137.79 159.74,-137.83 M151.49,-128.78 L151.13,-128.87 M150.83,-129.05 L150.71,-128.87 150.69,-128.84 M157.08,-139.08 L157.18,-139.25 157.21,-139.29 M151.96,-128.11 L151.8,-128.2 151.77,-128.22 M152.73,-124.45 L152.25,-124.73 M152.73,-124.45 L152.83,-124.42 M162.18,-139.44 L161.92,-139.71 M161.43,-139.99 L161.83,-139.76 161.92,-139.71 M150.2,-129.41 L150.56,-129.31 M156.37,-139.39 L156.15,-139.61 M158.2,-141.85 L158.12,-141.9 157.72,-142.13 M148.33,-127.07 L148.64,-127.56 149.9,-129.58 M157.72,-142.13 L157.34,-141.52 156.15,-139.61 M150.83,-129.05 L150.97,-128.97 151.9,-128.43 M158.29,-138.67 L158.16,-138.46 M173.79,-134.99 L174.32,-136.31 174.61,-137.64 174.64,-138.9 174.42,-140.01 173.95,-140.92 173.27,-141.57 M173.79,-134.99 C172.89,-133.27 171.74,-132.11 170.07,-131.15 168.25,-130.11 167.14,-128.94 165.98,-127.2 163.19,-123.01 163.21,-122.6 159.6,-119.11 156.19,-115.83 152.51,-114.46 148.01,-113.55 146.1,-113.16 144.95,-112.36 143.56,-111.01 142.29,-109.78 140.4,-108.2 138.48,-109.08 M171.48,-142.29 L170.72,-142.94 170.17,-143.84 169.84,-144.96 168.65,-148.85 166.57,-151.88 165.13,-152.87 M138.41,-117.26 L138.4,-117.31 138.23,-117.46 M138.48,-109.08 L134.92,-111.13 M140.81,-113.85 L138.95,-114.92 137.25,-115.89 M134.48,-111.44 L134.92,-111.13 M149.77,-129.4 L149.76,-129.41 M150.04,-129.25 L150.04,-129.24 149.9,-129.02 M156.03,-139.47 L156.03,-139.47 M156.31,-139.3 L156.45,-139.53 156.45,-139.53 M148.68,-130.03 L148.67,-130.03 148.53,-129.81 M148.4,-130.19 L148.39,-130.2 M148.71,-130.01 L149.6,-129.63 150.02,-129.62 M155.25,-139.78 L154.96,-140.08 M154.66,-140.25 L154.67,-140.25 M154.94,-140.09 L155.08,-140.31 155.09,-140.32 M147.03,-130.98 L147.02,-130.98 M147.31,-130.82 L147.31,-130.82 147.17,-130.59 M147.34,-130.8 L148.24,-130.42 149.3,-130.4 149.37,-130.42 M154.38,-139.92 L154.29,-140.14 153.59,-140.87 M153.29,-141.04 L153.3,-141.03 M153.58,-140.88 L153.72,-141.1 153.72,-141.1 M149.9,-129.02 L149.9,-129.02 149.62,-129.18 M148.25,-129.97 L148.53,-129.81 148.53,-129.81 M147.17,-130.59 L147.16,-130.59 146.88,-130.76 M156.45,-139.53 L156.17,-139.69 156.17,-139.69 M155.09,-140.32 L154.8,-140.48 154.8,-140.48 M153.72,-141.1 L153.44,-141.27 153.43,-141.27 M147.31,-130.82 L148.38,-130.21 148.39,-130.2 M150.04,-129.25 L150.88,-128.77 150.89,-128.76 150.89,-128.76 M148.68,-130.03 L149.75,-129.42 149.76,-129.41 M153.58,-140.88 L153.59,-140.87 154.66,-140.25 M156.31,-139.3 L156.32,-139.3 157.16,-138.81 M154.94,-140.09 L154.96,-140.08 156.03,-139.47 M146.18,-131.47 L147.01,-130.99 147.02,-130.98 M146.21,-131.45 L147.1,-131.07 148.13,-131.05 M153.19,-140.71 L153.16,-140.79 152.46,-141.52 M152.44,-141.53 L152.45,-141.52 153.29,-141.04 M144.47,-128.7 L145.04,-128.38 M144.46,-128.71 L144.47,-128.7 M154.18,-144.28 L154.16,-144.29 M154.74,-143.95 L154.18,-144.28 M144.46,-128.71 L146.16,-131.45 146.18,-131.47 M154.16,-144.29 L154.14,-144.25 152.44,-141.53 M143.63,-126.13 L138.44,-117.8 138.23,-117.46 M134.48,-111.44 L134.53,-111.52 136.99,-115.47 137.25,-115.89 M161.58,-154.92 L161.41,-154.64 154.79,-144.03 154.76,-143.98 154.74,-143.95 M143.63,-126.13 L145.04,-128.38 M165.13,-152.87 L163.34,-153.91 161.58,-154.92 M170.63,-143.08 L173.27,-141.57 M142.57,-111.71 L143.35,-112.59 M142.94,-116.4 L144.19,-115.68 144.19,-113.82 M142.57,-111.71 L141.33,-111.97 141.03,-112.14 140.07,-112.7 M141.18,-113.8 L141,-113.78 M141.92,-115.12 L141.89,-115.25 141.73,-115.36 M140.07,-112.7 L140.53,-113.43 140.81,-113.88 M142.13,-113.11 L142.07,-113.15 M142.45,-116.51 L141.88,-115.6 141.73,-115.36 M140.81,-113.88 L141.24,-113.63 142.07,-113.15 M157.36,-149.7 L156.78,-148.77 M157.36,-149.7 L156.11,-150.42 156.09,-150.43 M157.36,-149.7 L157.35,-149.69 156.78,-148.77 M157.36,-149.7 L157.95,-149.09 M142.66,-124.56 L140.53,-125.47 M157.14,-147.8 L155.51,-149.5 M156.09,-150.43 L155.52,-149.51 155.51,-149.5 M139.95,-124.54 L139.96,-124.55 140.53,-125.47 M139.95,-124.54 L141.2,-123.82 141.22,-123.81 M141.15,-153.85 L141.16,-153.93 141.12,-154.12 M140.36,-157.5 C140.36,-157.5 140.17,-157.98 139.97,-158.14 139.24,-158.74 139.1,-159.98 138.26,-160.43 137.46,-160.86 136.58,-161.13 135.7,-161.4 134.71,-161.7 133.65,-160.84 132.6,-160.92 132.25,-160.95 131.86,-160.9 131.57,-160.69 130.6,-159.99 129.32,-159.7 128.46,-158.86 127.47,-157.88 126.34,-156.99 125.54,-155.84 124.67,-154.6 123.78,-153.33 123.16,-151.94 122.53,-150.52 121.94,-149.05 121.6,-147.53 121.57,-147.41 121.55,-147.17 121.55,-147.17 M146.22,-154.97 C146.22,-154.97 146.01,-155.56 145.81,-155.79 145.2,-156.45 144.24,-156.7 143.52,-157.24 143.2,-157.48 142.75,-157.57 142.35,-157.5 141.41,-157.34 140.38,-157.82 139.47,-157.5 136.25,-156.38 135.72,-155.86 133.18,-153.4 132.08,-152.34 131.29,-150.98 130.5,-149.67 129.67,-148.31 129,-146.83 128.57,-145.29 128.39,-144.66 128.17,-143.36 128.17,-143.36 M130.82,-130.73 L131.54,-129.93 132.31,-129.38 135.54,-127.97 135.64,-127.97 M150.12,-153.07 C150.12,-153.07 149.64,-153.4 149.49,-153.65 149.29,-154 148.97,-154.35 148.58,-154.45 147.59,-154.71 146.6,-155.04 145.57,-155.12 144.39,-155.2 143.27,-154.53 142.09,-154.36 141.76,-154.31 141.46,-154.11 141.21,-153.89 140.25,-153.03 138.75,-152.85 137.9,-151.88 136.95,-150.8 135.72,-149.95 134.94,-148.74 134.11,-147.47 133.21,-146.22 132.59,-144.83 132.2,-143.96 131.66,-142.11 131.66,-142.11 M134.69,-162.37 L134.9,-162.28 135.55,-161.71 M130.15,-159.86 L128.8,-159.56 125.86,-157.85 123.19,-155.21 121.02,-151.95 119.64,-148.38 119.63,-148.28 M137.06,-156.43 L136.17,-157.64 M137.2,-157.24 C136.61,-157.61 135.94,-158.07 135.25,-157.99 134.46,-157.91 133.65,-157.85 132.88,-157.62 131.96,-157.33 131.21,-156.63 130.37,-156.13 129.39,-155.56 128.8,-154.5 128.01,-153.68 127.15,-152.8 126.65,-151.61 126.09,-150.5 125.51,-149.37 125.04,-148.16 124.83,-146.91 124.74,-146.41 124.65,-145.39 124.65,-145.39 M141.65,-154.12 L139.89,-154.12 M138.16,-153.36 L140.89,-154.57 M138.23,-153.41 L135.61,-151.16 133.36,-148.04 131.74,-144.35 131.31,-142.26 M141.22,-150.1 L140.2,-149.5 137.67,-146.89 135.67,-143.64 134.42,-140.13 M145.14,-133.42 L144.55,-134.04 144.18,-134.9 144.05,-135.95 144.18,-137.11 144.55,-138.31 145.14,-139.46 145.91,-140.49 146.8,-141.32 147.76,-141.91 148.73,-142.2 149.62,-142.18 150.39,-141.85 M154.47,-148.49 C150.9,-151.34 144.99,-148.81 141.27,-142.83 137.54,-136.85 137.41,-129.69 140.98,-126.83 140.98,-126.83 140.98,-126.83 140.98,-126.83 M140.19,-124.92 L139.87,-125.05 M155.83,-150.01 L155.58,-150.27 M152.4,-152.09 C149.9,-154.1 145.88,-153.51 141.67,-150.52 M141.67,-150.52 C139.68,-149.1 138.02,-146.95 136.69,-144.95 135.98,-143.87 135.45,-142.68 134.92,-141.5 134.72,-141.03 134.47,-140.02 134.47,-140.02 M133.73,-131.99 L133.81,-131.3 134.92,-128.73 136.69,-126.88 M152.4,-152.09 L155.58,-150.27 M136.69,-126.88 L139.87,-125.05 M133.41,-163.5 C129.32,-166.78 122.14,-163.51 117.26,-156.16 M117.26,-156.16 L115.44,-152.61 114.93,-150.96 M133.41,-163.5 L135.64,-162.22 135.66,-162.2 M136.69,-150.6 L136.53,-151.95 M133.78,-155.1 L134.57,-154.65 M137.66,-151.62 L137.7,-152.04 M136.72,-156.28 L136.58,-156.62 135.26,-157.99 M141.25,-115.54 L141.12,-115.71 M137.22,-115.83 L136.89,-116.02 M141.12,-115.71 L137.86,-117.58 M161.22,-155.15 L161.53,-154.83 M161.22,-155.15 L161.11,-155.22 151.12,-160.97 M139.92,-167.42 L151.12,-160.97 M139.92,-167.42 L139.9,-167.43 M133.64,-163.84 L133.43,-163.49 M139.07,-124.18 L139.47,-124.83 139.48,-124.83 140,-124.61 M136.6,-162.14 L138.75,-165.57 139.52,-166.81 139.9,-167.43 M136.6,-162.14 L135.39,-162.84 133.64,-163.84 M106.06,-119.58 L105.32,-118.41 104.44,-116.99 M116.23,-108.8 L104.44,-116.99 M133.44,-104.06 L134.17,-103.73 135.01,-103.66 135.91,-103.86 136.84,-104.3 140.63,-106.65 M133.44,-104.06 C126.43,-108.3 119.23,-112.25 112.13,-116.33 M106.06,-119.58 C106.33,-120.03 106.61,-120.47 106.89,-120.92 110.28,-126.36 117.07,-137.25 117.07,-137.25 M162.19,-121.91 C162.19,-121.91 162.03,-119.73 161.85,-118.66 161.65,-117.48 161.24,-116.35 160.85,-115.23 160.02,-112.92 158.63,-110.79 157.14,-108.87 M144.11,-103.34 C148.32,-101.96 153.48,-104.15 157.14,-108.87 M130.47,-105.77 L128.24,-105.13 123.38,-105.29 119.19,-107.09 M139.54,-105.98 L144.11,-103.34 M116.23,-108.8 L119.19,-107.09 M135.11,-109.1 L134.94,-108.68 134.94,-108.28 135.11,-108.02 M136.05,-109.53 L135.75,-109.59 135.41,-109.43 135.11,-109.1 M141.35,-113.78 L141.37,-113.67 141.42,-113.51 M141.65,-113.4 L141.9,-113.4 M142.4,-114.66 L142.56,-114.7 142.67,-114.73 142.79,-114.63 M140.64,-114.18 L140.67,-114.08 140.72,-113.92 140.79,-113.86 M140.95,-113.8 L141.16,-113.8 M141.69,-115.07 L141.86,-115.11 141.97,-115.13 142.09,-115.04 M142.05,-113.37 L142.08,-113.26 142.13,-113.1 142.28,-112.99 142.66,-112.99 M143.1,-114.26 L143.26,-114.3 143.38,-114.32 143.49,-114.23 M142.76,-112.96 L142.79,-112.85 142.83,-112.7 142.98,-112.59 143.36,-112.59 M142.53,-113.07 L142.76,-112.94 M143.45,-114.05 L143.68,-113.92 143.81,-113.85 M143.23,-112.67 L143.47,-112.54 M144.16,-113.65 L144.38,-113.52 144.51,-113.45 M143.94,-112.27 L144.17,-112.13 M144.59,-112.06 L144.85,-112.24 145.04,-112.53 145.11,-112.85 145.05,-113.11 144.94,-113.2 M144.86,-113.24 L144.9,-113.22 144.94,-113.2 M143.81,-113.85 L143.96,-113.89 144.08,-113.92 144.19,-113.82 M143.47,-112.56 L143.49,-112.44 143.54,-112.29 143.68,-112.19 144.06,-112.18 M140.43,-114.29 L140.65,-114.16 M144.51,-113.45 L144.66,-113.48 144.79,-113.51 144.89,-113.42 M144.17,-112.15 L144.15,-112.06 144.16,-111.93 144.27,-111.85 144.59,-112.06 M141.34,-115.27 L141.59,-115.13 141.69,-115.07 M141.13,-113.88 L141.35,-113.75 M142.05,-114.87 L142.29,-114.73 142.4,-114.66 M141.83,-113.48 L142.06,-113.35 M142.75,-114.46 L142.99,-114.32 143.1,-114.26 M141.38,-115.44 L141.42,-115.23 M141.38,-115.44 L141.27,-115.54 M141.26,-113.8 L141.26,-113.8 M142.09,-115.04 L142.12,-114.82 M141.96,-113.4 L141.97,-113.4 M142.79,-114.63 L142.83,-114.42 M142.66,-112.99 L142.67,-113 M143.49,-114.23 L143.53,-114.01 M143.36,-112.59 L143.37,-112.59 M144.19,-113.82 L144.23,-113.61 M144.06,-112.18 L144.07,-112.19 M144.89,-113.42 L144.93,-113.2 M140.99,-115.47 L141.16,-115.52 141.27,-115.54 M140.99,-115.47 L140.01,-114.32 M135.65,-118.84 L134.69,-117.31 M103.13,-118.51 L104.67,-117.62 M103.13,-118.51 L103.91,-118.06 104.67,-117.62 M103.13,-118.51 L104.03,-119.94 104.75,-121.1 104.95,-121.42 105.13,-121.72 105.36,-122.08 105.58,-122.44 105.81,-122.8 106,-123.1 106.22,-123.47 106.42,-123.77 107.07,-124.83 107.84,-126.07 M103.13,-118.51 L104.71,-117.42 M131.65,-164.26 L132.34,-165.36 M109.5,-125.1 L109.38,-125.18 M136.8,-162.45 L133.88,-164.48 133.1,-164.93 132.34,-165.36 M109.38,-125.18 L108.6,-125.63 107.84,-126.07 M118.7,-112.55 L117.95,-111.44 M122.97,-107.73 L124.12,-109.43 M118.55,-108.48 L117.95,-111.44 M120.22,-107.51 L118.55,-108.48 M122.97,-107.73 L120.22,-107.51 M61.047,-146.85 L58.643,-148.24 M61.047,-146.85 L61.187,-147.08 61.285,-147.23 61.577,-147.7 61.825,-148.1 62.088,-148.52 62.463,-149.12 62.64,-149.41 63.1,-150.15 63.151,-150.23 63.285,-150.44 M61.047,-146.85 L60.225,-147.33 58.643,-148.24 M85.353,-185.85 L82.949,-187.23 M85.353,-185.85 L85.492,-186.07 85.591,-186.23 85.883,-186.7 86.131,-187.1 86.394,-187.52 86.768,-188.12 86.946,-188.4 87.406,-189.14 87.457,-189.22 87.591,-189.44 M85.353,-185.85 L84.53,-186.32 82.949,-187.23 M127.7,-199.08 L133.95,-195.48 M127.7,-199.08 L128.58,-198.58 128.67,-198.52 M127.7,-199.08 L127.7,-199.08 M97.319,-187.47 C96.992,-177.75 103.88,-174.23 112.71,-179.61 119.06,-183.48 124.94,-191.12 127.7,-199.08 M82.949,-187.23 L83.134,-187.17 83.771,-187.32 84.409,-187.75 84.949,-188.41 85.31,-189.2 85.437,-189.99 85.31,-190.66 85.186,-190.82"/>
      <path stroke="#000" d="M82.949,-187.23 L82.865,-187.1 82.845,-187.06 81.807,-185.4 M58.643,-148.24 L58.828,-148.18 59.466,-148.32 60.103,-148.76 60.643,-149.42 61.004,-150.21 61.131,-151 61.004,-151.67 60.881,-151.83 60.964,-151.96 60.985,-151.99 61.845,-153.37 M58.643,-148.24 L57.903,-147.05 55.838,-143.74 55.786,-143.65 M101.98,-213.89 L108.23,-210.29 M101.98,-213.89 L103.27,-213.15 105.46,-211.89 M101.98,-213.89 L98.118,-207.69 94.651,-202.13 M139.77,-167.22 L139.77,-189.71 M82.688,-184.79 L81.807,-185.4 M162.73,-122.49 L162.61,-122.18 162.17,-121.71 M124.97,-170.47 L132.33,-165.36 M121.57,-161.13 L118.49,-163.2 113.89,-166.2 112.15,-167.32 M111.66,-167.63 L111.55,-167.7 109.24,-169.16 107.02,-170.53 104.94,-171.81 103.04,-172.95 101.36,-173.93 99.934,-174.74 98.796,-175.35 97.967,-175.75 97.965,-175.75 M119.3,-107.05 C119.3,-107.05 116.28,-101.36 113.79,-99.485 110.09,-96.705 105.37,-95.614 101.14,-93.729 100.4,-93.401 99.462,-93.16 98.662,-93.094 98.2,-93.056 97.734,-93.018 97.27,-93.043 97.029,-93.055 96.548,-93.113 96.548,-93.113 M107.84,-126.06 L97.55,-133.21 M114.4,-108.07 L113.21,-108.16 112.17,-108.62 M128.67,-198.52 L129.38,-198.11 M124.97,-170.47 L125.01,-172.06 124.72,-173.47 124.12,-174.61 123.64,-175.06 M129.38,-198.11 L131.39,-196.96 M100.25,-100.29 L99.99,-99.772 99.361,-99.346 98.461,-99.076 97.427,-99.003 96.548,-99.12 M107.48,-210.72 L108.23,-210.29 M107.05,-210.97 L107.48,-210.72 M96.548,-102.21 L96.548,-92.252 M86.556,-87.707 L96.548,-92.252 M96.548,-102.21 L90.552,-106.37 M106.55,-211.26 L106.76,-211.13 107.05,-210.97 M105.46,-211.89 L106.55,-211.26 M93.44,-192.45 L94.128,-193.55 95.229,-195.32 98.204,-200.09 M88.111,-195.51 L88.058,-195.43 85.671,-191.6 85.186,-190.82 M80.796,-91.023 L86.556,-87.707 M84.331,-92.631 C85.171,-93.142 85.363,-94.413 85.372,-95.281 85.445,-102.69 85.372,-117.54 85.372,-117.54 M95.714,-123.65 L94.375,-123.03 93.071,-122.78 91.871,-122.92 M90.553,-123.27 L90.552,-106.37 M62.131,-139.63 L62.284,-139.88 M52.213,-136.63 L54.113,-139.68 54.99,-141.09 55.399,-141.74 56.21,-143.04 M52.213,-134.05 L52.213,-136.63 M85.034,-140.41 L72.01,-147.91 M105.66,-112.37 L112.17,-108.62 M90.824,-123.44 L86.121,-126.15 84.785,-126.93 M91.871,-122.92 L90.824,-123.44 M55.786,-143.65 L56.238,-143.35 60.941,-140.65 62.284,-139.88 M145.11,-201.63 L145.11,-193.21 C144.92,-192.26 144.15,-191.71 143.33,-191.32 137.78,-188.76 126.63,-183.73 126.63,-183.73 L125.19,-184.55 123.07,-185.77 M86.038,-118.61 L85.572,-117.86 85.372,-117.54 M78.972,-122.68 L78.972,-122.68 M94.651,-202.13 L96.772,-200.91 98.204,-200.09 M79.392,-131.42 L79.486,-130.07 79.688,-127.18 79.559,-126.37 78.972,-122.68 M78.047,-134.75 L78.625,-133.32 79.392,-131.42 M75.744,-136.95 L76.88,-135.86 78.047,-134.75 M72.641,-137.86 L74.17,-137.41 75.744,-136.95 M68.948,-137.43 L70.474,-137.61 72.641,-137.86 M64.918,-135.68 L65.897,-136.1 68.948,-137.43 M72.115,-137.8 C72.115,-137.8 71.275,-136.13 71.102,-135.22 70.897,-134.14 70.71,-133.03 70.746,-131.93 70.788,-130.69 70.843,-129.44 71.102,-128.23 M71.102,-128.23 C72.04,-123.85 73.733,-120.02 75.968,-117.23 M76.762,-116.5 L75.968,-117.23 M131.39,-196.96 L133.95,-195.48 M94.17,-127.79 L93.347,-128.26 91.766,-129.17 M118.48,-166.78 L117.65,-167.25 116.07,-168.16 M62.131,-139.63 L56.21,-143.04 M90.553,-123.27 L84.632,-126.68 M94.17,-127.79 L91.766,-129.17 M97.55,-133.21 L85.034,-140.41 M111.71,-168.19 L86.145,-182.9 M111.71,-168.19 L86.275,-182.83 M123.64,-175.06 L118.31,-178.13 M118.48,-166.78 L116.07,-168.16 M93.44,-192.45 L88.111,-195.51 M86.038,-118.61 L84.039,-115.4 M86.038,-118.61 L82.892,-120.42 81.761,-121.07 81.026,-121.5 80.852,-121.6 79.201,-122.55 79.179,-122.56 79.151,-122.58 78.972,-122.68 M86.038,-118.61 L85.426,-117.63 84.039,-115.4 M61.006,-119.31 C61.953,-116.84 63.16,-114.24 64.828,-112.16 65.612,-111.18 66.398,-110.18 67.347,-109.36 68.198,-108.63 69.054,-107.86 70.051,-107.35 70.913,-106.9 71.796,-106.41 72.754,-106.25 73.013,-106.21 73.541,-106.22 73.541,-106.22 M61.006,-119.31 L59.962,-123.16 59.606,-126.86 59.962,-130.16 61.006,-132.81 61.129,-132.95 M78.972,-122.68 L78.946,-122.52 78.914,-122.32 78.241,-120.38 77.766,-119.02 M84.331,-92.631 L82.999,-92.025 M54.063,-137.02 L52.728,-134.87 52.065,-133.81 M58.34,-134.56 L57.209,-135.21 54.063,-137.02 M58.34,-134.56 L59.075,-134.13 59.249,-134.03 60.9,-133.08 60.922,-133.07 60.95,-133.05 61.129,-132.95 M108.23,-210.29 C111.65,-210.9 114.96,-210.88 118.41,-210.38 120.9,-210.02 123.13,-209.21 125.34,-208.04 126.21,-207.58 126.97,-206.93 127.69,-206.27 128.27,-205.74 129.01,-204.32 129.01,-204.32 M128.77,-202.82 L128.58,-201.59 127.7,-199.08 M133.95,-195.48 L143.33,-199.75 144.24,-200.29 144.85,-200.93 145.11,-201.63 145.11,-203.93 M101.98,-213.89 L103.41,-216.19 103.98,-217.1 M133.95,-195.48 L130.38,-197.54 129.05,-198.3 128.67,-198.52 128.58,-198.58 127.7,-199.08 M106.88,-211.07 L107.26,-210.85 107.35,-210.8 108.23,-210.29 M101.98,-213.89 L105.55,-211.83 106.88,-211.07 M84.039,-115.4 L80.709,-110.06 M84.039,-115.4 L80.103,-117.67 78.688,-118.49 78.44,-118.63 78.381,-118.66 77.766,-119.02 M84.039,-115.4 L82.695,-113.25 80.709,-110.06 M84.039,-115.4 C84.039,-108.5 84.095,-101.58 84.039,-94.675 84.032,-93.808 83.838,-92.536 82.999,-92.025 M56.524,-117.27 L55.481,-121.12 55.125,-124.82 55.309,-126.52 55.125,-126.63 54.939,-126.74 M76.118,-115.28 L76.192,-114.5 M75.821,-114.71 L76,-114.61 76.192,-114.5 M72.163,-104.69 C72.163,-104.69 71.267,-104.23 70.785,-104.11 69.971,-103.91 69.095,-104.08 68.267,-104.22 66.309,-104.54 64.279,-106.11 62.863,-107.33 M56.524,-117.27 C58.198,-112.91 60.403,-109.45 62.863,-107.33 M57.831,-117.86 L56.788,-121.72 56.433,-125.42 56.769,-128.53 56.43,-128.72 56.399,-128.74 M77.228,-117.49 L77.293,-117.25 77.346,-116.69 M76.974,-116.9 L76.994,-116.89 77.343,-116.68 M72.237,-104.77 C72.237,-104.77 72.142,-104.72 72.091,-104.71 71.277,-104.51 70.401,-104.67 69.573,-104.81 68.616,-104.97 67.733,-105.46 66.872,-105.91 65.875,-106.42 65.02,-107.19 64.17,-107.92 M57.831,-117.86 C59.508,-113.5 61.711,-110.04 64.17,-107.92 M77.625,-117.26 L77.621,-117.24 77.583,-117.14 77.366,-116.73 77.343,-116.68 M76.192,-114.5 L76.326,-114.76 76.488,-115.07 M75.821,-114.71 L75.521,-114.14 75.081,-113.3 75.166,-112.42 74.81,-109.13 73.766,-106.47 72.106,-104.63 M76.974,-116.9 L76.359,-115.74 76.118,-115.28 M59.007,-118.4 C60.683,-114.03 62.889,-110.57 65.349,-108.45 M65.349,-108.45 C66.2,-107.72 67.055,-106.95 68.052,-106.44 68.914,-105.99 69.797,-105.5 70.755,-105.34 71.388,-105.23 72.681,-105.26 72.681,-105.26 M59.007,-118.4 L57.964,-122.26 57.608,-125.96 57.964,-129.25 58.338,-130.2 M77.766,-119.02 L77.617,-118.59 77.228,-117.49 M51.368,-105.61 C51.657,-105.36 51.956,-105.12 52.287,-104.93 60.557,-100.14 68.833,-95.304 77.156,-90.611 77.444,-90.448 77.749,-90.292 78.075,-90.238 78.357,-90.191 78.655,-90.135 78.932,-90.203 79.19,-90.267 79.464,-90.34 79.668,-90.51 M82.999,-92.025 L79.668,-90.51 M52.065,-133.81 L50.147,-130.73 48.734,-128.47 48.734,-111.92 M50.738,-106.31 L51.368,-105.61 M57.417,-130.73 L56.002,-131.55 52.065,-133.81 M57.417,-130.73 L57.665,-130.59 57.723,-130.55 58.338,-130.2 M135.95,-198.69 L139.28,-204.03 M135.95,-198.69 L133.14,-200.31 132.1,-200.91 131.21,-201.42 131,-201.54 129.54,-202.38 129.46,-202.42 129.37,-202.48 128.77,-202.82 M135.95,-198.69 L143.33,-202.04 144.24,-202.58 144.85,-203.23 145.11,-203.93 M135.95,-198.69 L136.74,-199.95 139.28,-204.03 M115.8,-215.88 L115.58,-216.01 115.06,-216.3 M115.8,-215.88 L118.41,-215.62 122.17,-214.69 125.34,-213.29 127.69,-211.51 129.06,-209.49 129.25,-208.14 129.83,-207.8 129.99,-207.71 M113.12,-214.38 C116.22,-214.5 119.22,-213.99 122.17,-213.09 124.3,-212.43 126.06,-211.4 127.69,-209.91 128.29,-209.36 128.7,-208.62 129.06,-207.89 129.32,-207.37 129.31,-206.17 129.31,-206.17 M113.12,-214.38 L112.77,-214.59 112.56,-214.71 M129.29,-205.08 L129.02,-204.35 M129.14,-205.16 L129.32,-205.06 129.71,-204.83 129.65,-204.44 129.58,-204.02 M130.03,-206.81 L130.05,-206.94 M129.14,-205.16 L129.37,-206.55 M111.16,-212.96 L114.29,-213.08 C114.29,-213.08 117.04,-212.87 118.41,-212.68 119.69,-212.49 120.94,-212.12 122.17,-211.74 123.28,-211.4 124.32,-210.88 125.34,-210.34 126.21,-209.88 126.97,-209.23 127.69,-208.56 128.29,-208.01 129.06,-206.54 129.06,-206.54 L129.21,-205.54 M129.27,-205.09 L129.28,-205.04 M128.77,-202.82 L128.86,-203.37 129.02,-204.35 M145.11,-203.93 L145.11,-207.76 145.01,-208.47 144.55,-209.14 143.77,-209.74 141.77,-210.89 M138.32,-212.87 L119.28,-223.84 M111.02,-224.13 L107.31,-222.44 M103.98,-217.1 L106.76,-221.56 107.31,-222.44 M107.83,-214.88 L108.72,-214.37 108.92,-214.25 110.39,-213.41 110.47,-213.36 110.56,-213.31 111.16,-212.96 M103.98,-217.1 L106.79,-215.48 107.83,-214.88 M52,-114.55 L49.811,-113.56 48.237,-111.17 M54.986,-112.75 L52,-114.55 M49.648,-106.97 L52.634,-105.17 54.823,-106.16 M49.648,-106.97 L48.237,-111.17 M54.986,-112.75 L56.398,-108.55 M54.823,-106.16 L56.398,-108.55 M74.485,-101.6 L72.297,-100.61 70.736,-98.193 M77.472,-99.816 L74.485,-101.6 M72.163,-93.999 L75.149,-92.217 77.338,-93.21 M72.163,-93.999 L70.736,-98.193 M77.472,-99.816 L78.898,-95.622 M77.338,-93.21 L78.898,-95.622 M116.4,-225.87 L119.28,-224.1 M116.4,-225.87 L111.99,-225.5 M119.26,-221.58 L117.74,-219.43 M119.28,-224.1 L119.26,-221.58 M110.47,-223.35 L111.99,-225.5 M110.45,-220.82 L110.47,-223.35 M113.33,-219.06 L110.45,-220.82 M113.33,-219.06 L117.74,-219.43 M132.96,-207.86 L132.98,-210.39 M135.86,-206.1 L132.96,-207.86 M132.98,-210.39 L134.48,-212.53 M135.86,-206.1 L140.26,-206.49 M138.87,-212.92 L134.48,-212.53 M141.75,-208.64 L140.26,-206.49 M141.77,-211.16 L141.75,-208.64 M138.87,-212.92 L141.77,-211.16 M106.84,-136.71 L113.21,-131.64 113.48,-131.5 M80.464,-143.04 L80.318,-143.83 M132.76,-135.26 L132.62,-135.33 132.45,-135.32 132.27,-135.24 132.1,-135.09 131.97,-134.9 131.88,-134.68 131.84,-134.46 131.88,-134.27 131.97,-134.13 M133.98,-132.21 L132.92,-131.28 131.8,-130.77 130.74,-130.73 129.88,-131.17 M133.98,-132.21 L134.85,-133.43 135.41,-134.81 135.6,-136.17 135.41,-137.36 134.85,-138.22 M21.047,-203.03 L21.047,-201.87 M19.92,-202.52 L22.825,-200.84 M30.393,-196.49 L32.843,-195.08 33.969,-195.59 M17.24,-197.63 L17.436,-198.99 17.999,-200.37 18.862,-201.59 19.92,-202.52 M40.47,-182.64 C40.47,-182.64 33.909,-186.01 30.921,-188.14 26.878,-191.02 22.302,-193.1 17.999,-195.58 M22.968,-202.63 C27.271,-200.15 31.847,-198.07 35.89,-195.19 37.464,-194.07 40.919,-192.29 40.919,-192.29 M22.968,-202.63 L22.105,-203.07 21.047,-203.03 M58.767,-182.02 L57.904,-182.46 56.846,-182.42 55.72,-181.91 54.661,-180.98 53.798,-179.76 53.235,-178.38 53.04,-177.02 53.235,-175.83 53.798,-174.97 M52.934,-175.46 L53.743,-175.05 M57.958,-182.43 L57.902,-182.52 M58.767,-182.02 L68.284,-176.54 M61.874,-170.32 L53.798,-174.97 M50.196,-177.04 L52.934,-175.46 M55.165,-184.09 L57.902,-182.52 M17.999,-195.58 L17.436,-196.44 17.24,-197.63 M134.85,-138.22 L132.87,-139.36 M128.49,-141.88 L128.3,-141.99 M112.53,-151.07 L107.83,-153.77 M129.88,-131.17 L127.9,-132.31 M124.24,-134.41 L123.33,-134.94 M108.24,-143.63 L103.63,-146.28 M31.646,-197.1 L24.12,-201.43 22.749,-200.81 M22.749,-200.72 L22.749,-200.81 M31.646,-197.01 L31.646,-197.1 M125.54,-131.64 L124.81,-132.4 124.36,-133.45 124.2,-134.74 124.36,-136.16 124.81,-137.63 125.54,-139.05 126.48,-140.31 127.58,-141.33 128.76,-142.04 129.94,-142.4 131.04,-142.38 131.98,-141.98 M127.2,-130.68 L128.14,-130.28 129.24,-130.26 130.42,-130.62 130.67,-130.77 M134.96,-138.05 L134.82,-139.21 134.36,-140.26 133.64,-141.02 131.98,-141.98 M127.2,-130.68 L125.54,-131.64 M109.32,-141.7 L108.68,-142.38 108.27,-143.32 108.14,-144.46 108.27,-145.73 108.68,-147.04 109.32,-148.3 110.16,-149.42 111.14,-150.33 112.19,-150.97 113.24,-151.29 114.22,-151.27 115.06,-150.91 M122.95,-133.86 L123.79,-133.5 124.35,-133.49 M129.4,-142.24 L129.33,-142.39 128.69,-143.07 M109.32,-141.7 L122.95,-133.86 M115.06,-150.91 L128.69,-143.07 M123.52,-144.14 L122.58,-143.5 121.7,-142.64 120.95,-141.61 120.35,-140.47 119.95,-139.28 119.77,-138.11 119.81,-137.03 M124.48,-144.52 L123.52,-144.14 M41.553,-180.76 L40.908,-181.43 40.502,-182.37 40.364,-183.51 40.502,-184.78 40.908,-186.09 41.553,-187.35 42.393,-188.47 43.372,-189.39 44.422,-190.02 45.472,-190.34 46.451,-190.32 47.291,-189.96 M49.848,-175.98 L50.689,-175.62 51.667,-175.6 52.343,-175.8 M56.679,-183.22 L56.637,-183.57 56.232,-184.51 55.587,-185.19 M41.553,-180.76 L49.848,-175.98 M47.291,-189.96 L55.587,-185.19 M50.893,-185.98 L49.949,-185.34 49.074,-184.48 48.318,-183.46 47.723,-182.32 47.323,-181.13 47.14,-179.96 47.185,-178.88 M51.854,-186.37 L50.893,-185.98 M68.884,-182.09 L69.574,-182.66 M68.884,-182.09 L68.211,-175.87 M69.598,-182.68 L70.311,-183.27 M60.588,-169.62 L60.711,-169.79 M64.737,-171.61 L65.15,-171.81 66.585,-173.87 68.211,-175.87 M60.588,-169.62 L59.867,-167.84 M59.513,-165.81 L59.513,-165.82 M59.513,-165.81 L59.588,-165.77 M59.517,-165.84 L59.867,-167.84 M63.352,-163.51 L63.515,-162.12 M83.632,-184.98 L82.42,-184.73 M83.632,-184.98 L83.926,-184.84 M83.632,-184.98 L85.439,-183.77 M83.632,-184.98 L85.815,-183.57 M94.739,-177.83 L108.28,-169.11 M112.73,-166.24 L120.2,-161.43 120.75,-160.37 M112.89,-161.31 L114.04,-160.68 115.45,-159.75 M71.076,-183.86 L70.311,-183.27 M71.076,-183.86 L72.638,-184.69 M71.076,-183.86 L69.574,-182.66 M59.513,-165.82 L59.925,-167.94 M59.513,-165.82 L63.411,-163.48 M63.568,-161.78 L63.515,-162.12 M63.568,-161.78 C74.782,-157.59 85.7,-152.54 96.813,-148.09 M63.568,-161.78 C74.546,-157 85.925,-153.07 96.813,-148.09 97.127,-147.95 97.501,-148.18 97.846,-148.17 M63.568,-161.78 L63.958,-160.24 M96.813,-148.09 L97.846,-148.17 103.53,-148.76 M97.846,-148.17 L103.53,-148.76 103.38,-147.29 103.79,-145.67 104.75,-144.64 106.12,-144.36 M103.53,-148.76 L104.35,-150.76 105.66,-152.44 107.22,-153.58 108.39,-153.94 109.75,-153.66 110.72,-152.63 M112.92,-160.49 L112.72,-166.37 M111.2,-140.63 L109.65,-139.55 107.69,-138.45 104.63,-132.23 M79.244,-181.81 L82.42,-184.73 M61.742,-154.42 L63.881,-160.55 M112.72,-166.37 L112.06,-167.45 M104.63,-132.23 L104.38,-131.88 102.83,-131.46 101.37,-131.46 M101.02,-137.53 L99.402,-138.23 97.91,-139.14 M93.239,-137.48 L97.989,-139.17 M65.479,-171.94 L60.711,-169.79 M112.06,-167.45 C98.902,-173.12 85.648,-178.69 72.638,-184.69 M101.37,-131.46 L93.527,-137.59 M93.239,-137.48 L65.049,-151.33 M92.574,-138.75 L62.534,-152.52 M61.559,-153.73 L62.534,-152.52 M61.559,-153.73 L61.742,-154.42 M132.76,-135.26 L132.62,-135.33 132.45,-135.32 132.27,-135.24 132.1,-135.09 131.97,-134.9 131.88,-134.68 131.84,-134.46 131.88,-134.27 131.97,-134.13 M133.98,-132.21 L132.92,-131.28 131.8,-130.77 130.74,-130.73 129.88,-131.17 M133.98,-132.21 L134.85,-133.43 135.41,-134.81 135.6,-136.17 135.41,-137.36 134.85,-138.22 M21.047,-203.03 L21.047,-201.87 M19.92,-202.52 L22.825,-200.84 M30.393,-196.49 L32.843,-195.08 33.969,-195.59 M17.24,-197.63 L17.436,-198.99 17.999,-200.37 18.862,-201.59 19.92,-202.52 M40.47,-182.64 C40.47,-182.64 33.909,-186.01 30.921,-188.14 26.878,-191.02 22.302,-193.1 17.999,-195.58 M22.968,-202.63 C27.271,-200.15 31.847,-198.07 35.89,-195.19 37.464,-194.07 40.919,-192.29 40.919,-192.29 M22.968,-202.63 L22.105,-203.07 21.047,-203.03 M58.767,-182.02 L57.904,-182.46 56.846,-182.42 55.72,-181.91 54.661,-180.98 53.798,-179.76 53.235,-178.38 53.04,-177.02 53.235,-175.83 53.798,-174.97 M52.934,-175.46 L53.743,-175.05 M57.958,-182.43 L57.902,-182.52"/>
      <path stroke="#000" d="M58.767,-182.02 L68.284,-176.54 M61.874,-170.32 L53.798,-174.97 M50.196,-177.04 L52.934,-175.46 M55.165,-184.09 L57.902,-182.52 M17.999,-195.58 L17.436,-196.44 17.24,-197.63 M134.85,-138.22 L132.87,-139.36 M128.49,-141.88 L128.3,-141.99 M112.53,-151.07 L107.83,-153.77 M129.88,-131.17 L127.9,-132.31 M124.24,-134.41 L123.33,-134.94 M108.24,-143.63 L103.63,-146.28 M36.132,-184.96 L40.492,-182.45 M36.458,-184.78 L36.929,-184.68 M40.922,-192.29 L40.78,-192.42 M43.948,-177.45 L43.79,-177.41 M51.019,-187.82 L51.019,-189.41 M50.868,-189.99 L50.27,-191.61 M49.976,-191.95 L49.127,-192.73 M43.126,-196.19 L47.544,-193.64 49.127,-192.73 M43.126,-196.19 L42.135,-194.59 40.78,-192.42 M33.786,-181.2 L34.144,-180.87 37.775,-178.78 M33.786,-181.2 L34.688,-182.65 36.132,-184.96 M57.104,-149.12 L58.643,-148.24 M57.104,-149.12 L58.117,-148.54 58.643,-148.24 M57.104,-149.12 L57.289,-149.07 57.926,-149.21 58.564,-149.65 59.104,-150.31 59.465,-151.09 59.592,-151.88 59.465,-152.56 59.341,-152.71 M57.104,-149.12 L57.002,-148.96 56.948,-148.87 55.773,-146.99 M81.41,-188.12 L82.949,-187.23 M81.41,-188.12 L82.422,-187.54 82.949,-187.23 M81.41,-188.12 L81.595,-188.06 82.232,-188.2 82.869,-188.64 83.41,-189.3 83.771,-190.09 83.897,-190.88 83.771,-191.55 83.647,-191.71 M81.41,-188.12 L81.326,-187.98 81.305,-187.95 80.267,-186.29 82.483,-184.75 M84.978,-193.84 L84.87,-193.67 83.803,-191.96 83.749,-191.87 83.647,-191.71 M60.484,-154.55 L60.389,-154.39 59.446,-152.88 59.425,-152.85 59.341,-152.71 M57.233,-145.97 L55.773,-146.99 M61.605,-153.9 L60.484,-154.55 M86.517,-192.96 L84.978,-193.84 M52.14,-194.08 L56.461,-201.02 M52.14,-194.08 L51.605,-193.23 M52.14,-194.08 L54.085,-197.2 M52.14,-194.08 L51.614,-193.24 M40.592,-175.56 L40.341,-175.15 36.689,-169.3 M40.592,-175.56 L40.474,-175.37 38.112,-171.58 M51.605,-193.23 L51.614,-193.24 M40.474,-175.37 L36.689,-169.3 M51.614,-193.24 L56.461,-201.02 M71.279,-232.53 L70.332,-231.01 70.268,-230.91 M71.279,-232.53 L73.705,-231.14 76.016,-229.81 85.424,-223.27 M53.455,-203.94 L47.312,-194.08 47.254,-193.99 47.549,-193.64 M77.146,-209.99 L78.895,-189.82 M85.424,-223.27 L67.353,-194.28 M33.136,-171.34 C33.269,-171.2 33.378,-171.04 33.535,-170.93 40.294,-166.27 47.08,-161.61 53.908,-157.05 M33.136,-171.34 L37.697,-178.66 37.838,-178.88 M55.987,-161.29 L57.142,-158.83 58.377,-157.62 M57.08,-145.73 L52.812,-148.69 53.987,-150.58 54.041,-150.66 54.143,-150.83 M56.631,-153.59 L56.504,-152.8 56.143,-152.01 55.603,-151.35 54.965,-150.91 54.328,-150.77 54.143,-150.83 M80.449,-191.01 L79.908,-190.34 79.271,-189.91 78.634,-189.76 78.449,-189.82 M82.017,-195.55 L81.91,-195.37 80.842,-193.66 80.788,-193.58 80.686,-193.41 M38.112,-171.58 C38.73,-171.22 39.35,-170.87 39.968,-170.51 46.448,-166.78 52.948,-163.04 59.428,-159.31 M75.401,-184.93 C68.921,-188.66 62.421,-192.41 55.941,-196.14 55.323,-196.49 54.703,-196.85 54.085,-197.2 M76.101,-186.06 L75.421,-184.96 75.418,-184.96 75.401,-184.93 M80.686,-193.41 L80.81,-193.26 80.936,-192.58 80.81,-191.79 80.449,-191.01 M56.38,-154.42 L56.504,-154.26 56.631,-153.59 M82.017,-195.55 L82.196,-195.44 84.978,-193.84 M56.38,-154.42 L56.876,-155.21 59.428,-159.31 M76.101,-186.06 L76.249,-186.29 77.062,-187.6 78.449,-189.82 M68.097,-189.14 L63.313,-204.25 M56.058,-196.07 L58.332,-199.72 M69.177,-188.52 L67.353,-194.28 M56.934,-155.31 L53.908,-157.05 M61.334,-216.94 C64.15,-221.75 64.709,-226.89 62.71,-229.58 M61.334,-216.94 C60.334,-215.23 58.971,-213.84 57.452,-212.6 56.115,-211.5 54.642,-210.89 52.969,-210.56 52.287,-210.42 51.569,-210.5 50.88,-210.6 50.686,-210.63 50.338,-210.83 50.338,-210.83 M48.69,-211.78 L48.199,-211 46.335,-208 M60.816,-231.24 L62.492,-233.93 63.172,-235.02 M46.732,-207.59 L46.335,-208 M63.172,-235.02 L63.689,-234.8 M62.71,-229.58 L61.498,-230.85 M58.467,-202.94 L58.754,-202.78 59.059,-202.6 M61.279,-206.4 L60.882,-206.82 M67.053,-197.05 L65.182,-198.35 M60.929,-201.3 L59.059,-202.6 M59.732,-210.38 L59.335,-210.79 M66.751,-222.69 L67.269,-222.47 M57.922,-208.52 L59.873,-207.4 60.882,-206.82 M68.164,-224.95 L69.174,-224.37 71.125,-223.25 M59.335,-210.79 L58.502,-211.27 57.558,-211.81 M66.751,-222.69 L65.808,-223.23 64.975,-223.71 M66.339,-222.61 L66.872,-221.37 67.053,-219.87 66.872,-218.2 66.339,-216.48 65.492,-214.83 64.389,-213.35 63.103,-212.15 61.724,-211.32 60.345,-210.9 59.099,-210.93 M57.558,-211.81 L56.879,-210.72 55.203,-208.03 M64.975,-223.71 L66.226,-225.72 67.33,-227.49 M66.339,-222.61 L65.657,-223.32 M55.203,-208.03 L53.324,-209.12 48.69,-211.78 M67.33,-227.49 L62.696,-230.16 60.816,-231.24 M53.361,-203.79 L46.732,-207.59 M63.689,-234.8 L66.298,-233.29 70.268,-230.91 M71.125,-223.25 L71.642,-223.03 M42.249,-196.51 L42.801,-196.19 M42.249,-196.51 L42.36,-196.69 42.702,-197.24 M42.249,-196.51 L42.395,-196.43 42.801,-196.19 M42.249,-196.51 L42.937,-195.88 M33.892,-181.37 L33.69,-181.41 M32.621,-181.06 L33.173,-180.75 M32.621,-181.06 L32.972,-181.63 33.073,-181.79 M32.621,-181.06 L32.754,-180.99 33.173,-180.75 M32.621,-181.06 L33.009,-180.71 M33.625,-181.47 L33.206,-181.71 33.073,-181.79 M33.625,-181.47 L33.835,-181.28 M35.754,-179.94 L35.729,-179.94 33.561,-180.39 M44.629,-195.32 L44.44,-195.83 43.253,-196.92 M42.702,-197.24 L42.847,-197.15 43.253,-196.92 M33.009,-180.71 L33.561,-180.39"/>
      <path stroke="#000" stroke-width="0.18" d="M170.55,-133.7 L169.76,-134.94 M172.18,-137.62 L170.58,-136.9 M168.57,-135.63 L169.76,-134.94 170.58,-136.9 169.39,-137.59 M147.83,-132.71 L147.86,-132.69 148.46,-132.35 M147.83,-132.71 L147.88,-132.64 M147.83,-132.71 L146.92,-131.89 146.84,-131.82 M152.9,-139.52 L153.18,-140.52 153.26,-140.77 M153.02,-139.45 L150.39,-140.97 M153.02,-139.45 L154.28,-138.73 M153.02,-139.45 L149.76,-141.33 M149.09,-131.98 L149.11,-131.97 149.71,-131.62 M149.09,-131.98 L149.13,-131.92 M149.09,-131.98 L148.18,-131.16 148.1,-131.09 M154.16,-138.79 L154.44,-139.79 154.52,-140.05 M149.27,-142.19 L149.13,-141.69 M144.84,-133.73 L145.31,-134.16 M150.75,-142.22 L150.67,-141.98 150.39,-140.97 M145.58,-132.54 L145.67,-132.62 146.57,-133.43 M152,-141.5 L151.93,-141.25 151.65,-140.24 M149.36,-130.36 L149.43,-130.43 150.34,-131.26 M149.25,-130.14 L152.47,-128.28 154.66,-127.03 M165.78,-139.08 C162.14,-133.23 158.5,-127.38 154.85,-121.53 L154.73,-121.59 152.04,-123.16 M154.85,-121.53 L154.96,-121.21 M144.23,-134.78 L144.68,-134.52 M149.76,-141.33 L150.39,-140.97 M149.76,-141.33 L154.28,-138.73 M149.76,-141.33 L148.42,-142.1 M146.63,-133.37 L146.57,-133.43 M145.31,-134.16 L145.35,-134.14 145.94,-133.8 M145.31,-134.16 L145.37,-134.09 M150.39,-140.97 L151.65,-140.24 M150.39,-140.97 L152.28,-139.88 M146.57,-133.43 L146.6,-133.41 147.2,-133.07 M151.65,-140.24 L152.28,-139.88 M148.33,-127.07 L148.75,-126.83 148.82,-126.79 M161.92,-139.71 L160.35,-137.2 159.75,-137.54 159.61,-137.62 M160.35,-137.2 L160.61,-136.93 M154.42,-126.98 L154.22,-127.04 M156.15,-139.61 L156.28,-139.54 156.89,-139.19 M152.73,-124.45 L152.53,-124.65 M151.9,-128.43 L151.77,-128.22 M157.08,-139.08 L157.27,-138.97 158.16,-138.46 M161.43,-139.99 L163.06,-142.6 M152.05,-124.93 L150.4,-122.28 M152.05,-124.93 L152.46,-124.69 152.53,-124.65 M152.05,-124.93 L152.25,-124.73 M150.4,-122.28 L150.22,-122.39 147.17,-124.14 M150.4,-122.28 L150.56,-121.79 M150.76,-129.03 L150.81,-129.02 M150.94,-128.98 L151.3,-128.89 M158.48,-138.56 L158.32,-138.65 158.29,-138.67 M153.3,-127.57 L153.34,-127.56 M153.47,-127.52 L153.84,-127.43 M159.75,-137.4 L159.42,-137.73 M159.55,-137.94 L159.42,-137.73 M159.55,-137.94 L159.59,-137.92 159.74,-137.83 M159.55,-137.94 L159.71,-137.78 M157.02,-139.4 L156.89,-139.19 M157.02,-139.4 L157.05,-139.38 157.21,-139.29 M159.42,-137.73 L158.54,-138.24 158.35,-138.35 M152.03,-128.3 L152.07,-128.29 M152.2,-128.25 L152.57,-128.16 M158.48,-138.13 L158.16,-138.46 M158.44,-138.51 L158.29,-138.67 M156.17,-139.69 L156.03,-139.47 156.03,-139.47 M154.8,-140.48 L154.66,-140.26 154.66,-140.25 M153.43,-141.27 L153.29,-141.04 153.29,-141.04 M171.48,-142.29 L172.41,-141.92 173.27,-141.57 M148.39,-130.2 L148.25,-129.97 148.25,-129.97 M149.76,-129.41 L149.62,-129.18 149.62,-129.18 M149.17,-126 L149.17,-126 M158.88,-141.57 L158.88,-141.57 M153.3,-141.03 L154.01,-140.3 154.23,-139.78 M149.45,-130.69 L149.02,-130.56 147.95,-130.58 147.03,-130.98 M147.02,-130.98 L146.88,-130.76 146.88,-130.76 M157.16,-138.81 L157.17,-138.84 158.88,-141.57 M150.89,-128.76 L149.19,-126.03 149.17,-126 M158.88,-141.57 L158.87,-141.58 158.3,-141.91 M149.17,-126 L148.59,-126.33 148.59,-126.33 M149.78,-129.4 L149.77,-129.4 M154.67,-140.25 L155.2,-139.7 M149.74,-129.79 L149.32,-129.8 148.4,-130.19 M154.16,-144.29 L154.74,-143.96 154.74,-143.95 M144.46,-128.71 L144.46,-128.71 145.04,-128.38 M140.81,-113.85 L140.06,-112.64 138.03,-109.39 135.95,-110.59 134.48,-111.44 M138.03,-109.39 L138.48,-109.08 M161.58,-154.92 L165.13,-152.87 M138.23,-117.46 L141.15,-115.78 141.78,-115.41 147.19,-124.08 148.59,-126.33 M158.3,-141.91 L158.31,-141.93 158.35,-141.99 165.13,-152.87 M158.3,-141.91 L158.3,-141.91 M148.59,-126.33 L148.59,-126.33 M153.45,-141.26 L153.67,-141.03 M149.38,-130.44 L149.25,-130.4 M147.18,-130.62 L146.92,-130.74 M154.82,-140.47 L155.04,-140.24 M148.55,-129.83 L148.29,-129.95 M156.18,-139.68 L156.19,-139.68 M141.33,-111.97 L142.07,-113.15 M143.21,-114.29 L143.15,-114.52 142.99,-114.63 M143.71,-115.78 L143.33,-116 142.45,-116.51 M143.71,-115.78 L143.14,-114.87 142.99,-114.63 M143.71,-115.78 L144.19,-115.68 M141.73,-115.36 L142.56,-114.88 142.99,-114.63 M141.22,-123.81 L141.8,-124.74 M155.51,-149.5 L156.76,-148.78 156.78,-148.77 M140.53,-125.47 L140.55,-125.46 141.8,-124.74 142.56,-124.41 M157.37,-148.16 L156.78,-148.77 M155.58,-150.27 C151.05,-152.98 143.85,-149.53 139.51,-142.57 135.17,-135.61 135.33,-127.77 139.87,-125.05 139.87,-125.05 139.87,-125.05 139.87,-125.05 M145.14,-133.42 L145.76,-133.16 M150.41,-141.83 L150.39,-141.85 M140.98,-126.83 L142.95,-125.99 143.54,-125.98 M156.23,-146.34 L155.99,-146.9 154.47,-148.49 M140.71,-127.11 L141.87,-126.62 143.91,-126.57 M155.75,-145.56 L154.9,-147.53 153.65,-148.84 M126.49,-150.76 L127.57,-152.2 129.04,-153.57 130.62,-154.53 132.2,-155 133.67,-154.97 134.49,-154.62 M117.16,-149.7 C117.16,-149.7 117.47,-150.8 117.67,-151.33 118.13,-152.57 118.81,-153.73 119.48,-154.88 120.8,-157.13 122.6,-158.97 124.6,-160.6 M135.64,-162.22 C132.37,-164.18 128.23,-163.57 124.6,-160.6 M128.48,-159.37 L129.77,-159.77 129.99,-159.76 M121.03,-147.48 L121.77,-149.88 123.13,-152.54 124.9,-154.9 125.06,-155.05 M109.28,-118.31 L108.92,-117.73 107.4,-115.29 M109.28,-118.31 L112.13,-116.33 M109.28,-118.31 C112.81,-116.28 116.35,-114.24 119.88,-112.21 123.45,-110.15 127.03,-108.09 130.6,-106.04 M142.53,-113.07 L142.41,-113.17 M139.9,-167.43 L151.12,-160.97 M143.23,-112.67 L143.11,-112.76 M143.94,-112.27 L143.82,-112.35 M140.01,-114.32 L140.15,-114.35 140.29,-114.39 M142.75,-114.46 L142.73,-114.53 142.67,-114.73 M141.7,-113.57 L141.57,-113.54 141.42,-113.51 M141.7,-113.57 L141.86,-113.48 142.05,-113.37 M141.7,-113.57 L141.83,-113.48 M142.05,-114.87 L142.03,-114.93 141.97,-115.13 M140.99,-113.98 L140.86,-113.95 140.72,-113.92 M140.99,-113.98 L141.15,-113.89 141.35,-113.78 M140.99,-113.98 L141.13,-113.88 M141.34,-115.27 L141.33,-115.34 141.27,-115.54 M144.16,-111.93 L144.25,-112.08 144.42,-112.36 144.6,-112.64 144.79,-112.95 144.9,-113.13 144.94,-113.2 M140.43,-114.29 L140.29,-114.39 M144.11,-103.34 L142.11,-104.63 140.63,-106.65 M144.79,-113.51 L144.84,-113.33 144.86,-113.24 M140.29,-114.39 L140.44,-114.3 140.64,-114.18 M143.54,-112.29 L143.7,-112.32 143.82,-112.35 M135.11,-108.02 L135.41,-107.95 135.75,-108.11 136.05,-108.44 136.22,-108.87 136.22,-109.26 136.05,-109.53 M144.08,-113.92 L144.14,-113.73 144.16,-113.65 M144.17,-112.15 L144,-112.25 143.82,-112.35 M143.47,-112.56 L143.28,-112.66 143.11,-112.76 142.99,-112.73 142.83,-112.7 M143.45,-114.05 L143.44,-114.13 143.38,-114.32 M142.41,-113.17 L142.28,-113.14 142.13,-113.1 M142.41,-113.17 L142.57,-113.07 142.76,-112.96 M133.44,-104.06 L130.6,-106.04 M119.19,-107.09 L107.4,-115.29 M134.69,-117.31 L138.71,-115 140.11,-114.19 M135.65,-118.84 L137.05,-118.03 141.06,-115.72 M130.17,-130.54 L140.12,-124.81 M141.06,-115.72 L140.7,-115.14 140.63,-115.04 140.6,-114.99 140.58,-114.96 140.56,-114.93 140.54,-114.88 140.47,-114.77 140.11,-114.19 M141.06,-115.72 L141.12,-115.71 M140.11,-114.19 L140.11,-114.19 M139.23,-124.44 L129.12,-130.26 M124.62,-132.85 L122.23,-133.87 124.84,-132.37 M128.48,-130.27 L138.86,-124.3 139.07,-124.18 M122.23,-133.87 L122.24,-133.88 122.42,-134.17 M139.48,-124.83 L141.54,-123.65 141.57,-123.63 M136.36,-161.76 C136.46,-161.71 136.55,-161.66 136.64,-161.61 143.65,-157.57 150.68,-153.52 157.68,-149.49 M136.36,-161.76 L136.05,-161.27 M136.36,-161.76 L137.29,-160.8 M104.44,-116.99 L105.92,-116.14 107.4,-115.29 M141.57,-123.63 C137.91,-117.77 134.26,-111.9 130.6,-106.04 M141.57,-123.63 L141.97,-123.46 M157.99,-149.17 L157.68,-149.49 M161.22,-155.15 L157.72,-149.54 157.68,-149.49 M133.88,-164.48 L133.3,-163.55 M109.38,-125.18 L108.6,-123.92 107.96,-122.89 107.76,-122.58 107.53,-122.2 107.34,-121.91 107.12,-121.55 106.9,-121.2 106.67,-120.83 106.48,-120.52 106.29,-120.22 105.55,-119.03 104.67,-117.62 M104.79,-117.54 L104.67,-117.62 M120.22,-107.51 L119.63,-110.47 M117.95,-111.44 L119.63,-110.47 120.38,-111.58 M73.541,-106.22 C73.541,-106.22 73.006,-106.18 72.754,-106.25 71.821,-106.52 70.871,-106.83 70.051,-107.35 69.101,-107.95 68.148,-108.57 67.347,-109.36 65.476,-111.2 63.853,-113.19 62.666,-115.55 61.485,-117.9 60.371,-120.54 59.962,-123.16 59.772,-124.39 59.564,-125.63 59.606,-126.86 59.644,-127.97 59.661,-129.1 59.962,-130.16 60.222,-131.07 60.511,-132 61.006,-132.81 61.038,-132.87 61.088,-132.9 61.129,-132.95 M53.397,-135.95 L53.87,-136.71 54.063,-137.02 M53.397,-135.95 L53.097,-136.12 52.213,-136.63 M84.329,-92.63 L84.331,-92.631 M85.372,-117.54 L86.073,-117.14 86.556,-116.86 M87.591,-189.44 L86.009,-190.35 85.186,-190.82 M94.003,-132.76 L93.819,-132.46 93.742,-132.34 93.181,-131.44 92.915,-131.01 92.544,-130.42 92.151,-129.79 92.004,-129.55 91.905,-129.39 91.766,-129.17 M94.003,-132.76 L94.826,-132.29 96.408,-131.38 M94.003,-132.76 L94.127,-132.6 94.254,-131.93 94.127,-131.14 93.766,-130.35 93.226,-129.69 92.588,-129.26 91.951,-129.11 91.766,-129.17 M118.31,-171.75 L118.18,-171.54 118.12,-171.46 117.66,-170.72 117.49,-170.43 117.22,-170.01 116.85,-169.41 116.46,-168.78 116.31,-168.54 116.07,-168.16 M118.31,-171.75 L119.13,-171.28 120.71,-170.37 M118.31,-171.75 L118.43,-171.6 118.56,-170.92 118.43,-170.13 118.07,-169.35 117.53,-168.69 116.89,-168.25 116.26,-168.11 116.07,-168.16 M82.542,-184.98 L82.823,-184.81 M82.542,-184.98 L81.807,-185.4 M82.542,-184.98 L82.823,-184.81 M97.55,-133.21 L96.512,-131.54 96.491,-131.51 96.408,-131.38 M117.33,-164.95 L116.26,-165.57 115.53,-165.99 114.92,-166.34 114.08,-166.82 113,-167.45 111.71,-168.19 M117.33,-164.95 L122.11,-161.63 M117.33,-164.95 L117.4,-165.06 118.42,-166.69 118.42,-166.69 118.48,-166.78 M86.145,-182.9 C94.666,-178 103.19,-173.09 111.71,-168.19 M145.11,-201.63 L144.85,-200.93 144.24,-200.29 143.33,-199.75 133.95,-195.48 M108.23,-210.29 C101.67,-203.63 97.575,-195.06 97.319,-187.47 M86.556,-116.86 L86.556,-87.707 M86.556,-116.86 L88.456,-119.91 89.333,-121.32 89.742,-121.97 90.553,-123.27 M118.31,-178.13 L119,-179.23 120.1,-181 123.07,-185.77 M123.64,-175.06 L121.78,-172.08 120.71,-170.37 M84.785,-126.93 L84.632,-126.68 M90.824,-123.44 L91.313,-123.2 91.871,-122.92 M91.313,-123.2 L93.101,-126.07 94.17,-127.79 M126.63,-183.73 L130.63,-190.15 133.95,-195.48 M54.063,-137.02 L55.16,-136.39 57.544,-135.01 58.497,-134.47 58.775,-134.31 59.149,-134.09 59.503,-133.89 60.922,-133.07 60.95,-133.05 61.129,-132.95 M86.038,-118.61 L83.274,-120.2 82.557,-120.61 81.604,-121.16 81.326,-121.32 80.952,-121.54 80.598,-121.74 80.325,-121.9 79.151,-122.57 79.127,-122.59 78.972,-122.68 M96.408,-131.38 L96.531,-131.22 96.658,-130.54 96.531,-129.75 96.17,-128.97 95.63,-128.31 94.993,-127.87 94.355,-127.73 94.17,-127.79 M77.721,-118.89 L75.132,-120.38 79.656,-127.64 M75.132,-120.38 L74.223,-119.97 M120.71,-170.37 L120.84,-170.21 120.96,-169.54 120.84,-168.75 120.48,-167.96 119.94,-167.3 119.3,-166.87 118.66,-166.72 118.48,-166.78 M96.548,-97.708 C96.548,-97.708 97.029,-97.639 97.27,-97.637 97.734,-97.633 98.202,-97.629 98.662,-97.688 99.584,-97.807 100.29,-97.947 101.14,-98.323 104.24,-99.702 107.79,-100.39 110.42,-102.54 112.17,-103.98 113.07,-106.23 114.4,-108.07 M104,-117.12 L103.98,-115.61 104.27,-114.27 104.84,-113.17 105.66,-112.37 M104,-117.12 L95.045,-123.34 M104,-117.12 L105.45,-116.29 M112.17,-108.62 L111.35,-109.42 110.78,-110.52 110.5,-111.86 110.51,-112.78 M95.714,-123.65 L104.7,-117.41 M137.91,-164.23 L136.78,-164.25 135.57,-163.95 135.03,-163.68 M95.903,-102.65 L103.9,-106.29 107.51,-111.3 M96.548,-101.61 L96.708,-101.66 97.741,-101.73 98.751,-101.6 99.583,-101.28 100.11,-100.82 100.25,-100.29 M76.712,-116.4 L75.968,-117.23 M64.918,-135.68 L61.129,-132.95 M129.01,-204.32 C129.01,-204.32 128.23,-205.7 127.69,-206.27 127.02,-206.98 126.18,-207.53 125.34,-208.04 M125.34,-208.04 C123.72,-209.03 121.14,-209.9 118.41,-210.38 M118.41,-210.38 C115,-210.97 111.61,-210.89 108.23,-210.29 M77.766,-119.02 L78.381,-118.66 M78.44,-118.63 L78.688,-118.49 80.103,-117.67 84.039,-115.4 M52.065,-133.81 L56.002,-131.55 57.417,-130.73 57.665,-130.59 57.723,-130.55 58.338,-130.2 60.825,-132.73 61.129,-132.95 M58.338,-130.2 C57.334,-127.64 57.549,-124.92 57.964,-122.26 58.169,-120.94 58.594,-119.66 59.007,-118.4 59.432,-117.1 60.667,-114.64 60.667,-114.64 60.667,-114.64 62.051,-112.34 62.83,-111.25 63.559,-110.23 64.455,-109.33 65.349,-108.45 66.149,-107.67 67.103,-107.04 68.052,-106.44 68.873,-105.92 69.822,-105.61 70.755,-105.34 71.372,-105.16 72.681,-105.26 72.681,-105.26 M82.999,-92.025 C83.796,-92.692 84.036,-93.67 84.039,-94.675 84.061,-101.58 84.039,-108.5 84.039,-115.4 M133.95,-195.48 L134.58,-196.49 135.95,-198.69 M108.23,-210.29 L109,-211.08 110.12,-212.21 110.69,-212.63 111.16,-212.96 110.56,-213.31 110.47,-213.36 110.39,-213.41 108.92,-214.25 108.72,-214.37 107.83,-214.88 106.79,-215.48 103.98,-217.1 M111.16,-212.96 C114.87,-213.1 118.62,-213.05 122.17,-211.74 123.26,-211.34 124.36,-210.95 125.34,-210.34 126.17,-209.82 127.05,-209.3 127.69,-208.56 128.23,-207.95 128.82,-207.32 129.06,-206.54 129.16,-206.22 129.21,-205.54 129.21,-205.54 M129.27,-205.09 L129.28,-205.04 M135.95,-198.69 L133.14,-200.31 129.37,-202.48 128.77,-202.82 M135.95,-198.69 L143.33,-202.04 144.24,-202.58 144.85,-203.23 145.11,-203.93 M59.499,-109.74 C63.281,-104.44 68.398,-102.37 72.106,-104.63 M54.362,-125.23 C53.881,-120.77 55.843,-114.86 59.499,-109.74 M56.791,-129.25 L56.7,-129.16 56.399,-128.74 M56.791,-129.25 L56.8,-129.25 57.189,-129.02 M56.791,-129.25 L56.766,-129.19 56.699,-128.57 M56.433,-125.42 C56.433,-125.42 56.524,-123.09 56.766,-121.95 57.055,-120.61 57.352,-119.24 57.846,-117.96 58.353,-116.64 58.865,-115.3 59.564,-114.07 60.249,-112.87 60.936,-111.65 61.803,-110.56 62.55,-109.63 64.203,-107.9 64.203,-107.9 M77.625,-117.26 L77.251,-117.47 77.228,-117.49 M76.488,-115.07 L76.342,-115.15 76.118,-115.28 M72.323,-104.87 C72.323,-104.87 70.683,-104.74 69.911,-104.96 68.978,-105.23 68.029,-105.54 67.209,-106.06 66.26,-106.66 65.307,-107.29 64.507,-108.07 62.637,-109.91 61.014,-111.9 59.827,-114.26 58.648,-116.61 57.533,-119.25 57.125,-121.87 56.934,-123.09 56.726,-124.33 56.769,-125.57 56.807,-126.67 56.985,-127.77 57.125,-128.86 57.132,-128.92 57.168,-128.97 57.189,-129.02 M55.309,-126.52 L54.676,-125.66 54.362,-125.23 M55.686,-127.04 L56.684,-128.41 56.769,-128.53 M55.686,-127.04 L55.549,-127.12 55.317,-127.25 M55.686,-127.04 C55.171,-122.28 56.379,-117.92 58.521,-113.67 59.708,-111.31 61.33,-109.32 63.2,-107.48 64.765,-105.94 66.518,-104.97 68.604,-104.37 69.41,-104.14 70.286,-104.19 71.121,-104.27 71.503,-104.31 72.184,-104.71 72.184,-104.71 M57.189,-129.02 L57.29,-129.13 58.338,-130.2 M75.081,-113.3 L75.454,-113.09 80.709,-110.06 M62.908,-107.29 C62.908,-107.29 61.248,-109.03 60.498,-109.97 59.631,-111.05 58.944,-112.28 58.259,-113.48 57.561,-114.71 57.048,-116.04 56.542,-117.37 56.048,-118.65 55.75,-120.01 55.462,-121.36 55.219,-122.5 55.127,-124.84 55.127,-124.84 M55.242,-126.56 L55.317,-127.25 M48.734,-128.47 L53.989,-125.44 54.362,-125.23 M79.668,-90.51 C80.466,-91.178 80.705,-92.155 80.709,-93.16 80.731,-98.788 80.709,-104.43 80.709,-110.06 M54.939,-126.74 L55.151,-127.03 55.317,-127.25 M130.05,-206.94 L129.99,-207.71 M130.03,-206.81 L130.01,-206.82 129.92,-206.87 129.41,-207.16 129.32,-207.22 M113.12,-214.38 L113.46,-214.62 114.29,-215.22 114.71,-215.41 114.93,-215.5 M129.27,-205.95 C129.27,-205.95 129.21,-206.95 129.06,-207.42 128.82,-208.2 128.23,-208.83 127.69,-209.44 126.39,-210.94 123.92,-211.97 122.17,-212.62"/>
      <path stroke="#000" stroke-width="0.18" d="M122.17,-212.62 C119.52,-213.6 116.24,-214.03 112.44,-213.89 M115.8,-215.88 L116.55,-216.2 117.46,-216.6 M114.93,-215.5 C120.38,-214.96 128.39,-213.81 129.32,-207.22 M114.93,-215.5 L114.33,-215.85 114.22,-215.91 M129.25,-208.14 L129.18,-209.2 129.13,-209.88 M129.32,-207.22 L129.37,-206.55 M112.44,-213.89 L111.9,-213.5 111.16,-212.96 M112.44,-213.89 L112.16,-214.05 111.88,-214.22 M129.02,-204.35 L129.29,-204.19 129.58,-204.02 M145.11,-207.76 L144.85,-207.06 144.24,-206.41 143.33,-205.87 139.28,-204.03 M117.46,-216.6 L114.87,-218.09 114.46,-218.32 113.85,-218.67 112.97,-219.18 112.35,-219.53 111.85,-219.82 111.55,-220 111.14,-220.23 109.42,-221.22 108.85,-221.55 107.31,-222.44 M117.46,-216.6 L118.41,-216.5 122.17,-215.57 125.34,-214.17 127.69,-212.39 129.06,-210.37 129.13,-209.88 131.72,-208.39 132.13,-208.15 132.74,-207.8 133.62,-207.29 134.24,-206.94 134.74,-206.65 135.04,-206.47 135.45,-206.24 137.17,-205.25 137.74,-204.92 139.28,-204.03 M112.56,-214.71 L112.21,-214.46 111.88,-214.22 114.33,-214.31 118.62,-213.89 122.55,-212.91 125.36,-211.67 M130.04,-206.9 L129.92,-207.75 M125.36,-213.27 L122.55,-214.52 118.62,-215.49 114.33,-215.91 114.22,-215.91 114.24,-215.92 114.33,-215.99 114.94,-216.25 115.06,-216.3 M49.811,-113.56 L52.797,-111.76 54.209,-107.56 M52.797,-111.76 L54.986,-112.75 M56.398,-108.55 L54.209,-107.56 52.634,-105.17 M72.297,-100.61 L75.283,-98.823 76.71,-94.628 M75.283,-98.823 L77.472,-99.816 M78.898,-95.622 L76.71,-94.628 75.149,-92.217 M119.28,-224.1 L117.76,-221.96 M110.47,-223.35 L113.35,-221.58 M117.74,-219.43 L117.76,-221.96 113.35,-221.58 113.33,-219.06 M141.77,-211.16 L140.28,-209.01 M132.98,-210.39 L135.88,-208.62 M140.26,-206.49 L140.28,-209.01 135.88,-208.62 135.86,-206.1 M105.97,-134.95 L112.67,-130.19 M83.685,-142.18 L92.045,-136.38 M115.75,-135.13 L115.24,-134.86 114.27,-135.61 113.55,-133.75 113.21,-131.64 M115.24,-134.86 L114.75,-133.53 M113.21,-131.64 L107.04,-137.12 M21.047,-203.03 L23.951,-201.36 M31.52,-197 L33.969,-195.59 M131.87,-134.34 L132.01,-134.4 132.18,-134.55 132.32,-134.75 132.41,-134.97 132.44,-135.18 132.42,-135.31 M129.88,-131.17 L129.31,-132.04 129.12,-133.22 129.31,-134.59 129.88,-135.96 130.74,-137.19 131.8,-138.11 132.92,-138.62 133.98,-138.66 134.85,-138.22 M56.922,-182.42 L56.839,-182.47 55.911,-182.43 54.925,-181.98 53.997,-181.17 53.241,-180.1 52.748,-178.89 52.577,-177.7 52.748,-176.66 53.218,-175.94 M57.902,-182.52 L57.04,-182.96 55.981,-182.92 54.855,-182.41 53.796,-181.48 52.934,-180.26 52.37,-178.88 52.175,-177.52 52.37,-176.33 52.934,-175.46 M131.97,-134.13 L132.1,-134.06 132.27,-134.07 132.45,-134.15 132.62,-134.3 132.76,-134.49 132.85,-134.71 132.88,-134.93 132.85,-135.12 132.76,-135.26 M31.646,-197.1 L30.275,-196.48 M30.275,-196.39 L30.275,-196.48 22.749,-200.81 M127.2,-130.68 L126.47,-131.44 126.02,-132.5 125.86,-133.78 126.02,-135.21 126.47,-136.68 127.2,-138.09 128.14,-139.35 129.24,-140.37 130.42,-141.09 131.6,-141.45 132.7,-141.42 133.64,-141.02 M119.81,-137.03 L110.59,-142.34 110.55,-143.42 110.73,-144.59 111.13,-145.78 111.73,-146.92 112.48,-147.94 113.36,-148.8 114.3,-149.44 115.26,-149.83 M110.59,-142.34 L111.01,-142.61 119.79,-137.55 M111.01,-142.61 L110.97,-143.58 111.14,-144.62 111.49,-145.69 112.03,-146.71 112.7,-147.63 113.49,-148.4 114.33,-148.97 115.19,-149.32 115.26,-149.83 M115.19,-149.32 L123.92,-144.29 M115.26,-149.83 L124.48,-144.52 M128.69,-143.07 L127.85,-143.43 126.87,-143.45 125.82,-143.13 124.77,-142.49 123.79,-141.58 122.95,-140.46 122.3,-139.2 121.9,-137.89 121.76,-136.62 121.9,-135.47 122.3,-134.53 122.95,-133.86 M47.02,-189.15 L51.854,-186.37 M47.02,-189.15 L46.95,-188.64 M47.02,-189.15 L46.059,-188.76 45.115,-188.13 44.24,-187.27 43.484,-186.24 42.889,-185.1 42.489,-183.91 42.306,-182.74 42.351,-181.66 M46.95,-188.64 L51.29,-186.14 M46.95,-188.64 L46.09,-188.29 45.244,-187.72 44.46,-186.95 43.783,-186.03 43.25,-185.01 42.892,-183.95 42.728,-182.9 42.768,-181.93 M42.351,-181.66 L42.768,-181.93 M42.351,-181.66 L47.185,-178.88 M42.768,-181.93 L47.163,-179.4 M55.587,-185.19 L54.746,-185.54 53.768,-185.57 52.718,-185.25 51.667,-184.61 50.689,-183.7 49.848,-182.58 49.204,-181.32 48.798,-180.01 48.66,-178.74 48.798,-177.59 49.204,-176.65 49.848,-175.98 M68.211,-175.87 L68.736,-176.12 M61.559,-153.73 C71.763,-149.27 82.167,-145.19 92.315,-140.61 M69.574,-182.66 C82.647,-177.27 95.985,-172.42 109.06,-167.04 M59.925,-167.94 C60.09,-168.59 60.074,-170.01 60.711,-169.79 72.961,-165.72 85.439,-162.24 97.743,-158.33 M59.513,-165.82 C71.404,-161.97 83.523,-158.72 95.371,-154.75 96.103,-154.51 96.266,-156.05 96.471,-156.79 96.647,-157.43 97.497,-157.71 97.743,-158.33 M92.315,-140.61 L93.417,-141.09 M92.315,-140.61 L92.574,-138.75 93.239,-137.48 M101.02,-137.53 L101.59,-137.81 M101.37,-131.46 L101.78,-131.93 M112.06,-167.45 L110.61,-167.45 109.06,-167.04 109.87,-166.07 M97.743,-158.33 L98.961,-158.05 M93.417,-141.09 L97.524,-146.37 97.846,-148.17 M93.417,-141.09 L93.62,-139.29 M94.221,-138.04 L98.754,-139.51 100.07,-138.55 101.59,-137.81 101.78,-131.93 103.16,-131.88 104.63,-132.23 M120.28,-160.26 L115.75,-158.8 114.43,-159.75 112.92,-160.49 M112.72,-166.37 L111.34,-166.42 109.87,-166.07 106.81,-159.85 104.86,-158.76 103.01,-157.47 98.961,-158.05 97.721,-156.6 96.634,-154.67 98.385,-150 97.846,-148.17 M110.72,-152.63 L110.87,-152.03 M106.67,-144.53 L106.12,-144.36 M21.047,-203.03 L23.951,-201.36 M31.52,-197 L33.969,-195.59 M131.87,-134.34 L132.01,-134.4 132.18,-134.55 132.32,-134.75 132.41,-134.97 132.44,-135.18 132.42,-135.31 M129.88,-131.17 L129.31,-132.04 129.12,-133.22 129.31,-134.59 129.88,-135.96 130.74,-137.19 131.8,-138.11 132.92,-138.62 133.98,-138.66 134.85,-138.22 M56.922,-182.42 L56.839,-182.47 55.911,-182.43 54.925,-181.98 53.997,-181.17 53.241,-180.1 52.748,-178.89 52.577,-177.7 52.748,-176.66 53.218,-175.94 M57.902,-182.52 L57.04,-182.96 55.981,-182.92 54.855,-182.41 53.796,-181.48 52.934,-180.26 52.37,-178.88 52.175,-177.52 52.37,-176.33 52.934,-175.46 M131.97,-134.13 L132.1,-134.06 132.27,-134.07 132.45,-134.15 132.62,-134.3 132.76,-134.49 132.85,-134.71 132.88,-134.93 132.85,-135.12 132.76,-135.26 M39.786,-177.75 L38.346,-178.57 33.786,-181.2 M39.786,-177.75 L41.633,-180.71 M47.372,-189.91 L49.127,-192.73 M44.766,-190.13 L40.78,-192.42 M86.517,-192.96 L85.342,-191.07 85.289,-190.99 85.186,-190.82 M55.773,-146.99 L57.219,-146.16 57.313,-146.1 M61.845,-153.37 L60.985,-151.99 M60.964,-151.96 L60.881,-151.83 M81.807,-185.4 L81.713,-185.45 80.267,-186.29 M81.807,-185.4 L82.688,-184.79 M81.807,-185.4 L81.902,-185.55 82.845,-187.06 82.865,-187.1 82.949,-187.23 M57.313,-146.1 L57.42,-146.27 58.488,-147.99 58.541,-148.07 58.643,-148.24 M60.881,-151.83 L59.868,-152.41 59.341,-152.71 M60.881,-151.83 L61.004,-151.67 61.131,-151 61.004,-150.21 60.643,-149.42 60.103,-148.76 59.466,-148.32 58.828,-148.18 58.643,-148.24 M85.186,-190.82 L84.174,-191.4 83.647,-191.71 M85.186,-190.82 L85.31,-190.66 85.437,-189.99 85.31,-189.2 84.949,-188.41 84.409,-187.75 83.771,-187.32 83.134,-187.17 82.949,-187.23 M83.647,-191.71 L83.749,-191.87 83.803,-191.96 84.978,-193.84 M83.647,-191.71 L81.699,-192.83 80.686,-193.41 M83.647,-191.71 L83.77,-191.55 83.897,-190.88 83.77,-190.09 83.409,-189.3 82.869,-188.64 82.232,-188.2 81.594,-188.06 81.41,-188.12 M57.104,-149.12 L57.002,-148.96 56.948,-148.87 56.897,-148.79 56.741,-148.54 55.968,-147.3 55.938,-147.25 55.907,-147.2 55.88,-147.16 55.773,-146.99 M57.104,-149.12 L56.091,-149.71 54.143,-150.83 M57.104,-149.12 L57.289,-149.07 57.926,-149.21 58.563,-149.65 59.104,-150.31 59.465,-151.09 59.591,-151.88 59.465,-152.56 59.341,-152.71 M59.732,-210.38 C62.005,-208.92 65.436,-210.52 67.396,-213.95 69.201,-217.11 69.146,-220.78 67.269,-222.47 M61.279,-206.4 C64.558,-204.48 69.343,-206.78 71.967,-211.55 74.308,-215.81 74.17,-220.68 71.642,-223.03 M68.846,-224.56 C68.846,-224.56 69.56,-223.91 69.846,-223.52 70.213,-223.02 70.394,-222.41 70.578,-221.82 70.786,-221.16 70.801,-220.45 70.828,-219.75 M68.682,-212.82 C70.159,-215.35 70.905,-217.76 70.828,-219.75 M68.682,-212.82 C67.836,-211.38 66.682,-210.2 65.397,-209.15 64.825,-208.68 64.159,-208.33 63.5,-208 62.911,-207.7 62.251,-207.55 61.604,-207.42 61.027,-207.31 60.419,-207.38 59.836,-207.46 59.741,-207.47 59.569,-207.57 59.569,-207.57 M63.444,-159.29 L60.425,-154.45 60.06,-153.87 59.584,-153.1 59.341,-152.71 M59.607,-166.35 L37.838,-178.88 M59.341,-152.71 L57.394,-153.83 56.38,-154.42 M47.254,-193.99 C47.333,-193.94 47.412,-193.9 47.491,-193.85 54.596,-189.76 68.827,-181.57 68.827,-181.57 M77.854,-182.41 L81.41,-188.12 M82.597,-221.99 L67.053,-197.05 M82.597,-221.99 L82.005,-222.33 M82.597,-221.99 L74.603,-227.54 M82.005,-222.33 L66.491,-197.44 M82.005,-222.33 L74.011,-227.88 M58.332,-199.72 L56.461,-201.02 M59.516,-199.04 L57.646,-200.33 M78.449,-189.82 L80.396,-188.7 81.41,-188.12 M52.812,-148.69 L55.594,-147.09 55.773,-146.99 M33.136,-171.34 L33.823,-170.94 36.689,-169.3 M66.298,-233.29 L63.172,-235.02 M56.958,-155.34 C56.958,-155.34 43.686,-164.35 37.088,-168.88 36.931,-168.99 36.822,-169.16 36.689,-169.3 M66.411,-194.94 L68.278,-189.03 M62.371,-204.91 L67.198,-189.66 M53.455,-203.94 L49.099,-206.35 46.335,-208 M57.646,-200.33 L58.43,-201.59 59.059,-202.6 M57.646,-200.33 L57.039,-200.68 56.461,-201.02 M58.467,-202.94 L60.511,-206.22 60.687,-206.51 60.882,-206.82 M57.233,-145.97 L55.773,-146.99 M74.011,-227.88 L71.307,-223.54 71.125,-223.25 M74.011,-227.88 L74.316,-227.71 74.603,-227.54 75.269,-228.61 76.016,-229.81 M57.922,-208.52 L58.584,-209.59 59.335,-210.79 M68.164,-224.95 L67.233,-223.46 66.751,-222.69 M33.561,-180.39 L33.173,-180.75 M43.011,-196 L42.801,-196.19 M43.253,-196.92 L43.126,-196.71 42.801,-196.19 M33.625,-181.47 L33.29,-180.93 33.173,-180.75"/>
    </g>
  </g>
  <g id="AUTOID_002" vm2d:name="C3DCallouts" vm2d:type="layer">
    <a id="_9FA01D8690C847E186717565A078AAB2" vm2d:name="240" vm2d:type="grobject" xlink:href="#">
      <path d="M3.2693,626.6 L42.127,626.6 42.127,652.6 3.2693,652.6 Z" fill="#fff" fill-opacity="0"/>
      <g transform="matrix(4.72727,0,0,4.72727,0.136383,1404)">
        <text font-family="Arial" font-size="4.92" x="0.665922" y="-159.993" fill="#000">240</text>
      </g>
    </a>
    <g transform="matrix(4.72727,0,0,4.72727,0.136383,1404)" stroke-width="0.18" stroke-linecap="butt" stroke-linejoin="miter" stroke-miterlimit="10">
      <path stroke="#000" d="M8.8827,-161.7 L72.99,-163.24"/>
    </g>
    <a id="_B698FE7D2D4A4C10B19DB54009FE32B5" vm2d:name="250" vm2d:type="grobject" xlink:href="#">
      <path d="M544.76,1063.4 L583.61,1063.4 583.61,1089.4 544.76,1089.4 Z" fill="#fff" fill-opacity="0"/>
      <g transform="matrix(4.72727,0,0,4.72727,0.136383,1404)">
        <text font-family="Arial" font-size="4.92" x="115.211" y="-67.5933" fill="#000">250</text>
      </g>
    </a>
    <g transform="matrix(4.72727,0,0,4.72727,0.136383,1404)" stroke-width="0.18" stroke-linecap="butt" stroke-linejoin="miter" stroke-miterlimit="10">
      <path stroke="#000" d="M119.32,-72.05 L119.68,-139.6"/>
    </g>
    <a id="_02C5533C19054EAFB4AFFE72BE3D54F2" vm2d:name="260" vm2d:type="grobject" xlink:href="#">
      <path d="M3.2693,501.8 L42.127,501.8 42.127,527.8 3.2693,527.8 Z" fill="#fff" fill-opacity="0"/>
      <g transform="matrix(4.72727,0,0,4.72727,0.136383,1404)">
        <text font-family="Arial" font-size="4.92" x="0.665922" y="-186.393" fill="#000">260</text>
      </g>
    </a>
    <g transform="matrix(4.72727,0,0,4.72727,0.136383,1404)" stroke-width="0.18" stroke-linecap="butt" stroke-linejoin="miter" stroke-miterlimit="10">
      <path stroke="#000" d="M8.8827,-185.35 L42.928,-183.43"/>
    </g>
    <a id="_38FF3693E4014B6C8908177C63A9049B" vm2d:name="210" vm2d:type="grobject" xlink:href="#">
      <path d="M3.2693,470.6 L42.127,470.6 42.127,496.6 3.2693,496.6 Z" fill="#fff" fill-opacity="0"/>
      <g transform="matrix(4.72727,0,0,4.72727,0.136383,1404)">
        <text font-family="Arial" font-size="4.92" x="0.665922" y="-192.993" fill="#000">210</text>
      </g>
    </a>
    <g transform="matrix(4.72727,0,0,4.72727,0.136383,1404)" stroke-width="0.18" stroke-linecap="butt" stroke-linejoin="miter" stroke-miterlimit="10">
      <path stroke="#000" d="M8.8827,-194.7 L20.939,-196.29"/>
    </g>
    <a id="_DAEC2895B94F4964997AC156B89C8757" vm2d:name="220" vm2d:type="grobject" xlink:href="#">
      <path d="M3.2693,439.4 L42.127,439.4 42.127,465.4 3.2693,465.4 Z" fill="#fff" fill-opacity="0"/>
      <g transform="matrix(4.72727,0,0,4.72727,0.136383,1404)">
        <text font-family="Arial" font-size="4.92" x="0.665922" y="-199.593" fill="#000">220</text>
      </g>
    </a>
    <g transform="matrix(4.72727,0,0,4.72727,0.136383,1404)" stroke-width="0.18" stroke-linecap="butt" stroke-linejoin="miter" stroke-miterlimit="10">
      <path stroke="#000" d="M8.8827,-198.55 L30.256,-197.15"/>
    </g>
    <a id="_16CD8FB209304DE799A7663F425ECA47" vm2d:name="270" vm2d:type="grobject" xlink:href="#">
      <path d="M589.88,1063.4 L628.74,1063.4 628.74,1089.4 589.88,1089.4 Z" fill="#fff" fill-opacity="0"/>
      <g transform="matrix(4.72727,0,0,4.72727,0.136383,1404)">
        <text font-family="Arial" font-size="4.92" x="124.757" y="-67.5933" fill="#000">270</text>
      </g>
    </a>
    <g transform="matrix(4.72727,0,0,4.72727,0.136383,1404)" stroke-width="0.18" stroke-linecap="butt" stroke-linejoin="miter" stroke-miterlimit="10">
      <path stroke="#000" d="M128.86,-72.05 L126.56,-132.91"/>
    </g>
  </g>
</svg>
