<?xml version="1.0" encoding="utf-8"?>
<!-- Generator: Adobe Illustrator 26.2.1, SVG Export Plug-In . SVG Version: 6.00 Build 0)  -->
<svg version="1.1" id="Layer_1" xmlns="http://www.w3.org/2000/svg" xmlns:xlink="http://www.w3.org/1999/xlink" x="0px" y="0px"
	 viewBox="0 0 62.1 53.9" style="enable-background:new 0 0 62.1 53.9;" xml:space="preserve">
<style type="text/css">
	.st0{fill:#F0E518;}
	.st1{fill:#1D1D1B;}
	.st2{fill:#FFFFFF;stroke:#1D1D1B;stroke-width:3;stroke-linejoin:round;stroke-miterlimit:10;}
	.st3{fill:#FFFFFF;stroke:#1D1D1B;stroke-width:3;stroke-miterlimit:10;}
</style>
<path class="st0" d="M4.7,50.2c-0.6,0-1-0.5-0.9-1.1c0-0.1,0-0.3,0.1-0.4L30.2,4.2c0.3-0.5,0.9-0.6,1.4-0.3c0.1,0.1,0.2,0.2,0.3,0.3
	l26.4,44.6c0.2,0.3,0.2,0.7,0,1s-0.5,0.5-0.8,0.5L4.7,50.2z"/>
<path class="st1" d="M61.5,46.8L35.1,2.3c-1.3-2.2-4.2-2.9-6.4-1.6c-0.7,0.4-1.2,1-1.6,1.6L0.7,46.8c-1.3,2.2-0.6,5.1,1.7,6.4
	c0.7,0.4,1.5,0.6,2.3,0.6h52.8c2.6,0,4.6-2.1,4.6-4.7C62.1,48.3,61.9,47.5,61.5,46.8z M58.3,49.7c-0.2,0.3-0.5,0.5-0.8,0.5H4.7
	c-0.6,0-1-0.5-0.9-1.1c0-0.1,0-0.3,0.1-0.4L30.2,4.2c0.3-0.5,0.9-0.6,1.4-0.3c0.1,0.1,0.2,0.2,0.3,0.3l26.4,44.6
	C58.5,49,58.5,49.4,58.3,49.7z"/>
<rect x="27.2" y="16.8" class="st2" width="7.6" height="17.8"/>
<circle class="st3" cx="31.1" cy="42.2" r="4.2"/>
</svg>
