<?xml version="1.0" standalone="no"?>
<!DOCTYPE svg PUBLIC "-//W3C//DTD SVG 20010904//EN"
 "http://www.w3.org/TR/2001/REC-SVG-20010904/DTD/svg10.dtd">
<svg version="1.0" xmlns="http://www.w3.org/2000/svg"
 width="225.000000pt" height="225.000000pt" viewBox="0 0 225.000000 225.000000"
 preserveAspectRatio="xMidYMid meet">

<g transform="translate(0.000000,225.000000) scale(0.100000,-0.100000)"
fill="#000000" stroke="none">
<path d="M1011 2139 c-395 -48 -720 -309 -849 -679 -231 -665 264 -1358 968
-1353 277 2 522 104 716 297 193 194 295 439 297 716 3 380 -198 719 -535 904
-168 93 -407 139 -597 115z m316 -431 c31 -31 37 -45 40 -90 5 -69 -20 -112
-84 -140 -137 -61 -278 77 -203 200 33 54 75 74 148 70 57 -4 66 -8 99 -40z
m-134 -407 c21 -13 44 -40 58 -67 29 -61 23 -124 -31 -309 -45 -154 -59 -250
-42 -282 15 -27 70 -37 123 -23 22 6 43 9 46 6 3 -2 2 -18 -2 -35 -6 -27 -15
-33 -93 -61 -76 -28 -96 -31 -163 -28 -92 5 -140 31 -171 91 -29 57 -20 130
37 331 44 157 54 230 35 265 -14 27 -68 34 -124 17 l-48 -15 7 37 c4 20 8 38
9 39 1 1 42 16 91 33 110 38 208 38 268 1z"/>
</g>
</svg>
