<?xml version="1.0" encoding="utf-8"?>
<!-- Generator: Adobe Illustrator 26.2.1, SVG Export Plug-In . SVG Version: 6.00 Build 0)  -->
<svg version="1.1" id="Layer_1" xmlns="http://www.w3.org/2000/svg" xmlns:xlink="http://www.w3.org/1999/xlink" x="0px" y="0px"
	 viewBox="0 0 53.8 53.8" style="enable-background:new 0 0 53.8 53.8;" xml:space="preserve">
<style type="text/css">
	.st0{fill:#204C9A;}
	.st1{fill:#1D1D1B;}
	.st2{fill:#FFFFFF;stroke:#1D1D1B;stroke-width:3;stroke-linejoin:round;stroke-miterlimit:10;}
</style>
<g id="Layer_2_00000168812747448385648320000016394173876017690240_">
	<g id="Layer_1-2">
		<circle class="st0" cx="26.9" cy="26.9" r="23.2"/>
		<path class="st1" d="M26.9,0C12,0,0,12,0,26.9s12,26.9,26.9,26.9s26.9-12,26.9-26.9l0,0C53.8,12,41.7,0,26.9,0
			C26.9,0,26.9,0,26.9,0z M26.9,50.1c-12.8,0-23.2-10.4-23.2-23.2C3.7,14.1,14,3.7,26.9,3.7c12.8,0,23.2,10.4,23.2,23.2c0,0,0,0,0,0
			C50.1,39.7,39.7,50.1,26.9,50.1z"/>
		<rect x="23.1" y="23.9" class="st2" width="7.6" height="17.8"/>
		<circle class="st2" cx="26.9" cy="16.3" r="4.2"/>
	</g>
</g>
</svg>
