<?xml version="1.0" encoding="utf-8"?>
<!-- Generator: Adobe Illustrator 25.4.1, SVG Export Plug-In . SVG Version: 6.00 Build 0)  -->
<svg version="1.1" id="Layer_1" xmlns="http://www.w3.org/2000/svg" xmlns:xlink="http://www.w3.org/1999/xlink" x="0px" y="0px"
	 viewBox="0 0 389.3 247.93" style="enable-background:new 0 0 389.3 247.93;" xml:space="preserve">
<style type="text/css">
	.st0{fill:#00152C;}
	.st1{fill:#B61615;}
</style>
<g>
	<g>
		<path class="st0" d="M84.27,176.89H72.41l-1.66,3.66c-0.17,0.37-0.4,0.54-0.86,0.54h-2.51c-0.34,0-0.49-0.26-0.31-0.6l8.8-18.86
			c0.17-0.37,0.4-0.54,0.86-0.54h3.37c0.46,0,0.69,0.17,0.86,0.54l8.8,18.86c0.17,0.34,0.03,0.6-0.31,0.6h-2.66
			c-0.49,0-0.69-0.17-0.86-0.54L84.27,176.89z M73.75,173.92h9.14l-4.57-10.06L73.75,173.92z"/>
		<path class="st0" d="M99.67,175.72c0,1.97,0.49,2.4,2.86,2.4h6.8c2.37,0,2.86-0.43,2.86-2.4v-14.03c0-0.4,0.23-0.6,0.6-0.6h2.37
			c0.37,0,0.63,0.2,0.63,0.6v14.83c0,3.11-1.54,4.57-4.77,4.57H100.9c-3.26,0-4.8-1.46-4.8-4.57v-14.83c0-0.4,0.2-0.6,0.6-0.6h2.34
			c0.4,0,0.63,0.2,0.63,0.6V175.72z"/>
		<path class="st0" d="M130.41,164.06h-7.29c-0.4,0-0.63-0.23-0.63-0.6v-1.77c0-0.4,0.23-0.6,0.63-0.6h18.18
			c0.4,0,0.63,0.2,0.63,0.6v1.77c0,0.37-0.23,0.6-0.63,0.6h-7.29v16.43c0,0.4-0.23,0.6-0.63,0.6h-2.34c-0.4,0-0.63-0.2-0.63-0.6
			V164.06z"/>
		<path class="st0" d="M168.93,176.52c0,3.11-1.51,4.57-4.77,4.57h-10.83c-3.23,0-4.8-1.46-4.8-4.57v-10.86
			c0-3.09,1.57-4.57,4.8-4.57h10.83c3.26,0,4.77,1.49,4.77,4.57V176.52z M165.33,166.46c0-1.97-0.49-2.4-2.86-2.4h-7.49
			c-2.37,0-2.89,0.43-2.89,2.4v9.26c0,1.97,0.51,2.4,2.89,2.4h7.49c2.37,0,2.86-0.43,2.86-2.4V166.46z"/>
		<path class="st0" d="M182.41,161.09c0.49,0,0.71,0.17,0.86,0.54l6.74,16.15l6.77-16.15c0.14-0.37,0.37-0.54,0.86-0.54h4.54
			c0.4,0,0.6,0.2,0.6,0.6v18.8c0,0.4-0.2,0.6-0.6,0.6h-2.34c-0.4,0-0.63-0.2-0.63-0.6v-16.43l-7.03,16.49
			c-0.14,0.37-0.37,0.54-0.86,0.54h-2.74c-0.51,0-0.71-0.17-0.86-0.54l-7.06-16.52v16.46c0,0.4-0.23,0.6-0.63,0.6h-2.14
			c-0.4,0-0.6-0.2-0.6-0.6v-18.8c0-0.4,0.2-0.6,0.6-0.6H182.41z"/>
		<path class="st0" d="M231.59,176.52c0,3.11-1.51,4.57-4.77,4.57h-10.83c-3.23,0-4.8-1.46-4.8-4.57v-10.86
			c0-3.09,1.57-4.57,4.8-4.57h10.83c3.26,0,4.77,1.49,4.77,4.57V176.52z M227.99,166.46c0-1.97-0.49-2.4-2.86-2.4h-7.49
			c-2.37,0-2.89,0.43-2.89,2.4v9.26c0,1.97,0.51,2.4,2.89,2.4h7.49c2.37,0,2.86-0.43,2.86-2.4V166.46z"/>
		<path class="st0" d="M246.1,164.06h-7.29c-0.4,0-0.63-0.23-0.63-0.6v-1.77c0-0.4,0.23-0.6,0.63-0.6h18.18c0.4,0,0.63,0.2,0.63,0.6
			v1.77c0,0.37-0.23,0.6-0.63,0.6h-7.29v16.43c0,0.4-0.23,0.6-0.63,0.6h-2.34c-0.4,0-0.63-0.2-0.63-0.6V164.06z"/>
		<path class="st0" d="M268.1,180.5c0,0.4-0.23,0.6-0.63,0.6h-2.34c-0.4,0-0.6-0.2-0.6-0.6v-18.8c0-0.4,0.2-0.6,0.6-0.6h2.34
			c0.4,0,0.63,0.2,0.63,0.6V180.5z"/>
		<path class="st0" d="M283.99,181.1c-0.49,0-0.69-0.17-0.86-0.54l-8.29-18.86c-0.14-0.34-0.03-0.6,0.31-0.6h2.66
			c0.49,0,0.71,0.17,0.86,0.54l7.06,16.55l7.09-16.55c0.14-0.37,0.37-0.54,0.86-0.54h2.51c0.34,0,0.49,0.26,0.34,0.6l-8.34,18.86
			c-0.14,0.37-0.34,0.54-0.86,0.54H283.99z"/>
		<path class="st0" d="M321.5,161.09c0.37,0,0.6,0.2,0.6,0.6v1.77c0,0.37-0.23,0.6-0.6,0.6h-14.66v5.43h12.4
			c0.37,0,0.63,0.2,0.63,0.6v1.8c0,0.37-0.26,0.57-0.63,0.57h-12.4v5.66h14.66c0.37,0,0.6,0.23,0.6,0.6v1.77c0,0.4-0.23,0.6-0.6,0.6
			h-17.63c-0.4,0-0.6-0.2-0.6-0.6v-18.8c0-0.4,0.2-0.6,0.6-0.6H321.5z"/>
	</g>
	<path class="st0" d="M151.21,68.33h43.29V81.5h-29.29v11.9h27.54v12.99h-27.54v12.99h30.77l0.01,13.06h-44.77L151.21,68.33z
		 M321.98,73.5c-5.38-4.79-12.29-6.67-19.46-6.67c-12.47,0-24.22,7.13-24.22,20.74c0,21.29,29.78,14.98,29.78,26.7
		c0,4.51-5.11,6.68-9.68,6.68c-4.66,0-9.33-2.26-12.21-6.05l-9.96,11.01c6.01,5.59,13.19,8.03,21.35,8.03
		c13.1,0,24.49-6.76,24.49-21.02c0-22.37-29.25-14.88-29.25-26.52c0-4.78,5.47-6.59,9.42-6.59c3.41,0,7.9,1.35,10.14,4.24
		L321.98,73.5z M208.64,101.94c0,15.19,6.78,26.62,17.46,31.25c-14.26-4.24-22.9-16.75-22.9-32.78c0-16.08,8.69-28.62,23.02-32.82
		C214.92,72.58,208.64,85.43,208.64,101.94 M249.43,67.95c13.63,4.53,21.86,16.82,21.86,32.46c0,15.81-8.42,28.21-22.33,32.6
		c11-5.14,16.76-17.92,16.76-33.89C265.72,84.05,259.48,72.8,249.43,67.95 M257.44,105.79c-0.9,16.77-6.21,28.01-20.09,28.01
		c-14.32,0-19.75-11.14-20.48-28.73c1.99,9.28,9.95,15.11,20.37,15.11C247.4,120.19,255.2,114.65,257.44,105.79 M237.35,66.97
		c14.26,0,19.35,11.03,20.12,28.2c-2.19-8.94-10.03-14.54-20.23-14.54c-10.38,0-18.3,5.78-20.34,14.99
		C217.75,78.54,223.22,66.97,237.35,66.97 M106.45,132.44v-1.75h-7.63V70.62l33.8,61.82h2.92V70.16h3.02v-1.84h-13.09v1.84h7.91
		v50.41l-29.18-52.26H91.95v1.84h4.71v60.53h-4.71v1.75H106.45z M66.95,68.33v1.83h4.8v60.54h-4.8v1.75h15.96v-1.75h-4.85V70.16
		h4.85v-1.83H66.95z"/>
	<path class="st1" d="M67.17,148.09h253.98c0.73,0,1.32-0.59,1.32-1.32l0,0c0-0.73-0.59-1.32-1.32-1.32H67.17
		c-0.73,0-1.32,0.59-1.32,1.32l0,0C65.85,147.49,66.44,148.09,67.17,148.09z"/>
</g>
</svg>
